G04 #@! TF.GenerationSoftware,KiCad,Pcbnew,(5.0.2)-1*
G04 #@! TF.CreationDate,2020-02-17T18:51:26+05:30*
G04 #@! TF.ProjectId,mosfet driver,6d6f7366-6574-4206-9472-697665722e6b,rev?*
G04 #@! TF.SameCoordinates,Original*
G04 #@! TF.FileFunction,Copper,L1,Top*
G04 #@! TF.FilePolarity,Positive*
%FSLAX46Y46*%
G04 Gerber Fmt 4.6, Leading zero omitted, Abs format (unit mm)*
G04 Created by KiCad (PCBNEW (5.0.2)-1) date 02/17/20 18:51:26*
%MOMM*%
%LPD*%
G01*
G04 APERTURE LIST*
G04 #@! TA.AperFunction,ComponentPad*
%ADD10O,1.600000X1.600000*%
G04 #@! TD*
G04 #@! TA.AperFunction,ComponentPad*
%ADD11R,1.600000X1.600000*%
G04 #@! TD*
G04 #@! TA.AperFunction,ComponentPad*
%ADD12C,1.800000*%
G04 #@! TD*
G04 #@! TA.AperFunction,ComponentPad*
%ADD13R,1.800000X1.800000*%
G04 #@! TD*
G04 #@! TA.AperFunction,ComponentPad*
%ADD14O,1.400000X1.400000*%
G04 #@! TD*
G04 #@! TA.AperFunction,ComponentPad*
%ADD15C,1.400000*%
G04 #@! TD*
G04 #@! TA.AperFunction,ComponentPad*
%ADD16O,4.100000X3.160000*%
G04 #@! TD*
G04 #@! TA.AperFunction,Conductor*
%ADD17C,0.100000*%
G04 #@! TD*
G04 #@! TA.AperFunction,ComponentPad*
%ADD18C,3.160000*%
G04 #@! TD*
G04 #@! TA.AperFunction,ComponentPad*
%ADD19O,3.160000X4.100000*%
G04 #@! TD*
G04 #@! TA.AperFunction,ComponentPad*
%ADD20O,1.800000X1.800000*%
G04 #@! TD*
G04 #@! TA.AperFunction,ComponentPad*
%ADD21C,1.600000*%
G04 #@! TD*
G04 #@! TA.AperFunction,ComponentPad*
%ADD22R,1.905000X2.000000*%
G04 #@! TD*
G04 #@! TA.AperFunction,ComponentPad*
%ADD23O,1.905000X2.000000*%
G04 #@! TD*
G04 #@! TA.AperFunction,ComponentPad*
%ADD24C,4.000000*%
G04 #@! TD*
G04 #@! TA.AperFunction,ComponentPad*
%ADD25C,0.800000*%
G04 #@! TD*
G04 #@! TA.AperFunction,ComponentPad*
%ADD26C,6.400000*%
G04 #@! TD*
G04 #@! TA.AperFunction,SMDPad,CuDef*
%ADD27C,0.950000*%
G04 #@! TD*
G04 #@! TA.AperFunction,ComponentPad*
%ADD28O,1.600000X2.400000*%
G04 #@! TD*
G04 #@! TA.AperFunction,ComponentPad*
%ADD29R,1.600000X2.400000*%
G04 #@! TD*
G04 #@! TA.AperFunction,ComponentPad*
%ADD30O,1.700000X1.700000*%
G04 #@! TD*
G04 #@! TA.AperFunction,ComponentPad*
%ADD31R,1.700000X1.700000*%
G04 #@! TD*
G04 #@! TA.AperFunction,ViaPad*
%ADD32C,0.800000*%
G04 #@! TD*
G04 #@! TA.AperFunction,ViaPad*
%ADD33C,0.400000*%
G04 #@! TD*
G04 #@! TA.AperFunction,ViaPad*
%ADD34C,0.350000*%
G04 #@! TD*
G04 #@! TA.AperFunction,Conductor*
%ADD35C,0.500000*%
G04 #@! TD*
G04 #@! TA.AperFunction,Conductor*
%ADD36C,1.600000*%
G04 #@! TD*
G04 #@! TA.AperFunction,Conductor*
%ADD37C,1.500000*%
G04 #@! TD*
G04 #@! TA.AperFunction,Conductor*
%ADD38C,2.000000*%
G04 #@! TD*
G04 #@! TA.AperFunction,Conductor*
%ADD39C,0.250000*%
G04 #@! TD*
G04 #@! TA.AperFunction,Conductor*
%ADD40C,0.254000*%
G04 #@! TD*
G04 APERTURE END LIST*
D10*
G04 #@! TO.P,SW1,2*
G04 #@! TO.N,Net-(R11-Pad1)*
X47561500Y-139001500D03*
D11*
G04 #@! TO.P,SW1,1*
G04 #@! TO.N,Net-(J4-Pad2)*
X47561500Y-131381500D03*
G04 #@! TD*
D12*
G04 #@! TO.P,D6,2*
G04 #@! TO.N,Net-(D6-Pad2)*
X47307500Y-163893500D03*
D13*
G04 #@! TO.P,D6,1*
G04 #@! TO.N,GND*
X47307500Y-161353500D03*
G04 #@! TD*
D12*
G04 #@! TO.P,D4,2*
G04 #@! TO.N,Net-(D4-Pad2)*
X49085500Y-145351500D03*
D13*
G04 #@! TO.P,D4,1*
G04 #@! TO.N,GND*
X46545500Y-145351500D03*
G04 #@! TD*
D14*
G04 #@! TO.P,R12,2*
G04 #@! TO.N,Net-(D6-Pad2)*
X47371000Y-167576500D03*
D15*
G04 #@! TO.P,R12,1*
G04 #@! TO.N,Net-(J1-Pad2)*
X47371000Y-172656500D03*
G04 #@! TD*
D14*
G04 #@! TO.P,R11,2*
G04 #@! TO.N,Net-(D4-Pad2)*
X50228500Y-141668500D03*
D15*
G04 #@! TO.P,R11,1*
G04 #@! TO.N,Net-(R11-Pad1)*
X45148500Y-141668500D03*
G04 #@! TD*
D16*
G04 #@! TO.P,J5,2*
G04 #@! TO.N,Net-(J2-Pad1)*
X100393500Y-154028000D03*
D17*
G04 #@! TD*
G04 #@! TO.N,/Power3*
G04 #@! TO.C,J5*
G36*
X102218004Y-156409204D02*
X102242273Y-156412804D01*
X102266071Y-156418765D01*
X102289171Y-156427030D01*
X102311349Y-156437520D01*
X102332393Y-156450133D01*
X102352098Y-156464747D01*
X102370277Y-156481223D01*
X102386753Y-156499402D01*
X102401367Y-156519107D01*
X102413980Y-156540151D01*
X102424470Y-156562329D01*
X102432735Y-156585429D01*
X102438696Y-156609227D01*
X102442296Y-156633496D01*
X102443500Y-156658000D01*
X102443500Y-159318000D01*
X102442296Y-159342504D01*
X102438696Y-159366773D01*
X102432735Y-159390571D01*
X102424470Y-159413671D01*
X102413980Y-159435849D01*
X102401367Y-159456893D01*
X102386753Y-159476598D01*
X102370277Y-159494777D01*
X102352098Y-159511253D01*
X102332393Y-159525867D01*
X102311349Y-159538480D01*
X102289171Y-159548970D01*
X102266071Y-159557235D01*
X102242273Y-159563196D01*
X102218004Y-159566796D01*
X102193500Y-159568000D01*
X98593500Y-159568000D01*
X98568996Y-159566796D01*
X98544727Y-159563196D01*
X98520929Y-159557235D01*
X98497829Y-159548970D01*
X98475651Y-159538480D01*
X98454607Y-159525867D01*
X98434902Y-159511253D01*
X98416723Y-159494777D01*
X98400247Y-159476598D01*
X98385633Y-159456893D01*
X98373020Y-159435849D01*
X98362530Y-159413671D01*
X98354265Y-159390571D01*
X98348304Y-159366773D01*
X98344704Y-159342504D01*
X98343500Y-159318000D01*
X98343500Y-156658000D01*
X98344704Y-156633496D01*
X98348304Y-156609227D01*
X98354265Y-156585429D01*
X98362530Y-156562329D01*
X98373020Y-156540151D01*
X98385633Y-156519107D01*
X98400247Y-156499402D01*
X98416723Y-156481223D01*
X98434902Y-156464747D01*
X98454607Y-156450133D01*
X98475651Y-156437520D01*
X98497829Y-156427030D01*
X98520929Y-156418765D01*
X98544727Y-156412804D01*
X98568996Y-156409204D01*
X98593500Y-156408000D01*
X102193500Y-156408000D01*
X102218004Y-156409204D01*
X102218004Y-156409204D01*
G37*
D18*
G04 #@! TO.P,J5,1*
G04 #@! TO.N,/Power3*
X100393500Y-157988000D03*
G04 #@! TD*
D16*
G04 #@! TO.P,J2,2*
G04 #@! TO.N,/Power4*
X100393500Y-144693500D03*
D17*
G04 #@! TD*
G04 #@! TO.N,Net-(J2-Pad1)*
G04 #@! TO.C,J2*
G36*
X102218004Y-147074704D02*
X102242273Y-147078304D01*
X102266071Y-147084265D01*
X102289171Y-147092530D01*
X102311349Y-147103020D01*
X102332393Y-147115633D01*
X102352098Y-147130247D01*
X102370277Y-147146723D01*
X102386753Y-147164902D01*
X102401367Y-147184607D01*
X102413980Y-147205651D01*
X102424470Y-147227829D01*
X102432735Y-147250929D01*
X102438696Y-147274727D01*
X102442296Y-147298996D01*
X102443500Y-147323500D01*
X102443500Y-149983500D01*
X102442296Y-150008004D01*
X102438696Y-150032273D01*
X102432735Y-150056071D01*
X102424470Y-150079171D01*
X102413980Y-150101349D01*
X102401367Y-150122393D01*
X102386753Y-150142098D01*
X102370277Y-150160277D01*
X102352098Y-150176753D01*
X102332393Y-150191367D01*
X102311349Y-150203980D01*
X102289171Y-150214470D01*
X102266071Y-150222735D01*
X102242273Y-150228696D01*
X102218004Y-150232296D01*
X102193500Y-150233500D01*
X98593500Y-150233500D01*
X98568996Y-150232296D01*
X98544727Y-150228696D01*
X98520929Y-150222735D01*
X98497829Y-150214470D01*
X98475651Y-150203980D01*
X98454607Y-150191367D01*
X98434902Y-150176753D01*
X98416723Y-150160277D01*
X98400247Y-150142098D01*
X98385633Y-150122393D01*
X98373020Y-150101349D01*
X98362530Y-150079171D01*
X98354265Y-150056071D01*
X98348304Y-150032273D01*
X98344704Y-150008004D01*
X98343500Y-149983500D01*
X98343500Y-147323500D01*
X98344704Y-147298996D01*
X98348304Y-147274727D01*
X98354265Y-147250929D01*
X98362530Y-147227829D01*
X98373020Y-147205651D01*
X98385633Y-147184607D01*
X98400247Y-147164902D01*
X98416723Y-147146723D01*
X98434902Y-147130247D01*
X98454607Y-147115633D01*
X98475651Y-147103020D01*
X98497829Y-147092530D01*
X98520929Y-147084265D01*
X98544727Y-147078304D01*
X98568996Y-147074704D01*
X98593500Y-147073500D01*
X102193500Y-147073500D01*
X102218004Y-147074704D01*
X102218004Y-147074704D01*
G37*
D18*
G04 #@! TO.P,J2,1*
G04 #@! TO.N,Net-(J2-Pad1)*
X100393500Y-148653500D03*
G04 #@! TD*
D19*
G04 #@! TO.P,J1,2*
G04 #@! TO.N,VCC*
X59840000Y-175895000D03*
D17*
G04 #@! TD*
G04 #@! TO.N,Net-(J1-Pad2)*
G04 #@! TO.C,J1*
G36*
X57234829Y-173846202D02*
X57259062Y-173849797D01*
X57282827Y-173855749D01*
X57305893Y-173864003D01*
X57328039Y-173874477D01*
X57349053Y-173887072D01*
X57368730Y-173901666D01*
X57386882Y-173918118D01*
X57403334Y-173936270D01*
X57417928Y-173955947D01*
X57430523Y-173976961D01*
X57440997Y-173999107D01*
X57449251Y-174022173D01*
X57455203Y-174045938D01*
X57458798Y-174070171D01*
X57460000Y-174094640D01*
X57460000Y-177695360D01*
X57458798Y-177719829D01*
X57455203Y-177744062D01*
X57449251Y-177767827D01*
X57440997Y-177790893D01*
X57430523Y-177813039D01*
X57417928Y-177834053D01*
X57403334Y-177853730D01*
X57386882Y-177871882D01*
X57368730Y-177888334D01*
X57349053Y-177902928D01*
X57328039Y-177915523D01*
X57305893Y-177925997D01*
X57282827Y-177934251D01*
X57259062Y-177940203D01*
X57234829Y-177943798D01*
X57210360Y-177945000D01*
X54549640Y-177945000D01*
X54525171Y-177943798D01*
X54500938Y-177940203D01*
X54477173Y-177934251D01*
X54454107Y-177925997D01*
X54431961Y-177915523D01*
X54410947Y-177902928D01*
X54391270Y-177888334D01*
X54373118Y-177871882D01*
X54356666Y-177853730D01*
X54342072Y-177834053D01*
X54329477Y-177813039D01*
X54319003Y-177790893D01*
X54310749Y-177767827D01*
X54304797Y-177744062D01*
X54301202Y-177719829D01*
X54300000Y-177695360D01*
X54300000Y-174094640D01*
X54301202Y-174070171D01*
X54304797Y-174045938D01*
X54310749Y-174022173D01*
X54319003Y-173999107D01*
X54329477Y-173976961D01*
X54342072Y-173955947D01*
X54356666Y-173936270D01*
X54373118Y-173918118D01*
X54391270Y-173901666D01*
X54410947Y-173887072D01*
X54431961Y-173874477D01*
X54454107Y-173864003D01*
X54477173Y-173855749D01*
X54500938Y-173849797D01*
X54525171Y-173846202D01*
X54549640Y-173845000D01*
X57210360Y-173845000D01*
X57234829Y-173846202D01*
X57234829Y-173846202D01*
G37*
D18*
G04 #@! TO.P,J1,1*
G04 #@! TO.N,Net-(J1-Pad2)*
X55880000Y-175895000D03*
G04 #@! TD*
D19*
G04 #@! TO.P,J4,2*
G04 #@! TO.N,N/C*
X55349000Y-129476500D03*
D17*
G04 #@! TD*
G04 #@! TO.N,Net-(J4-Pad2)*
G04 #@! TO.C,J4*
G36*
X60663829Y-127427702D02*
X60688062Y-127431297D01*
X60711827Y-127437249D01*
X60734893Y-127445503D01*
X60757039Y-127455977D01*
X60778053Y-127468572D01*
X60797730Y-127483166D01*
X60815882Y-127499618D01*
X60832334Y-127517770D01*
X60846928Y-127537447D01*
X60859523Y-127558461D01*
X60869997Y-127580607D01*
X60878251Y-127603673D01*
X60884203Y-127627438D01*
X60887798Y-127651671D01*
X60889000Y-127676140D01*
X60889000Y-131276860D01*
X60887798Y-131301329D01*
X60884203Y-131325562D01*
X60878251Y-131349327D01*
X60869997Y-131372393D01*
X60859523Y-131394539D01*
X60846928Y-131415553D01*
X60832334Y-131435230D01*
X60815882Y-131453382D01*
X60797730Y-131469834D01*
X60778053Y-131484428D01*
X60757039Y-131497023D01*
X60734893Y-131507497D01*
X60711827Y-131515751D01*
X60688062Y-131521703D01*
X60663829Y-131525298D01*
X60639360Y-131526500D01*
X57978640Y-131526500D01*
X57954171Y-131525298D01*
X57929938Y-131521703D01*
X57906173Y-131515751D01*
X57883107Y-131507497D01*
X57860961Y-131497023D01*
X57839947Y-131484428D01*
X57820270Y-131469834D01*
X57802118Y-131453382D01*
X57785666Y-131435230D01*
X57771072Y-131415553D01*
X57758477Y-131394539D01*
X57748003Y-131372393D01*
X57739749Y-131349327D01*
X57733797Y-131325562D01*
X57730202Y-131301329D01*
X57729000Y-131276860D01*
X57729000Y-127676140D01*
X57730202Y-127651671D01*
X57733797Y-127627438D01*
X57739749Y-127603673D01*
X57748003Y-127580607D01*
X57758477Y-127558461D01*
X57771072Y-127537447D01*
X57785666Y-127517770D01*
X57802118Y-127499618D01*
X57820270Y-127483166D01*
X57839947Y-127468572D01*
X57860961Y-127455977D01*
X57883107Y-127445503D01*
X57906173Y-127437249D01*
X57929938Y-127431297D01*
X57954171Y-127427702D01*
X57978640Y-127426500D01*
X60639360Y-127426500D01*
X60663829Y-127427702D01*
X60663829Y-127427702D01*
G37*
D18*
G04 #@! TO.P,J4,1*
G04 #@! TO.N,Net-(J4-Pad2)*
X59309000Y-129476500D03*
G04 #@! TD*
D15*
G04 #@! TO.P,R7,1*
G04 #@! TO.N,VCC*
X83312000Y-138049000D03*
D14*
G04 #@! TO.P,R7,2*
G04 #@! TO.N,Net-(R7-Pad2)*
X78232000Y-138049000D03*
G04 #@! TD*
G04 #@! TO.P,R5,2*
G04 #@! TO.N,/Signal2*
X69850000Y-149864775D03*
D15*
G04 #@! TO.P,R5,1*
G04 #@! TO.N,Net-(R4-Pad1)*
X69850000Y-144784775D03*
G04 #@! TD*
D14*
G04 #@! TO.P,R2,2*
G04 #@! TO.N,Net-(R2-Pad2)*
X79248000Y-152654000D03*
D15*
G04 #@! TO.P,R2,1*
G04 #@! TO.N,VCC*
X84328000Y-152654000D03*
G04 #@! TD*
D14*
G04 #@! TO.P,R1,2*
G04 #@! TO.N,/Signal*
X69850000Y-155329000D03*
D15*
G04 #@! TO.P,R1,1*
G04 #@! TO.N,Net-(R1-Pad1)*
X69850000Y-160409000D03*
G04 #@! TD*
D13*
G04 #@! TO.P,D5,1*
G04 #@! TO.N,Net-(C13-Pad1)*
X92075000Y-141478000D03*
D20*
G04 #@! TO.P,D5,2*
G04 #@! TO.N,VCC*
X92075000Y-149098000D03*
G04 #@! TD*
D13*
G04 #@! TO.P,D2,1*
G04 #@! TO.N,Net-(C1-Pad1)*
X92075000Y-163703000D03*
D20*
G04 #@! TO.P,D2,2*
G04 #@! TO.N,VCC*
X92075000Y-156083000D03*
G04 #@! TD*
D21*
G04 #@! TO.P,C15,2*
G04 #@! TO.N,GND*
X60701937Y-142316000D03*
D11*
G04 #@! TO.P,C15,1*
G04 #@! TO.N,VCC*
X56860063Y-139116000D03*
D21*
G04 #@! TO.P,C15,2*
G04 #@! TO.N,GND*
X60031000Y-140716000D03*
D11*
G04 #@! TO.P,C15,1*
G04 #@! TO.N,VCC*
X57531000Y-140716000D03*
G04 #@! TD*
D21*
G04 #@! TO.P,C14,2*
G04 #@! TO.N,GND*
X60701937Y-165684000D03*
D11*
G04 #@! TO.P,C14,1*
G04 #@! TO.N,VCC*
X56860063Y-162484000D03*
D21*
G04 #@! TO.P,C14,2*
G04 #@! TO.N,GND*
X60031000Y-164084000D03*
D11*
G04 #@! TO.P,C14,1*
G04 #@! TO.N,VCC*
X57531000Y-164084000D03*
G04 #@! TD*
D14*
G04 #@! TO.P,R4,2*
G04 #@! TO.N,GND*
X67437000Y-149860000D03*
D15*
G04 #@! TO.P,R4,1*
G04 #@! TO.N,Net-(R4-Pad1)*
X67437000Y-144780000D03*
G04 #@! TD*
D14*
G04 #@! TO.P,R3,2*
G04 #@! TO.N,GND*
X67437000Y-155329000D03*
D15*
G04 #@! TO.P,R3,1*
G04 #@! TO.N,Net-(R1-Pad1)*
X67437000Y-160409000D03*
G04 #@! TD*
D22*
G04 #@! TO.P,Q4,1*
G04 #@! TO.N,Net-(Q4-Pad1)*
X87520000Y-137600000D03*
D23*
G04 #@! TO.P,Q4,2*
G04 #@! TO.N,/Power4*
X90060000Y-137600000D03*
G04 #@! TO.P,Q4,3*
G04 #@! TO.N,GND*
X92600000Y-137600000D03*
D24*
G04 #@! TO.P,Q4,2*
G04 #@! TO.N,N/C*
X85107000Y-131326200D03*
X95063800Y-131326200D03*
G04 #@! TD*
D22*
G04 #@! TO.P,Q3,1*
G04 #@! TO.N,Net-(Q3-Pad1)*
X69100000Y-137600000D03*
D23*
G04 #@! TO.P,Q3,2*
G04 #@! TO.N,VCC*
X71640000Y-137600000D03*
G04 #@! TO.P,Q3,3*
G04 #@! TO.N,/Power4*
X74180000Y-137600000D03*
D24*
G04 #@! TO.P,Q3,2*
G04 #@! TO.N,N/C*
X66687000Y-131326200D03*
X76643800Y-131326200D03*
G04 #@! TD*
D22*
G04 #@! TO.P,Q2,1*
G04 #@! TO.N,Net-(Q2-Pad1)*
X92600000Y-167055000D03*
D23*
G04 #@! TO.P,Q2,2*
G04 #@! TO.N,/Power3*
X90060000Y-167055000D03*
G04 #@! TO.P,Q2,3*
G04 #@! TO.N,GND*
X87520000Y-167055000D03*
D24*
G04 #@! TO.P,Q2,2*
G04 #@! TO.N,N/C*
X95013000Y-173328800D03*
X85056200Y-173328800D03*
G04 #@! TD*
D22*
G04 #@! TO.P,Q1,1*
G04 #@! TO.N,Net-(Q1-Pad1)*
X74180000Y-167055000D03*
D23*
G04 #@! TO.P,Q1,2*
G04 #@! TO.N,VCC*
X71640000Y-167055000D03*
G04 #@! TO.P,Q1,3*
G04 #@! TO.N,/Power3*
X69100000Y-167055000D03*
D24*
G04 #@! TO.P,Q1,2*
G04 #@! TO.N,N/C*
X76593000Y-173328800D03*
X66636200Y-173328800D03*
G04 #@! TD*
D14*
G04 #@! TO.P,R10,2*
G04 #@! TO.N,Net-(R10-Pad2)*
X77144000Y-152654000D03*
D15*
G04 #@! TO.P,R10,1*
G04 #@! TO.N,Net-(Q3-Pad1)*
X72064000Y-152654000D03*
G04 #@! TD*
D14*
G04 #@! TO.P,R9,2*
G04 #@! TO.N,Net-(Q4-Pad1)*
X96901000Y-135636000D03*
D15*
G04 #@! TO.P,R9,1*
G04 #@! TO.N,Net-(R9-Pad1)*
X96901000Y-140716000D03*
G04 #@! TD*
D14*
G04 #@! TO.P,R8,2*
G04 #@! TO.N,Net-(R8-Pad2)*
X83312000Y-167386000D03*
D15*
G04 #@! TO.P,R8,1*
G04 #@! TO.N,Net-(Q1-Pad1)*
X78232000Y-167386000D03*
G04 #@! TD*
D14*
G04 #@! TO.P,R6,2*
G04 #@! TO.N,Net-(Q2-Pad1)*
X96901000Y-168910000D03*
D15*
G04 #@! TO.P,R6,1*
G04 #@! TO.N,Net-(R6-Pad1)*
X96901000Y-163830000D03*
G04 #@! TD*
D25*
G04 #@! TO.P,H4,1*
G04 #@! TO.N,N/C*
X48941056Y-125048944D03*
X47244000Y-124346000D03*
X45546944Y-125048944D03*
X44844000Y-126746000D03*
X45546944Y-128443056D03*
X47244000Y-129146000D03*
X48941056Y-128443056D03*
X49644000Y-126746000D03*
D26*
X47244000Y-126746000D03*
G04 #@! TD*
D25*
G04 #@! TO.P,H3,1*
G04 #@! TO.N,N/C*
X105964056Y-177118944D03*
X104267000Y-176416000D03*
X102569944Y-177118944D03*
X101867000Y-178816000D03*
X102569944Y-180513056D03*
X104267000Y-181216000D03*
X105964056Y-180513056D03*
X106667000Y-178816000D03*
D26*
X104267000Y-178816000D03*
G04 #@! TD*
D25*
G04 #@! TO.P,H2,1*
G04 #@! TO.N,N/C*
X105964056Y-124908944D03*
X104267000Y-124206000D03*
X102569944Y-124908944D03*
X101867000Y-126606000D03*
X102569944Y-128303056D03*
X104267000Y-129006000D03*
X105964056Y-128303056D03*
X106667000Y-126606000D03*
D26*
X104267000Y-126606000D03*
G04 #@! TD*
D25*
G04 #@! TO.P,H1,1*
G04 #@! TO.N,N/C*
X48941056Y-177245944D03*
X47244000Y-176543000D03*
X45546944Y-177245944D03*
X44844000Y-178943000D03*
X45546944Y-180640056D03*
X47244000Y-181343000D03*
X48941056Y-180640056D03*
X49644000Y-178943000D03*
D26*
X47244000Y-178943000D03*
G04 #@! TD*
D17*
G04 #@! TO.N,/Signal2*
G04 #@! TO.C,D3*
G36*
X70400779Y-151291144D02*
X70423834Y-151294563D01*
X70446443Y-151300227D01*
X70468387Y-151308079D01*
X70489457Y-151318044D01*
X70509448Y-151330026D01*
X70528168Y-151343910D01*
X70545438Y-151359562D01*
X70561090Y-151376832D01*
X70574974Y-151395552D01*
X70586956Y-151415543D01*
X70596921Y-151436613D01*
X70604773Y-151458557D01*
X70610437Y-151481166D01*
X70613856Y-151504221D01*
X70615000Y-151527500D01*
X70615000Y-152002500D01*
X70613856Y-152025779D01*
X70610437Y-152048834D01*
X70604773Y-152071443D01*
X70596921Y-152093387D01*
X70586956Y-152114457D01*
X70574974Y-152134448D01*
X70561090Y-152153168D01*
X70545438Y-152170438D01*
X70528168Y-152186090D01*
X70509448Y-152199974D01*
X70489457Y-152211956D01*
X70468387Y-152221921D01*
X70446443Y-152229773D01*
X70423834Y-152235437D01*
X70400779Y-152238856D01*
X70377500Y-152240000D01*
X69802500Y-152240000D01*
X69779221Y-152238856D01*
X69756166Y-152235437D01*
X69733557Y-152229773D01*
X69711613Y-152221921D01*
X69690543Y-152211956D01*
X69670552Y-152199974D01*
X69651832Y-152186090D01*
X69634562Y-152170438D01*
X69618910Y-152153168D01*
X69605026Y-152134448D01*
X69593044Y-152114457D01*
X69583079Y-152093387D01*
X69575227Y-152071443D01*
X69569563Y-152048834D01*
X69566144Y-152025779D01*
X69565000Y-152002500D01*
X69565000Y-151527500D01*
X69566144Y-151504221D01*
X69569563Y-151481166D01*
X69575227Y-151458557D01*
X69583079Y-151436613D01*
X69593044Y-151415543D01*
X69605026Y-151395552D01*
X69618910Y-151376832D01*
X69634562Y-151359562D01*
X69651832Y-151343910D01*
X69670552Y-151330026D01*
X69690543Y-151318044D01*
X69711613Y-151308079D01*
X69733557Y-151300227D01*
X69756166Y-151294563D01*
X69779221Y-151291144D01*
X69802500Y-151290000D01*
X70377500Y-151290000D01*
X70400779Y-151291144D01*
X70400779Y-151291144D01*
G37*
D27*
G04 #@! TD*
G04 #@! TO.P,D3,1*
G04 #@! TO.N,/Signal2*
X70090000Y-151765000D03*
D17*
G04 #@! TO.N,GND*
G04 #@! TO.C,D3*
G36*
X68650779Y-151291144D02*
X68673834Y-151294563D01*
X68696443Y-151300227D01*
X68718387Y-151308079D01*
X68739457Y-151318044D01*
X68759448Y-151330026D01*
X68778168Y-151343910D01*
X68795438Y-151359562D01*
X68811090Y-151376832D01*
X68824974Y-151395552D01*
X68836956Y-151415543D01*
X68846921Y-151436613D01*
X68854773Y-151458557D01*
X68860437Y-151481166D01*
X68863856Y-151504221D01*
X68865000Y-151527500D01*
X68865000Y-152002500D01*
X68863856Y-152025779D01*
X68860437Y-152048834D01*
X68854773Y-152071443D01*
X68846921Y-152093387D01*
X68836956Y-152114457D01*
X68824974Y-152134448D01*
X68811090Y-152153168D01*
X68795438Y-152170438D01*
X68778168Y-152186090D01*
X68759448Y-152199974D01*
X68739457Y-152211956D01*
X68718387Y-152221921D01*
X68696443Y-152229773D01*
X68673834Y-152235437D01*
X68650779Y-152238856D01*
X68627500Y-152240000D01*
X68052500Y-152240000D01*
X68029221Y-152238856D01*
X68006166Y-152235437D01*
X67983557Y-152229773D01*
X67961613Y-152221921D01*
X67940543Y-152211956D01*
X67920552Y-152199974D01*
X67901832Y-152186090D01*
X67884562Y-152170438D01*
X67868910Y-152153168D01*
X67855026Y-152134448D01*
X67843044Y-152114457D01*
X67833079Y-152093387D01*
X67825227Y-152071443D01*
X67819563Y-152048834D01*
X67816144Y-152025779D01*
X67815000Y-152002500D01*
X67815000Y-151527500D01*
X67816144Y-151504221D01*
X67819563Y-151481166D01*
X67825227Y-151458557D01*
X67833079Y-151436613D01*
X67843044Y-151415543D01*
X67855026Y-151395552D01*
X67868910Y-151376832D01*
X67884562Y-151359562D01*
X67901832Y-151343910D01*
X67920552Y-151330026D01*
X67940543Y-151318044D01*
X67961613Y-151308079D01*
X67983557Y-151300227D01*
X68006166Y-151294563D01*
X68029221Y-151291144D01*
X68052500Y-151290000D01*
X68627500Y-151290000D01*
X68650779Y-151291144D01*
X68650779Y-151291144D01*
G37*
D27*
G04 #@! TD*
G04 #@! TO.P,D3,2*
G04 #@! TO.N,GND*
X68340000Y-151765000D03*
D17*
G04 #@! TO.N,/Signal*
G04 #@! TO.C,D1*
G36*
X70400779Y-152942144D02*
X70423834Y-152945563D01*
X70446443Y-152951227D01*
X70468387Y-152959079D01*
X70489457Y-152969044D01*
X70509448Y-152981026D01*
X70528168Y-152994910D01*
X70545438Y-153010562D01*
X70561090Y-153027832D01*
X70574974Y-153046552D01*
X70586956Y-153066543D01*
X70596921Y-153087613D01*
X70604773Y-153109557D01*
X70610437Y-153132166D01*
X70613856Y-153155221D01*
X70615000Y-153178500D01*
X70615000Y-153653500D01*
X70613856Y-153676779D01*
X70610437Y-153699834D01*
X70604773Y-153722443D01*
X70596921Y-153744387D01*
X70586956Y-153765457D01*
X70574974Y-153785448D01*
X70561090Y-153804168D01*
X70545438Y-153821438D01*
X70528168Y-153837090D01*
X70509448Y-153850974D01*
X70489457Y-153862956D01*
X70468387Y-153872921D01*
X70446443Y-153880773D01*
X70423834Y-153886437D01*
X70400779Y-153889856D01*
X70377500Y-153891000D01*
X69802500Y-153891000D01*
X69779221Y-153889856D01*
X69756166Y-153886437D01*
X69733557Y-153880773D01*
X69711613Y-153872921D01*
X69690543Y-153862956D01*
X69670552Y-153850974D01*
X69651832Y-153837090D01*
X69634562Y-153821438D01*
X69618910Y-153804168D01*
X69605026Y-153785448D01*
X69593044Y-153765457D01*
X69583079Y-153744387D01*
X69575227Y-153722443D01*
X69569563Y-153699834D01*
X69566144Y-153676779D01*
X69565000Y-153653500D01*
X69565000Y-153178500D01*
X69566144Y-153155221D01*
X69569563Y-153132166D01*
X69575227Y-153109557D01*
X69583079Y-153087613D01*
X69593044Y-153066543D01*
X69605026Y-153046552D01*
X69618910Y-153027832D01*
X69634562Y-153010562D01*
X69651832Y-152994910D01*
X69670552Y-152981026D01*
X69690543Y-152969044D01*
X69711613Y-152959079D01*
X69733557Y-152951227D01*
X69756166Y-152945563D01*
X69779221Y-152942144D01*
X69802500Y-152941000D01*
X70377500Y-152941000D01*
X70400779Y-152942144D01*
X70400779Y-152942144D01*
G37*
D27*
G04 #@! TD*
G04 #@! TO.P,D1,1*
G04 #@! TO.N,/Signal*
X70090000Y-153416000D03*
D17*
G04 #@! TO.N,GND*
G04 #@! TO.C,D1*
G36*
X68650779Y-152942144D02*
X68673834Y-152945563D01*
X68696443Y-152951227D01*
X68718387Y-152959079D01*
X68739457Y-152969044D01*
X68759448Y-152981026D01*
X68778168Y-152994910D01*
X68795438Y-153010562D01*
X68811090Y-153027832D01*
X68824974Y-153046552D01*
X68836956Y-153066543D01*
X68846921Y-153087613D01*
X68854773Y-153109557D01*
X68860437Y-153132166D01*
X68863856Y-153155221D01*
X68865000Y-153178500D01*
X68865000Y-153653500D01*
X68863856Y-153676779D01*
X68860437Y-153699834D01*
X68854773Y-153722443D01*
X68846921Y-153744387D01*
X68836956Y-153765457D01*
X68824974Y-153785448D01*
X68811090Y-153804168D01*
X68795438Y-153821438D01*
X68778168Y-153837090D01*
X68759448Y-153850974D01*
X68739457Y-153862956D01*
X68718387Y-153872921D01*
X68696443Y-153880773D01*
X68673834Y-153886437D01*
X68650779Y-153889856D01*
X68627500Y-153891000D01*
X68052500Y-153891000D01*
X68029221Y-153889856D01*
X68006166Y-153886437D01*
X67983557Y-153880773D01*
X67961613Y-153872921D01*
X67940543Y-153862956D01*
X67920552Y-153850974D01*
X67901832Y-153837090D01*
X67884562Y-153821438D01*
X67868910Y-153804168D01*
X67855026Y-153785448D01*
X67843044Y-153765457D01*
X67833079Y-153744387D01*
X67825227Y-153722443D01*
X67819563Y-153699834D01*
X67816144Y-153676779D01*
X67815000Y-153653500D01*
X67815000Y-153178500D01*
X67816144Y-153155221D01*
X67819563Y-153132166D01*
X67825227Y-153109557D01*
X67833079Y-153087613D01*
X67843044Y-153066543D01*
X67855026Y-153046552D01*
X67868910Y-153027832D01*
X67884562Y-153010562D01*
X67901832Y-152994910D01*
X67920552Y-152981026D01*
X67940543Y-152969044D01*
X67961613Y-152959079D01*
X67983557Y-152951227D01*
X68006166Y-152945563D01*
X68029221Y-152942144D01*
X68052500Y-152941000D01*
X68627500Y-152941000D01*
X68650779Y-152942144D01*
X68650779Y-152942144D01*
G37*
D27*
G04 #@! TD*
G04 #@! TO.P,D1,2*
G04 #@! TO.N,GND*
X68340000Y-153416000D03*
D21*
G04 #@! TO.P,C13,2*
G04 #@! TO.N,/Power4*
X88900000Y-141899000D03*
G04 #@! TO.P,C13,1*
G04 #@! TO.N,Net-(C13-Pad1)*
X88900000Y-144399000D03*
G04 #@! TD*
G04 #@! TO.P,C12,2*
G04 #@! TO.N,/Power3*
X88773000Y-161076000D03*
G04 #@! TO.P,C12,1*
G04 #@! TO.N,Net-(C1-Pad1)*
X88773000Y-163576000D03*
G04 #@! TD*
G04 #@! TO.P,C10,2*
G04 #@! TO.N,GND*
X86741000Y-157948000D03*
G04 #@! TO.P,C10,1*
G04 #@! TO.N,VCC*
X86741000Y-155448000D03*
G04 #@! TD*
G04 #@! TO.P,C9,2*
G04 #@! TO.N,GND*
X51562000Y-153710000D03*
G04 #@! TO.P,C9,1*
G04 #@! TO.N,VCC*
X51562000Y-156210000D03*
G04 #@! TD*
G04 #@! TO.P,C8,2*
G04 #@! TO.N,GND*
X54356000Y-151485000D03*
G04 #@! TO.P,C8,1*
G04 #@! TO.N,VCC*
X54356000Y-148985000D03*
G04 #@! TD*
G04 #@! TO.P,C7,2*
G04 #@! TO.N,GND*
X83693000Y-149693000D03*
G04 #@! TO.P,C7,1*
G04 #@! TO.N,VCC*
X83693000Y-147193000D03*
G04 #@! TD*
G04 #@! TO.P,C6,2*
G04 #@! TO.N,GND*
X54356000Y-156196000D03*
G04 #@! TO.P,C6,1*
G04 #@! TO.N,VCC*
X54356000Y-153696000D03*
G04 #@! TD*
G04 #@! TO.P,C5,2*
G04 #@! TO.N,GND*
X51562000Y-151471000D03*
G04 #@! TO.P,C5,1*
G04 #@! TO.N,VCC*
X51562000Y-148971000D03*
G04 #@! TD*
G04 #@! TO.P,C4,2*
G04 #@! TO.N,GND*
X86741000Y-149693000D03*
G04 #@! TO.P,C4,1*
G04 #@! TO.N,VCC*
X86741000Y-147193000D03*
G04 #@! TD*
G04 #@! TO.P,C3,2*
G04 #@! TO.N,GND*
X83693000Y-157948000D03*
G04 #@! TO.P,C3,1*
G04 #@! TO.N,VCC*
X83693000Y-155448000D03*
G04 #@! TD*
D11*
G04 #@! TO.P,C2,1*
G04 #@! TO.N,Net-(C13-Pad1)*
X84709000Y-143891000D03*
D21*
G04 #@! TO.P,C2,2*
G04 #@! TO.N,/Power4*
X84709000Y-141391000D03*
G04 #@! TD*
D11*
G04 #@! TO.P,C1,1*
G04 #@! TO.N,Net-(C1-Pad1)*
X84582000Y-163576000D03*
D21*
G04 #@! TO.P,C1,2*
G04 #@! TO.N,/Power3*
X84582000Y-161076000D03*
G04 #@! TD*
D28*
G04 #@! TO.P,U2,8*
G04 #@! TO.N,Net-(C13-Pad1)*
X80264000Y-149334775D03*
G04 #@! TO.P,U2,4*
G04 #@! TO.N,GND*
X72644000Y-141714775D03*
G04 #@! TO.P,U2,7*
G04 #@! TO.N,Net-(R10-Pad2)*
X77724000Y-149334775D03*
G04 #@! TO.P,U2,3*
G04 #@! TO.N,Net-(R7-Pad2)*
X75184000Y-141714775D03*
G04 #@! TO.P,U2,6*
G04 #@! TO.N,/Power4*
X75184000Y-149334775D03*
G04 #@! TO.P,U2,2*
G04 #@! TO.N,Net-(R4-Pad1)*
X77724000Y-141714775D03*
G04 #@! TO.P,U2,5*
G04 #@! TO.N,Net-(R9-Pad1)*
X72644000Y-149334775D03*
D29*
G04 #@! TO.P,U2,1*
G04 #@! TO.N,VCC*
X80264000Y-141714775D03*
G04 #@! TD*
D28*
G04 #@! TO.P,U1,8*
G04 #@! TO.N,Net-(C1-Pad1)*
X80264000Y-163449000D03*
G04 #@! TO.P,U1,4*
G04 #@! TO.N,GND*
X72644000Y-155829000D03*
G04 #@! TO.P,U1,7*
G04 #@! TO.N,Net-(R8-Pad2)*
X77724000Y-163449000D03*
G04 #@! TO.P,U1,3*
G04 #@! TO.N,Net-(R2-Pad2)*
X75184000Y-155829000D03*
G04 #@! TO.P,U1,6*
G04 #@! TO.N,/Power3*
X75184000Y-163449000D03*
G04 #@! TO.P,U1,2*
G04 #@! TO.N,Net-(R1-Pad1)*
X77724000Y-155829000D03*
G04 #@! TO.P,U1,5*
G04 #@! TO.N,Net-(R6-Pad1)*
X72644000Y-163449000D03*
D29*
G04 #@! TO.P,U1,1*
G04 #@! TO.N,VCC*
X80264000Y-155829000D03*
G04 #@! TD*
D30*
G04 #@! TO.P,J3,3*
G04 #@! TO.N,GND*
X46609000Y-149840000D03*
G04 #@! TO.P,J3,2*
G04 #@! TO.N,/Signal2*
X46609000Y-152380000D03*
D31*
G04 #@! TO.P,J3,1*
G04 #@! TO.N,/Signal*
X46609000Y-154920000D03*
G04 #@! TD*
D32*
G04 #@! TO.N,GND*
X68643500Y-143319500D03*
D33*
X66992500Y-153416000D03*
D34*
G04 #@! TO.N,/Signal*
X63373000Y-156464000D03*
G04 #@! TD*
D35*
G04 #@! TO.N,Net-(C1-Pad1)*
X84328000Y-163322000D02*
X84582000Y-163576000D01*
X80264000Y-163322000D02*
X84328000Y-163322000D01*
X91694000Y-163576000D02*
X88646000Y-163576000D01*
X84582000Y-163576000D02*
X88646000Y-163576000D01*
G04 #@! TO.N,GND*
X85228630Y-157948000D02*
X86360000Y-157948000D01*
X72644000Y-157402000D02*
X73190000Y-157948000D01*
X72644000Y-155702000D02*
X72644000Y-157402000D01*
X73190000Y-157948000D02*
X85228630Y-157948000D01*
X66992500Y-153416000D02*
X68340000Y-153416000D01*
X68643500Y-148653500D02*
X67437000Y-149860000D01*
X68643500Y-143319500D02*
X68643500Y-148653500D01*
G04 #@! TO.N,VCC*
X80518000Y-155448000D02*
X80264000Y-155702000D01*
D36*
X71640000Y-137600000D02*
X71640000Y-135000000D01*
X65151000Y-143256000D02*
X67384203Y-141022797D01*
X66675000Y-163576000D02*
X65151000Y-162052000D01*
X71640000Y-166128000D02*
X69088000Y-163576000D01*
X69088000Y-163576000D02*
X66675000Y-163576000D01*
X71640000Y-167055000D02*
X71640000Y-166128000D01*
X67384203Y-141022797D02*
X69789705Y-141022797D01*
X69789705Y-141022797D02*
X71640000Y-139172502D01*
X71640000Y-139172502D02*
X71640000Y-137600000D01*
D37*
X69789705Y-142018210D02*
X69789705Y-141022797D01*
X71836280Y-144064785D02*
X69789705Y-142018210D01*
X78531720Y-144064785D02*
X71836280Y-144064785D01*
X80264000Y-142332505D02*
X78531720Y-144064785D01*
X80264000Y-141714775D02*
X80264000Y-142332505D01*
D36*
X65151000Y-155575000D02*
X65151000Y-143256000D01*
X65151000Y-162052000D02*
X65151000Y-159893000D01*
X65151000Y-159893000D02*
X65151000Y-155575000D01*
D37*
X83312000Y-155829000D02*
X83693000Y-155448000D01*
X80264000Y-155829000D02*
X83312000Y-155829000D01*
X87376000Y-156083000D02*
X86741000Y-155448000D01*
X92075000Y-156083000D02*
X87376000Y-156083000D01*
X90170000Y-147193000D02*
X86741000Y-147193000D01*
X92075000Y-149098000D02*
X90170000Y-147193000D01*
X86741000Y-147193000D02*
X83693000Y-147193000D01*
X86741000Y-155448000D02*
X83693000Y-155448000D01*
X84328000Y-154813000D02*
X83693000Y-155448000D01*
X84328000Y-152654000D02*
X84328000Y-154813000D01*
D36*
X71640000Y-167055000D02*
X71640000Y-172200000D01*
D37*
X84328000Y-152654000D02*
X91186000Y-152654000D01*
X92075000Y-151765000D02*
X92075000Y-149098000D01*
X91186000Y-152654000D02*
X92075000Y-151765000D01*
X65151000Y-155575000D02*
X65151000Y-155485630D01*
X65151000Y-155485630D02*
X63361370Y-153696000D01*
X59453002Y-153696000D02*
X54356000Y-153696000D01*
X51562000Y-158559500D02*
X51562000Y-156210000D01*
X52895500Y-159893000D02*
X51562000Y-158559500D01*
X62992000Y-159893000D02*
X65151000Y-162052000D01*
X52895500Y-159893000D02*
X62992000Y-159893000D01*
X63361370Y-153696000D02*
X59791000Y-153696000D01*
X59791000Y-153696000D02*
X59453002Y-153696000D01*
X59791000Y-153288630D02*
X59791000Y-153696000D01*
X51562000Y-148971000D02*
X55473370Y-148971000D01*
X55473370Y-148971000D02*
X59791000Y-153288630D01*
X93347792Y-156083000D02*
X98751001Y-161486209D01*
X92075000Y-156083000D02*
X93347792Y-156083000D01*
X98751001Y-161486209D02*
X98751001Y-174400801D01*
X98751001Y-174400801D02*
X96573001Y-176578801D01*
X96573001Y-176578801D02*
X76018801Y-176578801D01*
X76018801Y-176578801D02*
X71640000Y-172200000D01*
D38*
X55349000Y-137604937D02*
X56860063Y-139116000D01*
X55349000Y-129476500D02*
X55349000Y-137604937D01*
D35*
G04 #@! TO.N,Net-(Q2-Pad1)*
X92600000Y-167102500D02*
X92600000Y-167055000D01*
X94407500Y-168910000D02*
X92600000Y-167102500D01*
X96901000Y-168910000D02*
X94407500Y-168910000D01*
D39*
G04 #@! TO.N,Net-(Q4-Pad1)*
X95911051Y-135636000D02*
X96901000Y-135636000D01*
X89436500Y-135636000D02*
X95911051Y-135636000D01*
X87520000Y-137552500D02*
X89436500Y-135636000D01*
X87520000Y-137600000D02*
X87520000Y-137552500D01*
D35*
G04 #@! TO.N,Net-(R1-Pad1)*
X67437000Y-160409000D02*
X69850000Y-160409000D01*
D39*
G04 #@! TO.N,/Signal*
X53769997Y-155070999D02*
X61979999Y-155070999D01*
X53583997Y-154884999D02*
X53769997Y-155070999D01*
X47744001Y-154884999D02*
X53583997Y-154884999D01*
X46609000Y-154920000D02*
X47709000Y-154920000D01*
X47709000Y-154920000D02*
X47744001Y-154884999D01*
X61979999Y-155070999D02*
X63373000Y-156464000D01*
X70090000Y-154099051D02*
X70090000Y-153416000D01*
X69850000Y-155329000D02*
X69850000Y-154339051D01*
X69850000Y-154339051D02*
X70090000Y-154099051D01*
G04 #@! TO.N,/Signal2*
X69850000Y-149864775D02*
X69850000Y-150558500D01*
X70090000Y-150798500D02*
X70090000Y-151765000D01*
X69850000Y-150558500D02*
X70090000Y-150798500D01*
D35*
G04 #@! TO.N,/Power3*
X75184000Y-162922000D02*
X75184000Y-163322000D01*
G04 #@! TO.N,/Power4*
X75184000Y-148934775D02*
X78576775Y-145542000D01*
X75184000Y-149334775D02*
X75184000Y-148934775D01*
X79606777Y-145542000D02*
X82296000Y-142852777D01*
X78576775Y-145542000D02*
X79606777Y-145542000D01*
X82296000Y-140576773D02*
X81165227Y-139446000D01*
X82296000Y-142852777D02*
X82296000Y-140576773D01*
X75632500Y-137600000D02*
X74180000Y-137600000D01*
X77478500Y-139446000D02*
X75632500Y-137600000D01*
X81165227Y-139446000D02*
X77478500Y-139446000D01*
D39*
G04 #@! TO.N,Net-(C13-Pad1)*
X90031370Y-144399000D02*
X88900000Y-144399000D01*
X90304000Y-144399000D02*
X90031370Y-144399000D01*
X92075000Y-142628000D02*
X90304000Y-144399000D01*
X92075000Y-141478000D02*
X92075000Y-142628000D01*
X80264000Y-147884775D02*
X80264000Y-149334775D01*
X80264000Y-147286000D02*
X80264000Y-147884775D01*
X83659000Y-143891000D02*
X80264000Y-147286000D01*
X84709000Y-143891000D02*
X83659000Y-143891000D01*
X88392000Y-143891000D02*
X88900000Y-144399000D01*
X84709000Y-143891000D02*
X88392000Y-143891000D01*
D35*
G04 #@! TO.N,Net-(R6-Pad1)*
X72644000Y-163849000D02*
X72644000Y-163449000D01*
X74149000Y-165354000D02*
X72644000Y-163849000D01*
X95377000Y-165354000D02*
X74149000Y-165354000D01*
X96901000Y-163830000D02*
X95377000Y-165354000D01*
D39*
G04 #@! TO.N,Net-(D4-Pad2)*
X50228500Y-144208500D02*
X49085500Y-145351500D01*
X50228500Y-141668500D02*
X50228500Y-144208500D01*
G04 #@! TO.N,Net-(D6-Pad2)*
X45622499Y-164084000D02*
X45495499Y-163957000D01*
X47307500Y-167513000D02*
X47371000Y-167576500D01*
X47307500Y-163893500D02*
X47307500Y-167513000D01*
G04 #@! TO.N,Net-(J1-Pad2)*
X56111000Y-175171000D02*
X56111000Y-175641000D01*
X52641500Y-172656500D02*
X55880000Y-175895000D01*
X47371000Y-172656500D02*
X52641500Y-172656500D01*
G04 #@! TO.N,Net-(J4-Pad2)*
X47561500Y-131381500D02*
X48196500Y-131381500D01*
X57658290Y-127825790D02*
X59309000Y-129476500D01*
X56515000Y-126682500D02*
X57658290Y-127825790D01*
X54696067Y-126682500D02*
X56515000Y-126682500D01*
X47561500Y-131381500D02*
X49997067Y-131381500D01*
X49997067Y-131381500D02*
X54696067Y-126682500D01*
G04 #@! TO.N,Net-(R11-Pad1)*
X45148500Y-141414500D02*
X45148500Y-141668500D01*
X47561500Y-139001500D02*
X45148500Y-141414500D01*
G04 #@! TD*
D40*
G04 #@! TO.N,GND*
G36*
X100432462Y-124556397D02*
X100106284Y-125343861D01*
X99940000Y-126179828D01*
X99940000Y-127032172D01*
X100106284Y-127868139D01*
X100432462Y-128655603D01*
X100905999Y-129364302D01*
X101508698Y-129967001D01*
X102217397Y-130440538D01*
X103004861Y-130766716D01*
X103840828Y-130933000D01*
X104693172Y-130933000D01*
X105529139Y-130766716D01*
X106316603Y-130440538D01*
X106519001Y-130305300D01*
X106519000Y-175116699D01*
X106316603Y-174981462D01*
X105529139Y-174655284D01*
X104693172Y-174489000D01*
X103840828Y-174489000D01*
X103004861Y-174655284D01*
X102217397Y-174981462D01*
X101508698Y-175454999D01*
X100905999Y-176057698D01*
X100432462Y-176766397D01*
X100106284Y-177553861D01*
X99940000Y-178389828D01*
X99940000Y-179242172D01*
X100106284Y-180078139D01*
X100432462Y-180865603D01*
X100652558Y-181195000D01*
X50943301Y-181195000D01*
X51078538Y-180992603D01*
X51404716Y-180205139D01*
X51571000Y-179369172D01*
X51571000Y-178516828D01*
X51404716Y-177680861D01*
X51078538Y-176893397D01*
X50605001Y-176184698D01*
X50002302Y-175581999D01*
X49293603Y-175108462D01*
X48506139Y-174782284D01*
X47670172Y-174616000D01*
X46817828Y-174616000D01*
X45981861Y-174782284D01*
X45194397Y-175108462D01*
X44865000Y-175328558D01*
X44865000Y-165081977D01*
X44923560Y-165130036D01*
X45141062Y-165246293D01*
X45377065Y-165317883D01*
X45622498Y-165342057D01*
X45865511Y-165318122D01*
X46015363Y-165467974D01*
X46055500Y-165494793D01*
X46055501Y-166299524D01*
X45844555Y-166556562D01*
X45674905Y-166873954D01*
X45570435Y-167218345D01*
X45535160Y-167576500D01*
X45570435Y-167934655D01*
X45674905Y-168279046D01*
X45844555Y-168596438D01*
X46072865Y-168874635D01*
X46351062Y-169102945D01*
X46668454Y-169272595D01*
X47012845Y-169377065D01*
X47281245Y-169403500D01*
X47460755Y-169403500D01*
X47729155Y-169377065D01*
X48073546Y-169272595D01*
X48390938Y-169102945D01*
X48669135Y-168874635D01*
X48897445Y-168596438D01*
X49067095Y-168279046D01*
X49171565Y-167934655D01*
X49206840Y-167576500D01*
X49171565Y-167218345D01*
X49067095Y-166873954D01*
X48897445Y-166556562D01*
X48669135Y-166278365D01*
X48559500Y-166188390D01*
X48559500Y-165494793D01*
X48599637Y-165467974D01*
X48881974Y-165185637D01*
X49103804Y-164853645D01*
X49256604Y-164484754D01*
X49334500Y-164093142D01*
X49334500Y-163693858D01*
X49256604Y-163302246D01*
X49103804Y-162933355D01*
X48881974Y-162601363D01*
X48789170Y-162508559D01*
X48818097Y-162438723D01*
X48842500Y-162316042D01*
X48842500Y-161639250D01*
X48683750Y-161480500D01*
X47434500Y-161480500D01*
X47434500Y-161500500D01*
X47180500Y-161500500D01*
X47180500Y-161480500D01*
X45931250Y-161480500D01*
X45772500Y-161639250D01*
X45772500Y-162316042D01*
X45796903Y-162438723D01*
X45825830Y-162508559D01*
X45733026Y-162601363D01*
X45657184Y-162714868D01*
X45495499Y-162698943D01*
X45250065Y-162723117D01*
X45014062Y-162794707D01*
X44865000Y-162874383D01*
X44865000Y-160390958D01*
X45772500Y-160390958D01*
X45772500Y-161067750D01*
X45931250Y-161226500D01*
X47180500Y-161226500D01*
X47180500Y-159977250D01*
X47434500Y-159977250D01*
X47434500Y-161226500D01*
X48683750Y-161226500D01*
X48842500Y-161067750D01*
X48842500Y-160390958D01*
X48818097Y-160268277D01*
X48770230Y-160152715D01*
X48700737Y-160048711D01*
X48612289Y-159960263D01*
X48508285Y-159890770D01*
X48392723Y-159842903D01*
X48270042Y-159818500D01*
X47593250Y-159818500D01*
X47434500Y-159977250D01*
X47180500Y-159977250D01*
X47021750Y-159818500D01*
X46344958Y-159818500D01*
X46222277Y-159842903D01*
X46106715Y-159890770D01*
X46002711Y-159960263D01*
X45914263Y-160048711D01*
X45844770Y-160152715D01*
X45796903Y-160268277D01*
X45772500Y-160390958D01*
X44865000Y-160390958D01*
X44865000Y-156457158D01*
X44958235Y-156570765D01*
X45129843Y-156711600D01*
X45325629Y-156816250D01*
X45538069Y-156880693D01*
X45759000Y-156902453D01*
X47459000Y-156902453D01*
X47679931Y-156880693D01*
X47892371Y-156816250D01*
X48088157Y-156711600D01*
X48259765Y-156570765D01*
X48400600Y-156399157D01*
X48505250Y-156203371D01*
X48525384Y-156136999D01*
X49635000Y-156136999D01*
X49635000Y-156399793D01*
X49685001Y-156651166D01*
X49685000Y-158467297D01*
X49675919Y-158559500D01*
X49685000Y-158651702D01*
X49685000Y-158651709D01*
X49712159Y-158927455D01*
X49819487Y-159281271D01*
X49993780Y-159607350D01*
X50228339Y-159893161D01*
X50299966Y-159951944D01*
X51441733Y-161093711D01*
X51540876Y-171404500D01*
X48702769Y-171404500D01*
X48535645Y-171237376D01*
X48236409Y-171037434D01*
X47903916Y-170899711D01*
X47550944Y-170829500D01*
X47191056Y-170829500D01*
X46838084Y-170899711D01*
X46505591Y-171037434D01*
X46206355Y-171237376D01*
X45951876Y-171491855D01*
X45751934Y-171791091D01*
X45614211Y-172123584D01*
X45544000Y-172476556D01*
X45544000Y-172836444D01*
X45614211Y-173189416D01*
X45751934Y-173521909D01*
X45951876Y-173821145D01*
X46206355Y-174075624D01*
X46505591Y-174275566D01*
X46838084Y-174413289D01*
X47191056Y-174483500D01*
X47550944Y-174483500D01*
X47903916Y-174413289D01*
X48236409Y-174275566D01*
X48535645Y-174075624D01*
X48702769Y-173908500D01*
X51564953Y-173908500D01*
X51578052Y-175270836D01*
X51663788Y-175691284D01*
X51908091Y-176056909D01*
X52543091Y-176691909D01*
X52908716Y-176936212D01*
X53167547Y-176987697D01*
X53167547Y-177695360D01*
X53194104Y-177964993D01*
X53272753Y-178224264D01*
X53400472Y-178463210D01*
X53572353Y-178672647D01*
X53781790Y-178844528D01*
X54020736Y-178972247D01*
X54280007Y-179050896D01*
X54549640Y-179077453D01*
X57210360Y-179077453D01*
X57479993Y-179050896D01*
X57739264Y-178972247D01*
X57978210Y-178844528D01*
X58187647Y-178672647D01*
X58266996Y-178575961D01*
X58328796Y-178626679D01*
X58799065Y-178878043D01*
X59309336Y-179032832D01*
X59840000Y-179085098D01*
X60370665Y-179032832D01*
X60880936Y-178878043D01*
X61351205Y-178626679D01*
X61763400Y-178288400D01*
X62101679Y-177876205D01*
X62353043Y-177405935D01*
X62469508Y-177022000D01*
X73807522Y-177022000D01*
X74626357Y-177840835D01*
X74685140Y-177912462D01*
X74970950Y-178147021D01*
X75297029Y-178321314D01*
X75459472Y-178370590D01*
X75650844Y-178428642D01*
X75683172Y-178431826D01*
X75926591Y-178455801D01*
X75926599Y-178455801D01*
X76018801Y-178464882D01*
X76111003Y-178455801D01*
X96480799Y-178455801D01*
X96573001Y-178464882D01*
X96665203Y-178455801D01*
X96665211Y-178455801D01*
X96940957Y-178428642D01*
X97294773Y-178321314D01*
X97620852Y-178147021D01*
X97906662Y-177912462D01*
X97965445Y-177840836D01*
X100013040Y-175793240D01*
X100084662Y-175734462D01*
X100153466Y-175650625D01*
X100319220Y-175448653D01*
X100368263Y-175356901D01*
X100493514Y-175122573D01*
X100600842Y-174768757D01*
X100628001Y-174493011D01*
X100628001Y-174493004D01*
X100637082Y-174400802D01*
X100628001Y-174308600D01*
X100628001Y-161578410D01*
X100637082Y-161486208D01*
X100628001Y-161394006D01*
X100628001Y-161393999D01*
X100600842Y-161118253D01*
X100493514Y-160764437D01*
X100459314Y-160700453D01*
X102193500Y-160700453D01*
X102463203Y-160673890D01*
X102722542Y-160595220D01*
X102961550Y-160467468D01*
X103171042Y-160295542D01*
X103342968Y-160086050D01*
X103470720Y-159847042D01*
X103549390Y-159587703D01*
X103575953Y-159318000D01*
X103575953Y-156658000D01*
X103549390Y-156388297D01*
X103470720Y-156128958D01*
X103342968Y-155889950D01*
X103171042Y-155680458D01*
X103074367Y-155601119D01*
X103125179Y-155539205D01*
X103376543Y-155068936D01*
X103531332Y-154558665D01*
X103583598Y-154028000D01*
X103531332Y-153497335D01*
X103376543Y-152987064D01*
X103125179Y-152516795D01*
X102786900Y-152104600D01*
X102374705Y-151766321D01*
X101904436Y-151514957D01*
X101413236Y-151365953D01*
X102193500Y-151365953D01*
X102463203Y-151339390D01*
X102722542Y-151260720D01*
X102961550Y-151132968D01*
X103171042Y-150961042D01*
X103342968Y-150751550D01*
X103470720Y-150512542D01*
X103549390Y-150253203D01*
X103575953Y-149983500D01*
X103575953Y-147323500D01*
X103549390Y-147053797D01*
X103470720Y-146794458D01*
X103342968Y-146555450D01*
X103171042Y-146345958D01*
X103074367Y-146266619D01*
X103125179Y-146204705D01*
X103376543Y-145734436D01*
X103531332Y-145224165D01*
X103583598Y-144693500D01*
X103531332Y-144162835D01*
X103376543Y-143652564D01*
X103125179Y-143182295D01*
X102786900Y-142770100D01*
X102374705Y-142431821D01*
X101904436Y-142180457D01*
X101394165Y-142025668D01*
X100996486Y-141986500D01*
X99790514Y-141986500D01*
X99392835Y-142025668D01*
X98882564Y-142180457D01*
X98412295Y-142431821D01*
X98000100Y-142770100D01*
X97661821Y-143182295D01*
X97410457Y-143652564D01*
X97255668Y-144162835D01*
X97203402Y-144693500D01*
X97255668Y-145224165D01*
X97410457Y-145734436D01*
X97661821Y-146204705D01*
X97712633Y-146266619D01*
X97615958Y-146345958D01*
X97444032Y-146555450D01*
X97316280Y-146794458D01*
X97237610Y-147053797D01*
X97211047Y-147323500D01*
X97211047Y-149983500D01*
X97237610Y-150253203D01*
X97316280Y-150512542D01*
X97444032Y-150751550D01*
X97615958Y-150961042D01*
X97825450Y-151132968D01*
X98064458Y-151260720D01*
X98323797Y-151339390D01*
X98593500Y-151365953D01*
X99373764Y-151365953D01*
X98882564Y-151514957D01*
X98412295Y-151766321D01*
X98000100Y-152104600D01*
X97661821Y-152516795D01*
X97410457Y-152987064D01*
X97255668Y-153497335D01*
X97203402Y-154028000D01*
X97255668Y-154558665D01*
X97410457Y-155068936D01*
X97661821Y-155539205D01*
X97712633Y-155601119D01*
X97615958Y-155680458D01*
X97444032Y-155889950D01*
X97316280Y-156128958D01*
X97237610Y-156388297D01*
X97211047Y-156658000D01*
X97211047Y-157291777D01*
X94740234Y-154820964D01*
X94681453Y-154749339D01*
X94395643Y-154514780D01*
X94069564Y-154340487D01*
X93715748Y-154233159D01*
X93440002Y-154206000D01*
X93439994Y-154206000D01*
X93347792Y-154196919D01*
X93255590Y-154206000D01*
X92863365Y-154206000D01*
X92854452Y-154201236D01*
X92472361Y-154085330D01*
X92408335Y-154079024D01*
X92519661Y-153987661D01*
X92578444Y-153916034D01*
X93337035Y-153157443D01*
X93408661Y-153098661D01*
X93643220Y-152812851D01*
X93817513Y-152486772D01*
X93909929Y-152182116D01*
X93924841Y-152132957D01*
X93937690Y-152002500D01*
X93952000Y-151857210D01*
X93952000Y-151857202D01*
X93961081Y-151765000D01*
X93952000Y-151672798D01*
X93952000Y-149886365D01*
X93956764Y-149877452D01*
X94072670Y-149495361D01*
X94111807Y-149098000D01*
X94072670Y-148700639D01*
X93956764Y-148318548D01*
X93768543Y-147966411D01*
X93515240Y-147657760D01*
X93206589Y-147404457D01*
X92854452Y-147216236D01*
X92844780Y-147213302D01*
X91562444Y-145930966D01*
X91503661Y-145859339D01*
X91217851Y-145624780D01*
X90942257Y-145477472D01*
X91002939Y-145445036D01*
X91193581Y-145288581D01*
X91232787Y-145240808D01*
X92916813Y-143556783D01*
X92964581Y-143517581D01*
X92970431Y-143510453D01*
X92975000Y-143510453D01*
X93195931Y-143488693D01*
X93408371Y-143424250D01*
X93604157Y-143319600D01*
X93775765Y-143178765D01*
X93916600Y-143007157D01*
X94021250Y-142811371D01*
X94085693Y-142598931D01*
X94107453Y-142378000D01*
X94107453Y-140578000D01*
X94103322Y-140536056D01*
X95074000Y-140536056D01*
X95074000Y-140895944D01*
X95144211Y-141248916D01*
X95281934Y-141581409D01*
X95481876Y-141880645D01*
X95736355Y-142135124D01*
X96035591Y-142335066D01*
X96368084Y-142472789D01*
X96721056Y-142543000D01*
X97080944Y-142543000D01*
X97433916Y-142472789D01*
X97766409Y-142335066D01*
X98065645Y-142135124D01*
X98320124Y-141880645D01*
X98520066Y-141581409D01*
X98657789Y-141248916D01*
X98728000Y-140895944D01*
X98728000Y-140536056D01*
X98657789Y-140183084D01*
X98520066Y-139850591D01*
X98320124Y-139551355D01*
X98065645Y-139296876D01*
X97766409Y-139096934D01*
X97433916Y-138959211D01*
X97080944Y-138889000D01*
X96721056Y-138889000D01*
X96368084Y-138959211D01*
X96035591Y-139096934D01*
X95736355Y-139296876D01*
X95481876Y-139551355D01*
X95281934Y-139850591D01*
X95144211Y-140183084D01*
X95074000Y-140536056D01*
X94103322Y-140536056D01*
X94085693Y-140357069D01*
X94021250Y-140144629D01*
X93916600Y-139948843D01*
X93775765Y-139777235D01*
X93604157Y-139636400D01*
X93408371Y-139531750D01*
X93195931Y-139467307D01*
X92975000Y-139445547D01*
X91175000Y-139445547D01*
X91092188Y-139453703D01*
X91220898Y-139384906D01*
X91537543Y-139125043D01*
X91688951Y-138940551D01*
X91733077Y-138975969D01*
X92008906Y-139119571D01*
X92227020Y-139190563D01*
X92473000Y-139070594D01*
X92473000Y-137727000D01*
X92727000Y-137727000D01*
X92727000Y-139070594D01*
X92972980Y-139190563D01*
X93191094Y-139119571D01*
X93466923Y-138975969D01*
X93709437Y-138781315D01*
X93909316Y-138543089D01*
X94058879Y-138270446D01*
X94152378Y-137973863D01*
X94025570Y-137727000D01*
X92727000Y-137727000D01*
X92473000Y-137727000D01*
X92453000Y-137727000D01*
X92453000Y-137473000D01*
X92473000Y-137473000D01*
X92473000Y-137453000D01*
X92727000Y-137453000D01*
X92727000Y-137473000D01*
X94025570Y-137473000D01*
X94152378Y-137226137D01*
X94058879Y-136929554D01*
X94036084Y-136888000D01*
X95565003Y-136888000D01*
X95602865Y-136934135D01*
X95881062Y-137162445D01*
X96198454Y-137332095D01*
X96542845Y-137436565D01*
X96811245Y-137463000D01*
X96990755Y-137463000D01*
X97259155Y-137436565D01*
X97603546Y-137332095D01*
X97920938Y-137162445D01*
X98199135Y-136934135D01*
X98427445Y-136655938D01*
X98597095Y-136338546D01*
X98701565Y-135994155D01*
X98736840Y-135636000D01*
X98701565Y-135277845D01*
X98597095Y-134933454D01*
X98427445Y-134616062D01*
X98199135Y-134337865D01*
X97920938Y-134109555D01*
X97603546Y-133939905D01*
X97259155Y-133835435D01*
X96990755Y-133809000D01*
X96976478Y-133809000D01*
X97057146Y-133755099D01*
X97492699Y-133319546D01*
X97834911Y-132807390D01*
X98070631Y-132238312D01*
X98190800Y-131634183D01*
X98190800Y-131018217D01*
X98070631Y-130414088D01*
X97834911Y-129845010D01*
X97492699Y-129332854D01*
X97057146Y-128897301D01*
X96544990Y-128555089D01*
X95975912Y-128319369D01*
X95371783Y-128199200D01*
X94755817Y-128199200D01*
X94151688Y-128319369D01*
X93582610Y-128555089D01*
X93070454Y-128897301D01*
X92634901Y-129332854D01*
X92292689Y-129845010D01*
X92056969Y-130414088D01*
X91936800Y-131018217D01*
X91936800Y-131634183D01*
X92056969Y-132238312D01*
X92292689Y-132807390D01*
X92634901Y-133319546D01*
X93070454Y-133755099D01*
X93582610Y-134097311D01*
X94151688Y-134333031D01*
X94407926Y-134384000D01*
X89497995Y-134384000D01*
X89436499Y-134377943D01*
X89375003Y-134384000D01*
X89375002Y-134384000D01*
X89191065Y-134402116D01*
X88955062Y-134473707D01*
X88737560Y-134589964D01*
X88594687Y-134707217D01*
X88546919Y-134746419D01*
X88507717Y-134794187D01*
X87834357Y-135467547D01*
X86567500Y-135467547D01*
X86346569Y-135489307D01*
X86134129Y-135553750D01*
X85938343Y-135658400D01*
X85766735Y-135799235D01*
X85625900Y-135970843D01*
X85521250Y-136166629D01*
X85456807Y-136379069D01*
X85435047Y-136600000D01*
X85435047Y-138600000D01*
X85456807Y-138820931D01*
X85521250Y-139033371D01*
X85625900Y-139229157D01*
X85766735Y-139400765D01*
X85938343Y-139541600D01*
X86134129Y-139646250D01*
X86346569Y-139710693D01*
X86567500Y-139732453D01*
X88472500Y-139732453D01*
X88693431Y-139710693D01*
X88905871Y-139646250D01*
X89101657Y-139541600D01*
X89137391Y-139512274D01*
X89260361Y-139578003D01*
X89652348Y-139696911D01*
X90060000Y-139737061D01*
X90467653Y-139696911D01*
X90474724Y-139694766D01*
X90374235Y-139777235D01*
X90233400Y-139948843D01*
X90128750Y-140144629D01*
X90064307Y-140357069D01*
X90064093Y-140359239D01*
X89812777Y-140191315D01*
X89462085Y-140046053D01*
X89089793Y-139972000D01*
X88710207Y-139972000D01*
X88337915Y-140046053D01*
X87987223Y-140191315D01*
X87671609Y-140402201D01*
X87403201Y-140670609D01*
X87192315Y-140986223D01*
X87047053Y-141336915D01*
X86973000Y-141709207D01*
X86973000Y-142088793D01*
X87047053Y-142461085D01*
X87120748Y-142639000D01*
X86545293Y-142639000D01*
X86450600Y-142461843D01*
X86373688Y-142368126D01*
X86416685Y-142303777D01*
X86561947Y-141953085D01*
X86636000Y-141580793D01*
X86636000Y-141201207D01*
X86561947Y-140828915D01*
X86416685Y-140478223D01*
X86205799Y-140162609D01*
X85937391Y-139894201D01*
X85621777Y-139683315D01*
X85271085Y-139538053D01*
X84898793Y-139464000D01*
X84519207Y-139464000D01*
X84467392Y-139474307D01*
X84476645Y-139468124D01*
X84731124Y-139213645D01*
X84931066Y-138914409D01*
X85068789Y-138581916D01*
X85139000Y-138228944D01*
X85139000Y-137869056D01*
X85068789Y-137516084D01*
X84931066Y-137183591D01*
X84731124Y-136884355D01*
X84476645Y-136629876D01*
X84177409Y-136429934D01*
X83844916Y-136292211D01*
X83491944Y-136222000D01*
X83132056Y-136222000D01*
X82779084Y-136292211D01*
X82446591Y-136429934D01*
X82147355Y-136629876D01*
X81892876Y-136884355D01*
X81692934Y-137183591D01*
X81555211Y-137516084D01*
X81485000Y-137869056D01*
X81485000Y-138104042D01*
X81435166Y-138088925D01*
X81232867Y-138069000D01*
X81165227Y-138062338D01*
X81097587Y-138069000D01*
X80065870Y-138069000D01*
X80067840Y-138049000D01*
X80032565Y-137690845D01*
X79928095Y-137346454D01*
X79758445Y-137029062D01*
X79530135Y-136750865D01*
X79251938Y-136522555D01*
X78934546Y-136352905D01*
X78590155Y-136248435D01*
X78321755Y-136222000D01*
X78142245Y-136222000D01*
X77873845Y-136248435D01*
X77529454Y-136352905D01*
X77212062Y-136522555D01*
X76933865Y-136750865D01*
X76842304Y-136862433D01*
X76654021Y-136674150D01*
X76610897Y-136621603D01*
X76401221Y-136449527D01*
X76162005Y-136321663D01*
X76108412Y-136305406D01*
X76361909Y-136051909D01*
X76606212Y-135686284D01*
X76692000Y-135255000D01*
X76692000Y-134453200D01*
X76951783Y-134453200D01*
X77555912Y-134333031D01*
X78124990Y-134097311D01*
X78637146Y-133755099D01*
X79072699Y-133319546D01*
X79414911Y-132807390D01*
X79650631Y-132238312D01*
X79770800Y-131634183D01*
X79770800Y-131018217D01*
X81980000Y-131018217D01*
X81980000Y-131634183D01*
X82100169Y-132238312D01*
X82335889Y-132807390D01*
X82678101Y-133319546D01*
X83113654Y-133755099D01*
X83625810Y-134097311D01*
X84194888Y-134333031D01*
X84799017Y-134453200D01*
X85414983Y-134453200D01*
X86019112Y-134333031D01*
X86588190Y-134097311D01*
X87100346Y-133755099D01*
X87535899Y-133319546D01*
X87878111Y-132807390D01*
X88113831Y-132238312D01*
X88234000Y-131634183D01*
X88234000Y-131018217D01*
X88113831Y-130414088D01*
X87878111Y-129845010D01*
X87535899Y-129332854D01*
X87100346Y-128897301D01*
X86588190Y-128555089D01*
X86019112Y-128319369D01*
X85414983Y-128199200D01*
X84799017Y-128199200D01*
X84194888Y-128319369D01*
X83625810Y-128555089D01*
X83113654Y-128897301D01*
X82678101Y-129332854D01*
X82335889Y-129845010D01*
X82100169Y-130414088D01*
X81980000Y-131018217D01*
X79770800Y-131018217D01*
X79650631Y-130414088D01*
X79414911Y-129845010D01*
X79072699Y-129332854D01*
X78637146Y-128897301D01*
X78124990Y-128555089D01*
X77555912Y-128319369D01*
X76951783Y-128199200D01*
X76335817Y-128199200D01*
X75731688Y-128319369D01*
X75318891Y-128490355D01*
X74930000Y-128413000D01*
X67825157Y-128413000D01*
X67599112Y-128319369D01*
X66994983Y-128199200D01*
X66379017Y-128199200D01*
X65774888Y-128319369D01*
X65548843Y-128413000D01*
X64770000Y-128413000D01*
X64338716Y-128498788D01*
X63973091Y-128743091D01*
X63033182Y-129683000D01*
X62021453Y-129683000D01*
X62021453Y-127676140D01*
X61994896Y-127406507D01*
X61916247Y-127147236D01*
X61788528Y-126908290D01*
X61616647Y-126698853D01*
X61407210Y-126526972D01*
X61168264Y-126399253D01*
X60908993Y-126320604D01*
X60639360Y-126294047D01*
X57978640Y-126294047D01*
X57904450Y-126301354D01*
X57443787Y-125840692D01*
X57404581Y-125792919D01*
X57213939Y-125636464D01*
X56996438Y-125520207D01*
X56760435Y-125448616D01*
X56576498Y-125430500D01*
X56576496Y-125430500D01*
X56515000Y-125424443D01*
X56453504Y-125430500D01*
X54757563Y-125430500D01*
X54696067Y-125424443D01*
X54634571Y-125430500D01*
X54634569Y-125430500D01*
X54450632Y-125448616D01*
X54214629Y-125520207D01*
X53997128Y-125636464D01*
X53806486Y-125792919D01*
X53767280Y-125840692D01*
X51266748Y-128341224D01*
X51404716Y-128008139D01*
X51571000Y-127172172D01*
X51571000Y-126319828D01*
X51404716Y-125483861D01*
X51078538Y-124696397D01*
X50858442Y-124367000D01*
X100559013Y-124367000D01*
X100432462Y-124556397D01*
X100432462Y-124556397D01*
G37*
X100432462Y-124556397D02*
X100106284Y-125343861D01*
X99940000Y-126179828D01*
X99940000Y-127032172D01*
X100106284Y-127868139D01*
X100432462Y-128655603D01*
X100905999Y-129364302D01*
X101508698Y-129967001D01*
X102217397Y-130440538D01*
X103004861Y-130766716D01*
X103840828Y-130933000D01*
X104693172Y-130933000D01*
X105529139Y-130766716D01*
X106316603Y-130440538D01*
X106519001Y-130305300D01*
X106519000Y-175116699D01*
X106316603Y-174981462D01*
X105529139Y-174655284D01*
X104693172Y-174489000D01*
X103840828Y-174489000D01*
X103004861Y-174655284D01*
X102217397Y-174981462D01*
X101508698Y-175454999D01*
X100905999Y-176057698D01*
X100432462Y-176766397D01*
X100106284Y-177553861D01*
X99940000Y-178389828D01*
X99940000Y-179242172D01*
X100106284Y-180078139D01*
X100432462Y-180865603D01*
X100652558Y-181195000D01*
X50943301Y-181195000D01*
X51078538Y-180992603D01*
X51404716Y-180205139D01*
X51571000Y-179369172D01*
X51571000Y-178516828D01*
X51404716Y-177680861D01*
X51078538Y-176893397D01*
X50605001Y-176184698D01*
X50002302Y-175581999D01*
X49293603Y-175108462D01*
X48506139Y-174782284D01*
X47670172Y-174616000D01*
X46817828Y-174616000D01*
X45981861Y-174782284D01*
X45194397Y-175108462D01*
X44865000Y-175328558D01*
X44865000Y-165081977D01*
X44923560Y-165130036D01*
X45141062Y-165246293D01*
X45377065Y-165317883D01*
X45622498Y-165342057D01*
X45865511Y-165318122D01*
X46015363Y-165467974D01*
X46055500Y-165494793D01*
X46055501Y-166299524D01*
X45844555Y-166556562D01*
X45674905Y-166873954D01*
X45570435Y-167218345D01*
X45535160Y-167576500D01*
X45570435Y-167934655D01*
X45674905Y-168279046D01*
X45844555Y-168596438D01*
X46072865Y-168874635D01*
X46351062Y-169102945D01*
X46668454Y-169272595D01*
X47012845Y-169377065D01*
X47281245Y-169403500D01*
X47460755Y-169403500D01*
X47729155Y-169377065D01*
X48073546Y-169272595D01*
X48390938Y-169102945D01*
X48669135Y-168874635D01*
X48897445Y-168596438D01*
X49067095Y-168279046D01*
X49171565Y-167934655D01*
X49206840Y-167576500D01*
X49171565Y-167218345D01*
X49067095Y-166873954D01*
X48897445Y-166556562D01*
X48669135Y-166278365D01*
X48559500Y-166188390D01*
X48559500Y-165494793D01*
X48599637Y-165467974D01*
X48881974Y-165185637D01*
X49103804Y-164853645D01*
X49256604Y-164484754D01*
X49334500Y-164093142D01*
X49334500Y-163693858D01*
X49256604Y-163302246D01*
X49103804Y-162933355D01*
X48881974Y-162601363D01*
X48789170Y-162508559D01*
X48818097Y-162438723D01*
X48842500Y-162316042D01*
X48842500Y-161639250D01*
X48683750Y-161480500D01*
X47434500Y-161480500D01*
X47434500Y-161500500D01*
X47180500Y-161500500D01*
X47180500Y-161480500D01*
X45931250Y-161480500D01*
X45772500Y-161639250D01*
X45772500Y-162316042D01*
X45796903Y-162438723D01*
X45825830Y-162508559D01*
X45733026Y-162601363D01*
X45657184Y-162714868D01*
X45495499Y-162698943D01*
X45250065Y-162723117D01*
X45014062Y-162794707D01*
X44865000Y-162874383D01*
X44865000Y-160390958D01*
X45772500Y-160390958D01*
X45772500Y-161067750D01*
X45931250Y-161226500D01*
X47180500Y-161226500D01*
X47180500Y-159977250D01*
X47434500Y-159977250D01*
X47434500Y-161226500D01*
X48683750Y-161226500D01*
X48842500Y-161067750D01*
X48842500Y-160390958D01*
X48818097Y-160268277D01*
X48770230Y-160152715D01*
X48700737Y-160048711D01*
X48612289Y-159960263D01*
X48508285Y-159890770D01*
X48392723Y-159842903D01*
X48270042Y-159818500D01*
X47593250Y-159818500D01*
X47434500Y-159977250D01*
X47180500Y-159977250D01*
X47021750Y-159818500D01*
X46344958Y-159818500D01*
X46222277Y-159842903D01*
X46106715Y-159890770D01*
X46002711Y-159960263D01*
X45914263Y-160048711D01*
X45844770Y-160152715D01*
X45796903Y-160268277D01*
X45772500Y-160390958D01*
X44865000Y-160390958D01*
X44865000Y-156457158D01*
X44958235Y-156570765D01*
X45129843Y-156711600D01*
X45325629Y-156816250D01*
X45538069Y-156880693D01*
X45759000Y-156902453D01*
X47459000Y-156902453D01*
X47679931Y-156880693D01*
X47892371Y-156816250D01*
X48088157Y-156711600D01*
X48259765Y-156570765D01*
X48400600Y-156399157D01*
X48505250Y-156203371D01*
X48525384Y-156136999D01*
X49635000Y-156136999D01*
X49635000Y-156399793D01*
X49685001Y-156651166D01*
X49685000Y-158467297D01*
X49675919Y-158559500D01*
X49685000Y-158651702D01*
X49685000Y-158651709D01*
X49712159Y-158927455D01*
X49819487Y-159281271D01*
X49993780Y-159607350D01*
X50228339Y-159893161D01*
X50299966Y-159951944D01*
X51441733Y-161093711D01*
X51540876Y-171404500D01*
X48702769Y-171404500D01*
X48535645Y-171237376D01*
X48236409Y-171037434D01*
X47903916Y-170899711D01*
X47550944Y-170829500D01*
X47191056Y-170829500D01*
X46838084Y-170899711D01*
X46505591Y-171037434D01*
X46206355Y-171237376D01*
X45951876Y-171491855D01*
X45751934Y-171791091D01*
X45614211Y-172123584D01*
X45544000Y-172476556D01*
X45544000Y-172836444D01*
X45614211Y-173189416D01*
X45751934Y-173521909D01*
X45951876Y-173821145D01*
X46206355Y-174075624D01*
X46505591Y-174275566D01*
X46838084Y-174413289D01*
X47191056Y-174483500D01*
X47550944Y-174483500D01*
X47903916Y-174413289D01*
X48236409Y-174275566D01*
X48535645Y-174075624D01*
X48702769Y-173908500D01*
X51564953Y-173908500D01*
X51578052Y-175270836D01*
X51663788Y-175691284D01*
X51908091Y-176056909D01*
X52543091Y-176691909D01*
X52908716Y-176936212D01*
X53167547Y-176987697D01*
X53167547Y-177695360D01*
X53194104Y-177964993D01*
X53272753Y-178224264D01*
X53400472Y-178463210D01*
X53572353Y-178672647D01*
X53781790Y-178844528D01*
X54020736Y-178972247D01*
X54280007Y-179050896D01*
X54549640Y-179077453D01*
X57210360Y-179077453D01*
X57479993Y-179050896D01*
X57739264Y-178972247D01*
X57978210Y-178844528D01*
X58187647Y-178672647D01*
X58266996Y-178575961D01*
X58328796Y-178626679D01*
X58799065Y-178878043D01*
X59309336Y-179032832D01*
X59840000Y-179085098D01*
X60370665Y-179032832D01*
X60880936Y-178878043D01*
X61351205Y-178626679D01*
X61763400Y-178288400D01*
X62101679Y-177876205D01*
X62353043Y-177405935D01*
X62469508Y-177022000D01*
X73807522Y-177022000D01*
X74626357Y-177840835D01*
X74685140Y-177912462D01*
X74970950Y-178147021D01*
X75297029Y-178321314D01*
X75459472Y-178370590D01*
X75650844Y-178428642D01*
X75683172Y-178431826D01*
X75926591Y-178455801D01*
X75926599Y-178455801D01*
X76018801Y-178464882D01*
X76111003Y-178455801D01*
X96480799Y-178455801D01*
X96573001Y-178464882D01*
X96665203Y-178455801D01*
X96665211Y-178455801D01*
X96940957Y-178428642D01*
X97294773Y-178321314D01*
X97620852Y-178147021D01*
X97906662Y-177912462D01*
X97965445Y-177840836D01*
X100013040Y-175793240D01*
X100084662Y-175734462D01*
X100153466Y-175650625D01*
X100319220Y-175448653D01*
X100368263Y-175356901D01*
X100493514Y-175122573D01*
X100600842Y-174768757D01*
X100628001Y-174493011D01*
X100628001Y-174493004D01*
X100637082Y-174400802D01*
X100628001Y-174308600D01*
X100628001Y-161578410D01*
X100637082Y-161486208D01*
X100628001Y-161394006D01*
X100628001Y-161393999D01*
X100600842Y-161118253D01*
X100493514Y-160764437D01*
X100459314Y-160700453D01*
X102193500Y-160700453D01*
X102463203Y-160673890D01*
X102722542Y-160595220D01*
X102961550Y-160467468D01*
X103171042Y-160295542D01*
X103342968Y-160086050D01*
X103470720Y-159847042D01*
X103549390Y-159587703D01*
X103575953Y-159318000D01*
X103575953Y-156658000D01*
X103549390Y-156388297D01*
X103470720Y-156128958D01*
X103342968Y-155889950D01*
X103171042Y-155680458D01*
X103074367Y-155601119D01*
X103125179Y-155539205D01*
X103376543Y-155068936D01*
X103531332Y-154558665D01*
X103583598Y-154028000D01*
X103531332Y-153497335D01*
X103376543Y-152987064D01*
X103125179Y-152516795D01*
X102786900Y-152104600D01*
X102374705Y-151766321D01*
X101904436Y-151514957D01*
X101413236Y-151365953D01*
X102193500Y-151365953D01*
X102463203Y-151339390D01*
X102722542Y-151260720D01*
X102961550Y-151132968D01*
X103171042Y-150961042D01*
X103342968Y-150751550D01*
X103470720Y-150512542D01*
X103549390Y-150253203D01*
X103575953Y-149983500D01*
X103575953Y-147323500D01*
X103549390Y-147053797D01*
X103470720Y-146794458D01*
X103342968Y-146555450D01*
X103171042Y-146345958D01*
X103074367Y-146266619D01*
X103125179Y-146204705D01*
X103376543Y-145734436D01*
X103531332Y-145224165D01*
X103583598Y-144693500D01*
X103531332Y-144162835D01*
X103376543Y-143652564D01*
X103125179Y-143182295D01*
X102786900Y-142770100D01*
X102374705Y-142431821D01*
X101904436Y-142180457D01*
X101394165Y-142025668D01*
X100996486Y-141986500D01*
X99790514Y-141986500D01*
X99392835Y-142025668D01*
X98882564Y-142180457D01*
X98412295Y-142431821D01*
X98000100Y-142770100D01*
X97661821Y-143182295D01*
X97410457Y-143652564D01*
X97255668Y-144162835D01*
X97203402Y-144693500D01*
X97255668Y-145224165D01*
X97410457Y-145734436D01*
X97661821Y-146204705D01*
X97712633Y-146266619D01*
X97615958Y-146345958D01*
X97444032Y-146555450D01*
X97316280Y-146794458D01*
X97237610Y-147053797D01*
X97211047Y-147323500D01*
X97211047Y-149983500D01*
X97237610Y-150253203D01*
X97316280Y-150512542D01*
X97444032Y-150751550D01*
X97615958Y-150961042D01*
X97825450Y-151132968D01*
X98064458Y-151260720D01*
X98323797Y-151339390D01*
X98593500Y-151365953D01*
X99373764Y-151365953D01*
X98882564Y-151514957D01*
X98412295Y-151766321D01*
X98000100Y-152104600D01*
X97661821Y-152516795D01*
X97410457Y-152987064D01*
X97255668Y-153497335D01*
X97203402Y-154028000D01*
X97255668Y-154558665D01*
X97410457Y-155068936D01*
X97661821Y-155539205D01*
X97712633Y-155601119D01*
X97615958Y-155680458D01*
X97444032Y-155889950D01*
X97316280Y-156128958D01*
X97237610Y-156388297D01*
X97211047Y-156658000D01*
X97211047Y-157291777D01*
X94740234Y-154820964D01*
X94681453Y-154749339D01*
X94395643Y-154514780D01*
X94069564Y-154340487D01*
X93715748Y-154233159D01*
X93440002Y-154206000D01*
X93439994Y-154206000D01*
X93347792Y-154196919D01*
X93255590Y-154206000D01*
X92863365Y-154206000D01*
X92854452Y-154201236D01*
X92472361Y-154085330D01*
X92408335Y-154079024D01*
X92519661Y-153987661D01*
X92578444Y-153916034D01*
X93337035Y-153157443D01*
X93408661Y-153098661D01*
X93643220Y-152812851D01*
X93817513Y-152486772D01*
X93909929Y-152182116D01*
X93924841Y-152132957D01*
X93937690Y-152002500D01*
X93952000Y-151857210D01*
X93952000Y-151857202D01*
X93961081Y-151765000D01*
X93952000Y-151672798D01*
X93952000Y-149886365D01*
X93956764Y-149877452D01*
X94072670Y-149495361D01*
X94111807Y-149098000D01*
X94072670Y-148700639D01*
X93956764Y-148318548D01*
X93768543Y-147966411D01*
X93515240Y-147657760D01*
X93206589Y-147404457D01*
X92854452Y-147216236D01*
X92844780Y-147213302D01*
X91562444Y-145930966D01*
X91503661Y-145859339D01*
X91217851Y-145624780D01*
X90942257Y-145477472D01*
X91002939Y-145445036D01*
X91193581Y-145288581D01*
X91232787Y-145240808D01*
X92916813Y-143556783D01*
X92964581Y-143517581D01*
X92970431Y-143510453D01*
X92975000Y-143510453D01*
X93195931Y-143488693D01*
X93408371Y-143424250D01*
X93604157Y-143319600D01*
X93775765Y-143178765D01*
X93916600Y-143007157D01*
X94021250Y-142811371D01*
X94085693Y-142598931D01*
X94107453Y-142378000D01*
X94107453Y-140578000D01*
X94103322Y-140536056D01*
X95074000Y-140536056D01*
X95074000Y-140895944D01*
X95144211Y-141248916D01*
X95281934Y-141581409D01*
X95481876Y-141880645D01*
X95736355Y-142135124D01*
X96035591Y-142335066D01*
X96368084Y-142472789D01*
X96721056Y-142543000D01*
X97080944Y-142543000D01*
X97433916Y-142472789D01*
X97766409Y-142335066D01*
X98065645Y-142135124D01*
X98320124Y-141880645D01*
X98520066Y-141581409D01*
X98657789Y-141248916D01*
X98728000Y-140895944D01*
X98728000Y-140536056D01*
X98657789Y-140183084D01*
X98520066Y-139850591D01*
X98320124Y-139551355D01*
X98065645Y-139296876D01*
X97766409Y-139096934D01*
X97433916Y-138959211D01*
X97080944Y-138889000D01*
X96721056Y-138889000D01*
X96368084Y-138959211D01*
X96035591Y-139096934D01*
X95736355Y-139296876D01*
X95481876Y-139551355D01*
X95281934Y-139850591D01*
X95144211Y-140183084D01*
X95074000Y-140536056D01*
X94103322Y-140536056D01*
X94085693Y-140357069D01*
X94021250Y-140144629D01*
X93916600Y-139948843D01*
X93775765Y-139777235D01*
X93604157Y-139636400D01*
X93408371Y-139531750D01*
X93195931Y-139467307D01*
X92975000Y-139445547D01*
X91175000Y-139445547D01*
X91092188Y-139453703D01*
X91220898Y-139384906D01*
X91537543Y-139125043D01*
X91688951Y-138940551D01*
X91733077Y-138975969D01*
X92008906Y-139119571D01*
X92227020Y-139190563D01*
X92473000Y-139070594D01*
X92473000Y-137727000D01*
X92727000Y-137727000D01*
X92727000Y-139070594D01*
X92972980Y-139190563D01*
X93191094Y-139119571D01*
X93466923Y-138975969D01*
X93709437Y-138781315D01*
X93909316Y-138543089D01*
X94058879Y-138270446D01*
X94152378Y-137973863D01*
X94025570Y-137727000D01*
X92727000Y-137727000D01*
X92473000Y-137727000D01*
X92453000Y-137727000D01*
X92453000Y-137473000D01*
X92473000Y-137473000D01*
X92473000Y-137453000D01*
X92727000Y-137453000D01*
X92727000Y-137473000D01*
X94025570Y-137473000D01*
X94152378Y-137226137D01*
X94058879Y-136929554D01*
X94036084Y-136888000D01*
X95565003Y-136888000D01*
X95602865Y-136934135D01*
X95881062Y-137162445D01*
X96198454Y-137332095D01*
X96542845Y-137436565D01*
X96811245Y-137463000D01*
X96990755Y-137463000D01*
X97259155Y-137436565D01*
X97603546Y-137332095D01*
X97920938Y-137162445D01*
X98199135Y-136934135D01*
X98427445Y-136655938D01*
X98597095Y-136338546D01*
X98701565Y-135994155D01*
X98736840Y-135636000D01*
X98701565Y-135277845D01*
X98597095Y-134933454D01*
X98427445Y-134616062D01*
X98199135Y-134337865D01*
X97920938Y-134109555D01*
X97603546Y-133939905D01*
X97259155Y-133835435D01*
X96990755Y-133809000D01*
X96976478Y-133809000D01*
X97057146Y-133755099D01*
X97492699Y-133319546D01*
X97834911Y-132807390D01*
X98070631Y-132238312D01*
X98190800Y-131634183D01*
X98190800Y-131018217D01*
X98070631Y-130414088D01*
X97834911Y-129845010D01*
X97492699Y-129332854D01*
X97057146Y-128897301D01*
X96544990Y-128555089D01*
X95975912Y-128319369D01*
X95371783Y-128199200D01*
X94755817Y-128199200D01*
X94151688Y-128319369D01*
X93582610Y-128555089D01*
X93070454Y-128897301D01*
X92634901Y-129332854D01*
X92292689Y-129845010D01*
X92056969Y-130414088D01*
X91936800Y-131018217D01*
X91936800Y-131634183D01*
X92056969Y-132238312D01*
X92292689Y-132807390D01*
X92634901Y-133319546D01*
X93070454Y-133755099D01*
X93582610Y-134097311D01*
X94151688Y-134333031D01*
X94407926Y-134384000D01*
X89497995Y-134384000D01*
X89436499Y-134377943D01*
X89375003Y-134384000D01*
X89375002Y-134384000D01*
X89191065Y-134402116D01*
X88955062Y-134473707D01*
X88737560Y-134589964D01*
X88594687Y-134707217D01*
X88546919Y-134746419D01*
X88507717Y-134794187D01*
X87834357Y-135467547D01*
X86567500Y-135467547D01*
X86346569Y-135489307D01*
X86134129Y-135553750D01*
X85938343Y-135658400D01*
X85766735Y-135799235D01*
X85625900Y-135970843D01*
X85521250Y-136166629D01*
X85456807Y-136379069D01*
X85435047Y-136600000D01*
X85435047Y-138600000D01*
X85456807Y-138820931D01*
X85521250Y-139033371D01*
X85625900Y-139229157D01*
X85766735Y-139400765D01*
X85938343Y-139541600D01*
X86134129Y-139646250D01*
X86346569Y-139710693D01*
X86567500Y-139732453D01*
X88472500Y-139732453D01*
X88693431Y-139710693D01*
X88905871Y-139646250D01*
X89101657Y-139541600D01*
X89137391Y-139512274D01*
X89260361Y-139578003D01*
X89652348Y-139696911D01*
X90060000Y-139737061D01*
X90467653Y-139696911D01*
X90474724Y-139694766D01*
X90374235Y-139777235D01*
X90233400Y-139948843D01*
X90128750Y-140144629D01*
X90064307Y-140357069D01*
X90064093Y-140359239D01*
X89812777Y-140191315D01*
X89462085Y-140046053D01*
X89089793Y-139972000D01*
X88710207Y-139972000D01*
X88337915Y-140046053D01*
X87987223Y-140191315D01*
X87671609Y-140402201D01*
X87403201Y-140670609D01*
X87192315Y-140986223D01*
X87047053Y-141336915D01*
X86973000Y-141709207D01*
X86973000Y-142088793D01*
X87047053Y-142461085D01*
X87120748Y-142639000D01*
X86545293Y-142639000D01*
X86450600Y-142461843D01*
X86373688Y-142368126D01*
X86416685Y-142303777D01*
X86561947Y-141953085D01*
X86636000Y-141580793D01*
X86636000Y-141201207D01*
X86561947Y-140828915D01*
X86416685Y-140478223D01*
X86205799Y-140162609D01*
X85937391Y-139894201D01*
X85621777Y-139683315D01*
X85271085Y-139538053D01*
X84898793Y-139464000D01*
X84519207Y-139464000D01*
X84467392Y-139474307D01*
X84476645Y-139468124D01*
X84731124Y-139213645D01*
X84931066Y-138914409D01*
X85068789Y-138581916D01*
X85139000Y-138228944D01*
X85139000Y-137869056D01*
X85068789Y-137516084D01*
X84931066Y-137183591D01*
X84731124Y-136884355D01*
X84476645Y-136629876D01*
X84177409Y-136429934D01*
X83844916Y-136292211D01*
X83491944Y-136222000D01*
X83132056Y-136222000D01*
X82779084Y-136292211D01*
X82446591Y-136429934D01*
X82147355Y-136629876D01*
X81892876Y-136884355D01*
X81692934Y-137183591D01*
X81555211Y-137516084D01*
X81485000Y-137869056D01*
X81485000Y-138104042D01*
X81435166Y-138088925D01*
X81232867Y-138069000D01*
X81165227Y-138062338D01*
X81097587Y-138069000D01*
X80065870Y-138069000D01*
X80067840Y-138049000D01*
X80032565Y-137690845D01*
X79928095Y-137346454D01*
X79758445Y-137029062D01*
X79530135Y-136750865D01*
X79251938Y-136522555D01*
X78934546Y-136352905D01*
X78590155Y-136248435D01*
X78321755Y-136222000D01*
X78142245Y-136222000D01*
X77873845Y-136248435D01*
X77529454Y-136352905D01*
X77212062Y-136522555D01*
X76933865Y-136750865D01*
X76842304Y-136862433D01*
X76654021Y-136674150D01*
X76610897Y-136621603D01*
X76401221Y-136449527D01*
X76162005Y-136321663D01*
X76108412Y-136305406D01*
X76361909Y-136051909D01*
X76606212Y-135686284D01*
X76692000Y-135255000D01*
X76692000Y-134453200D01*
X76951783Y-134453200D01*
X77555912Y-134333031D01*
X78124990Y-134097311D01*
X78637146Y-133755099D01*
X79072699Y-133319546D01*
X79414911Y-132807390D01*
X79650631Y-132238312D01*
X79770800Y-131634183D01*
X79770800Y-131018217D01*
X81980000Y-131018217D01*
X81980000Y-131634183D01*
X82100169Y-132238312D01*
X82335889Y-132807390D01*
X82678101Y-133319546D01*
X83113654Y-133755099D01*
X83625810Y-134097311D01*
X84194888Y-134333031D01*
X84799017Y-134453200D01*
X85414983Y-134453200D01*
X86019112Y-134333031D01*
X86588190Y-134097311D01*
X87100346Y-133755099D01*
X87535899Y-133319546D01*
X87878111Y-132807390D01*
X88113831Y-132238312D01*
X88234000Y-131634183D01*
X88234000Y-131018217D01*
X88113831Y-130414088D01*
X87878111Y-129845010D01*
X87535899Y-129332854D01*
X87100346Y-128897301D01*
X86588190Y-128555089D01*
X86019112Y-128319369D01*
X85414983Y-128199200D01*
X84799017Y-128199200D01*
X84194888Y-128319369D01*
X83625810Y-128555089D01*
X83113654Y-128897301D01*
X82678101Y-129332854D01*
X82335889Y-129845010D01*
X82100169Y-130414088D01*
X81980000Y-131018217D01*
X79770800Y-131018217D01*
X79650631Y-130414088D01*
X79414911Y-129845010D01*
X79072699Y-129332854D01*
X78637146Y-128897301D01*
X78124990Y-128555089D01*
X77555912Y-128319369D01*
X76951783Y-128199200D01*
X76335817Y-128199200D01*
X75731688Y-128319369D01*
X75318891Y-128490355D01*
X74930000Y-128413000D01*
X67825157Y-128413000D01*
X67599112Y-128319369D01*
X66994983Y-128199200D01*
X66379017Y-128199200D01*
X65774888Y-128319369D01*
X65548843Y-128413000D01*
X64770000Y-128413000D01*
X64338716Y-128498788D01*
X63973091Y-128743091D01*
X63033182Y-129683000D01*
X62021453Y-129683000D01*
X62021453Y-127676140D01*
X61994896Y-127406507D01*
X61916247Y-127147236D01*
X61788528Y-126908290D01*
X61616647Y-126698853D01*
X61407210Y-126526972D01*
X61168264Y-126399253D01*
X60908993Y-126320604D01*
X60639360Y-126294047D01*
X57978640Y-126294047D01*
X57904450Y-126301354D01*
X57443787Y-125840692D01*
X57404581Y-125792919D01*
X57213939Y-125636464D01*
X56996438Y-125520207D01*
X56760435Y-125448616D01*
X56576498Y-125430500D01*
X56576496Y-125430500D01*
X56515000Y-125424443D01*
X56453504Y-125430500D01*
X54757563Y-125430500D01*
X54696067Y-125424443D01*
X54634571Y-125430500D01*
X54634569Y-125430500D01*
X54450632Y-125448616D01*
X54214629Y-125520207D01*
X53997128Y-125636464D01*
X53806486Y-125792919D01*
X53767280Y-125840692D01*
X51266748Y-128341224D01*
X51404716Y-128008139D01*
X51571000Y-127172172D01*
X51571000Y-126319828D01*
X51404716Y-125483861D01*
X51078538Y-124696397D01*
X50858442Y-124367000D01*
X100559013Y-124367000D01*
X100432462Y-124556397D01*
G36*
X81511435Y-167027845D02*
X81476160Y-167386000D01*
X81511435Y-167744155D01*
X81615905Y-168088546D01*
X81785555Y-168405938D01*
X82013865Y-168684135D01*
X82292062Y-168912445D01*
X82609454Y-169082095D01*
X82953845Y-169186565D01*
X83222245Y-169213000D01*
X83401755Y-169213000D01*
X83670155Y-169186565D01*
X84014546Y-169082095D01*
X84331938Y-168912445D01*
X84610135Y-168684135D01*
X84838445Y-168405938D01*
X85008095Y-168088546D01*
X85112565Y-167744155D01*
X85143618Y-167428863D01*
X85967622Y-167428863D01*
X86061121Y-167725446D01*
X86210684Y-167998089D01*
X86410563Y-168236315D01*
X86653077Y-168430969D01*
X86928906Y-168574571D01*
X87147020Y-168645563D01*
X87393000Y-168525594D01*
X87393000Y-167182000D01*
X86094430Y-167182000D01*
X85967622Y-167428863D01*
X85143618Y-167428863D01*
X85147840Y-167386000D01*
X85112565Y-167027845D01*
X85022518Y-166731000D01*
X85993236Y-166731000D01*
X86094430Y-166928000D01*
X87393000Y-166928000D01*
X87393000Y-166908000D01*
X87647000Y-166908000D01*
X87647000Y-166928000D01*
X87667000Y-166928000D01*
X87667000Y-167182000D01*
X87647000Y-167182000D01*
X87647000Y-168525594D01*
X87892980Y-168645563D01*
X88111094Y-168574571D01*
X88386923Y-168430969D01*
X88431049Y-168395551D01*
X88582457Y-168580043D01*
X88899102Y-168839906D01*
X89260360Y-169033003D01*
X89652347Y-169151911D01*
X90060000Y-169192061D01*
X90467652Y-169151911D01*
X90859639Y-169033003D01*
X90982609Y-168967274D01*
X91018343Y-168996600D01*
X91214129Y-169101250D01*
X91426569Y-169165693D01*
X91647500Y-169187453D01*
X92737581Y-169187453D01*
X93385983Y-169835855D01*
X93429103Y-169888397D01*
X93638779Y-170060473D01*
X93877995Y-170188337D01*
X94137560Y-170267075D01*
X94297609Y-170282839D01*
X94100888Y-170321969D01*
X93531810Y-170557689D01*
X93019654Y-170899901D01*
X92584101Y-171335454D01*
X92241889Y-171847610D01*
X92006169Y-172416688D01*
X91886000Y-173020817D01*
X91886000Y-173636783D01*
X92006169Y-174240912D01*
X92197076Y-174701801D01*
X87872124Y-174701801D01*
X88063031Y-174240912D01*
X88183200Y-173636783D01*
X88183200Y-173020817D01*
X88063031Y-172416688D01*
X87827311Y-171847610D01*
X87485099Y-171335454D01*
X87049546Y-170899901D01*
X86537390Y-170557689D01*
X85968312Y-170321969D01*
X85364183Y-170201800D01*
X84748217Y-170201800D01*
X84144088Y-170321969D01*
X83575010Y-170557689D01*
X83062854Y-170899901D01*
X82627301Y-171335454D01*
X82285089Y-171847610D01*
X82049369Y-172416688D01*
X81929200Y-173020817D01*
X81929200Y-173636783D01*
X82049369Y-174240912D01*
X82240276Y-174701801D01*
X81137000Y-174701801D01*
X81137000Y-170815000D01*
X81051212Y-170383716D01*
X80806909Y-170018091D01*
X80171909Y-169383091D01*
X79806284Y-169138788D01*
X79375000Y-169053000D01*
X78981686Y-169053000D01*
X79097409Y-169005066D01*
X79396645Y-168805124D01*
X79651124Y-168550645D01*
X79851066Y-168251409D01*
X79988789Y-167918916D01*
X80059000Y-167565944D01*
X80059000Y-167206056D01*
X79988789Y-166853084D01*
X79938220Y-166731000D01*
X81601482Y-166731000D01*
X81511435Y-167027845D01*
X81511435Y-167027845D01*
G37*
X81511435Y-167027845D02*
X81476160Y-167386000D01*
X81511435Y-167744155D01*
X81615905Y-168088546D01*
X81785555Y-168405938D01*
X82013865Y-168684135D01*
X82292062Y-168912445D01*
X82609454Y-169082095D01*
X82953845Y-169186565D01*
X83222245Y-169213000D01*
X83401755Y-169213000D01*
X83670155Y-169186565D01*
X84014546Y-169082095D01*
X84331938Y-168912445D01*
X84610135Y-168684135D01*
X84838445Y-168405938D01*
X85008095Y-168088546D01*
X85112565Y-167744155D01*
X85143618Y-167428863D01*
X85967622Y-167428863D01*
X86061121Y-167725446D01*
X86210684Y-167998089D01*
X86410563Y-168236315D01*
X86653077Y-168430969D01*
X86928906Y-168574571D01*
X87147020Y-168645563D01*
X87393000Y-168525594D01*
X87393000Y-167182000D01*
X86094430Y-167182000D01*
X85967622Y-167428863D01*
X85143618Y-167428863D01*
X85147840Y-167386000D01*
X85112565Y-167027845D01*
X85022518Y-166731000D01*
X85993236Y-166731000D01*
X86094430Y-166928000D01*
X87393000Y-166928000D01*
X87393000Y-166908000D01*
X87647000Y-166908000D01*
X87647000Y-166928000D01*
X87667000Y-166928000D01*
X87667000Y-167182000D01*
X87647000Y-167182000D01*
X87647000Y-168525594D01*
X87892980Y-168645563D01*
X88111094Y-168574571D01*
X88386923Y-168430969D01*
X88431049Y-168395551D01*
X88582457Y-168580043D01*
X88899102Y-168839906D01*
X89260360Y-169033003D01*
X89652347Y-169151911D01*
X90060000Y-169192061D01*
X90467652Y-169151911D01*
X90859639Y-169033003D01*
X90982609Y-168967274D01*
X91018343Y-168996600D01*
X91214129Y-169101250D01*
X91426569Y-169165693D01*
X91647500Y-169187453D01*
X92737581Y-169187453D01*
X93385983Y-169835855D01*
X93429103Y-169888397D01*
X93638779Y-170060473D01*
X93877995Y-170188337D01*
X94137560Y-170267075D01*
X94297609Y-170282839D01*
X94100888Y-170321969D01*
X93531810Y-170557689D01*
X93019654Y-170899901D01*
X92584101Y-171335454D01*
X92241889Y-171847610D01*
X92006169Y-172416688D01*
X91886000Y-173020817D01*
X91886000Y-173636783D01*
X92006169Y-174240912D01*
X92197076Y-174701801D01*
X87872124Y-174701801D01*
X88063031Y-174240912D01*
X88183200Y-173636783D01*
X88183200Y-173020817D01*
X88063031Y-172416688D01*
X87827311Y-171847610D01*
X87485099Y-171335454D01*
X87049546Y-170899901D01*
X86537390Y-170557689D01*
X85968312Y-170321969D01*
X85364183Y-170201800D01*
X84748217Y-170201800D01*
X84144088Y-170321969D01*
X83575010Y-170557689D01*
X83062854Y-170899901D01*
X82627301Y-171335454D01*
X82285089Y-171847610D01*
X82049369Y-172416688D01*
X81929200Y-173020817D01*
X81929200Y-173636783D01*
X82049369Y-174240912D01*
X82240276Y-174701801D01*
X81137000Y-174701801D01*
X81137000Y-170815000D01*
X81051212Y-170383716D01*
X80806909Y-170018091D01*
X80171909Y-169383091D01*
X79806284Y-169138788D01*
X79375000Y-169053000D01*
X78981686Y-169053000D01*
X79097409Y-169005066D01*
X79396645Y-168805124D01*
X79651124Y-168550645D01*
X79851066Y-168251409D01*
X79988789Y-167918916D01*
X80059000Y-167565944D01*
X80059000Y-167206056D01*
X79988789Y-166853084D01*
X79938220Y-166731000D01*
X81601482Y-166731000D01*
X81511435Y-167027845D01*
G36*
X67564000Y-155202000D02*
X67584000Y-155202000D01*
X67584000Y-155456000D01*
X67564000Y-155456000D01*
X67564000Y-156498374D01*
X67770329Y-156621716D01*
X67878044Y-156589047D01*
X68115392Y-156478792D01*
X68314980Y-156332896D01*
X68323555Y-156348938D01*
X68551865Y-156627135D01*
X68830062Y-156855445D01*
X69147454Y-157025095D01*
X69491845Y-157129565D01*
X69760245Y-157156000D01*
X69939755Y-157156000D01*
X70208155Y-157129565D01*
X70552546Y-157025095D01*
X70869938Y-156855445D01*
X71148135Y-156627135D01*
X71239212Y-156516157D01*
X71261350Y-156633514D01*
X71366834Y-156895483D01*
X71521399Y-157131839D01*
X71719105Y-157333500D01*
X71952354Y-157492715D01*
X72212182Y-157603367D01*
X72294961Y-157620904D01*
X72517000Y-157498915D01*
X72517000Y-155956000D01*
X72497000Y-155956000D01*
X72497000Y-155702000D01*
X72517000Y-155702000D01*
X72517000Y-155682000D01*
X72771000Y-155682000D01*
X72771000Y-155702000D01*
X72791000Y-155702000D01*
X72791000Y-155956000D01*
X72771000Y-155956000D01*
X72771000Y-157498915D01*
X72993039Y-157620904D01*
X73075818Y-157603367D01*
X73335646Y-157492715D01*
X73568895Y-157333500D01*
X73584515Y-157317568D01*
X73814813Y-157598187D01*
X74108237Y-157838994D01*
X74443001Y-158017929D01*
X74806242Y-158128117D01*
X75184000Y-158165323D01*
X75561757Y-158128117D01*
X75924998Y-158017929D01*
X76259763Y-157838994D01*
X76454000Y-157679588D01*
X76648237Y-157838994D01*
X76983001Y-158017929D01*
X77346242Y-158128117D01*
X77724000Y-158165323D01*
X78101757Y-158128117D01*
X78464998Y-158017929D01*
X78723894Y-157879547D01*
X78834843Y-157970600D01*
X79030629Y-158075250D01*
X79243069Y-158139693D01*
X79464000Y-158161453D01*
X81064000Y-158161453D01*
X81284931Y-158139693D01*
X81497371Y-158075250D01*
X81693157Y-157970600D01*
X81864765Y-157829765D01*
X81966336Y-157706000D01*
X82274266Y-157706000D01*
X82266700Y-157736184D01*
X82252783Y-158018512D01*
X82294213Y-158298130D01*
X82389397Y-158564292D01*
X82456329Y-158689514D01*
X82700298Y-158761097D01*
X83513395Y-157948000D01*
X83499253Y-157933858D01*
X83678858Y-157754253D01*
X83693000Y-157768395D01*
X83707143Y-157754253D01*
X83886748Y-157933858D01*
X83872605Y-157948000D01*
X84685702Y-158761097D01*
X84929671Y-158689514D01*
X85050571Y-158434004D01*
X85119300Y-158159816D01*
X85133217Y-157877488D01*
X85091787Y-157597870D01*
X84996603Y-157331708D01*
X84993018Y-157325000D01*
X85448252Y-157325000D01*
X85383429Y-157461996D01*
X85314700Y-157736184D01*
X85300783Y-158018512D01*
X85342213Y-158298130D01*
X85437397Y-158564292D01*
X85504329Y-158689514D01*
X85748298Y-158761097D01*
X86561395Y-157948000D01*
X86547253Y-157933858D01*
X86655278Y-157825832D01*
X86901373Y-157900483D01*
X86934748Y-157933858D01*
X86920605Y-157948000D01*
X87733702Y-158761097D01*
X87977671Y-158689514D01*
X88098571Y-158434004D01*
X88167300Y-158159816D01*
X88177150Y-157960000D01*
X91286635Y-157960000D01*
X91295548Y-157964764D01*
X91677639Y-158080670D01*
X91975429Y-158110000D01*
X92174571Y-158110000D01*
X92472361Y-158080670D01*
X92640101Y-158029787D01*
X96631189Y-162020876D01*
X96368084Y-162073211D01*
X96035591Y-162210934D01*
X95736355Y-162410876D01*
X95481876Y-162665355D01*
X95281934Y-162964591D01*
X95144211Y-163297084D01*
X95074000Y-163650056D01*
X95074000Y-163709629D01*
X94806629Y-163977000D01*
X94107453Y-163977000D01*
X94107453Y-162803000D01*
X94085693Y-162582069D01*
X94021250Y-162369629D01*
X93916600Y-162173843D01*
X93775765Y-162002235D01*
X93604157Y-161861400D01*
X93408371Y-161756750D01*
X93195931Y-161692307D01*
X92975000Y-161670547D01*
X91175000Y-161670547D01*
X90954069Y-161692307D01*
X90741629Y-161756750D01*
X90545843Y-161861400D01*
X90527062Y-161876813D01*
X90625947Y-161638085D01*
X90700000Y-161265793D01*
X90700000Y-160886207D01*
X90625947Y-160513915D01*
X90480685Y-160163223D01*
X90269799Y-159847609D01*
X90001391Y-159579201D01*
X89685777Y-159368315D01*
X89335085Y-159223053D01*
X88962793Y-159149000D01*
X88583207Y-159149000D01*
X88210915Y-159223053D01*
X87860223Y-159368315D01*
X87544609Y-159579201D01*
X87276201Y-159847609D01*
X87065315Y-160163223D01*
X86920053Y-160513915D01*
X86846000Y-160886207D01*
X86846000Y-161265793D01*
X86920053Y-161638085D01*
X87065315Y-161988777D01*
X87205781Y-162199000D01*
X86351479Y-162199000D01*
X86323600Y-162146843D01*
X86246688Y-162053126D01*
X86289685Y-161988777D01*
X86434947Y-161638085D01*
X86509000Y-161265793D01*
X86509000Y-160886207D01*
X86434947Y-160513915D01*
X86289685Y-160163223D01*
X86078799Y-159847609D01*
X85810391Y-159579201D01*
X85494777Y-159368315D01*
X85144085Y-159223053D01*
X84771793Y-159149000D01*
X84444980Y-159149000D01*
X84506097Y-158940702D01*
X85927903Y-158940702D01*
X85999486Y-159184671D01*
X86254996Y-159305571D01*
X86529184Y-159374300D01*
X86811512Y-159388217D01*
X87091130Y-159346787D01*
X87357292Y-159251603D01*
X87482514Y-159184671D01*
X87554097Y-158940702D01*
X86741000Y-158127605D01*
X85927903Y-158940702D01*
X84506097Y-158940702D01*
X83693000Y-158127605D01*
X82879903Y-158940702D01*
X82951486Y-159184671D01*
X83206996Y-159305571D01*
X83481184Y-159374300D01*
X83647962Y-159382521D01*
X83353609Y-159579201D01*
X83085201Y-159847609D01*
X82874315Y-160163223D01*
X82729053Y-160513915D01*
X82655000Y-160886207D01*
X82655000Y-161265793D01*
X82729053Y-161638085D01*
X82856182Y-161945000D01*
X81850820Y-161945000D01*
X81633187Y-161679813D01*
X81339763Y-161439006D01*
X81004999Y-161260071D01*
X80641758Y-161149883D01*
X80264000Y-161112677D01*
X79886243Y-161149883D01*
X79523002Y-161260071D01*
X79188238Y-161439006D01*
X78994000Y-161598413D01*
X78799763Y-161439006D01*
X78464999Y-161260071D01*
X78101758Y-161149883D01*
X77724000Y-161112677D01*
X77346243Y-161149883D01*
X76983002Y-161260071D01*
X76648238Y-161439006D01*
X76454000Y-161598413D01*
X76259763Y-161439006D01*
X75924999Y-161260071D01*
X75561758Y-161149883D01*
X75184000Y-161112677D01*
X74806243Y-161149883D01*
X74443002Y-161260071D01*
X74108238Y-161439006D01*
X73914000Y-161598413D01*
X73719763Y-161439006D01*
X73384999Y-161260071D01*
X73021758Y-161149883D01*
X72644000Y-161112677D01*
X72266243Y-161149883D01*
X71903002Y-161260071D01*
X71568238Y-161439006D01*
X71274814Y-161679813D01*
X71034006Y-161973237D01*
X70855071Y-162308001D01*
X70782948Y-162545759D01*
X70517527Y-162280338D01*
X70457187Y-162206813D01*
X70399054Y-162159104D01*
X70715409Y-162028066D01*
X71014645Y-161828124D01*
X71269124Y-161573645D01*
X71469066Y-161274409D01*
X71606789Y-160941916D01*
X71677000Y-160588944D01*
X71677000Y-160229056D01*
X71606789Y-159876084D01*
X71469066Y-159543591D01*
X71269124Y-159244355D01*
X71014645Y-158989876D01*
X70715409Y-158789934D01*
X70382916Y-158652211D01*
X70029944Y-158582000D01*
X69670056Y-158582000D01*
X69317084Y-158652211D01*
X68984591Y-158789934D01*
X68685355Y-158989876D01*
X68643500Y-159031731D01*
X68601645Y-158989876D01*
X68302409Y-158789934D01*
X67969916Y-158652211D01*
X67616944Y-158582000D01*
X67357500Y-158582000D01*
X67357500Y-158245990D01*
X67379386Y-155182000D01*
X67564000Y-155182000D01*
X67564000Y-155202000D01*
X67564000Y-155202000D01*
G37*
X67564000Y-155202000D02*
X67584000Y-155202000D01*
X67584000Y-155456000D01*
X67564000Y-155456000D01*
X67564000Y-156498374D01*
X67770329Y-156621716D01*
X67878044Y-156589047D01*
X68115392Y-156478792D01*
X68314980Y-156332896D01*
X68323555Y-156348938D01*
X68551865Y-156627135D01*
X68830062Y-156855445D01*
X69147454Y-157025095D01*
X69491845Y-157129565D01*
X69760245Y-157156000D01*
X69939755Y-157156000D01*
X70208155Y-157129565D01*
X70552546Y-157025095D01*
X70869938Y-156855445D01*
X71148135Y-156627135D01*
X71239212Y-156516157D01*
X71261350Y-156633514D01*
X71366834Y-156895483D01*
X71521399Y-157131839D01*
X71719105Y-157333500D01*
X71952354Y-157492715D01*
X72212182Y-157603367D01*
X72294961Y-157620904D01*
X72517000Y-157498915D01*
X72517000Y-155956000D01*
X72497000Y-155956000D01*
X72497000Y-155702000D01*
X72517000Y-155702000D01*
X72517000Y-155682000D01*
X72771000Y-155682000D01*
X72771000Y-155702000D01*
X72791000Y-155702000D01*
X72791000Y-155956000D01*
X72771000Y-155956000D01*
X72771000Y-157498915D01*
X72993039Y-157620904D01*
X73075818Y-157603367D01*
X73335646Y-157492715D01*
X73568895Y-157333500D01*
X73584515Y-157317568D01*
X73814813Y-157598187D01*
X74108237Y-157838994D01*
X74443001Y-158017929D01*
X74806242Y-158128117D01*
X75184000Y-158165323D01*
X75561757Y-158128117D01*
X75924998Y-158017929D01*
X76259763Y-157838994D01*
X76454000Y-157679588D01*
X76648237Y-157838994D01*
X76983001Y-158017929D01*
X77346242Y-158128117D01*
X77724000Y-158165323D01*
X78101757Y-158128117D01*
X78464998Y-158017929D01*
X78723894Y-157879547D01*
X78834843Y-157970600D01*
X79030629Y-158075250D01*
X79243069Y-158139693D01*
X79464000Y-158161453D01*
X81064000Y-158161453D01*
X81284931Y-158139693D01*
X81497371Y-158075250D01*
X81693157Y-157970600D01*
X81864765Y-157829765D01*
X81966336Y-157706000D01*
X82274266Y-157706000D01*
X82266700Y-157736184D01*
X82252783Y-158018512D01*
X82294213Y-158298130D01*
X82389397Y-158564292D01*
X82456329Y-158689514D01*
X82700298Y-158761097D01*
X83513395Y-157948000D01*
X83499253Y-157933858D01*
X83678858Y-157754253D01*
X83693000Y-157768395D01*
X83707143Y-157754253D01*
X83886748Y-157933858D01*
X83872605Y-157948000D01*
X84685702Y-158761097D01*
X84929671Y-158689514D01*
X85050571Y-158434004D01*
X85119300Y-158159816D01*
X85133217Y-157877488D01*
X85091787Y-157597870D01*
X84996603Y-157331708D01*
X84993018Y-157325000D01*
X85448252Y-157325000D01*
X85383429Y-157461996D01*
X85314700Y-157736184D01*
X85300783Y-158018512D01*
X85342213Y-158298130D01*
X85437397Y-158564292D01*
X85504329Y-158689514D01*
X85748298Y-158761097D01*
X86561395Y-157948000D01*
X86547253Y-157933858D01*
X86655278Y-157825832D01*
X86901373Y-157900483D01*
X86934748Y-157933858D01*
X86920605Y-157948000D01*
X87733702Y-158761097D01*
X87977671Y-158689514D01*
X88098571Y-158434004D01*
X88167300Y-158159816D01*
X88177150Y-157960000D01*
X91286635Y-157960000D01*
X91295548Y-157964764D01*
X91677639Y-158080670D01*
X91975429Y-158110000D01*
X92174571Y-158110000D01*
X92472361Y-158080670D01*
X92640101Y-158029787D01*
X96631189Y-162020876D01*
X96368084Y-162073211D01*
X96035591Y-162210934D01*
X95736355Y-162410876D01*
X95481876Y-162665355D01*
X95281934Y-162964591D01*
X95144211Y-163297084D01*
X95074000Y-163650056D01*
X95074000Y-163709629D01*
X94806629Y-163977000D01*
X94107453Y-163977000D01*
X94107453Y-162803000D01*
X94085693Y-162582069D01*
X94021250Y-162369629D01*
X93916600Y-162173843D01*
X93775765Y-162002235D01*
X93604157Y-161861400D01*
X93408371Y-161756750D01*
X93195931Y-161692307D01*
X92975000Y-161670547D01*
X91175000Y-161670547D01*
X90954069Y-161692307D01*
X90741629Y-161756750D01*
X90545843Y-161861400D01*
X90527062Y-161876813D01*
X90625947Y-161638085D01*
X90700000Y-161265793D01*
X90700000Y-160886207D01*
X90625947Y-160513915D01*
X90480685Y-160163223D01*
X90269799Y-159847609D01*
X90001391Y-159579201D01*
X89685777Y-159368315D01*
X89335085Y-159223053D01*
X88962793Y-159149000D01*
X88583207Y-159149000D01*
X88210915Y-159223053D01*
X87860223Y-159368315D01*
X87544609Y-159579201D01*
X87276201Y-159847609D01*
X87065315Y-160163223D01*
X86920053Y-160513915D01*
X86846000Y-160886207D01*
X86846000Y-161265793D01*
X86920053Y-161638085D01*
X87065315Y-161988777D01*
X87205781Y-162199000D01*
X86351479Y-162199000D01*
X86323600Y-162146843D01*
X86246688Y-162053126D01*
X86289685Y-161988777D01*
X86434947Y-161638085D01*
X86509000Y-161265793D01*
X86509000Y-160886207D01*
X86434947Y-160513915D01*
X86289685Y-160163223D01*
X86078799Y-159847609D01*
X85810391Y-159579201D01*
X85494777Y-159368315D01*
X85144085Y-159223053D01*
X84771793Y-159149000D01*
X84444980Y-159149000D01*
X84506097Y-158940702D01*
X85927903Y-158940702D01*
X85999486Y-159184671D01*
X86254996Y-159305571D01*
X86529184Y-159374300D01*
X86811512Y-159388217D01*
X87091130Y-159346787D01*
X87357292Y-159251603D01*
X87482514Y-159184671D01*
X87554097Y-158940702D01*
X86741000Y-158127605D01*
X85927903Y-158940702D01*
X84506097Y-158940702D01*
X83693000Y-158127605D01*
X82879903Y-158940702D01*
X82951486Y-159184671D01*
X83206996Y-159305571D01*
X83481184Y-159374300D01*
X83647962Y-159382521D01*
X83353609Y-159579201D01*
X83085201Y-159847609D01*
X82874315Y-160163223D01*
X82729053Y-160513915D01*
X82655000Y-160886207D01*
X82655000Y-161265793D01*
X82729053Y-161638085D01*
X82856182Y-161945000D01*
X81850820Y-161945000D01*
X81633187Y-161679813D01*
X81339763Y-161439006D01*
X81004999Y-161260071D01*
X80641758Y-161149883D01*
X80264000Y-161112677D01*
X79886243Y-161149883D01*
X79523002Y-161260071D01*
X79188238Y-161439006D01*
X78994000Y-161598413D01*
X78799763Y-161439006D01*
X78464999Y-161260071D01*
X78101758Y-161149883D01*
X77724000Y-161112677D01*
X77346243Y-161149883D01*
X76983002Y-161260071D01*
X76648238Y-161439006D01*
X76454000Y-161598413D01*
X76259763Y-161439006D01*
X75924999Y-161260071D01*
X75561758Y-161149883D01*
X75184000Y-161112677D01*
X74806243Y-161149883D01*
X74443002Y-161260071D01*
X74108238Y-161439006D01*
X73914000Y-161598413D01*
X73719763Y-161439006D01*
X73384999Y-161260071D01*
X73021758Y-161149883D01*
X72644000Y-161112677D01*
X72266243Y-161149883D01*
X71903002Y-161260071D01*
X71568238Y-161439006D01*
X71274814Y-161679813D01*
X71034006Y-161973237D01*
X70855071Y-162308001D01*
X70782948Y-162545759D01*
X70517527Y-162280338D01*
X70457187Y-162206813D01*
X70399054Y-162159104D01*
X70715409Y-162028066D01*
X71014645Y-161828124D01*
X71269124Y-161573645D01*
X71469066Y-161274409D01*
X71606789Y-160941916D01*
X71677000Y-160588944D01*
X71677000Y-160229056D01*
X71606789Y-159876084D01*
X71469066Y-159543591D01*
X71269124Y-159244355D01*
X71014645Y-158989876D01*
X70715409Y-158789934D01*
X70382916Y-158652211D01*
X70029944Y-158582000D01*
X69670056Y-158582000D01*
X69317084Y-158652211D01*
X68984591Y-158789934D01*
X68685355Y-158989876D01*
X68643500Y-159031731D01*
X68601645Y-158989876D01*
X68302409Y-158789934D01*
X67969916Y-158652211D01*
X67616944Y-158582000D01*
X67357500Y-158582000D01*
X67357500Y-158245990D01*
X67379386Y-155182000D01*
X67564000Y-155182000D01*
X67564000Y-155202000D01*
G36*
X82196201Y-148421391D02*
X82464609Y-148689799D01*
X82601980Y-148781587D01*
X82700296Y-148879903D01*
X82456329Y-148951486D01*
X82335429Y-149206996D01*
X82266700Y-149481184D01*
X82252783Y-149763512D01*
X82294213Y-150043130D01*
X82389397Y-150309292D01*
X82456329Y-150434514D01*
X82700298Y-150506097D01*
X83513395Y-149693000D01*
X83499253Y-149678858D01*
X83678858Y-149499253D01*
X83693000Y-149513395D01*
X83707143Y-149499253D01*
X83886748Y-149678858D01*
X83872605Y-149693000D01*
X84685702Y-150506097D01*
X84929671Y-150434514D01*
X85050571Y-150179004D01*
X85119300Y-149904816D01*
X85133217Y-149622488D01*
X85091787Y-149342870D01*
X84996603Y-149076708D01*
X84993018Y-149070000D01*
X85448252Y-149070000D01*
X85383429Y-149206996D01*
X85314700Y-149481184D01*
X85300783Y-149763512D01*
X85342213Y-150043130D01*
X85437397Y-150309292D01*
X85504329Y-150434514D01*
X85748298Y-150506097D01*
X86561395Y-149693000D01*
X86547253Y-149678858D01*
X86726858Y-149499253D01*
X86741000Y-149513395D01*
X86755143Y-149499253D01*
X86934748Y-149678858D01*
X86920605Y-149693000D01*
X87733702Y-150506097D01*
X87977671Y-150434514D01*
X88098571Y-150179004D01*
X88167300Y-149904816D01*
X88181217Y-149622488D01*
X88139787Y-149342870D01*
X88044603Y-149076708D01*
X88041018Y-149070000D01*
X89392522Y-149070000D01*
X90190302Y-149867780D01*
X90193236Y-149877452D01*
X90198001Y-149886366D01*
X90198000Y-150777000D01*
X87527309Y-150777000D01*
X87554097Y-150685702D01*
X86741000Y-149872605D01*
X85927903Y-150685702D01*
X85954691Y-150777000D01*
X84479309Y-150777000D01*
X84506097Y-150685702D01*
X83693000Y-149872605D01*
X82879903Y-150685702D01*
X82951486Y-150929671D01*
X83206996Y-151050571D01*
X83301637Y-151074294D01*
X83280149Y-151085780D01*
X82994339Y-151320339D01*
X82759780Y-151606149D01*
X82585487Y-151932228D01*
X82478159Y-152286044D01*
X82441918Y-152654000D01*
X82451000Y-152746211D01*
X82451001Y-153952000D01*
X81966336Y-153952000D01*
X81864765Y-153828235D01*
X81693157Y-153687400D01*
X81497371Y-153582750D01*
X81284931Y-153518307D01*
X81064000Y-153496547D01*
X80869263Y-153496547D01*
X80944095Y-153356546D01*
X81048565Y-153012155D01*
X81083840Y-152654000D01*
X81048565Y-152295845D01*
X80944095Y-151951454D01*
X80774445Y-151634062D01*
X80747885Y-151601698D01*
X81004998Y-151523704D01*
X81339763Y-151344769D01*
X81633187Y-151103962D01*
X81873994Y-150810538D01*
X82052929Y-150475774D01*
X82163117Y-150112533D01*
X82191000Y-149829433D01*
X82191000Y-148840118D01*
X82163117Y-148557017D01*
X82060259Y-148217938D01*
X82196201Y-148421391D01*
X82196201Y-148421391D01*
G37*
X82196201Y-148421391D02*
X82464609Y-148689799D01*
X82601980Y-148781587D01*
X82700296Y-148879903D01*
X82456329Y-148951486D01*
X82335429Y-149206996D01*
X82266700Y-149481184D01*
X82252783Y-149763512D01*
X82294213Y-150043130D01*
X82389397Y-150309292D01*
X82456329Y-150434514D01*
X82700298Y-150506097D01*
X83513395Y-149693000D01*
X83499253Y-149678858D01*
X83678858Y-149499253D01*
X83693000Y-149513395D01*
X83707143Y-149499253D01*
X83886748Y-149678858D01*
X83872605Y-149693000D01*
X84685702Y-150506097D01*
X84929671Y-150434514D01*
X85050571Y-150179004D01*
X85119300Y-149904816D01*
X85133217Y-149622488D01*
X85091787Y-149342870D01*
X84996603Y-149076708D01*
X84993018Y-149070000D01*
X85448252Y-149070000D01*
X85383429Y-149206996D01*
X85314700Y-149481184D01*
X85300783Y-149763512D01*
X85342213Y-150043130D01*
X85437397Y-150309292D01*
X85504329Y-150434514D01*
X85748298Y-150506097D01*
X86561395Y-149693000D01*
X86547253Y-149678858D01*
X86726858Y-149499253D01*
X86741000Y-149513395D01*
X86755143Y-149499253D01*
X86934748Y-149678858D01*
X86920605Y-149693000D01*
X87733702Y-150506097D01*
X87977671Y-150434514D01*
X88098571Y-150179004D01*
X88167300Y-149904816D01*
X88181217Y-149622488D01*
X88139787Y-149342870D01*
X88044603Y-149076708D01*
X88041018Y-149070000D01*
X89392522Y-149070000D01*
X90190302Y-149867780D01*
X90193236Y-149877452D01*
X90198001Y-149886366D01*
X90198000Y-150777000D01*
X87527309Y-150777000D01*
X87554097Y-150685702D01*
X86741000Y-149872605D01*
X85927903Y-150685702D01*
X85954691Y-150777000D01*
X84479309Y-150777000D01*
X84506097Y-150685702D01*
X83693000Y-149872605D01*
X82879903Y-150685702D01*
X82951486Y-150929671D01*
X83206996Y-151050571D01*
X83301637Y-151074294D01*
X83280149Y-151085780D01*
X82994339Y-151320339D01*
X82759780Y-151606149D01*
X82585487Y-151932228D01*
X82478159Y-152286044D01*
X82441918Y-152654000D01*
X82451000Y-152746211D01*
X82451001Y-153952000D01*
X81966336Y-153952000D01*
X81864765Y-153828235D01*
X81693157Y-153687400D01*
X81497371Y-153582750D01*
X81284931Y-153518307D01*
X81064000Y-153496547D01*
X80869263Y-153496547D01*
X80944095Y-153356546D01*
X81048565Y-153012155D01*
X81083840Y-152654000D01*
X81048565Y-152295845D01*
X80944095Y-151951454D01*
X80774445Y-151634062D01*
X80747885Y-151601698D01*
X81004998Y-151523704D01*
X81339763Y-151344769D01*
X81633187Y-151103962D01*
X81873994Y-150810538D01*
X82052929Y-150475774D01*
X82163117Y-150112533D01*
X82191000Y-149829433D01*
X82191000Y-148840118D01*
X82163117Y-148557017D01*
X82060259Y-148217938D01*
X82196201Y-148421391D01*
G36*
X48702055Y-140648562D02*
X48532405Y-140965954D01*
X48427935Y-141310345D01*
X48392660Y-141668500D01*
X48427935Y-142026655D01*
X48532405Y-142371046D01*
X48702055Y-142688438D01*
X48930365Y-142966635D01*
X48976501Y-143004497D01*
X48976501Y-143324500D01*
X48885858Y-143324500D01*
X48494246Y-143402396D01*
X48125355Y-143555196D01*
X47793363Y-143777026D01*
X47700559Y-143869830D01*
X47630723Y-143840903D01*
X47508042Y-143816500D01*
X46831250Y-143816500D01*
X46672500Y-143975250D01*
X46672500Y-145224500D01*
X46692500Y-145224500D01*
X46692500Y-145478500D01*
X46672500Y-145478500D01*
X46672500Y-146727750D01*
X46831250Y-146886500D01*
X47508042Y-146886500D01*
X47630723Y-146862097D01*
X47700559Y-146833170D01*
X47793363Y-146925974D01*
X48125355Y-147147804D01*
X48494246Y-147300604D01*
X48885858Y-147378500D01*
X49285142Y-147378500D01*
X49676754Y-147300604D01*
X50045645Y-147147804D01*
X50377637Y-146925974D01*
X50659974Y-146643637D01*
X50881804Y-146311645D01*
X51034604Y-145942754D01*
X51112500Y-145551142D01*
X51112500Y-145151858D01*
X51104087Y-145109565D01*
X51118081Y-145098081D01*
X51157283Y-145050313D01*
X51274536Y-144907440D01*
X51390793Y-144689938D01*
X51404596Y-144644435D01*
X51462384Y-144453935D01*
X51480500Y-144269998D01*
X51480500Y-144269997D01*
X51486557Y-144208501D01*
X51480500Y-144147005D01*
X51480500Y-143004497D01*
X51526635Y-142966635D01*
X51578000Y-142904046D01*
X51578000Y-143884915D01*
X51543662Y-147044000D01*
X51372207Y-147044000D01*
X50999915Y-147118053D01*
X50649223Y-147263315D01*
X50333609Y-147474201D01*
X50065201Y-147742609D01*
X49854315Y-148058223D01*
X49709053Y-148408915D01*
X49635000Y-148781207D01*
X49635000Y-149160793D01*
X49709053Y-149533085D01*
X49854315Y-149883777D01*
X50065201Y-150199391D01*
X50333609Y-150467799D01*
X50470980Y-150559587D01*
X50569296Y-150657903D01*
X50325329Y-150729486D01*
X50204429Y-150984996D01*
X50135700Y-151259184D01*
X50121783Y-151541512D01*
X50163213Y-151821130D01*
X50258397Y-152087292D01*
X50325329Y-152212514D01*
X50569298Y-152284097D01*
X51382395Y-151471000D01*
X51368253Y-151456858D01*
X51547858Y-151277253D01*
X51562000Y-151291395D01*
X51576143Y-151277253D01*
X51755748Y-151456858D01*
X51741605Y-151471000D01*
X52554702Y-152284097D01*
X52798671Y-152212514D01*
X52919571Y-151957004D01*
X52954578Y-151817346D01*
X52957213Y-151835130D01*
X53052397Y-152101292D01*
X53112699Y-152214111D01*
X52859201Y-152467609D01*
X52648315Y-152783223D01*
X52596185Y-152909075D01*
X52554702Y-152896903D01*
X51818606Y-153632999D01*
X51305394Y-153632999D01*
X50569298Y-152896903D01*
X50325329Y-152968486D01*
X50204429Y-153223996D01*
X50135700Y-153498184D01*
X50129054Y-153632999D01*
X48503310Y-153632999D01*
X48400600Y-153440843D01*
X48329785Y-153354555D01*
X48444347Y-153140226D01*
X48557394Y-152767560D01*
X48587321Y-152463702D01*
X50748903Y-152463702D01*
X50786107Y-152590500D01*
X50748903Y-152717298D01*
X51562000Y-153530395D01*
X52375097Y-152717298D01*
X52337893Y-152590500D01*
X52375097Y-152463702D01*
X51562000Y-151650605D01*
X50748903Y-152463702D01*
X48587321Y-152463702D01*
X48595565Y-152380000D01*
X48557394Y-151992440D01*
X48444347Y-151619774D01*
X48260768Y-151276324D01*
X48013714Y-150975286D01*
X47760736Y-150767674D01*
X47880641Y-150606920D01*
X48005825Y-150344099D01*
X48050476Y-150196890D01*
X47929155Y-149967000D01*
X46736000Y-149967000D01*
X46736000Y-149987000D01*
X46482000Y-149987000D01*
X46482000Y-149967000D01*
X45288845Y-149967000D01*
X45167524Y-150196890D01*
X45212175Y-150344099D01*
X45337359Y-150606920D01*
X45457264Y-150767674D01*
X45204286Y-150975286D01*
X44957232Y-151276324D01*
X44865000Y-151448877D01*
X44865000Y-149483110D01*
X45167524Y-149483110D01*
X45288845Y-149713000D01*
X46482000Y-149713000D01*
X46482000Y-148519186D01*
X46736000Y-148519186D01*
X46736000Y-149713000D01*
X47929155Y-149713000D01*
X48050476Y-149483110D01*
X48005825Y-149335901D01*
X47880641Y-149073080D01*
X47706588Y-148839731D01*
X47490355Y-148644822D01*
X47240252Y-148495843D01*
X46965891Y-148398519D01*
X46736000Y-148519186D01*
X46482000Y-148519186D01*
X46252109Y-148398519D01*
X45977748Y-148495843D01*
X45727645Y-148644822D01*
X45511412Y-148839731D01*
X45337359Y-149073080D01*
X45212175Y-149335901D01*
X45167524Y-149483110D01*
X44865000Y-149483110D01*
X44865000Y-145637250D01*
X45010500Y-145637250D01*
X45010500Y-146314042D01*
X45034903Y-146436723D01*
X45082770Y-146552285D01*
X45152263Y-146656289D01*
X45240711Y-146744737D01*
X45344715Y-146814230D01*
X45460277Y-146862097D01*
X45582958Y-146886500D01*
X46259750Y-146886500D01*
X46418500Y-146727750D01*
X46418500Y-145478500D01*
X45169250Y-145478500D01*
X45010500Y-145637250D01*
X44865000Y-145637250D01*
X44865000Y-144388958D01*
X45010500Y-144388958D01*
X45010500Y-145065750D01*
X45169250Y-145224500D01*
X46418500Y-145224500D01*
X46418500Y-143975250D01*
X46259750Y-143816500D01*
X45582958Y-143816500D01*
X45460277Y-143840903D01*
X45344715Y-143888770D01*
X45240711Y-143958263D01*
X45152263Y-144046711D01*
X45082770Y-144150715D01*
X45034903Y-144266277D01*
X45010500Y-144388958D01*
X44865000Y-144388958D01*
X44865000Y-143474901D01*
X44968556Y-143495500D01*
X45328444Y-143495500D01*
X45681416Y-143425289D01*
X46013909Y-143287566D01*
X46313145Y-143087624D01*
X46567624Y-142833145D01*
X46767566Y-142533909D01*
X46905289Y-142201416D01*
X46975500Y-141848444D01*
X46975500Y-141488556D01*
X46953855Y-141379740D01*
X47410632Y-140922964D01*
X47466842Y-140928500D01*
X47656158Y-140928500D01*
X47939258Y-140900617D01*
X48302499Y-140790429D01*
X48637263Y-140611494D01*
X48928891Y-140372161D01*
X48702055Y-140648562D01*
X48702055Y-140648562D01*
G37*
X48702055Y-140648562D02*
X48532405Y-140965954D01*
X48427935Y-141310345D01*
X48392660Y-141668500D01*
X48427935Y-142026655D01*
X48532405Y-142371046D01*
X48702055Y-142688438D01*
X48930365Y-142966635D01*
X48976501Y-143004497D01*
X48976501Y-143324500D01*
X48885858Y-143324500D01*
X48494246Y-143402396D01*
X48125355Y-143555196D01*
X47793363Y-143777026D01*
X47700559Y-143869830D01*
X47630723Y-143840903D01*
X47508042Y-143816500D01*
X46831250Y-143816500D01*
X46672500Y-143975250D01*
X46672500Y-145224500D01*
X46692500Y-145224500D01*
X46692500Y-145478500D01*
X46672500Y-145478500D01*
X46672500Y-146727750D01*
X46831250Y-146886500D01*
X47508042Y-146886500D01*
X47630723Y-146862097D01*
X47700559Y-146833170D01*
X47793363Y-146925974D01*
X48125355Y-147147804D01*
X48494246Y-147300604D01*
X48885858Y-147378500D01*
X49285142Y-147378500D01*
X49676754Y-147300604D01*
X50045645Y-147147804D01*
X50377637Y-146925974D01*
X50659974Y-146643637D01*
X50881804Y-146311645D01*
X51034604Y-145942754D01*
X51112500Y-145551142D01*
X51112500Y-145151858D01*
X51104087Y-145109565D01*
X51118081Y-145098081D01*
X51157283Y-145050313D01*
X51274536Y-144907440D01*
X51390793Y-144689938D01*
X51404596Y-144644435D01*
X51462384Y-144453935D01*
X51480500Y-144269998D01*
X51480500Y-144269997D01*
X51486557Y-144208501D01*
X51480500Y-144147005D01*
X51480500Y-143004497D01*
X51526635Y-142966635D01*
X51578000Y-142904046D01*
X51578000Y-143884915D01*
X51543662Y-147044000D01*
X51372207Y-147044000D01*
X50999915Y-147118053D01*
X50649223Y-147263315D01*
X50333609Y-147474201D01*
X50065201Y-147742609D01*
X49854315Y-148058223D01*
X49709053Y-148408915D01*
X49635000Y-148781207D01*
X49635000Y-149160793D01*
X49709053Y-149533085D01*
X49854315Y-149883777D01*
X50065201Y-150199391D01*
X50333609Y-150467799D01*
X50470980Y-150559587D01*
X50569296Y-150657903D01*
X50325329Y-150729486D01*
X50204429Y-150984996D01*
X50135700Y-151259184D01*
X50121783Y-151541512D01*
X50163213Y-151821130D01*
X50258397Y-152087292D01*
X50325329Y-152212514D01*
X50569298Y-152284097D01*
X51382395Y-151471000D01*
X51368253Y-151456858D01*
X51547858Y-151277253D01*
X51562000Y-151291395D01*
X51576143Y-151277253D01*
X51755748Y-151456858D01*
X51741605Y-151471000D01*
X52554702Y-152284097D01*
X52798671Y-152212514D01*
X52919571Y-151957004D01*
X52954578Y-151817346D01*
X52957213Y-151835130D01*
X53052397Y-152101292D01*
X53112699Y-152214111D01*
X52859201Y-152467609D01*
X52648315Y-152783223D01*
X52596185Y-152909075D01*
X52554702Y-152896903D01*
X51818606Y-153632999D01*
X51305394Y-153632999D01*
X50569298Y-152896903D01*
X50325329Y-152968486D01*
X50204429Y-153223996D01*
X50135700Y-153498184D01*
X50129054Y-153632999D01*
X48503310Y-153632999D01*
X48400600Y-153440843D01*
X48329785Y-153354555D01*
X48444347Y-153140226D01*
X48557394Y-152767560D01*
X48587321Y-152463702D01*
X50748903Y-152463702D01*
X50786107Y-152590500D01*
X50748903Y-152717298D01*
X51562000Y-153530395D01*
X52375097Y-152717298D01*
X52337893Y-152590500D01*
X52375097Y-152463702D01*
X51562000Y-151650605D01*
X50748903Y-152463702D01*
X48587321Y-152463702D01*
X48595565Y-152380000D01*
X48557394Y-151992440D01*
X48444347Y-151619774D01*
X48260768Y-151276324D01*
X48013714Y-150975286D01*
X47760736Y-150767674D01*
X47880641Y-150606920D01*
X48005825Y-150344099D01*
X48050476Y-150196890D01*
X47929155Y-149967000D01*
X46736000Y-149967000D01*
X46736000Y-149987000D01*
X46482000Y-149987000D01*
X46482000Y-149967000D01*
X45288845Y-149967000D01*
X45167524Y-150196890D01*
X45212175Y-150344099D01*
X45337359Y-150606920D01*
X45457264Y-150767674D01*
X45204286Y-150975286D01*
X44957232Y-151276324D01*
X44865000Y-151448877D01*
X44865000Y-149483110D01*
X45167524Y-149483110D01*
X45288845Y-149713000D01*
X46482000Y-149713000D01*
X46482000Y-148519186D01*
X46736000Y-148519186D01*
X46736000Y-149713000D01*
X47929155Y-149713000D01*
X48050476Y-149483110D01*
X48005825Y-149335901D01*
X47880641Y-149073080D01*
X47706588Y-148839731D01*
X47490355Y-148644822D01*
X47240252Y-148495843D01*
X46965891Y-148398519D01*
X46736000Y-148519186D01*
X46482000Y-148519186D01*
X46252109Y-148398519D01*
X45977748Y-148495843D01*
X45727645Y-148644822D01*
X45511412Y-148839731D01*
X45337359Y-149073080D01*
X45212175Y-149335901D01*
X45167524Y-149483110D01*
X44865000Y-149483110D01*
X44865000Y-145637250D01*
X45010500Y-145637250D01*
X45010500Y-146314042D01*
X45034903Y-146436723D01*
X45082770Y-146552285D01*
X45152263Y-146656289D01*
X45240711Y-146744737D01*
X45344715Y-146814230D01*
X45460277Y-146862097D01*
X45582958Y-146886500D01*
X46259750Y-146886500D01*
X46418500Y-146727750D01*
X46418500Y-145478500D01*
X45169250Y-145478500D01*
X45010500Y-145637250D01*
X44865000Y-145637250D01*
X44865000Y-144388958D01*
X45010500Y-144388958D01*
X45010500Y-145065750D01*
X45169250Y-145224500D01*
X46418500Y-145224500D01*
X46418500Y-143975250D01*
X46259750Y-143816500D01*
X45582958Y-143816500D01*
X45460277Y-143840903D01*
X45344715Y-143888770D01*
X45240711Y-143958263D01*
X45152263Y-144046711D01*
X45082770Y-144150715D01*
X45034903Y-144266277D01*
X45010500Y-144388958D01*
X44865000Y-144388958D01*
X44865000Y-143474901D01*
X44968556Y-143495500D01*
X45328444Y-143495500D01*
X45681416Y-143425289D01*
X46013909Y-143287566D01*
X46313145Y-143087624D01*
X46567624Y-142833145D01*
X46767566Y-142533909D01*
X46905289Y-142201416D01*
X46975500Y-141848444D01*
X46975500Y-141488556D01*
X46953855Y-141379740D01*
X47410632Y-140922964D01*
X47466842Y-140928500D01*
X47656158Y-140928500D01*
X47939258Y-140900617D01*
X48302499Y-140790429D01*
X48637263Y-140611494D01*
X48928891Y-140372161D01*
X48702055Y-140648562D01*
G36*
X68432547Y-152002500D02*
X68458870Y-152269765D01*
X68467000Y-152296566D01*
X68467000Y-152884434D01*
X68458870Y-152911235D01*
X68432547Y-153178500D01*
X68432547Y-153563000D01*
X68213000Y-153563000D01*
X68213000Y-153543000D01*
X68193000Y-153543000D01*
X68193000Y-153289000D01*
X68213000Y-153289000D01*
X68213000Y-151892000D01*
X68193000Y-151892000D01*
X68193000Y-151638000D01*
X68213000Y-151638000D01*
X68213000Y-151618000D01*
X68432547Y-151618000D01*
X68432547Y-152002500D01*
X68432547Y-152002500D01*
G37*
X68432547Y-152002500D02*
X68458870Y-152269765D01*
X68467000Y-152296566D01*
X68467000Y-152884434D01*
X68458870Y-152911235D01*
X68432547Y-153178500D01*
X68432547Y-153563000D01*
X68213000Y-153563000D01*
X68213000Y-153543000D01*
X68193000Y-153543000D01*
X68193000Y-153289000D01*
X68213000Y-153289000D01*
X68213000Y-151892000D01*
X68193000Y-151892000D01*
X68193000Y-151638000D01*
X68213000Y-151638000D01*
X68213000Y-151618000D01*
X68432547Y-151618000D01*
X68432547Y-152002500D01*
G36*
X54499000Y-151549890D02*
X54370143Y-151678748D01*
X54356000Y-151664605D01*
X54341858Y-151678748D01*
X54162253Y-151499143D01*
X54162653Y-151498742D01*
X54252470Y-151495000D01*
X54499000Y-151495000D01*
X54499000Y-151549890D01*
X54499000Y-151549890D01*
G37*
X54499000Y-151549890D02*
X54370143Y-151678748D01*
X54356000Y-151664605D01*
X54341858Y-151678748D01*
X54162253Y-151499143D01*
X54162653Y-151498742D01*
X54252470Y-151495000D01*
X54499000Y-151495000D01*
X54499000Y-151549890D01*
G36*
X71468323Y-145914626D02*
X71503765Y-145918117D01*
X71744070Y-145941785D01*
X71744077Y-145941785D01*
X71836279Y-145950866D01*
X71928481Y-145941785D01*
X76229618Y-145941785D01*
X75171745Y-146999659D01*
X74806243Y-147035658D01*
X74443002Y-147145846D01*
X74108238Y-147324781D01*
X73914001Y-147484188D01*
X73719763Y-147324781D01*
X73384999Y-147145846D01*
X73021758Y-147035658D01*
X72644000Y-146998452D01*
X72266243Y-147035658D01*
X71903002Y-147145846D01*
X71568238Y-147324781D01*
X71274814Y-147565588D01*
X71034006Y-147859012D01*
X70855071Y-148193776D01*
X70819413Y-148311324D01*
X70552546Y-148168680D01*
X70208155Y-148064210D01*
X69939755Y-148037775D01*
X69760245Y-148037775D01*
X69491845Y-148064210D01*
X69147454Y-148168680D01*
X68830062Y-148338330D01*
X68551865Y-148566640D01*
X68323555Y-148844837D01*
X68316816Y-148857446D01*
X68115392Y-148710208D01*
X67878044Y-148599953D01*
X67770329Y-148567284D01*
X67564000Y-148690626D01*
X67564000Y-149733000D01*
X67584000Y-149733000D01*
X67584000Y-149987000D01*
X67564000Y-149987000D01*
X67564000Y-150007000D01*
X67416350Y-150007000D01*
X67420971Y-149360050D01*
X67310705Y-148865750D01*
X67310000Y-148864276D01*
X67310000Y-148690626D01*
X67193700Y-148621102D01*
X67078000Y-148379185D01*
X67078000Y-146571383D01*
X67257056Y-146607000D01*
X67616944Y-146607000D01*
X67969916Y-146536789D01*
X68302409Y-146399066D01*
X68601645Y-146199124D01*
X68641113Y-146159657D01*
X68685355Y-146203899D01*
X68984591Y-146403841D01*
X69317084Y-146541564D01*
X69670056Y-146611775D01*
X70029944Y-146611775D01*
X70382916Y-146541564D01*
X70715409Y-146403841D01*
X71014645Y-146203899D01*
X71269124Y-145949420D01*
X71322025Y-145870247D01*
X71468323Y-145914626D01*
X71468323Y-145914626D01*
G37*
X71468323Y-145914626D02*
X71503765Y-145918117D01*
X71744070Y-145941785D01*
X71744077Y-145941785D01*
X71836279Y-145950866D01*
X71928481Y-145941785D01*
X76229618Y-145941785D01*
X75171745Y-146999659D01*
X74806243Y-147035658D01*
X74443002Y-147145846D01*
X74108238Y-147324781D01*
X73914001Y-147484188D01*
X73719763Y-147324781D01*
X73384999Y-147145846D01*
X73021758Y-147035658D01*
X72644000Y-146998452D01*
X72266243Y-147035658D01*
X71903002Y-147145846D01*
X71568238Y-147324781D01*
X71274814Y-147565588D01*
X71034006Y-147859012D01*
X70855071Y-148193776D01*
X70819413Y-148311324D01*
X70552546Y-148168680D01*
X70208155Y-148064210D01*
X69939755Y-148037775D01*
X69760245Y-148037775D01*
X69491845Y-148064210D01*
X69147454Y-148168680D01*
X68830062Y-148338330D01*
X68551865Y-148566640D01*
X68323555Y-148844837D01*
X68316816Y-148857446D01*
X68115392Y-148710208D01*
X67878044Y-148599953D01*
X67770329Y-148567284D01*
X67564000Y-148690626D01*
X67564000Y-149733000D01*
X67584000Y-149733000D01*
X67584000Y-149987000D01*
X67564000Y-149987000D01*
X67564000Y-150007000D01*
X67416350Y-150007000D01*
X67420971Y-149360050D01*
X67310705Y-148865750D01*
X67310000Y-148864276D01*
X67310000Y-148690626D01*
X67193700Y-148621102D01*
X67078000Y-148379185D01*
X67078000Y-146571383D01*
X67257056Y-146607000D01*
X67616944Y-146607000D01*
X67969916Y-146536789D01*
X68302409Y-146399066D01*
X68601645Y-146199124D01*
X68641113Y-146159657D01*
X68685355Y-146203899D01*
X68984591Y-146403841D01*
X69317084Y-146541564D01*
X69670056Y-146611775D01*
X70029944Y-146611775D01*
X70382916Y-146541564D01*
X70715409Y-146403841D01*
X71014645Y-146203899D01*
X71269124Y-145949420D01*
X71322025Y-145870247D01*
X71468323Y-145914626D01*
G36*
X72771000Y-141587775D02*
X72791000Y-141587775D01*
X72791000Y-141841775D01*
X72771000Y-141841775D01*
X72771000Y-141861775D01*
X72517000Y-141861775D01*
X72517000Y-141841775D01*
X72497000Y-141841775D01*
X72497000Y-141587775D01*
X72517000Y-141587775D01*
X72517000Y-141567775D01*
X72771000Y-141567775D01*
X72771000Y-141587775D01*
X72771000Y-141587775D01*
G37*
X72771000Y-141587775D02*
X72791000Y-141587775D01*
X72791000Y-141841775D01*
X72771000Y-141841775D01*
X72771000Y-141861775D01*
X72517000Y-141861775D01*
X72517000Y-141841775D01*
X72497000Y-141841775D01*
X72497000Y-141587775D01*
X72517000Y-141587775D01*
X72517000Y-141567775D01*
X72771000Y-141567775D01*
X72771000Y-141587775D01*
G04 #@! TO.N,VCC*
G36*
X73872689Y-129845010D02*
X73636969Y-130414088D01*
X73516800Y-131018217D01*
X73516800Y-131634183D01*
X73636969Y-132238312D01*
X73872689Y-132807390D01*
X74214901Y-133319546D01*
X74650454Y-133755099D01*
X75162610Y-134097311D01*
X75438000Y-134211381D01*
X75438000Y-135202394D01*
X75004897Y-135635497D01*
X74979639Y-135621997D01*
X74587652Y-135503089D01*
X74180000Y-135462939D01*
X73772347Y-135503089D01*
X73380360Y-135621997D01*
X73019102Y-135815094D01*
X72702457Y-136074957D01*
X72551049Y-136259449D01*
X72506923Y-136224031D01*
X72231094Y-136080429D01*
X72012980Y-136009437D01*
X71767000Y-136129406D01*
X71767000Y-136986725D01*
X71513000Y-137085742D01*
X71513000Y-136129406D01*
X71267020Y-136009437D01*
X71052117Y-136079384D01*
X70994100Y-135970843D01*
X70853265Y-135799235D01*
X70681657Y-135658400D01*
X70485871Y-135553750D01*
X70273431Y-135489307D01*
X70052500Y-135467547D01*
X68147500Y-135467547D01*
X67926569Y-135489307D01*
X67714129Y-135553750D01*
X67518343Y-135658400D01*
X67346735Y-135799235D01*
X67205900Y-135970843D01*
X67101250Y-136166629D01*
X67036807Y-136379069D01*
X67015047Y-136600000D01*
X67015047Y-138600000D01*
X67036807Y-138820931D01*
X67101250Y-139033371D01*
X67205900Y-139229157D01*
X67346735Y-139400765D01*
X67518343Y-139541600D01*
X67714129Y-139646250D01*
X67926569Y-139710693D01*
X68147500Y-139732453D01*
X68563078Y-139732453D01*
X65633760Y-142593647D01*
X65617741Y-142612705D01*
X65605747Y-142634522D01*
X65598240Y-142658260D01*
X65595538Y-142681403D01*
X65468538Y-147888403D01*
X65470373Y-147913232D01*
X65480929Y-147946295D01*
X65909409Y-148842207D01*
X65740905Y-149157454D01*
X65636435Y-149501845D01*
X65601160Y-149860000D01*
X65636435Y-150218155D01*
X65740905Y-150562546D01*
X65910555Y-150879938D01*
X66138865Y-151158135D01*
X66154007Y-151170562D01*
X66145728Y-152329581D01*
X66014103Y-152437603D01*
X65842027Y-152647279D01*
X65714163Y-152886495D01*
X65635425Y-153146061D01*
X65608838Y-153416000D01*
X65635425Y-153685939D01*
X65714163Y-153945505D01*
X65842027Y-154184721D01*
X65927313Y-154288642D01*
X65910555Y-154309062D01*
X65740905Y-154626454D01*
X65636435Y-154970845D01*
X65601160Y-155329000D01*
X65636435Y-155687155D01*
X65740905Y-156031546D01*
X65910555Y-156348938D01*
X66115237Y-156598344D01*
X66103503Y-158241093D01*
X66103500Y-158242000D01*
X66103500Y-159158731D01*
X66017876Y-159244355D01*
X65817934Y-159543591D01*
X65680211Y-159876084D01*
X65610000Y-160229056D01*
X65610000Y-160588944D01*
X65680211Y-160941916D01*
X65817934Y-161274409D01*
X66017876Y-161573645D01*
X66208442Y-161764211D01*
X68121164Y-165172780D01*
X67939102Y-165270094D01*
X67622457Y-165529957D01*
X67362594Y-165846602D01*
X67169497Y-166207860D01*
X67050589Y-166599847D01*
X67020500Y-166905348D01*
X67020500Y-167204651D01*
X67050589Y-167510152D01*
X67169497Y-167902139D01*
X67362594Y-168263398D01*
X67622457Y-168580043D01*
X67939102Y-168839906D01*
X68300360Y-169033003D01*
X68692347Y-169151911D01*
X69100000Y-169192061D01*
X69507652Y-169151911D01*
X69899639Y-169033003D01*
X70197878Y-168873591D01*
X71072746Y-170432650D01*
X71086999Y-170453062D01*
X71104960Y-170470302D01*
X71125940Y-170483707D01*
X71149132Y-170492761D01*
X71173644Y-170497117D01*
X71189949Y-170497336D01*
X74933224Y-170307000D01*
X75756142Y-170307000D01*
X75680888Y-170321969D01*
X75111810Y-170557689D01*
X74599654Y-170899901D01*
X74164101Y-171335454D01*
X73821889Y-171847610D01*
X73586169Y-172416688D01*
X73466000Y-173020817D01*
X73466000Y-173636783D01*
X73586169Y-174240912D01*
X73821889Y-174809990D01*
X74164101Y-175322146D01*
X74599654Y-175757699D01*
X74615071Y-175768000D01*
X68614129Y-175768000D01*
X68629546Y-175757699D01*
X69065099Y-175322146D01*
X69407311Y-174809990D01*
X69643031Y-174240912D01*
X69763200Y-173636783D01*
X69763200Y-173020817D01*
X69643031Y-172416688D01*
X69407311Y-171847610D01*
X69065099Y-171335454D01*
X68629546Y-170899901D01*
X68117390Y-170557689D01*
X67548312Y-170321969D01*
X66944183Y-170201800D01*
X66328217Y-170201800D01*
X65724088Y-170321969D01*
X65155010Y-170557689D01*
X64642854Y-170899901D01*
X64207301Y-171335454D01*
X63865089Y-171847610D01*
X63629369Y-172416688D01*
X63509200Y-173020817D01*
X63509200Y-173636783D01*
X63629369Y-174240912D01*
X63865089Y-174809990D01*
X64207301Y-175322146D01*
X64642854Y-175757699D01*
X64658271Y-175768000D01*
X62055000Y-175768000D01*
X62055000Y-175298000D01*
X61987663Y-174868315D01*
X61837792Y-174460023D01*
X61611147Y-174088815D01*
X61316438Y-173768956D01*
X60964991Y-173512738D01*
X60570311Y-173330007D01*
X60311369Y-173260737D01*
X59967000Y-173372676D01*
X59967000Y-175768000D01*
X59713000Y-175768000D01*
X59713000Y-173372676D01*
X59368631Y-173260737D01*
X59109689Y-173330007D01*
X58715009Y-173512738D01*
X58515330Y-173658312D01*
X58487247Y-173565736D01*
X58359528Y-173326790D01*
X58187647Y-173117353D01*
X57978210Y-172945472D01*
X57739264Y-172817753D01*
X57479993Y-172739104D01*
X57210360Y-172712547D01*
X54549640Y-172712547D01*
X54475449Y-172719854D01*
X53570287Y-171814692D01*
X53531081Y-171766919D01*
X53340439Y-171610464D01*
X53122938Y-171494207D01*
X52886935Y-171422616D01*
X52795021Y-171413563D01*
X52727292Y-164369750D01*
X56096000Y-164369750D01*
X56096000Y-164946542D01*
X56120403Y-165069223D01*
X56168270Y-165184785D01*
X56237763Y-165288789D01*
X56326211Y-165377237D01*
X56430215Y-165446730D01*
X56545777Y-165494597D01*
X56668458Y-165519000D01*
X57245250Y-165519000D01*
X57404000Y-165360250D01*
X57404000Y-164211000D01*
X56254750Y-164211000D01*
X56096000Y-164369750D01*
X52727292Y-164369750D01*
X52711907Y-162769750D01*
X55425063Y-162769750D01*
X55425063Y-163346542D01*
X55449466Y-163469223D01*
X55497333Y-163584785D01*
X55566826Y-163688789D01*
X55655274Y-163777237D01*
X55759278Y-163846730D01*
X55874840Y-163894597D01*
X55997521Y-163919000D01*
X56216750Y-163919000D01*
X56254750Y-163957000D01*
X57404000Y-163957000D01*
X57404000Y-163937000D01*
X57658000Y-163937000D01*
X57658000Y-163957000D01*
X57678000Y-163957000D01*
X57678000Y-164211000D01*
X57658000Y-164211000D01*
X57658000Y-165360250D01*
X57816750Y-165519000D01*
X58393542Y-165519000D01*
X58516223Y-165494597D01*
X58631785Y-165446730D01*
X58653818Y-165432008D01*
X58774937Y-165553127D01*
X58774937Y-165873793D01*
X58848990Y-166246085D01*
X58994252Y-166596777D01*
X59205138Y-166912391D01*
X59473546Y-167180799D01*
X59789160Y-167391685D01*
X60139852Y-167536947D01*
X60512144Y-167611000D01*
X60891730Y-167611000D01*
X61264022Y-167536947D01*
X61614714Y-167391685D01*
X61930328Y-167180799D01*
X62198736Y-166912391D01*
X62409622Y-166596777D01*
X62554884Y-166246085D01*
X62628937Y-165873793D01*
X62628937Y-165494207D01*
X62554884Y-165121915D01*
X62409622Y-164771223D01*
X62198736Y-164455609D01*
X61958000Y-164214873D01*
X61958000Y-163894207D01*
X61883947Y-163521915D01*
X61738685Y-163171223D01*
X61527799Y-162855609D01*
X61259391Y-162587201D01*
X60943777Y-162376315D01*
X60593085Y-162231053D01*
X60220793Y-162157000D01*
X59841207Y-162157000D01*
X59468915Y-162231053D01*
X59118223Y-162376315D01*
X58802609Y-162587201D01*
X58653818Y-162735992D01*
X58631785Y-162721270D01*
X58516223Y-162673403D01*
X58393542Y-162649000D01*
X58174313Y-162649000D01*
X58136313Y-162611000D01*
X56987063Y-162611000D01*
X56987063Y-162631000D01*
X56733063Y-162631000D01*
X56733063Y-162611000D01*
X55583813Y-162611000D01*
X55425063Y-162769750D01*
X52711907Y-162769750D01*
X52700866Y-161621458D01*
X55425063Y-161621458D01*
X55425063Y-162198250D01*
X55583813Y-162357000D01*
X56733063Y-162357000D01*
X56733063Y-161207750D01*
X56987063Y-161207750D01*
X56987063Y-162357000D01*
X58136313Y-162357000D01*
X58295063Y-162198250D01*
X58295063Y-161621458D01*
X58270660Y-161498777D01*
X58222793Y-161383215D01*
X58153300Y-161279211D01*
X58064852Y-161190763D01*
X57960848Y-161121270D01*
X57845286Y-161073403D01*
X57722605Y-161049000D01*
X57145813Y-161049000D01*
X56987063Y-161207750D01*
X56733063Y-161207750D01*
X56574313Y-161049000D01*
X55997521Y-161049000D01*
X55874840Y-161073403D01*
X55759278Y-161121270D01*
X55655274Y-161190763D01*
X55566826Y-161279211D01*
X55497333Y-161383215D01*
X55449466Y-161498777D01*
X55425063Y-161621458D01*
X52700866Y-161621458D01*
X52657894Y-157152453D01*
X52669646Y-157140701D01*
X52859201Y-157424391D01*
X53127609Y-157692799D01*
X53443223Y-157903685D01*
X53793915Y-158048947D01*
X54166207Y-158123000D01*
X54545793Y-158123000D01*
X54918085Y-158048947D01*
X55268777Y-157903685D01*
X55584391Y-157692799D01*
X55852799Y-157424391D01*
X56063685Y-157108777D01*
X56208947Y-156758085D01*
X56283000Y-156385793D01*
X56283000Y-156322999D01*
X61461404Y-156322999D01*
X62219281Y-157080876D01*
X62361670Y-157293977D01*
X62543023Y-157475330D01*
X62756272Y-157617818D01*
X62993221Y-157715965D01*
X63244764Y-157766000D01*
X63501236Y-157766000D01*
X63752779Y-157715965D01*
X63989728Y-157617818D01*
X64202977Y-157475330D01*
X64384330Y-157293977D01*
X64526818Y-157080728D01*
X64624965Y-156843779D01*
X64675000Y-156592236D01*
X64675000Y-156335764D01*
X64624965Y-156084221D01*
X64526818Y-155847272D01*
X64384330Y-155634023D01*
X64202977Y-155452670D01*
X63989876Y-155310281D01*
X62908786Y-154229191D01*
X62869580Y-154181418D01*
X62678938Y-154024963D01*
X62461437Y-153908706D01*
X62225434Y-153837115D01*
X62041497Y-153818999D01*
X62041495Y-153818999D01*
X61979999Y-153812942D01*
X61918503Y-153818999D01*
X55786678Y-153818999D01*
X55796217Y-153625488D01*
X55754787Y-153345870D01*
X55753000Y-153340873D01*
X55753000Y-152813190D01*
X55852799Y-152713391D01*
X56063685Y-152397777D01*
X56208947Y-152047085D01*
X56283000Y-151674793D01*
X56283000Y-151295207D01*
X56208947Y-150922915D01*
X56063685Y-150572223D01*
X55852799Y-150256609D01*
X55584391Y-149988201D01*
X55447020Y-149896413D01*
X55348704Y-149798097D01*
X55592671Y-149726514D01*
X55713571Y-149471004D01*
X55782300Y-149196816D01*
X55796217Y-148914488D01*
X55754787Y-148634870D01*
X55659603Y-148368708D01*
X55592671Y-148243486D01*
X55348702Y-148171903D01*
X54535605Y-148985000D01*
X54549748Y-148999143D01*
X54370143Y-149178748D01*
X54356000Y-149164605D01*
X54341858Y-149178748D01*
X54162253Y-148999143D01*
X54176395Y-148985000D01*
X53363298Y-148171903D01*
X53119329Y-148243486D01*
X52998429Y-148498996D01*
X52963422Y-148638654D01*
X52960787Y-148620870D01*
X52865603Y-148354708D01*
X52798671Y-148229486D01*
X52784893Y-148225443D01*
X52787427Y-147992298D01*
X53542903Y-147992298D01*
X54356000Y-148805395D01*
X55169097Y-147992298D01*
X55097514Y-147748329D01*
X54842004Y-147627429D01*
X54567816Y-147558700D01*
X54285488Y-147544783D01*
X54005870Y-147586213D01*
X53739708Y-147681397D01*
X53614486Y-147748329D01*
X53542903Y-147992298D01*
X52787427Y-147992298D01*
X52831992Y-143892380D01*
X52832000Y-143891000D01*
X52832000Y-141001750D01*
X56096000Y-141001750D01*
X56096000Y-141578542D01*
X56120403Y-141701223D01*
X56168270Y-141816785D01*
X56237763Y-141920789D01*
X56326211Y-142009237D01*
X56430215Y-142078730D01*
X56545777Y-142126597D01*
X56668458Y-142151000D01*
X57245250Y-142151000D01*
X57404000Y-141992250D01*
X57404000Y-140843000D01*
X56254750Y-140843000D01*
X56096000Y-141001750D01*
X52832000Y-141001750D01*
X52832000Y-139401750D01*
X55425063Y-139401750D01*
X55425063Y-139978542D01*
X55449466Y-140101223D01*
X55497333Y-140216785D01*
X55566826Y-140320789D01*
X55655274Y-140409237D01*
X55759278Y-140478730D01*
X55874840Y-140526597D01*
X55997521Y-140551000D01*
X56216750Y-140551000D01*
X56254750Y-140589000D01*
X57404000Y-140589000D01*
X57404000Y-140569000D01*
X57658000Y-140569000D01*
X57658000Y-140589000D01*
X57678000Y-140589000D01*
X57678000Y-140843000D01*
X57658000Y-140843000D01*
X57658000Y-141992250D01*
X57816750Y-142151000D01*
X58393542Y-142151000D01*
X58516223Y-142126597D01*
X58631785Y-142078730D01*
X58653818Y-142064008D01*
X58774937Y-142185127D01*
X58774937Y-142505793D01*
X58848990Y-142878085D01*
X58994252Y-143228777D01*
X59205138Y-143544391D01*
X59473546Y-143812799D01*
X59789160Y-144023685D01*
X60139852Y-144168947D01*
X60512144Y-144243000D01*
X60891730Y-144243000D01*
X61264022Y-144168947D01*
X61614714Y-144023685D01*
X61930328Y-143812799D01*
X62198736Y-143544391D01*
X62409622Y-143228777D01*
X62554884Y-142878085D01*
X62628937Y-142505793D01*
X62628937Y-142126207D01*
X62554884Y-141753915D01*
X62409622Y-141403223D01*
X62198736Y-141087609D01*
X61958000Y-140846873D01*
X61958000Y-140526207D01*
X61883947Y-140153915D01*
X61738685Y-139803223D01*
X61527799Y-139487609D01*
X61259391Y-139219201D01*
X60943777Y-139008315D01*
X60593085Y-138863053D01*
X60220793Y-138789000D01*
X59841207Y-138789000D01*
X59468915Y-138863053D01*
X59118223Y-139008315D01*
X58802609Y-139219201D01*
X58653818Y-139367992D01*
X58631785Y-139353270D01*
X58516223Y-139305403D01*
X58393542Y-139281000D01*
X58174313Y-139281000D01*
X58136313Y-139243000D01*
X56987063Y-139243000D01*
X56987063Y-139263000D01*
X56733063Y-139263000D01*
X56733063Y-139243000D01*
X55583813Y-139243000D01*
X55425063Y-139401750D01*
X52832000Y-139401750D01*
X52832000Y-138253458D01*
X55425063Y-138253458D01*
X55425063Y-138830250D01*
X55583813Y-138989000D01*
X56733063Y-138989000D01*
X56733063Y-137839750D01*
X56987063Y-137839750D01*
X56987063Y-138989000D01*
X58136313Y-138989000D01*
X58295063Y-138830250D01*
X58295063Y-138253458D01*
X58270660Y-138130777D01*
X58222793Y-138015215D01*
X58153300Y-137911211D01*
X58064852Y-137822763D01*
X57960848Y-137753270D01*
X57845286Y-137705403D01*
X57722605Y-137681000D01*
X57145813Y-137681000D01*
X56987063Y-137839750D01*
X56733063Y-137839750D01*
X56574313Y-137681000D01*
X55997521Y-137681000D01*
X55874840Y-137705403D01*
X55759278Y-137753270D01*
X55655274Y-137822763D01*
X55566826Y-137911211D01*
X55497333Y-138015215D01*
X55449466Y-138130777D01*
X55425063Y-138253458D01*
X52832000Y-138253458D01*
X52832000Y-131497606D01*
X53012285Y-131317321D01*
X53087321Y-131457704D01*
X53425600Y-131869899D01*
X53837795Y-132208179D01*
X54308064Y-132459543D01*
X54818335Y-132614332D01*
X55349000Y-132666598D01*
X55879664Y-132614332D01*
X56389935Y-132459543D01*
X56860204Y-132208179D01*
X56922004Y-132157461D01*
X57001353Y-132254147D01*
X57210790Y-132426028D01*
X57449736Y-132553747D01*
X57709007Y-132632396D01*
X57978640Y-132658953D01*
X60639360Y-132658953D01*
X60908993Y-132632396D01*
X61168264Y-132553747D01*
X61407210Y-132426028D01*
X61616647Y-132254147D01*
X61788528Y-132044710D01*
X61916247Y-131805764D01*
X61994896Y-131546493D01*
X62021453Y-131276860D01*
X62021453Y-130937000D01*
X63500000Y-130937000D01*
X63524776Y-130934560D01*
X63548601Y-130927333D01*
X63570557Y-130915597D01*
X63582335Y-130905932D01*
X63560000Y-131018217D01*
X63560000Y-131634183D01*
X63680169Y-132238312D01*
X63915889Y-132807390D01*
X64258101Y-133319546D01*
X64693654Y-133755099D01*
X65205810Y-134097311D01*
X65774888Y-134333031D01*
X66379017Y-134453200D01*
X66994983Y-134453200D01*
X67599112Y-134333031D01*
X68168190Y-134097311D01*
X68680346Y-133755099D01*
X69115899Y-133319546D01*
X69458111Y-132807390D01*
X69693831Y-132238312D01*
X69814000Y-131634183D01*
X69814000Y-131018217D01*
X69693831Y-130414088D01*
X69458111Y-129845010D01*
X69339168Y-129667000D01*
X73991632Y-129667000D01*
X73872689Y-129845010D01*
X73872689Y-129845010D01*
G37*
X73872689Y-129845010D02*
X73636969Y-130414088D01*
X73516800Y-131018217D01*
X73516800Y-131634183D01*
X73636969Y-132238312D01*
X73872689Y-132807390D01*
X74214901Y-133319546D01*
X74650454Y-133755099D01*
X75162610Y-134097311D01*
X75438000Y-134211381D01*
X75438000Y-135202394D01*
X75004897Y-135635497D01*
X74979639Y-135621997D01*
X74587652Y-135503089D01*
X74180000Y-135462939D01*
X73772347Y-135503089D01*
X73380360Y-135621997D01*
X73019102Y-135815094D01*
X72702457Y-136074957D01*
X72551049Y-136259449D01*
X72506923Y-136224031D01*
X72231094Y-136080429D01*
X72012980Y-136009437D01*
X71767000Y-136129406D01*
X71767000Y-136986725D01*
X71513000Y-137085742D01*
X71513000Y-136129406D01*
X71267020Y-136009437D01*
X71052117Y-136079384D01*
X70994100Y-135970843D01*
X70853265Y-135799235D01*
X70681657Y-135658400D01*
X70485871Y-135553750D01*
X70273431Y-135489307D01*
X70052500Y-135467547D01*
X68147500Y-135467547D01*
X67926569Y-135489307D01*
X67714129Y-135553750D01*
X67518343Y-135658400D01*
X67346735Y-135799235D01*
X67205900Y-135970843D01*
X67101250Y-136166629D01*
X67036807Y-136379069D01*
X67015047Y-136600000D01*
X67015047Y-138600000D01*
X67036807Y-138820931D01*
X67101250Y-139033371D01*
X67205900Y-139229157D01*
X67346735Y-139400765D01*
X67518343Y-139541600D01*
X67714129Y-139646250D01*
X67926569Y-139710693D01*
X68147500Y-139732453D01*
X68563078Y-139732453D01*
X65633760Y-142593647D01*
X65617741Y-142612705D01*
X65605747Y-142634522D01*
X65598240Y-142658260D01*
X65595538Y-142681403D01*
X65468538Y-147888403D01*
X65470373Y-147913232D01*
X65480929Y-147946295D01*
X65909409Y-148842207D01*
X65740905Y-149157454D01*
X65636435Y-149501845D01*
X65601160Y-149860000D01*
X65636435Y-150218155D01*
X65740905Y-150562546D01*
X65910555Y-150879938D01*
X66138865Y-151158135D01*
X66154007Y-151170562D01*
X66145728Y-152329581D01*
X66014103Y-152437603D01*
X65842027Y-152647279D01*
X65714163Y-152886495D01*
X65635425Y-153146061D01*
X65608838Y-153416000D01*
X65635425Y-153685939D01*
X65714163Y-153945505D01*
X65842027Y-154184721D01*
X65927313Y-154288642D01*
X65910555Y-154309062D01*
X65740905Y-154626454D01*
X65636435Y-154970845D01*
X65601160Y-155329000D01*
X65636435Y-155687155D01*
X65740905Y-156031546D01*
X65910555Y-156348938D01*
X66115237Y-156598344D01*
X66103503Y-158241093D01*
X66103500Y-158242000D01*
X66103500Y-159158731D01*
X66017876Y-159244355D01*
X65817934Y-159543591D01*
X65680211Y-159876084D01*
X65610000Y-160229056D01*
X65610000Y-160588944D01*
X65680211Y-160941916D01*
X65817934Y-161274409D01*
X66017876Y-161573645D01*
X66208442Y-161764211D01*
X68121164Y-165172780D01*
X67939102Y-165270094D01*
X67622457Y-165529957D01*
X67362594Y-165846602D01*
X67169497Y-166207860D01*
X67050589Y-166599847D01*
X67020500Y-166905348D01*
X67020500Y-167204651D01*
X67050589Y-167510152D01*
X67169497Y-167902139D01*
X67362594Y-168263398D01*
X67622457Y-168580043D01*
X67939102Y-168839906D01*
X68300360Y-169033003D01*
X68692347Y-169151911D01*
X69100000Y-169192061D01*
X69507652Y-169151911D01*
X69899639Y-169033003D01*
X70197878Y-168873591D01*
X71072746Y-170432650D01*
X71086999Y-170453062D01*
X71104960Y-170470302D01*
X71125940Y-170483707D01*
X71149132Y-170492761D01*
X71173644Y-170497117D01*
X71189949Y-170497336D01*
X74933224Y-170307000D01*
X75756142Y-170307000D01*
X75680888Y-170321969D01*
X75111810Y-170557689D01*
X74599654Y-170899901D01*
X74164101Y-171335454D01*
X73821889Y-171847610D01*
X73586169Y-172416688D01*
X73466000Y-173020817D01*
X73466000Y-173636783D01*
X73586169Y-174240912D01*
X73821889Y-174809990D01*
X74164101Y-175322146D01*
X74599654Y-175757699D01*
X74615071Y-175768000D01*
X68614129Y-175768000D01*
X68629546Y-175757699D01*
X69065099Y-175322146D01*
X69407311Y-174809990D01*
X69643031Y-174240912D01*
X69763200Y-173636783D01*
X69763200Y-173020817D01*
X69643031Y-172416688D01*
X69407311Y-171847610D01*
X69065099Y-171335454D01*
X68629546Y-170899901D01*
X68117390Y-170557689D01*
X67548312Y-170321969D01*
X66944183Y-170201800D01*
X66328217Y-170201800D01*
X65724088Y-170321969D01*
X65155010Y-170557689D01*
X64642854Y-170899901D01*
X64207301Y-171335454D01*
X63865089Y-171847610D01*
X63629369Y-172416688D01*
X63509200Y-173020817D01*
X63509200Y-173636783D01*
X63629369Y-174240912D01*
X63865089Y-174809990D01*
X64207301Y-175322146D01*
X64642854Y-175757699D01*
X64658271Y-175768000D01*
X62055000Y-175768000D01*
X62055000Y-175298000D01*
X61987663Y-174868315D01*
X61837792Y-174460023D01*
X61611147Y-174088815D01*
X61316438Y-173768956D01*
X60964991Y-173512738D01*
X60570311Y-173330007D01*
X60311369Y-173260737D01*
X59967000Y-173372676D01*
X59967000Y-175768000D01*
X59713000Y-175768000D01*
X59713000Y-173372676D01*
X59368631Y-173260737D01*
X59109689Y-173330007D01*
X58715009Y-173512738D01*
X58515330Y-173658312D01*
X58487247Y-173565736D01*
X58359528Y-173326790D01*
X58187647Y-173117353D01*
X57978210Y-172945472D01*
X57739264Y-172817753D01*
X57479993Y-172739104D01*
X57210360Y-172712547D01*
X54549640Y-172712547D01*
X54475449Y-172719854D01*
X53570287Y-171814692D01*
X53531081Y-171766919D01*
X53340439Y-171610464D01*
X53122938Y-171494207D01*
X52886935Y-171422616D01*
X52795021Y-171413563D01*
X52727292Y-164369750D01*
X56096000Y-164369750D01*
X56096000Y-164946542D01*
X56120403Y-165069223D01*
X56168270Y-165184785D01*
X56237763Y-165288789D01*
X56326211Y-165377237D01*
X56430215Y-165446730D01*
X56545777Y-165494597D01*
X56668458Y-165519000D01*
X57245250Y-165519000D01*
X57404000Y-165360250D01*
X57404000Y-164211000D01*
X56254750Y-164211000D01*
X56096000Y-164369750D01*
X52727292Y-164369750D01*
X52711907Y-162769750D01*
X55425063Y-162769750D01*
X55425063Y-163346542D01*
X55449466Y-163469223D01*
X55497333Y-163584785D01*
X55566826Y-163688789D01*
X55655274Y-163777237D01*
X55759278Y-163846730D01*
X55874840Y-163894597D01*
X55997521Y-163919000D01*
X56216750Y-163919000D01*
X56254750Y-163957000D01*
X57404000Y-163957000D01*
X57404000Y-163937000D01*
X57658000Y-163937000D01*
X57658000Y-163957000D01*
X57678000Y-163957000D01*
X57678000Y-164211000D01*
X57658000Y-164211000D01*
X57658000Y-165360250D01*
X57816750Y-165519000D01*
X58393542Y-165519000D01*
X58516223Y-165494597D01*
X58631785Y-165446730D01*
X58653818Y-165432008D01*
X58774937Y-165553127D01*
X58774937Y-165873793D01*
X58848990Y-166246085D01*
X58994252Y-166596777D01*
X59205138Y-166912391D01*
X59473546Y-167180799D01*
X59789160Y-167391685D01*
X60139852Y-167536947D01*
X60512144Y-167611000D01*
X60891730Y-167611000D01*
X61264022Y-167536947D01*
X61614714Y-167391685D01*
X61930328Y-167180799D01*
X62198736Y-166912391D01*
X62409622Y-166596777D01*
X62554884Y-166246085D01*
X62628937Y-165873793D01*
X62628937Y-165494207D01*
X62554884Y-165121915D01*
X62409622Y-164771223D01*
X62198736Y-164455609D01*
X61958000Y-164214873D01*
X61958000Y-163894207D01*
X61883947Y-163521915D01*
X61738685Y-163171223D01*
X61527799Y-162855609D01*
X61259391Y-162587201D01*
X60943777Y-162376315D01*
X60593085Y-162231053D01*
X60220793Y-162157000D01*
X59841207Y-162157000D01*
X59468915Y-162231053D01*
X59118223Y-162376315D01*
X58802609Y-162587201D01*
X58653818Y-162735992D01*
X58631785Y-162721270D01*
X58516223Y-162673403D01*
X58393542Y-162649000D01*
X58174313Y-162649000D01*
X58136313Y-162611000D01*
X56987063Y-162611000D01*
X56987063Y-162631000D01*
X56733063Y-162631000D01*
X56733063Y-162611000D01*
X55583813Y-162611000D01*
X55425063Y-162769750D01*
X52711907Y-162769750D01*
X52700866Y-161621458D01*
X55425063Y-161621458D01*
X55425063Y-162198250D01*
X55583813Y-162357000D01*
X56733063Y-162357000D01*
X56733063Y-161207750D01*
X56987063Y-161207750D01*
X56987063Y-162357000D01*
X58136313Y-162357000D01*
X58295063Y-162198250D01*
X58295063Y-161621458D01*
X58270660Y-161498777D01*
X58222793Y-161383215D01*
X58153300Y-161279211D01*
X58064852Y-161190763D01*
X57960848Y-161121270D01*
X57845286Y-161073403D01*
X57722605Y-161049000D01*
X57145813Y-161049000D01*
X56987063Y-161207750D01*
X56733063Y-161207750D01*
X56574313Y-161049000D01*
X55997521Y-161049000D01*
X55874840Y-161073403D01*
X55759278Y-161121270D01*
X55655274Y-161190763D01*
X55566826Y-161279211D01*
X55497333Y-161383215D01*
X55449466Y-161498777D01*
X55425063Y-161621458D01*
X52700866Y-161621458D01*
X52657894Y-157152453D01*
X52669646Y-157140701D01*
X52859201Y-157424391D01*
X53127609Y-157692799D01*
X53443223Y-157903685D01*
X53793915Y-158048947D01*
X54166207Y-158123000D01*
X54545793Y-158123000D01*
X54918085Y-158048947D01*
X55268777Y-157903685D01*
X55584391Y-157692799D01*
X55852799Y-157424391D01*
X56063685Y-157108777D01*
X56208947Y-156758085D01*
X56283000Y-156385793D01*
X56283000Y-156322999D01*
X61461404Y-156322999D01*
X62219281Y-157080876D01*
X62361670Y-157293977D01*
X62543023Y-157475330D01*
X62756272Y-157617818D01*
X62993221Y-157715965D01*
X63244764Y-157766000D01*
X63501236Y-157766000D01*
X63752779Y-157715965D01*
X63989728Y-157617818D01*
X64202977Y-157475330D01*
X64384330Y-157293977D01*
X64526818Y-157080728D01*
X64624965Y-156843779D01*
X64675000Y-156592236D01*
X64675000Y-156335764D01*
X64624965Y-156084221D01*
X64526818Y-155847272D01*
X64384330Y-155634023D01*
X64202977Y-155452670D01*
X63989876Y-155310281D01*
X62908786Y-154229191D01*
X62869580Y-154181418D01*
X62678938Y-154024963D01*
X62461437Y-153908706D01*
X62225434Y-153837115D01*
X62041497Y-153818999D01*
X62041495Y-153818999D01*
X61979999Y-153812942D01*
X61918503Y-153818999D01*
X55786678Y-153818999D01*
X55796217Y-153625488D01*
X55754787Y-153345870D01*
X55753000Y-153340873D01*
X55753000Y-152813190D01*
X55852799Y-152713391D01*
X56063685Y-152397777D01*
X56208947Y-152047085D01*
X56283000Y-151674793D01*
X56283000Y-151295207D01*
X56208947Y-150922915D01*
X56063685Y-150572223D01*
X55852799Y-150256609D01*
X55584391Y-149988201D01*
X55447020Y-149896413D01*
X55348704Y-149798097D01*
X55592671Y-149726514D01*
X55713571Y-149471004D01*
X55782300Y-149196816D01*
X55796217Y-148914488D01*
X55754787Y-148634870D01*
X55659603Y-148368708D01*
X55592671Y-148243486D01*
X55348702Y-148171903D01*
X54535605Y-148985000D01*
X54549748Y-148999143D01*
X54370143Y-149178748D01*
X54356000Y-149164605D01*
X54341858Y-149178748D01*
X54162253Y-148999143D01*
X54176395Y-148985000D01*
X53363298Y-148171903D01*
X53119329Y-148243486D01*
X52998429Y-148498996D01*
X52963422Y-148638654D01*
X52960787Y-148620870D01*
X52865603Y-148354708D01*
X52798671Y-148229486D01*
X52784893Y-148225443D01*
X52787427Y-147992298D01*
X53542903Y-147992298D01*
X54356000Y-148805395D01*
X55169097Y-147992298D01*
X55097514Y-147748329D01*
X54842004Y-147627429D01*
X54567816Y-147558700D01*
X54285488Y-147544783D01*
X54005870Y-147586213D01*
X53739708Y-147681397D01*
X53614486Y-147748329D01*
X53542903Y-147992298D01*
X52787427Y-147992298D01*
X52831992Y-143892380D01*
X52832000Y-143891000D01*
X52832000Y-141001750D01*
X56096000Y-141001750D01*
X56096000Y-141578542D01*
X56120403Y-141701223D01*
X56168270Y-141816785D01*
X56237763Y-141920789D01*
X56326211Y-142009237D01*
X56430215Y-142078730D01*
X56545777Y-142126597D01*
X56668458Y-142151000D01*
X57245250Y-142151000D01*
X57404000Y-141992250D01*
X57404000Y-140843000D01*
X56254750Y-140843000D01*
X56096000Y-141001750D01*
X52832000Y-141001750D01*
X52832000Y-139401750D01*
X55425063Y-139401750D01*
X55425063Y-139978542D01*
X55449466Y-140101223D01*
X55497333Y-140216785D01*
X55566826Y-140320789D01*
X55655274Y-140409237D01*
X55759278Y-140478730D01*
X55874840Y-140526597D01*
X55997521Y-140551000D01*
X56216750Y-140551000D01*
X56254750Y-140589000D01*
X57404000Y-140589000D01*
X57404000Y-140569000D01*
X57658000Y-140569000D01*
X57658000Y-140589000D01*
X57678000Y-140589000D01*
X57678000Y-140843000D01*
X57658000Y-140843000D01*
X57658000Y-141992250D01*
X57816750Y-142151000D01*
X58393542Y-142151000D01*
X58516223Y-142126597D01*
X58631785Y-142078730D01*
X58653818Y-142064008D01*
X58774937Y-142185127D01*
X58774937Y-142505793D01*
X58848990Y-142878085D01*
X58994252Y-143228777D01*
X59205138Y-143544391D01*
X59473546Y-143812799D01*
X59789160Y-144023685D01*
X60139852Y-144168947D01*
X60512144Y-144243000D01*
X60891730Y-144243000D01*
X61264022Y-144168947D01*
X61614714Y-144023685D01*
X61930328Y-143812799D01*
X62198736Y-143544391D01*
X62409622Y-143228777D01*
X62554884Y-142878085D01*
X62628937Y-142505793D01*
X62628937Y-142126207D01*
X62554884Y-141753915D01*
X62409622Y-141403223D01*
X62198736Y-141087609D01*
X61958000Y-140846873D01*
X61958000Y-140526207D01*
X61883947Y-140153915D01*
X61738685Y-139803223D01*
X61527799Y-139487609D01*
X61259391Y-139219201D01*
X60943777Y-139008315D01*
X60593085Y-138863053D01*
X60220793Y-138789000D01*
X59841207Y-138789000D01*
X59468915Y-138863053D01*
X59118223Y-139008315D01*
X58802609Y-139219201D01*
X58653818Y-139367992D01*
X58631785Y-139353270D01*
X58516223Y-139305403D01*
X58393542Y-139281000D01*
X58174313Y-139281000D01*
X58136313Y-139243000D01*
X56987063Y-139243000D01*
X56987063Y-139263000D01*
X56733063Y-139263000D01*
X56733063Y-139243000D01*
X55583813Y-139243000D01*
X55425063Y-139401750D01*
X52832000Y-139401750D01*
X52832000Y-138253458D01*
X55425063Y-138253458D01*
X55425063Y-138830250D01*
X55583813Y-138989000D01*
X56733063Y-138989000D01*
X56733063Y-137839750D01*
X56987063Y-137839750D01*
X56987063Y-138989000D01*
X58136313Y-138989000D01*
X58295063Y-138830250D01*
X58295063Y-138253458D01*
X58270660Y-138130777D01*
X58222793Y-138015215D01*
X58153300Y-137911211D01*
X58064852Y-137822763D01*
X57960848Y-137753270D01*
X57845286Y-137705403D01*
X57722605Y-137681000D01*
X57145813Y-137681000D01*
X56987063Y-137839750D01*
X56733063Y-137839750D01*
X56574313Y-137681000D01*
X55997521Y-137681000D01*
X55874840Y-137705403D01*
X55759278Y-137753270D01*
X55655274Y-137822763D01*
X55566826Y-137911211D01*
X55497333Y-138015215D01*
X55449466Y-138130777D01*
X55425063Y-138253458D01*
X52832000Y-138253458D01*
X52832000Y-131497606D01*
X53012285Y-131317321D01*
X53087321Y-131457704D01*
X53425600Y-131869899D01*
X53837795Y-132208179D01*
X54308064Y-132459543D01*
X54818335Y-132614332D01*
X55349000Y-132666598D01*
X55879664Y-132614332D01*
X56389935Y-132459543D01*
X56860204Y-132208179D01*
X56922004Y-132157461D01*
X57001353Y-132254147D01*
X57210790Y-132426028D01*
X57449736Y-132553747D01*
X57709007Y-132632396D01*
X57978640Y-132658953D01*
X60639360Y-132658953D01*
X60908993Y-132632396D01*
X61168264Y-132553747D01*
X61407210Y-132426028D01*
X61616647Y-132254147D01*
X61788528Y-132044710D01*
X61916247Y-131805764D01*
X61994896Y-131546493D01*
X62021453Y-131276860D01*
X62021453Y-130937000D01*
X63500000Y-130937000D01*
X63524776Y-130934560D01*
X63548601Y-130927333D01*
X63570557Y-130915597D01*
X63582335Y-130905932D01*
X63560000Y-131018217D01*
X63560000Y-131634183D01*
X63680169Y-132238312D01*
X63915889Y-132807390D01*
X64258101Y-133319546D01*
X64693654Y-133755099D01*
X65205810Y-134097311D01*
X65774888Y-134333031D01*
X66379017Y-134453200D01*
X66994983Y-134453200D01*
X67599112Y-134333031D01*
X68168190Y-134097311D01*
X68680346Y-133755099D01*
X69115899Y-133319546D01*
X69458111Y-132807390D01*
X69693831Y-132238312D01*
X69814000Y-131634183D01*
X69814000Y-131018217D01*
X69693831Y-130414088D01*
X69458111Y-129845010D01*
X69339168Y-129667000D01*
X73991632Y-129667000D01*
X73872689Y-129845010D01*
G04 #@! TD*
M02*
