M48
; DRILL file {KiCad (5.1.2)-2} date 01/08/20 20:34:31
; FORMAT={-:-/ absolute / inch / decimal}
; #@! TF.CreationDate,2020-01-08T20:34:31+05:30
; #@! TF.GenerationSoftware,Kicad,Pcbnew,(5.1.2)-2
FMAT,2
INCH
T1C0.0157
T2C0.0315
T3C0.0394
T4C0.0433
T5C0.0512
%
G90
G05
T1
X5.0148Y-3.5256
X5.3799Y-3.8297
X5.874Y-3.312
X6.2165Y-2.7785
X7.0866Y-3.7402
T2
X5.5748Y-4.1053
X5.6732Y-4.1053
X5.5719Y-3.4646
X5.6703Y-3.4646
X6.3002Y-3.8417
X6.3002Y-4.1417
X6.4002Y-3.8417
X6.4002Y-4.1417
X6.5002Y-3.8417
X6.5002Y-4.1417
X6.6002Y-3.8417
X6.6002Y-4.1417
X6.2591Y-3.0659
X6.2591Y-3.3659
X6.3591Y-3.0659
X6.3591Y-3.3659
X6.4591Y-3.0659
X6.4591Y-3.3659
X6.5591Y-3.0659
X6.5591Y-3.3659
T3
X7.2146Y-3.8937
X7.2146Y-3.9937
X7.2146Y-4.0937
T4
X5.7429Y-4.6654
X5.8429Y-4.6654
X5.9429Y-4.6654
X5.2736Y-3.0402
X5.2736Y-3.1402
X5.2736Y-3.2402
X5.2667Y-4.177
X5.2667Y-4.277
X5.2667Y-4.377
X5.747Y-2.7677
X5.847Y-2.7677
X5.947Y-2.7677
T5
X7.0827Y-2.685
X7.0827Y-2.885
X7.0827Y-3.085
X6.8858Y-4.5846
X7.0858Y-4.5846
T0
M30
