G04 #@! TF.GenerationSoftware,KiCad,Pcbnew,(5.0.2)-1*
G04 #@! TF.CreationDate,2020-02-17T18:51:26+05:30*
G04 #@! TF.ProjectId,mosfet driver,6d6f7366-6574-4206-9472-697665722e6b,rev?*
G04 #@! TF.SameCoordinates,Original*
G04 #@! TF.FileFunction,Paste,Top*
G04 #@! TF.FilePolarity,Positive*
%FSLAX46Y46*%
G04 Gerber Fmt 4.6, Leading zero omitted, Abs format (unit mm)*
G04 Created by KiCad (PCBNEW (5.0.2)-1) date 02/17/20 18:51:26*
%MOMM*%
%LPD*%
G01*
G04 APERTURE LIST*
%ADD10C,0.100000*%
%ADD11C,0.950000*%
G04 APERTURE END LIST*
D10*
G04 #@! TO.C,D3*
G36*
X70400779Y-151291144D02*
X70423834Y-151294563D01*
X70446443Y-151300227D01*
X70468387Y-151308079D01*
X70489457Y-151318044D01*
X70509448Y-151330026D01*
X70528168Y-151343910D01*
X70545438Y-151359562D01*
X70561090Y-151376832D01*
X70574974Y-151395552D01*
X70586956Y-151415543D01*
X70596921Y-151436613D01*
X70604773Y-151458557D01*
X70610437Y-151481166D01*
X70613856Y-151504221D01*
X70615000Y-151527500D01*
X70615000Y-152002500D01*
X70613856Y-152025779D01*
X70610437Y-152048834D01*
X70604773Y-152071443D01*
X70596921Y-152093387D01*
X70586956Y-152114457D01*
X70574974Y-152134448D01*
X70561090Y-152153168D01*
X70545438Y-152170438D01*
X70528168Y-152186090D01*
X70509448Y-152199974D01*
X70489457Y-152211956D01*
X70468387Y-152221921D01*
X70446443Y-152229773D01*
X70423834Y-152235437D01*
X70400779Y-152238856D01*
X70377500Y-152240000D01*
X69802500Y-152240000D01*
X69779221Y-152238856D01*
X69756166Y-152235437D01*
X69733557Y-152229773D01*
X69711613Y-152221921D01*
X69690543Y-152211956D01*
X69670552Y-152199974D01*
X69651832Y-152186090D01*
X69634562Y-152170438D01*
X69618910Y-152153168D01*
X69605026Y-152134448D01*
X69593044Y-152114457D01*
X69583079Y-152093387D01*
X69575227Y-152071443D01*
X69569563Y-152048834D01*
X69566144Y-152025779D01*
X69565000Y-152002500D01*
X69565000Y-151527500D01*
X69566144Y-151504221D01*
X69569563Y-151481166D01*
X69575227Y-151458557D01*
X69583079Y-151436613D01*
X69593044Y-151415543D01*
X69605026Y-151395552D01*
X69618910Y-151376832D01*
X69634562Y-151359562D01*
X69651832Y-151343910D01*
X69670552Y-151330026D01*
X69690543Y-151318044D01*
X69711613Y-151308079D01*
X69733557Y-151300227D01*
X69756166Y-151294563D01*
X69779221Y-151291144D01*
X69802500Y-151290000D01*
X70377500Y-151290000D01*
X70400779Y-151291144D01*
X70400779Y-151291144D01*
G37*
D11*
X70090000Y-151765000D03*
D10*
G36*
X68650779Y-151291144D02*
X68673834Y-151294563D01*
X68696443Y-151300227D01*
X68718387Y-151308079D01*
X68739457Y-151318044D01*
X68759448Y-151330026D01*
X68778168Y-151343910D01*
X68795438Y-151359562D01*
X68811090Y-151376832D01*
X68824974Y-151395552D01*
X68836956Y-151415543D01*
X68846921Y-151436613D01*
X68854773Y-151458557D01*
X68860437Y-151481166D01*
X68863856Y-151504221D01*
X68865000Y-151527500D01*
X68865000Y-152002500D01*
X68863856Y-152025779D01*
X68860437Y-152048834D01*
X68854773Y-152071443D01*
X68846921Y-152093387D01*
X68836956Y-152114457D01*
X68824974Y-152134448D01*
X68811090Y-152153168D01*
X68795438Y-152170438D01*
X68778168Y-152186090D01*
X68759448Y-152199974D01*
X68739457Y-152211956D01*
X68718387Y-152221921D01*
X68696443Y-152229773D01*
X68673834Y-152235437D01*
X68650779Y-152238856D01*
X68627500Y-152240000D01*
X68052500Y-152240000D01*
X68029221Y-152238856D01*
X68006166Y-152235437D01*
X67983557Y-152229773D01*
X67961613Y-152221921D01*
X67940543Y-152211956D01*
X67920552Y-152199974D01*
X67901832Y-152186090D01*
X67884562Y-152170438D01*
X67868910Y-152153168D01*
X67855026Y-152134448D01*
X67843044Y-152114457D01*
X67833079Y-152093387D01*
X67825227Y-152071443D01*
X67819563Y-152048834D01*
X67816144Y-152025779D01*
X67815000Y-152002500D01*
X67815000Y-151527500D01*
X67816144Y-151504221D01*
X67819563Y-151481166D01*
X67825227Y-151458557D01*
X67833079Y-151436613D01*
X67843044Y-151415543D01*
X67855026Y-151395552D01*
X67868910Y-151376832D01*
X67884562Y-151359562D01*
X67901832Y-151343910D01*
X67920552Y-151330026D01*
X67940543Y-151318044D01*
X67961613Y-151308079D01*
X67983557Y-151300227D01*
X68006166Y-151294563D01*
X68029221Y-151291144D01*
X68052500Y-151290000D01*
X68627500Y-151290000D01*
X68650779Y-151291144D01*
X68650779Y-151291144D01*
G37*
D11*
X68340000Y-151765000D03*
G04 #@! TD*
D10*
G04 #@! TO.C,D1*
G36*
X70400779Y-152942144D02*
X70423834Y-152945563D01*
X70446443Y-152951227D01*
X70468387Y-152959079D01*
X70489457Y-152969044D01*
X70509448Y-152981026D01*
X70528168Y-152994910D01*
X70545438Y-153010562D01*
X70561090Y-153027832D01*
X70574974Y-153046552D01*
X70586956Y-153066543D01*
X70596921Y-153087613D01*
X70604773Y-153109557D01*
X70610437Y-153132166D01*
X70613856Y-153155221D01*
X70615000Y-153178500D01*
X70615000Y-153653500D01*
X70613856Y-153676779D01*
X70610437Y-153699834D01*
X70604773Y-153722443D01*
X70596921Y-153744387D01*
X70586956Y-153765457D01*
X70574974Y-153785448D01*
X70561090Y-153804168D01*
X70545438Y-153821438D01*
X70528168Y-153837090D01*
X70509448Y-153850974D01*
X70489457Y-153862956D01*
X70468387Y-153872921D01*
X70446443Y-153880773D01*
X70423834Y-153886437D01*
X70400779Y-153889856D01*
X70377500Y-153891000D01*
X69802500Y-153891000D01*
X69779221Y-153889856D01*
X69756166Y-153886437D01*
X69733557Y-153880773D01*
X69711613Y-153872921D01*
X69690543Y-153862956D01*
X69670552Y-153850974D01*
X69651832Y-153837090D01*
X69634562Y-153821438D01*
X69618910Y-153804168D01*
X69605026Y-153785448D01*
X69593044Y-153765457D01*
X69583079Y-153744387D01*
X69575227Y-153722443D01*
X69569563Y-153699834D01*
X69566144Y-153676779D01*
X69565000Y-153653500D01*
X69565000Y-153178500D01*
X69566144Y-153155221D01*
X69569563Y-153132166D01*
X69575227Y-153109557D01*
X69583079Y-153087613D01*
X69593044Y-153066543D01*
X69605026Y-153046552D01*
X69618910Y-153027832D01*
X69634562Y-153010562D01*
X69651832Y-152994910D01*
X69670552Y-152981026D01*
X69690543Y-152969044D01*
X69711613Y-152959079D01*
X69733557Y-152951227D01*
X69756166Y-152945563D01*
X69779221Y-152942144D01*
X69802500Y-152941000D01*
X70377500Y-152941000D01*
X70400779Y-152942144D01*
X70400779Y-152942144D01*
G37*
D11*
X70090000Y-153416000D03*
D10*
G36*
X68650779Y-152942144D02*
X68673834Y-152945563D01*
X68696443Y-152951227D01*
X68718387Y-152959079D01*
X68739457Y-152969044D01*
X68759448Y-152981026D01*
X68778168Y-152994910D01*
X68795438Y-153010562D01*
X68811090Y-153027832D01*
X68824974Y-153046552D01*
X68836956Y-153066543D01*
X68846921Y-153087613D01*
X68854773Y-153109557D01*
X68860437Y-153132166D01*
X68863856Y-153155221D01*
X68865000Y-153178500D01*
X68865000Y-153653500D01*
X68863856Y-153676779D01*
X68860437Y-153699834D01*
X68854773Y-153722443D01*
X68846921Y-153744387D01*
X68836956Y-153765457D01*
X68824974Y-153785448D01*
X68811090Y-153804168D01*
X68795438Y-153821438D01*
X68778168Y-153837090D01*
X68759448Y-153850974D01*
X68739457Y-153862956D01*
X68718387Y-153872921D01*
X68696443Y-153880773D01*
X68673834Y-153886437D01*
X68650779Y-153889856D01*
X68627500Y-153891000D01*
X68052500Y-153891000D01*
X68029221Y-153889856D01*
X68006166Y-153886437D01*
X67983557Y-153880773D01*
X67961613Y-153872921D01*
X67940543Y-153862956D01*
X67920552Y-153850974D01*
X67901832Y-153837090D01*
X67884562Y-153821438D01*
X67868910Y-153804168D01*
X67855026Y-153785448D01*
X67843044Y-153765457D01*
X67833079Y-153744387D01*
X67825227Y-153722443D01*
X67819563Y-153699834D01*
X67816144Y-153676779D01*
X67815000Y-153653500D01*
X67815000Y-153178500D01*
X67816144Y-153155221D01*
X67819563Y-153132166D01*
X67825227Y-153109557D01*
X67833079Y-153087613D01*
X67843044Y-153066543D01*
X67855026Y-153046552D01*
X67868910Y-153027832D01*
X67884562Y-153010562D01*
X67901832Y-152994910D01*
X67920552Y-152981026D01*
X67940543Y-152969044D01*
X67961613Y-152959079D01*
X67983557Y-152951227D01*
X68006166Y-152945563D01*
X68029221Y-152942144D01*
X68052500Y-152941000D01*
X68627500Y-152941000D01*
X68650779Y-152942144D01*
X68650779Y-152942144D01*
G37*
D11*
X68340000Y-153416000D03*
G04 #@! TD*
M02*
