M48
;DRILL file {KiCad (5.0.2)-1} date 02/17/20 18:51:57
;FORMAT={3:3/ absolute / metric / suppress leading zeros}
FMAT,2
METRIC,TZ
T1C0.300
T2C0.400
T3C0.500
T4C0.700
T5C0.800
T6C0.900
T7C1.000
T8C1.100
T9C1.700
T10C3.200
T11C3.800
%
G90
G05
T1
X63373Y-156464
X66993Y-153416
T2
X68644Y-143320
T3
X44844Y-178943
X45547Y-177246
X45547Y-180640
X47244Y-176543
X47244Y-181343
X48941Y-177246
X48941Y-180640
X49644Y-178943
X101867Y-178816
X102570Y-177119
X102570Y-180513
X104267Y-176416
X104267Y-181216
X105964Y-177119
X105964Y-180513
X106667Y-178816
X44844Y-126746
X45547Y-125049
X45547Y-128443
X47244Y-124346
X47244Y-129146
X48941Y-125049
X48941Y-128443
X49644Y-126746
X101867Y-126606
X102570Y-124909
X102570Y-128303
X104267Y-124206
X104267Y-129006
X105964Y-124909
X105964Y-128303
X106667Y-126606
T4
X45149Y-141669
X50228Y-141669
X78232Y-138049
X83312Y-138049
X69850Y-155329
X69850Y-160409
X72064Y-152654
X77144Y-152654
X79248Y-152654
X84328Y-152654
X69850Y-144785
X69850Y-149865
X67437Y-144780
X67437Y-149860
X78232Y-167386
X83312Y-167386
X67437Y-155329
X67437Y-160409
X96901Y-135636
X96901Y-140716
X96901Y-163830
X96901Y-168910
X47371Y-167576
X47371Y-172657
T5
X84582Y-161076
X84582Y-163576
X88773Y-161076
X88773Y-163576
X84709Y-141391
X84709Y-143891
X83693Y-155448
X83693Y-157948
X51562Y-148971
X51562Y-151471
X72644Y-155829
X72644Y-163449
X75184Y-155829
X75184Y-163449
X77724Y-155829
X77724Y-163449
X80264Y-155829
X80264Y-163449
X86741Y-147193
X86741Y-149693
X56860Y-162484
X57531Y-164084
X60031Y-164084
X60702Y-165684
X83693Y-147193
X83693Y-149693
X88900Y-141899
X88900Y-144399
X51562Y-153710
X51562Y-156210
X54356Y-148985
X54356Y-151485
X56860Y-139116
X57531Y-140716
X60031Y-140716
X60702Y-142316
X86741Y-155448
X86741Y-157948
X47562Y-131381
X47562Y-139001
X54356Y-153696
X54356Y-156196
X72644Y-141715
X72644Y-149335
X75184Y-141715
X75184Y-149335
X77724Y-141715
X77724Y-149335
X80264Y-141715
X80264Y-149335
T6
X92075Y-156083
X92075Y-163703
X47308Y-161354
X47308Y-163894
X46546Y-145351
X49085Y-145351
X92075Y-141478
X92075Y-149098
T7
X46609Y-149840
X46609Y-152380
X46609Y-154920
T8
X69100Y-137600
X71640Y-137600
X74180Y-137600
X87520Y-167055
X90060Y-167055
X92600Y-167055
X87520Y-137600
X90060Y-137600
X92600Y-137600
X69100Y-167055
X71640Y-167055
X74180Y-167055
T9
X100393Y-144694
X100393Y-148654
X55349Y-129476
X59309Y-129476
X100393Y-154028
X100393Y-157988
X55880Y-175895
X59840Y-175895
T10
X47244Y-126746
X104267Y-126606
X47244Y-178943
X104267Y-178816
T11
X66687Y-131326
X76644Y-131326
X85056Y-173329
X95013Y-173329
X85107Y-131326
X95064Y-131326
X66636Y-173329
X76593Y-173329
T0
M30
