M48
;DRILL file {KiCad (5.0.2)-1} date 02/26/20 19:00:27
;FORMAT={3:3/ absolute / metric / suppress leading zeros}
FMAT,2
METRIC,TZ
T1C0.500
T2C0.700
T3C0.800
T4C0.900
T5C1.000
T6C1.100
T7C1.700
T8C3.200
T9C3.800
%
G90
G05
T1
X44844Y-178943
X45547Y-177246
X44844Y-126746
X45547Y-125049
X45547Y-128443
X47244Y-124346
X47244Y-129146
X48941Y-125049
X48941Y-128443
X49644Y-126746
X101867Y-126606
X102570Y-124909
X102570Y-128303
X104267Y-124206
X104267Y-129006
X105964Y-124909
X105964Y-128303
X106667Y-126606
X101867Y-178816
X102570Y-177119
X102570Y-180513
X104267Y-176416
X104267Y-181216
X105964Y-177119
X105964Y-180513
X106667Y-178816
X45547Y-180640
X47244Y-176543
X47244Y-181343
X48941Y-177246
X48941Y-180640
X49644Y-178943
T2
X67437Y-144780
X67437Y-149860
X78232Y-138049
X83312Y-138049
X69850Y-144785
X69850Y-149865
X46228Y-141732
X51308Y-141732
X67437Y-155329
X67437Y-160409
X47371Y-167576
X47371Y-172657
X96901Y-163830
X96901Y-168910
X79248Y-152654
X84328Y-152654
X96901Y-136144
X96901Y-141224
X78232Y-167386
X83312Y-167386
X69850Y-155329
X69850Y-160409
X72064Y-152654
X77144Y-152654
T3
X68072Y-142748
X54356Y-148985
X54356Y-151485
X88900Y-141899
X88900Y-144399
X88773Y-161076
X88773Y-163576
X72644Y-155829
X72644Y-163449
X75184Y-155829
X75184Y-163449
X77724Y-155829
X77724Y-163449
X80264Y-155829
X80264Y-163449
X86741Y-155448
X86741Y-157948
X72644Y-141715
X72644Y-149335
X75184Y-141715
X75184Y-149335
X77724Y-141715
X77724Y-149335
X80264Y-141715
X80264Y-149335
X54356Y-153696
X54356Y-156196
X56860Y-139116
X57531Y-140716
X60031Y-140716
X60702Y-142316
X84582Y-161076
X84582Y-163576
X83693Y-147193
X83693Y-149693
X51562Y-153710
X51562Y-156210
X51562Y-148971
X51562Y-151471
X84709Y-141391
X84709Y-143891
X56860Y-162484
X57531Y-164084
X60031Y-164084
X60702Y-165684
X83693Y-155448
X83693Y-157948
X86741Y-147193
X86741Y-149693
T4
X57150Y-149225
X64770Y-149225
X93980Y-141986
X93980Y-149606
X93980Y-155194
X93980Y-162814
X46546Y-145351
X49085Y-145351
X48006Y-162306
X48006Y-164846
X57150Y-155956
X64770Y-155956
T5
X102616Y-170434
X102616Y-172974
X102616Y-133096
X102616Y-135636
X46609Y-149840
X46609Y-152380
X46609Y-154920
X106172Y-133096
X106172Y-135636
X106172Y-170434
X106172Y-172974
X104394Y-150622
X104394Y-153162
X104394Y-155702
X47752Y-132588
X47752Y-135128
X47752Y-137668
T6
X87520Y-167055
X90060Y-167055
X92600Y-167055
X69100Y-167055
X71640Y-167055
X74180Y-167055
X69100Y-137600
X71640Y-137600
X74180Y-137600
X87520Y-137600
X90060Y-137600
X92600Y-137600
T7
X55372Y-129286
X59332Y-129286
X103632Y-162052
X103632Y-166012
X103632Y-140208
X103632Y-144168
X55984Y-176022
X59944Y-176022
T8
X47244Y-126746
X104267Y-126606
X104267Y-178816
X47244Y-178943
T9
X66636Y-173329
X76593Y-173329
X66687Y-131326
X76644Y-131326
X85107Y-131326
X95064Y-131326
X85056Y-173329
X95013Y-173329
T0
M30
