G04 #@! TF.GenerationSoftware,KiCad,Pcbnew,(5.0.2)-1*
G04 #@! TF.CreationDate,2020-02-26T19:00:20+05:30*
G04 #@! TF.ProjectId,mosfet driver,6d6f7366-6574-4206-9472-697665722e6b,rev?*
G04 #@! TF.SameCoordinates,Original*
G04 #@! TF.FileFunction,Legend,Bot*
G04 #@! TF.FilePolarity,Positive*
%FSLAX46Y46*%
G04 Gerber Fmt 4.6, Leading zero omitted, Abs format (unit mm)*
G04 Created by KiCad (PCBNEW (5.0.2)-1) date 02/26/20 19:00:20*
%MOMM*%
%LPD*%
G01*
G04 APERTURE LIST*
%ADD10C,0.300000*%
%ADD11C,0.250000*%
G04 APERTURE END LIST*
D10*
X88061142Y-125162571D02*
X87561142Y-126662571D01*
X87061142Y-125162571D01*
X86561142Y-126662571D02*
X86561142Y-125162571D01*
X85846857Y-126662571D02*
X85846857Y-125162571D01*
X85346857Y-125162571D02*
X84489714Y-125162571D01*
X84918285Y-126662571D02*
X84918285Y-125162571D01*
X81989714Y-126662571D02*
X82489714Y-125948285D01*
X82846857Y-126662571D02*
X82846857Y-125162571D01*
X82275428Y-125162571D01*
X82132571Y-125234000D01*
X82061142Y-125305428D01*
X81989714Y-125448285D01*
X81989714Y-125662571D01*
X82061142Y-125805428D01*
X82132571Y-125876857D01*
X82275428Y-125948285D01*
X82846857Y-125948285D01*
X81132571Y-126662571D02*
X81275428Y-126591142D01*
X81346857Y-126519714D01*
X81418285Y-126376857D01*
X81418285Y-125948285D01*
X81346857Y-125805428D01*
X81275428Y-125734000D01*
X81132571Y-125662571D01*
X80918285Y-125662571D01*
X80775428Y-125734000D01*
X80704000Y-125805428D01*
X80632571Y-125948285D01*
X80632571Y-126376857D01*
X80704000Y-126519714D01*
X80775428Y-126591142D01*
X80918285Y-126662571D01*
X81132571Y-126662571D01*
X79989714Y-126662571D02*
X79989714Y-125162571D01*
X79989714Y-125734000D02*
X79846857Y-125662571D01*
X79561142Y-125662571D01*
X79418285Y-125734000D01*
X79346857Y-125805428D01*
X79275428Y-125948285D01*
X79275428Y-126376857D01*
X79346857Y-126519714D01*
X79418285Y-126591142D01*
X79561142Y-126662571D01*
X79846857Y-126662571D01*
X79989714Y-126591142D01*
X78418285Y-126662571D02*
X78561142Y-126591142D01*
X78632571Y-126519714D01*
X78704000Y-126376857D01*
X78704000Y-125948285D01*
X78632571Y-125805428D01*
X78561142Y-125734000D01*
X78418285Y-125662571D01*
X78204000Y-125662571D01*
X78061142Y-125734000D01*
X77989714Y-125805428D01*
X77918285Y-125948285D01*
X77918285Y-126376857D01*
X77989714Y-126519714D01*
X78061142Y-126591142D01*
X78204000Y-126662571D01*
X78418285Y-126662571D01*
X77489714Y-125662571D02*
X76918285Y-125662571D01*
X77275428Y-125162571D02*
X77275428Y-126448285D01*
X77204000Y-126591142D01*
X77061142Y-126662571D01*
X76918285Y-126662571D01*
X76418285Y-126662571D02*
X76418285Y-125662571D01*
X76418285Y-125162571D02*
X76489714Y-125234000D01*
X76418285Y-125305428D01*
X76346857Y-125234000D01*
X76418285Y-125162571D01*
X76418285Y-125305428D01*
X75061142Y-126591142D02*
X75204000Y-126662571D01*
X75489714Y-126662571D01*
X75632571Y-126591142D01*
X75704000Y-126519714D01*
X75775428Y-126376857D01*
X75775428Y-125948285D01*
X75704000Y-125805428D01*
X75632571Y-125734000D01*
X75489714Y-125662571D01*
X75204000Y-125662571D01*
X75061142Y-125734000D01*
X74489714Y-126591142D02*
X74346857Y-126662571D01*
X74061142Y-126662571D01*
X73918285Y-126591142D01*
X73846857Y-126448285D01*
X73846857Y-126376857D01*
X73918285Y-126234000D01*
X74061142Y-126162571D01*
X74275428Y-126162571D01*
X74418285Y-126091142D01*
X74489714Y-125948285D01*
X74489714Y-125876857D01*
X74418285Y-125734000D01*
X74275428Y-125662571D01*
X74061142Y-125662571D01*
X73918285Y-125734000D01*
X71632571Y-127234000D02*
X71704000Y-127162571D01*
X71846857Y-126948285D01*
X71918285Y-126805428D01*
X71989714Y-126591142D01*
X72061142Y-126234000D01*
X72061142Y-125948285D01*
X71989714Y-125591142D01*
X71918285Y-125376857D01*
X71846857Y-125234000D01*
X71704000Y-125019714D01*
X71632571Y-124948285D01*
X71132571Y-125305428D02*
X71061142Y-125234000D01*
X70918285Y-125162571D01*
X70561142Y-125162571D01*
X70418285Y-125234000D01*
X70346857Y-125305428D01*
X70275428Y-125448285D01*
X70275428Y-125591142D01*
X70346857Y-125805428D01*
X71204000Y-126662571D01*
X70275428Y-126662571D01*
X69346857Y-125162571D02*
X69204000Y-125162571D01*
X69061142Y-125234000D01*
X68989714Y-125305428D01*
X68918285Y-125448285D01*
X68846857Y-125734000D01*
X68846857Y-126091142D01*
X68918285Y-126376857D01*
X68989714Y-126519714D01*
X69061142Y-126591142D01*
X69204000Y-126662571D01*
X69346857Y-126662571D01*
X69489714Y-126591142D01*
X69561142Y-126519714D01*
X69632571Y-126376857D01*
X69704000Y-126091142D01*
X69704000Y-125734000D01*
X69632571Y-125448285D01*
X69561142Y-125305428D01*
X69489714Y-125234000D01*
X69346857Y-125162571D01*
X68275428Y-125305428D02*
X68204000Y-125234000D01*
X68061142Y-125162571D01*
X67704000Y-125162571D01*
X67561142Y-125234000D01*
X67489714Y-125305428D01*
X67418285Y-125448285D01*
X67418285Y-125591142D01*
X67489714Y-125805428D01*
X68346857Y-126662571D01*
X67418285Y-126662571D01*
X66489714Y-125162571D02*
X66346857Y-125162571D01*
X66204000Y-125234000D01*
X66132571Y-125305428D01*
X66061142Y-125448285D01*
X65989714Y-125734000D01*
X65989714Y-126091142D01*
X66061142Y-126376857D01*
X66132571Y-126519714D01*
X66204000Y-126591142D01*
X66346857Y-126662571D01*
X66489714Y-126662571D01*
X66632571Y-126591142D01*
X66704000Y-126519714D01*
X66775428Y-126376857D01*
X66846857Y-126091142D01*
X66846857Y-125734000D01*
X66775428Y-125448285D01*
X66704000Y-125305428D01*
X66632571Y-125234000D01*
X66489714Y-125162571D01*
X65489714Y-127234000D02*
X65418285Y-127162571D01*
X65275428Y-126948285D01*
X65204000Y-126805428D01*
X65132571Y-126591142D01*
X65061142Y-126234000D01*
X65061142Y-125948285D01*
X65132571Y-125591142D01*
X65204000Y-125376857D01*
X65275428Y-125234000D01*
X65418285Y-125019714D01*
X65489714Y-124948285D01*
D11*
X98739142Y-180510571D02*
X98739142Y-179010571D01*
X98739142Y-179724857D02*
X97967714Y-179724857D01*
X97967714Y-180510571D02*
X97967714Y-179010571D01*
X97324857Y-179939142D02*
X96296285Y-179939142D01*
X95203428Y-179724857D02*
X95010571Y-179796285D01*
X94946285Y-179867714D01*
X94882000Y-180010571D01*
X94882000Y-180224857D01*
X94946285Y-180367714D01*
X95010571Y-180439142D01*
X95139142Y-180510571D01*
X95653428Y-180510571D01*
X95653428Y-179010571D01*
X95203428Y-179010571D01*
X95074857Y-179082000D01*
X95010571Y-179153428D01*
X94946285Y-179296285D01*
X94946285Y-179439142D01*
X95010571Y-179582000D01*
X95074857Y-179653428D01*
X95203428Y-179724857D01*
X95653428Y-179724857D01*
X94303428Y-180510571D02*
X94303428Y-179510571D01*
X94303428Y-179796285D02*
X94239142Y-179653428D01*
X94174857Y-179582000D01*
X94046285Y-179510571D01*
X93917714Y-179510571D01*
X93467714Y-180510571D02*
X93467714Y-179510571D01*
X93467714Y-179010571D02*
X93532000Y-179082000D01*
X93467714Y-179153428D01*
X93403428Y-179082000D01*
X93467714Y-179010571D01*
X93467714Y-179153428D01*
X92246285Y-180510571D02*
X92246285Y-179010571D01*
X92246285Y-180439142D02*
X92374857Y-180510571D01*
X92632000Y-180510571D01*
X92760571Y-180439142D01*
X92824857Y-180367714D01*
X92889142Y-180224857D01*
X92889142Y-179796285D01*
X92824857Y-179653428D01*
X92760571Y-179582000D01*
X92632000Y-179510571D01*
X92374857Y-179510571D01*
X92246285Y-179582000D01*
X91024857Y-179510571D02*
X91024857Y-180724857D01*
X91089142Y-180867714D01*
X91153428Y-180939142D01*
X91282000Y-181010571D01*
X91474857Y-181010571D01*
X91603428Y-180939142D01*
X91024857Y-180439142D02*
X91153428Y-180510571D01*
X91410571Y-180510571D01*
X91539142Y-180439142D01*
X91603428Y-180367714D01*
X91667714Y-180224857D01*
X91667714Y-179796285D01*
X91603428Y-179653428D01*
X91539142Y-179582000D01*
X91410571Y-179510571D01*
X91153428Y-179510571D01*
X91024857Y-179582000D01*
X89867714Y-180439142D02*
X89996285Y-180510571D01*
X90253428Y-180510571D01*
X90382000Y-180439142D01*
X90446285Y-180296285D01*
X90446285Y-179724857D01*
X90382000Y-179582000D01*
X90253428Y-179510571D01*
X89996285Y-179510571D01*
X89867714Y-179582000D01*
X89803428Y-179724857D01*
X89803428Y-179867714D01*
X90446285Y-180010571D01*
X88196285Y-180510571D02*
X88196285Y-179010571D01*
X87746285Y-180082000D01*
X87296285Y-179010571D01*
X87296285Y-180510571D01*
X86396285Y-179010571D02*
X86139142Y-179010571D01*
X86010571Y-179082000D01*
X85882000Y-179224857D01*
X85817714Y-179510571D01*
X85817714Y-180010571D01*
X85882000Y-180296285D01*
X86010571Y-180439142D01*
X86139142Y-180510571D01*
X86396285Y-180510571D01*
X86524857Y-180439142D01*
X86653428Y-180296285D01*
X86717714Y-180010571D01*
X86717714Y-179510571D01*
X86653428Y-179224857D01*
X86524857Y-179082000D01*
X86396285Y-179010571D01*
X85303428Y-180439142D02*
X85110571Y-180510571D01*
X84789142Y-180510571D01*
X84660571Y-180439142D01*
X84596285Y-180367714D01*
X84532000Y-180224857D01*
X84532000Y-180082000D01*
X84596285Y-179939142D01*
X84660571Y-179867714D01*
X84789142Y-179796285D01*
X85046285Y-179724857D01*
X85174857Y-179653428D01*
X85239142Y-179582000D01*
X85303428Y-179439142D01*
X85303428Y-179296285D01*
X85239142Y-179153428D01*
X85174857Y-179082000D01*
X85046285Y-179010571D01*
X84724857Y-179010571D01*
X84532000Y-179082000D01*
X83503428Y-179724857D02*
X83953428Y-179724857D01*
X83953428Y-180510571D02*
X83953428Y-179010571D01*
X83310571Y-179010571D01*
X82796285Y-179724857D02*
X82346285Y-179724857D01*
X82153428Y-180510571D02*
X82796285Y-180510571D01*
X82796285Y-179010571D01*
X82153428Y-179010571D01*
X81767714Y-179010571D02*
X80996285Y-179010571D01*
X81382000Y-180510571D02*
X81382000Y-179010571D01*
X79517714Y-180510571D02*
X79517714Y-179010571D01*
X79196285Y-179010571D01*
X79003428Y-179082000D01*
X78874857Y-179224857D01*
X78810571Y-179367714D01*
X78746285Y-179653428D01*
X78746285Y-179867714D01*
X78810571Y-180153428D01*
X78874857Y-180296285D01*
X79003428Y-180439142D01*
X79196285Y-180510571D01*
X79517714Y-180510571D01*
X78167714Y-180510571D02*
X78167714Y-179510571D01*
X78167714Y-179796285D02*
X78103428Y-179653428D01*
X78039142Y-179582000D01*
X77910571Y-179510571D01*
X77782000Y-179510571D01*
X77332000Y-180510571D02*
X77332000Y-179510571D01*
X77332000Y-179010571D02*
X77396285Y-179082000D01*
X77332000Y-179153428D01*
X77267714Y-179082000D01*
X77332000Y-179010571D01*
X77332000Y-179153428D01*
X76817714Y-179510571D02*
X76496285Y-180510571D01*
X76174857Y-179510571D01*
X75146285Y-180439142D02*
X75274857Y-180510571D01*
X75532000Y-180510571D01*
X75660571Y-180439142D01*
X75724857Y-180296285D01*
X75724857Y-179724857D01*
X75660571Y-179582000D01*
X75532000Y-179510571D01*
X75274857Y-179510571D01*
X75146285Y-179582000D01*
X75082000Y-179724857D01*
X75082000Y-179867714D01*
X75724857Y-180010571D01*
X74503428Y-180510571D02*
X74503428Y-179510571D01*
X74503428Y-179796285D02*
X74439142Y-179653428D01*
X74374857Y-179582000D01*
X74246285Y-179510571D01*
X74117714Y-179510571D01*
X72253428Y-181082000D02*
X72317714Y-181010571D01*
X72446285Y-180796285D01*
X72510571Y-180653428D01*
X72574857Y-180439142D01*
X72639142Y-180082000D01*
X72639142Y-179796285D01*
X72574857Y-179439142D01*
X72510571Y-179224857D01*
X72446285Y-179082000D01*
X72317714Y-178867714D01*
X72253428Y-178796285D01*
X71739142Y-179010571D02*
X71739142Y-180224857D01*
X71674857Y-180367714D01*
X71610571Y-180439142D01*
X71482000Y-180510571D01*
X71224857Y-180510571D01*
X71096285Y-180439142D01*
X71032000Y-180367714D01*
X70967714Y-180224857D01*
X70967714Y-179010571D01*
X70389142Y-180439142D02*
X70260571Y-180510571D01*
X70003428Y-180510571D01*
X69874857Y-180439142D01*
X69810571Y-180296285D01*
X69810571Y-180224857D01*
X69874857Y-180082000D01*
X70003428Y-180010571D01*
X70196285Y-180010571D01*
X70324857Y-179939142D01*
X70389142Y-179796285D01*
X70389142Y-179724857D01*
X70324857Y-179582000D01*
X70196285Y-179510571D01*
X70003428Y-179510571D01*
X69874857Y-179582000D01*
X69232000Y-180510571D02*
X69232000Y-179510571D01*
X69232000Y-179010571D02*
X69296285Y-179082000D01*
X69232000Y-179153428D01*
X69167714Y-179082000D01*
X69232000Y-179010571D01*
X69232000Y-179153428D01*
X68589142Y-179510571D02*
X68589142Y-180510571D01*
X68589142Y-179653428D02*
X68524857Y-179582000D01*
X68396285Y-179510571D01*
X68203428Y-179510571D01*
X68074857Y-179582000D01*
X68010571Y-179724857D01*
X68010571Y-180510571D01*
X66789142Y-179510571D02*
X66789142Y-180724857D01*
X66853428Y-180867714D01*
X66917714Y-180939142D01*
X67046285Y-181010571D01*
X67239142Y-181010571D01*
X67367714Y-180939142D01*
X66789142Y-180439142D02*
X66917714Y-180510571D01*
X67174857Y-180510571D01*
X67303428Y-180439142D01*
X67367714Y-180367714D01*
X67432000Y-180224857D01*
X67432000Y-179796285D01*
X67367714Y-179653428D01*
X67303428Y-179582000D01*
X67174857Y-179510571D01*
X66917714Y-179510571D01*
X66789142Y-179582000D01*
X65117714Y-180510571D02*
X65117714Y-179010571D01*
X63703428Y-180510571D02*
X64153428Y-179796285D01*
X64474857Y-180510571D02*
X64474857Y-179010571D01*
X63960571Y-179010571D01*
X63831999Y-179082000D01*
X63767714Y-179153428D01*
X63703428Y-179296285D01*
X63703428Y-179510571D01*
X63767714Y-179653428D01*
X63831999Y-179724857D01*
X63960571Y-179796285D01*
X64474857Y-179796285D01*
X63189142Y-179153428D02*
X63124857Y-179082000D01*
X62996285Y-179010571D01*
X62674857Y-179010571D01*
X62546285Y-179082000D01*
X62481999Y-179153428D01*
X62417714Y-179296285D01*
X62417714Y-179439142D01*
X62481999Y-179653428D01*
X63253428Y-180510571D01*
X62417714Y-180510571D01*
X61131999Y-180510571D02*
X61903428Y-180510571D01*
X61517714Y-180510571D02*
X61517714Y-179010571D01*
X61646285Y-179224857D01*
X61774857Y-179367714D01*
X61903428Y-179439142D01*
X60296285Y-179010571D02*
X60167714Y-179010571D01*
X60039142Y-179082000D01*
X59974857Y-179153428D01*
X59910571Y-179296285D01*
X59846285Y-179582000D01*
X59846285Y-179939142D01*
X59910571Y-180224857D01*
X59974857Y-180367714D01*
X60039142Y-180439142D01*
X60167714Y-180510571D01*
X60296285Y-180510571D01*
X60424857Y-180439142D01*
X60489142Y-180367714D01*
X60553428Y-180224857D01*
X60617714Y-179939142D01*
X60617714Y-179582000D01*
X60553428Y-179296285D01*
X60489142Y-179153428D01*
X60424857Y-179082000D01*
X60296285Y-179010571D01*
X58689142Y-179510571D02*
X58689142Y-180510571D01*
X59010571Y-178939142D02*
X59331999Y-180010571D01*
X58496285Y-180010571D01*
X58110571Y-181082000D02*
X58046285Y-181010571D01*
X57917714Y-180796285D01*
X57853428Y-180653428D01*
X57789142Y-180439142D01*
X57724857Y-180082000D01*
X57724857Y-179796285D01*
X57789142Y-179439142D01*
X57853428Y-179224857D01*
X57917714Y-179082000D01*
X58046285Y-178867714D01*
X58110571Y-178796285D01*
M02*
