G04 #@! TF.GenerationSoftware,KiCad,Pcbnew,(5.0.2)-1*
G04 #@! TF.CreationDate,2020-02-26T19:00:20+05:30*
G04 #@! TF.ProjectId,mosfet driver,6d6f7366-6574-4206-9472-697665722e6b,rev?*
G04 #@! TF.SameCoordinates,Original*
G04 #@! TF.FileFunction,Soldermask,Bot*
G04 #@! TF.FilePolarity,Negative*
%FSLAX46Y46*%
G04 Gerber Fmt 4.6, Leading zero omitted, Abs format (unit mm)*
G04 Created by KiCad (PCBNEW (5.0.2)-1) date 02/26/20 19:00:20*
%MOMM*%
%LPD*%
G01*
G04 APERTURE LIST*
%ADD10C,0.100000*%
G04 APERTURE END LIST*
D10*
G36*
X48177405Y-175865974D02*
X48759767Y-176107196D01*
X49283884Y-176457400D01*
X49729600Y-176903116D01*
X50079804Y-177427233D01*
X50321026Y-178009595D01*
X50444000Y-178627826D01*
X50444000Y-179258174D01*
X50321026Y-179876405D01*
X50079804Y-180458767D01*
X49729600Y-180982884D01*
X49283884Y-181428600D01*
X48759767Y-181778804D01*
X48177405Y-182020026D01*
X47559174Y-182143000D01*
X46928826Y-182143000D01*
X46310595Y-182020026D01*
X45728233Y-181778804D01*
X45204116Y-181428600D01*
X44758400Y-180982884D01*
X44408196Y-180458767D01*
X44166974Y-179876405D01*
X44044000Y-179258174D01*
X44044000Y-178627826D01*
X44166974Y-178009595D01*
X44408196Y-177427233D01*
X44758400Y-176903116D01*
X45204116Y-176457400D01*
X45728233Y-176107196D01*
X46310595Y-175865974D01*
X46928826Y-175743000D01*
X47559174Y-175743000D01*
X48177405Y-175865974D01*
X48177405Y-175865974D01*
G37*
G36*
X105200405Y-175738974D02*
X105782767Y-175980196D01*
X106306884Y-176330400D01*
X106752600Y-176776116D01*
X107102804Y-177300233D01*
X107344026Y-177882595D01*
X107467000Y-178500826D01*
X107467000Y-179131174D01*
X107344026Y-179749405D01*
X107102804Y-180331767D01*
X106752600Y-180855884D01*
X106306884Y-181301600D01*
X105782767Y-181651804D01*
X105200405Y-181893026D01*
X104582174Y-182016000D01*
X103951826Y-182016000D01*
X103333595Y-181893026D01*
X102751233Y-181651804D01*
X102227116Y-181301600D01*
X101781400Y-180855884D01*
X101431196Y-180331767D01*
X101189974Y-179749405D01*
X101067000Y-179131174D01*
X101067000Y-178500826D01*
X101189974Y-177882595D01*
X101431196Y-177300233D01*
X101781400Y-176776116D01*
X102227116Y-176330400D01*
X102751233Y-175980196D01*
X103333595Y-175738974D01*
X103951826Y-175616000D01*
X104582174Y-175616000D01*
X105200405Y-175738974D01*
X105200405Y-175738974D01*
G37*
G36*
X56293734Y-173994862D02*
X56431029Y-174036510D01*
X56591566Y-174085208D01*
X56661390Y-174122530D01*
X56866048Y-174231922D01*
X57106634Y-174429366D01*
X57304078Y-174669952D01*
X57411581Y-174871077D01*
X57450792Y-174944434D01*
X57450792Y-174944435D01*
X57541138Y-175242266D01*
X57564000Y-175474390D01*
X57564000Y-176569611D01*
X57541138Y-176801734D01*
X57539163Y-176808244D01*
X57450792Y-177099566D01*
X57419376Y-177158341D01*
X57304078Y-177374048D01*
X57253715Y-177435415D01*
X57106637Y-177614631D01*
X57106635Y-177614632D01*
X57106634Y-177614634D01*
X56866047Y-177812078D01*
X56683058Y-177909887D01*
X56591565Y-177958792D01*
X56512964Y-177982635D01*
X56293733Y-178049138D01*
X55984000Y-178079644D01*
X55674266Y-178049138D01*
X55455035Y-177982635D01*
X55376434Y-177958792D01*
X55299918Y-177917893D01*
X55101952Y-177812078D01*
X54880786Y-177630572D01*
X54861369Y-177614637D01*
X54861368Y-177614635D01*
X54861366Y-177614634D01*
X54663922Y-177374047D01*
X54517209Y-177099566D01*
X54517208Y-177099565D01*
X54467362Y-176935244D01*
X54426862Y-176801733D01*
X54404000Y-176569610D01*
X54404000Y-175474389D01*
X54426862Y-175242266D01*
X54517208Y-174944435D01*
X54517208Y-174944434D01*
X54663923Y-174669951D01*
X54861367Y-174429366D01*
X55101953Y-174231922D01*
X55306611Y-174122530D01*
X55376435Y-174085208D01*
X55536972Y-174036510D01*
X55674267Y-173994862D01*
X55984000Y-173964356D01*
X56293734Y-173994862D01*
X56293734Y-173994862D01*
G37*
G36*
X61407662Y-173975367D02*
X61434635Y-173983549D01*
X61459490Y-173996835D01*
X61481281Y-174014719D01*
X61499165Y-174036510D01*
X61512451Y-174061365D01*
X61520633Y-174088338D01*
X61524000Y-174122530D01*
X61524000Y-177921470D01*
X61520633Y-177955662D01*
X61512451Y-177982635D01*
X61499165Y-178007490D01*
X61481281Y-178029281D01*
X61459490Y-178047165D01*
X61434635Y-178060451D01*
X61407662Y-178068633D01*
X61373470Y-178072000D01*
X58514530Y-178072000D01*
X58480338Y-178068633D01*
X58453365Y-178060451D01*
X58428510Y-178047165D01*
X58406719Y-178029281D01*
X58388835Y-178007490D01*
X58375549Y-177982635D01*
X58367367Y-177955662D01*
X58364000Y-177921470D01*
X58364000Y-174122530D01*
X58367367Y-174088338D01*
X58375549Y-174061365D01*
X58388835Y-174036510D01*
X58406719Y-174014719D01*
X58428510Y-173996835D01*
X58453365Y-173983549D01*
X58480338Y-173975367D01*
X58514530Y-173972000D01*
X61373470Y-173972000D01*
X61407662Y-173975367D01*
X61407662Y-173975367D01*
G37*
G36*
X67219578Y-171405659D02*
X67583554Y-171556422D01*
X67911129Y-171775301D01*
X68189699Y-172053871D01*
X68408578Y-172381446D01*
X68559341Y-172745422D01*
X68636200Y-173131816D01*
X68636200Y-173525784D01*
X68559341Y-173912178D01*
X68408578Y-174276154D01*
X68189699Y-174603729D01*
X67911129Y-174882299D01*
X67583554Y-175101178D01*
X67219578Y-175251941D01*
X66833184Y-175328800D01*
X66439216Y-175328800D01*
X66052822Y-175251941D01*
X65688846Y-175101178D01*
X65361271Y-174882299D01*
X65082701Y-174603729D01*
X64863822Y-174276154D01*
X64713059Y-173912178D01*
X64636200Y-173525784D01*
X64636200Y-173131816D01*
X64713059Y-172745422D01*
X64863822Y-172381446D01*
X65082701Y-172053871D01*
X65361271Y-171775301D01*
X65688846Y-171556422D01*
X66052822Y-171405659D01*
X66439216Y-171328800D01*
X66833184Y-171328800D01*
X67219578Y-171405659D01*
X67219578Y-171405659D01*
G37*
G36*
X95596378Y-171405659D02*
X95960354Y-171556422D01*
X96287929Y-171775301D01*
X96566499Y-172053871D01*
X96785378Y-172381446D01*
X96936141Y-172745422D01*
X97013000Y-173131816D01*
X97013000Y-173525784D01*
X96936141Y-173912178D01*
X96785378Y-174276154D01*
X96566499Y-174603729D01*
X96287929Y-174882299D01*
X95960354Y-175101178D01*
X95596378Y-175251941D01*
X95209984Y-175328800D01*
X94816016Y-175328800D01*
X94429622Y-175251941D01*
X94065646Y-175101178D01*
X93738071Y-174882299D01*
X93459501Y-174603729D01*
X93240622Y-174276154D01*
X93089859Y-173912178D01*
X93013000Y-173525784D01*
X93013000Y-173131816D01*
X93089859Y-172745422D01*
X93240622Y-172381446D01*
X93459501Y-172053871D01*
X93738071Y-171775301D01*
X94065646Y-171556422D01*
X94429622Y-171405659D01*
X94816016Y-171328800D01*
X95209984Y-171328800D01*
X95596378Y-171405659D01*
X95596378Y-171405659D01*
G37*
G36*
X85639578Y-171405659D02*
X86003554Y-171556422D01*
X86331129Y-171775301D01*
X86609699Y-172053871D01*
X86828578Y-172381446D01*
X86979341Y-172745422D01*
X87056200Y-173131816D01*
X87056200Y-173525784D01*
X86979341Y-173912178D01*
X86828578Y-174276154D01*
X86609699Y-174603729D01*
X86331129Y-174882299D01*
X86003554Y-175101178D01*
X85639578Y-175251941D01*
X85253184Y-175328800D01*
X84859216Y-175328800D01*
X84472822Y-175251941D01*
X84108846Y-175101178D01*
X83781271Y-174882299D01*
X83502701Y-174603729D01*
X83283822Y-174276154D01*
X83133059Y-173912178D01*
X83056200Y-173525784D01*
X83056200Y-173131816D01*
X83133059Y-172745422D01*
X83283822Y-172381446D01*
X83502701Y-172053871D01*
X83781271Y-171775301D01*
X84108846Y-171556422D01*
X84472822Y-171405659D01*
X84859216Y-171328800D01*
X85253184Y-171328800D01*
X85639578Y-171405659D01*
X85639578Y-171405659D01*
G37*
G36*
X77176378Y-171405659D02*
X77540354Y-171556422D01*
X77867929Y-171775301D01*
X78146499Y-172053871D01*
X78365378Y-172381446D01*
X78516141Y-172745422D01*
X78593000Y-173131816D01*
X78593000Y-173525784D01*
X78516141Y-173912178D01*
X78365378Y-174276154D01*
X78146499Y-174603729D01*
X77867929Y-174882299D01*
X77540354Y-175101178D01*
X77176378Y-175251941D01*
X76789984Y-175328800D01*
X76396016Y-175328800D01*
X76009622Y-175251941D01*
X75645646Y-175101178D01*
X75318071Y-174882299D01*
X75039501Y-174603729D01*
X74820622Y-174276154D01*
X74669859Y-173912178D01*
X74593000Y-173525784D01*
X74593000Y-173131816D01*
X74669859Y-172745422D01*
X74820622Y-172381446D01*
X75039501Y-172053871D01*
X75318071Y-171775301D01*
X75645646Y-171556422D01*
X76009622Y-171405659D01*
X76396016Y-171328800D01*
X76789984Y-171328800D01*
X77176378Y-171405659D01*
X77176378Y-171405659D01*
G37*
G36*
X106338630Y-172136299D02*
X106498855Y-172184903D01*
X106646520Y-172263831D01*
X106775949Y-172370051D01*
X106882169Y-172499480D01*
X106961097Y-172647145D01*
X107009701Y-172807370D01*
X107026112Y-172974000D01*
X107009701Y-173140630D01*
X106961097Y-173300855D01*
X106882169Y-173448520D01*
X106775949Y-173577949D01*
X106646520Y-173684169D01*
X106498855Y-173763097D01*
X106338630Y-173811701D01*
X106213752Y-173824000D01*
X106130248Y-173824000D01*
X106005370Y-173811701D01*
X105845145Y-173763097D01*
X105697480Y-173684169D01*
X105568051Y-173577949D01*
X105461831Y-173448520D01*
X105382903Y-173300855D01*
X105334299Y-173140630D01*
X105317888Y-172974000D01*
X105334299Y-172807370D01*
X105382903Y-172647145D01*
X105461831Y-172499480D01*
X105568051Y-172370051D01*
X105697480Y-172263831D01*
X105845145Y-172184903D01*
X106005370Y-172136299D01*
X106130248Y-172124000D01*
X106213752Y-172124000D01*
X106338630Y-172136299D01*
X106338630Y-172136299D01*
G37*
G36*
X102782630Y-172136299D02*
X102942855Y-172184903D01*
X103090520Y-172263831D01*
X103219949Y-172370051D01*
X103326169Y-172499480D01*
X103405097Y-172647145D01*
X103453701Y-172807370D01*
X103470112Y-172974000D01*
X103453701Y-173140630D01*
X103405097Y-173300855D01*
X103326169Y-173448520D01*
X103219949Y-173577949D01*
X103090520Y-173684169D01*
X102942855Y-173763097D01*
X102782630Y-173811701D01*
X102657752Y-173824000D01*
X102574248Y-173824000D01*
X102449370Y-173811701D01*
X102289145Y-173763097D01*
X102141480Y-173684169D01*
X102012051Y-173577949D01*
X101905831Y-173448520D01*
X101826903Y-173300855D01*
X101778299Y-173140630D01*
X101761888Y-172974000D01*
X101778299Y-172807370D01*
X101826903Y-172647145D01*
X101905831Y-172499480D01*
X102012051Y-172370051D01*
X102141480Y-172263831D01*
X102289145Y-172184903D01*
X102449370Y-172136299D01*
X102574248Y-172124000D01*
X102657752Y-172124000D01*
X102782630Y-172136299D01*
X102782630Y-172136299D01*
G37*
G36*
X47575183Y-171983400D02*
X47702574Y-172036168D01*
X47817224Y-172112774D01*
X47914726Y-172210276D01*
X47991332Y-172324926D01*
X48044100Y-172452317D01*
X48071000Y-172587555D01*
X48071000Y-172725445D01*
X48044100Y-172860683D01*
X47991332Y-172988074D01*
X47914725Y-173102725D01*
X47817225Y-173200225D01*
X47702574Y-173276832D01*
X47575183Y-173329600D01*
X47439945Y-173356500D01*
X47302055Y-173356500D01*
X47166817Y-173329600D01*
X47039426Y-173276832D01*
X46924775Y-173200225D01*
X46827275Y-173102725D01*
X46750668Y-172988074D01*
X46697900Y-172860683D01*
X46671000Y-172725445D01*
X46671000Y-172587555D01*
X46697900Y-172452317D01*
X46750668Y-172324926D01*
X46827274Y-172210276D01*
X46924776Y-172112774D01*
X47039426Y-172036168D01*
X47166817Y-171983400D01*
X47302055Y-171956500D01*
X47439945Y-171956500D01*
X47575183Y-171983400D01*
X47575183Y-171983400D01*
G37*
G36*
X107022000Y-171284000D02*
X105322000Y-171284000D01*
X105322000Y-169584000D01*
X107022000Y-169584000D01*
X107022000Y-171284000D01*
X107022000Y-171284000D01*
G37*
G36*
X103466000Y-171284000D02*
X101766000Y-171284000D01*
X101766000Y-169584000D01*
X103466000Y-169584000D01*
X103466000Y-171284000D01*
X103466000Y-171284000D01*
G37*
G36*
X97038224Y-168220128D02*
X97170175Y-168260155D01*
X97291781Y-168325155D01*
X97398370Y-168412630D01*
X97485845Y-168519219D01*
X97550845Y-168640825D01*
X97590872Y-168772776D01*
X97604387Y-168910000D01*
X97590872Y-169047224D01*
X97550845Y-169179175D01*
X97485845Y-169300781D01*
X97398370Y-169407370D01*
X97291781Y-169494845D01*
X97170175Y-169559845D01*
X97038224Y-169599872D01*
X96935390Y-169610000D01*
X96866610Y-169610000D01*
X96763776Y-169599872D01*
X96631825Y-169559845D01*
X96510219Y-169494845D01*
X96403630Y-169407370D01*
X96316155Y-169300781D01*
X96251155Y-169179175D01*
X96211128Y-169047224D01*
X96197613Y-168910000D01*
X96211128Y-168772776D01*
X96251155Y-168640825D01*
X96316155Y-168519219D01*
X96403630Y-168412630D01*
X96510219Y-168325155D01*
X96631825Y-168260155D01*
X96763776Y-168220128D01*
X96866610Y-168210000D01*
X96935390Y-168210000D01*
X97038224Y-168220128D01*
X97038224Y-168220128D01*
G37*
G36*
X47508224Y-166886628D02*
X47640175Y-166926655D01*
X47761781Y-166991655D01*
X47868370Y-167079130D01*
X47955845Y-167185719D01*
X48020845Y-167307325D01*
X48060872Y-167439276D01*
X48074387Y-167576500D01*
X48060872Y-167713724D01*
X48020845Y-167845675D01*
X47955845Y-167967281D01*
X47868370Y-168073870D01*
X47761781Y-168161345D01*
X47640175Y-168226345D01*
X47508224Y-168266372D01*
X47405390Y-168276500D01*
X47336610Y-168276500D01*
X47233776Y-168266372D01*
X47101825Y-168226345D01*
X46980219Y-168161345D01*
X46873630Y-168073870D01*
X46786155Y-167967281D01*
X46721155Y-167845675D01*
X46681128Y-167713724D01*
X46667613Y-167576500D01*
X46681128Y-167439276D01*
X46721155Y-167307325D01*
X46786155Y-167185719D01*
X46873630Y-167079130D01*
X46980219Y-166991655D01*
X47101825Y-166926655D01*
X47233776Y-166886628D01*
X47336610Y-166876500D01*
X47405390Y-166876500D01*
X47508224Y-166886628D01*
X47508224Y-166886628D01*
G37*
G36*
X83449224Y-166696128D02*
X83581175Y-166736155D01*
X83702781Y-166801155D01*
X83809370Y-166888630D01*
X83896845Y-166995219D01*
X83961845Y-167116825D01*
X84001872Y-167248776D01*
X84015387Y-167386000D01*
X84001872Y-167523224D01*
X83961845Y-167655175D01*
X83896845Y-167776781D01*
X83809370Y-167883370D01*
X83702781Y-167970845D01*
X83581175Y-168035845D01*
X83449224Y-168075872D01*
X83346390Y-168086000D01*
X83277610Y-168086000D01*
X83174776Y-168075872D01*
X83042825Y-168035845D01*
X82921219Y-167970845D01*
X82814630Y-167883370D01*
X82727155Y-167776781D01*
X82662155Y-167655175D01*
X82622128Y-167523224D01*
X82608613Y-167386000D01*
X82622128Y-167248776D01*
X82662155Y-167116825D01*
X82727155Y-166995219D01*
X82814630Y-166888630D01*
X82921219Y-166801155D01*
X83042825Y-166736155D01*
X83174776Y-166696128D01*
X83277610Y-166686000D01*
X83346390Y-166686000D01*
X83449224Y-166696128D01*
X83449224Y-166696128D01*
G37*
G36*
X78436183Y-166712900D02*
X78563574Y-166765668D01*
X78678224Y-166842274D01*
X78775726Y-166939776D01*
X78810390Y-166991655D01*
X78852332Y-167054426D01*
X78905100Y-167181817D01*
X78932000Y-167317055D01*
X78932000Y-167454945D01*
X78905100Y-167590183D01*
X78853928Y-167713722D01*
X78852332Y-167717574D01*
X78775726Y-167832224D01*
X78678224Y-167929726D01*
X78592878Y-167986752D01*
X78563574Y-168006332D01*
X78436183Y-168059100D01*
X78300945Y-168086000D01*
X78163055Y-168086000D01*
X78027817Y-168059100D01*
X77900426Y-168006332D01*
X77871122Y-167986752D01*
X77785776Y-167929726D01*
X77688274Y-167832224D01*
X77611668Y-167717574D01*
X77610072Y-167713722D01*
X77558900Y-167590183D01*
X77532000Y-167454945D01*
X77532000Y-167317055D01*
X77558900Y-167181817D01*
X77611668Y-167054426D01*
X77653610Y-166991655D01*
X77688274Y-166939776D01*
X77785776Y-166842274D01*
X77900426Y-166765668D01*
X78027817Y-166712900D01*
X78163055Y-166686000D01*
X78300945Y-166686000D01*
X78436183Y-166712900D01*
X78436183Y-166712900D01*
G37*
G36*
X69286724Y-166068782D02*
X69466269Y-166123247D01*
X69631741Y-166211693D01*
X69776778Y-166330722D01*
X69895807Y-166475759D01*
X69984253Y-166641232D01*
X70038718Y-166820777D01*
X70052500Y-166960712D01*
X70052500Y-167149289D01*
X70038718Y-167289224D01*
X69984253Y-167468769D01*
X69895807Y-167634241D01*
X69776778Y-167779278D01*
X69631741Y-167898307D01*
X69466268Y-167986753D01*
X69286723Y-168041218D01*
X69100000Y-168059608D01*
X68913276Y-168041218D01*
X68733731Y-167986753D01*
X68568259Y-167898307D01*
X68423222Y-167779278D01*
X68304193Y-167634241D01*
X68215747Y-167468768D01*
X68161282Y-167289223D01*
X68147500Y-167149288D01*
X68147500Y-166960711D01*
X68161282Y-166820776D01*
X68215747Y-166641231D01*
X68304193Y-166475759D01*
X68423219Y-166330725D01*
X68423221Y-166330724D01*
X68423222Y-166330722D01*
X68568259Y-166211694D01*
X68568263Y-166211692D01*
X68568264Y-166211691D01*
X68733732Y-166123247D01*
X68913277Y-166068782D01*
X69100000Y-166050392D01*
X69286724Y-166068782D01*
X69286724Y-166068782D01*
G37*
G36*
X71826724Y-166068782D02*
X72006269Y-166123247D01*
X72171741Y-166211693D01*
X72316778Y-166330722D01*
X72435807Y-166475759D01*
X72524253Y-166641232D01*
X72578718Y-166820777D01*
X72592500Y-166960712D01*
X72592500Y-167149289D01*
X72578718Y-167289224D01*
X72524253Y-167468769D01*
X72435807Y-167634241D01*
X72316778Y-167779278D01*
X72171741Y-167898307D01*
X72006268Y-167986753D01*
X71826723Y-168041218D01*
X71640000Y-168059608D01*
X71453276Y-168041218D01*
X71273731Y-167986753D01*
X71108259Y-167898307D01*
X70963222Y-167779278D01*
X70844193Y-167634241D01*
X70755747Y-167468768D01*
X70701282Y-167289223D01*
X70687500Y-167149288D01*
X70687500Y-166960711D01*
X70701282Y-166820776D01*
X70755747Y-166641231D01*
X70844193Y-166475759D01*
X70963219Y-166330725D01*
X70963221Y-166330724D01*
X70963222Y-166330722D01*
X71108259Y-166211694D01*
X71108263Y-166211692D01*
X71108264Y-166211691D01*
X71273732Y-166123247D01*
X71453277Y-166068782D01*
X71640000Y-166050392D01*
X71826724Y-166068782D01*
X71826724Y-166068782D01*
G37*
G36*
X87706724Y-166068782D02*
X87886269Y-166123247D01*
X88051741Y-166211693D01*
X88196778Y-166330722D01*
X88315807Y-166475759D01*
X88404253Y-166641232D01*
X88458718Y-166820777D01*
X88472500Y-166960712D01*
X88472500Y-167149289D01*
X88458718Y-167289224D01*
X88404253Y-167468769D01*
X88315807Y-167634241D01*
X88196778Y-167779278D01*
X88051741Y-167898307D01*
X87886268Y-167986753D01*
X87706723Y-168041218D01*
X87520000Y-168059608D01*
X87333276Y-168041218D01*
X87153731Y-167986753D01*
X86988259Y-167898307D01*
X86843222Y-167779278D01*
X86724193Y-167634241D01*
X86635747Y-167468768D01*
X86581282Y-167289223D01*
X86567500Y-167149288D01*
X86567500Y-166960711D01*
X86581282Y-166820776D01*
X86635747Y-166641231D01*
X86724193Y-166475759D01*
X86843219Y-166330725D01*
X86843221Y-166330724D01*
X86843222Y-166330722D01*
X86988259Y-166211694D01*
X86988263Y-166211692D01*
X86988264Y-166211691D01*
X87153732Y-166123247D01*
X87333277Y-166068782D01*
X87520000Y-166050392D01*
X87706724Y-166068782D01*
X87706724Y-166068782D01*
G37*
G36*
X90246724Y-166068782D02*
X90426269Y-166123247D01*
X90591741Y-166211693D01*
X90736778Y-166330722D01*
X90855807Y-166475759D01*
X90944253Y-166641232D01*
X90998718Y-166820777D01*
X91012500Y-166960712D01*
X91012500Y-167149289D01*
X90998718Y-167289224D01*
X90944253Y-167468769D01*
X90855807Y-167634241D01*
X90736778Y-167779278D01*
X90591741Y-167898307D01*
X90426268Y-167986753D01*
X90246723Y-168041218D01*
X90060000Y-168059608D01*
X89873276Y-168041218D01*
X89693731Y-167986753D01*
X89528259Y-167898307D01*
X89383222Y-167779278D01*
X89264193Y-167634241D01*
X89175747Y-167468768D01*
X89121282Y-167289223D01*
X89107500Y-167149288D01*
X89107500Y-166960711D01*
X89121282Y-166820776D01*
X89175747Y-166641231D01*
X89264193Y-166475759D01*
X89383219Y-166330725D01*
X89383221Y-166330724D01*
X89383222Y-166330722D01*
X89528259Y-166211694D01*
X89528263Y-166211692D01*
X89528264Y-166211691D01*
X89693732Y-166123247D01*
X89873277Y-166068782D01*
X90060000Y-166050392D01*
X90246724Y-166068782D01*
X90246724Y-166068782D01*
G37*
G36*
X75132500Y-168055000D02*
X73227500Y-168055000D01*
X73227500Y-166055000D01*
X75132500Y-166055000D01*
X75132500Y-168055000D01*
X75132500Y-168055000D01*
G37*
G36*
X93552500Y-168055000D02*
X91647500Y-168055000D01*
X91647500Y-166055000D01*
X93552500Y-166055000D01*
X93552500Y-168055000D01*
X93552500Y-168055000D01*
G37*
G36*
X104256985Y-164439621D02*
X104411734Y-164454862D01*
X104570750Y-164503099D01*
X104709566Y-164545208D01*
X104781165Y-164583479D01*
X104984048Y-164691922D01*
X105224634Y-164889366D01*
X105422078Y-165129952D01*
X105529581Y-165331077D01*
X105568792Y-165404434D01*
X105568792Y-165404435D01*
X105659138Y-165702266D01*
X105689644Y-166012000D01*
X105659138Y-166321734D01*
X105637534Y-166392952D01*
X105568792Y-166619566D01*
X105557211Y-166641232D01*
X105422078Y-166894048D01*
X105224634Y-167134634D01*
X104984048Y-167332078D01*
X104783494Y-167439276D01*
X104709566Y-167478792D01*
X104610288Y-167508907D01*
X104411734Y-167569138D01*
X104256985Y-167584379D01*
X104179612Y-167592000D01*
X103084388Y-167592000D01*
X103007015Y-167584379D01*
X102852266Y-167569138D01*
X102653712Y-167508907D01*
X102554434Y-167478792D01*
X102480506Y-167439276D01*
X102279952Y-167332078D01*
X102039366Y-167134634D01*
X101841922Y-166894048D01*
X101706789Y-166641232D01*
X101695208Y-166619566D01*
X101626466Y-166392952D01*
X101604862Y-166321734D01*
X101574356Y-166012000D01*
X101604862Y-165702266D01*
X101695208Y-165404435D01*
X101695208Y-165404434D01*
X101734419Y-165331077D01*
X101841922Y-165129952D01*
X102039366Y-164889366D01*
X102279952Y-164691922D01*
X102482835Y-164583479D01*
X102554434Y-164545208D01*
X102693250Y-164503099D01*
X102852266Y-164454862D01*
X103007015Y-164439621D01*
X103084388Y-164432000D01*
X104179612Y-164432000D01*
X104256985Y-164439621D01*
X104256985Y-164439621D01*
G37*
G36*
X60264352Y-163314743D02*
X60409941Y-163375048D01*
X60540973Y-163462601D01*
X60652399Y-163574027D01*
X60739952Y-163705059D01*
X60800257Y-163850648D01*
X60831000Y-164005205D01*
X60831000Y-164162795D01*
X60800257Y-164317352D01*
X60739952Y-164462941D01*
X60652399Y-164593973D01*
X60575760Y-164670612D01*
X60560214Y-164689554D01*
X60548663Y-164711165D01*
X60541550Y-164734614D01*
X60539148Y-164759000D01*
X60541550Y-164783386D01*
X60548663Y-164806835D01*
X60560214Y-164828446D01*
X60575760Y-164847388D01*
X60594702Y-164862934D01*
X60616313Y-164874485D01*
X60639762Y-164881598D01*
X60664148Y-164884000D01*
X60780732Y-164884000D01*
X60935289Y-164914743D01*
X61080878Y-164975048D01*
X61211910Y-165062601D01*
X61323336Y-165174027D01*
X61410889Y-165305059D01*
X61471194Y-165450648D01*
X61501937Y-165605205D01*
X61501937Y-165762795D01*
X61471194Y-165917352D01*
X61410889Y-166062941D01*
X61323336Y-166193973D01*
X61211910Y-166305399D01*
X61080878Y-166392952D01*
X60935289Y-166453257D01*
X60780732Y-166484000D01*
X60623142Y-166484000D01*
X60468585Y-166453257D01*
X60322996Y-166392952D01*
X60191964Y-166305399D01*
X60080538Y-166193973D01*
X59992985Y-166062941D01*
X59932680Y-165917352D01*
X59901937Y-165762795D01*
X59901937Y-165605205D01*
X59932680Y-165450648D01*
X59992985Y-165305059D01*
X60080538Y-165174027D01*
X60157177Y-165097388D01*
X60172723Y-165078446D01*
X60184274Y-165056835D01*
X60191387Y-165033386D01*
X60193789Y-165009000D01*
X60191387Y-164984614D01*
X60184274Y-164961165D01*
X60172723Y-164939554D01*
X60157177Y-164920612D01*
X60138235Y-164905066D01*
X60116624Y-164893515D01*
X60093175Y-164886402D01*
X60068789Y-164884000D01*
X59952205Y-164884000D01*
X59797648Y-164853257D01*
X59652059Y-164792952D01*
X59521027Y-164705399D01*
X59409601Y-164593973D01*
X59322048Y-164462941D01*
X59261743Y-164317352D01*
X59231000Y-164162795D01*
X59231000Y-164005205D01*
X59261743Y-163850648D01*
X59322048Y-163705059D01*
X59409601Y-163574027D01*
X59521027Y-163462601D01*
X59652059Y-163375048D01*
X59797648Y-163314743D01*
X59952205Y-163284000D01*
X60109795Y-163284000D01*
X60264352Y-163314743D01*
X60264352Y-163314743D01*
G37*
G36*
X48268521Y-163980586D02*
X48432309Y-164048429D01*
X48579720Y-164146926D01*
X48705074Y-164272280D01*
X48803571Y-164419691D01*
X48871414Y-164583479D01*
X48906000Y-164757356D01*
X48906000Y-164934644D01*
X48871414Y-165108521D01*
X48803571Y-165272309D01*
X48705074Y-165419720D01*
X48579720Y-165545074D01*
X48432309Y-165643571D01*
X48268521Y-165711414D01*
X48094644Y-165746000D01*
X47917356Y-165746000D01*
X47743479Y-165711414D01*
X47579691Y-165643571D01*
X47432280Y-165545074D01*
X47306926Y-165419720D01*
X47208429Y-165272309D01*
X47140586Y-165108521D01*
X47106000Y-164934644D01*
X47106000Y-164757356D01*
X47140586Y-164583479D01*
X47208429Y-164419691D01*
X47306926Y-164272280D01*
X47432280Y-164146926D01*
X47579691Y-164048429D01*
X47743479Y-163980586D01*
X47917356Y-163946000D01*
X48094644Y-163946000D01*
X48268521Y-163980586D01*
X48268521Y-163980586D01*
G37*
G36*
X57660063Y-163159000D02*
X57662465Y-163183386D01*
X57669578Y-163206835D01*
X57681129Y-163228446D01*
X57696675Y-163247388D01*
X57715617Y-163262934D01*
X57737228Y-163274485D01*
X57760677Y-163281598D01*
X57785063Y-163284000D01*
X58331000Y-163284000D01*
X58331000Y-164884000D01*
X56731000Y-164884000D01*
X56731000Y-163409000D01*
X56728598Y-163384614D01*
X56721485Y-163361165D01*
X56709934Y-163339554D01*
X56694388Y-163320612D01*
X56675446Y-163305066D01*
X56653835Y-163293515D01*
X56630386Y-163286402D01*
X56606000Y-163284000D01*
X56060063Y-163284000D01*
X56060063Y-161684000D01*
X57660063Y-161684000D01*
X57660063Y-163159000D01*
X57660063Y-163159000D01*
G37*
G36*
X72800827Y-162260576D02*
X72876227Y-162283448D01*
X72951629Y-162306321D01*
X73090608Y-162380608D01*
X73212422Y-162480578D01*
X73312392Y-162602392D01*
X73386679Y-162741371D01*
X73386679Y-162741372D01*
X73432424Y-162892173D01*
X73444000Y-163009707D01*
X73444000Y-163888293D01*
X73432424Y-164005827D01*
X73409552Y-164081227D01*
X73386679Y-164156629D01*
X73312392Y-164295608D01*
X73212425Y-164417419D01*
X73212423Y-164417420D01*
X73212422Y-164417422D01*
X73212418Y-164417425D01*
X73090604Y-164517394D01*
X72951628Y-164591679D01*
X72876227Y-164614551D01*
X72800826Y-164637424D01*
X72644000Y-164652870D01*
X72487173Y-164637424D01*
X72411772Y-164614551D01*
X72336371Y-164591679D01*
X72197392Y-164517392D01*
X72075581Y-164417425D01*
X72075580Y-164417423D01*
X72075578Y-164417422D01*
X71975607Y-164295605D01*
X71975606Y-164295604D01*
X71901321Y-164156628D01*
X71868500Y-164048430D01*
X71855576Y-164005826D01*
X71844000Y-163888292D01*
X71844000Y-163009707D01*
X71855577Y-162892173D01*
X71901322Y-162741372D01*
X71901322Y-162741371D01*
X71975609Y-162602392D01*
X72075579Y-162480578D01*
X72197393Y-162380608D01*
X72336372Y-162306321D01*
X72411774Y-162283448D01*
X72487174Y-162260576D01*
X72644000Y-162245130D01*
X72800827Y-162260576D01*
X72800827Y-162260576D01*
G37*
G36*
X75340827Y-162260576D02*
X75416227Y-162283448D01*
X75491629Y-162306321D01*
X75630608Y-162380608D01*
X75752422Y-162480578D01*
X75852392Y-162602392D01*
X75926679Y-162741371D01*
X75926679Y-162741372D01*
X75972424Y-162892173D01*
X75984000Y-163009707D01*
X75984000Y-163888293D01*
X75972424Y-164005827D01*
X75949552Y-164081227D01*
X75926679Y-164156629D01*
X75852392Y-164295608D01*
X75752425Y-164417419D01*
X75752423Y-164417420D01*
X75752422Y-164417422D01*
X75752418Y-164417425D01*
X75630604Y-164517394D01*
X75491628Y-164591679D01*
X75416227Y-164614551D01*
X75340826Y-164637424D01*
X75184000Y-164652870D01*
X75027173Y-164637424D01*
X74951772Y-164614551D01*
X74876371Y-164591679D01*
X74737392Y-164517392D01*
X74615581Y-164417425D01*
X74615580Y-164417423D01*
X74615578Y-164417422D01*
X74515607Y-164295605D01*
X74515606Y-164295604D01*
X74441321Y-164156628D01*
X74408500Y-164048430D01*
X74395576Y-164005826D01*
X74384000Y-163888292D01*
X74384000Y-163009707D01*
X74395577Y-162892173D01*
X74441322Y-162741372D01*
X74441322Y-162741371D01*
X74515609Y-162602392D01*
X74615579Y-162480578D01*
X74737393Y-162380608D01*
X74876372Y-162306321D01*
X74951774Y-162283448D01*
X75027174Y-162260576D01*
X75184000Y-162245130D01*
X75340827Y-162260576D01*
X75340827Y-162260576D01*
G37*
G36*
X77880827Y-162260576D02*
X77956227Y-162283448D01*
X78031629Y-162306321D01*
X78170608Y-162380608D01*
X78292422Y-162480578D01*
X78392392Y-162602392D01*
X78466679Y-162741371D01*
X78466679Y-162741372D01*
X78512424Y-162892173D01*
X78524000Y-163009707D01*
X78524000Y-163888293D01*
X78512424Y-164005827D01*
X78489552Y-164081227D01*
X78466679Y-164156629D01*
X78392392Y-164295608D01*
X78292425Y-164417419D01*
X78292423Y-164417420D01*
X78292422Y-164417422D01*
X78292418Y-164417425D01*
X78170604Y-164517394D01*
X78031628Y-164591679D01*
X77956227Y-164614551D01*
X77880826Y-164637424D01*
X77724000Y-164652870D01*
X77567173Y-164637424D01*
X77491772Y-164614551D01*
X77416371Y-164591679D01*
X77277392Y-164517392D01*
X77155581Y-164417425D01*
X77155580Y-164417423D01*
X77155578Y-164417422D01*
X77055607Y-164295605D01*
X77055606Y-164295604D01*
X76981321Y-164156628D01*
X76948500Y-164048430D01*
X76935576Y-164005826D01*
X76924000Y-163888292D01*
X76924000Y-163009707D01*
X76935577Y-162892173D01*
X76981322Y-162741372D01*
X76981322Y-162741371D01*
X77055609Y-162602392D01*
X77155579Y-162480578D01*
X77277393Y-162380608D01*
X77416372Y-162306321D01*
X77491774Y-162283448D01*
X77567174Y-162260576D01*
X77724000Y-162245130D01*
X77880827Y-162260576D01*
X77880827Y-162260576D01*
G37*
G36*
X80420827Y-162260576D02*
X80496227Y-162283448D01*
X80571629Y-162306321D01*
X80710608Y-162380608D01*
X80832422Y-162480578D01*
X80932392Y-162602392D01*
X81006679Y-162741371D01*
X81006679Y-162741372D01*
X81052424Y-162892173D01*
X81064000Y-163009707D01*
X81064000Y-163888293D01*
X81052424Y-164005827D01*
X81029552Y-164081227D01*
X81006679Y-164156629D01*
X80932392Y-164295608D01*
X80832425Y-164417419D01*
X80832423Y-164417420D01*
X80832422Y-164417422D01*
X80832418Y-164417425D01*
X80710604Y-164517394D01*
X80571628Y-164591679D01*
X80496227Y-164614551D01*
X80420826Y-164637424D01*
X80264000Y-164652870D01*
X80107173Y-164637424D01*
X80031772Y-164614551D01*
X79956371Y-164591679D01*
X79817392Y-164517392D01*
X79695581Y-164417425D01*
X79695580Y-164417423D01*
X79695578Y-164417422D01*
X79595607Y-164295605D01*
X79595606Y-164295604D01*
X79521321Y-164156628D01*
X79488500Y-164048430D01*
X79475576Y-164005826D01*
X79464000Y-163888292D01*
X79464000Y-163009707D01*
X79475577Y-162892173D01*
X79521322Y-162741372D01*
X79521322Y-162741371D01*
X79595609Y-162602392D01*
X79695579Y-162480578D01*
X79817393Y-162380608D01*
X79956372Y-162306321D01*
X80031774Y-162283448D01*
X80107174Y-162260576D01*
X80264000Y-162245130D01*
X80420827Y-162260576D01*
X80420827Y-162260576D01*
G37*
G36*
X97105183Y-163156900D02*
X97232574Y-163209668D01*
X97343821Y-163284000D01*
X97347225Y-163286275D01*
X97444725Y-163383775D01*
X97521332Y-163498426D01*
X97574100Y-163625817D01*
X97601000Y-163761055D01*
X97601000Y-163898945D01*
X97574100Y-164034183D01*
X97523381Y-164156627D01*
X97521332Y-164161574D01*
X97444726Y-164276224D01*
X97347224Y-164373726D01*
X97281832Y-164417419D01*
X97232574Y-164450332D01*
X97105183Y-164503100D01*
X96969945Y-164530000D01*
X96832055Y-164530000D01*
X96696817Y-164503100D01*
X96569426Y-164450332D01*
X96520168Y-164417419D01*
X96454776Y-164373726D01*
X96357274Y-164276224D01*
X96280668Y-164161574D01*
X96278619Y-164156627D01*
X96227900Y-164034183D01*
X96201000Y-163898945D01*
X96201000Y-163761055D01*
X96227900Y-163625817D01*
X96280668Y-163498426D01*
X96357275Y-163383775D01*
X96454775Y-163286275D01*
X96458180Y-163284000D01*
X96569426Y-163209668D01*
X96696817Y-163156900D01*
X96832055Y-163130000D01*
X96969945Y-163130000D01*
X97105183Y-163156900D01*
X97105183Y-163156900D01*
G37*
G36*
X89006352Y-162806743D02*
X89151941Y-162867048D01*
X89282973Y-162954601D01*
X89394399Y-163066027D01*
X89481952Y-163197059D01*
X89542257Y-163342648D01*
X89573000Y-163497205D01*
X89573000Y-163654795D01*
X89542257Y-163809352D01*
X89481952Y-163954941D01*
X89394399Y-164085973D01*
X89282973Y-164197399D01*
X89151941Y-164284952D01*
X89006352Y-164345257D01*
X88851795Y-164376000D01*
X88694205Y-164376000D01*
X88539648Y-164345257D01*
X88394059Y-164284952D01*
X88263027Y-164197399D01*
X88151601Y-164085973D01*
X88064048Y-163954941D01*
X88003743Y-163809352D01*
X87973000Y-163654795D01*
X87973000Y-163497205D01*
X88003743Y-163342648D01*
X88064048Y-163197059D01*
X88151601Y-163066027D01*
X88263027Y-162954601D01*
X88394059Y-162867048D01*
X88539648Y-162806743D01*
X88694205Y-162776000D01*
X88851795Y-162776000D01*
X89006352Y-162806743D01*
X89006352Y-162806743D01*
G37*
G36*
X85382000Y-164376000D02*
X83782000Y-164376000D01*
X83782000Y-162776000D01*
X85382000Y-162776000D01*
X85382000Y-164376000D01*
X85382000Y-164376000D01*
G37*
G36*
X94880000Y-163714000D02*
X93080000Y-163714000D01*
X93080000Y-161914000D01*
X94880000Y-161914000D01*
X94880000Y-163714000D01*
X94880000Y-163714000D01*
G37*
G36*
X105565662Y-160475367D02*
X105592635Y-160483549D01*
X105617490Y-160496835D01*
X105639281Y-160514719D01*
X105657165Y-160536510D01*
X105670451Y-160561365D01*
X105678633Y-160588338D01*
X105682000Y-160622530D01*
X105682000Y-163481470D01*
X105678633Y-163515662D01*
X105670451Y-163542635D01*
X105657165Y-163567490D01*
X105639281Y-163589281D01*
X105617490Y-163607165D01*
X105592635Y-163620451D01*
X105565662Y-163628633D01*
X105531470Y-163632000D01*
X101732530Y-163632000D01*
X101698338Y-163628633D01*
X101671365Y-163620451D01*
X101646510Y-163607165D01*
X101624719Y-163589281D01*
X101606835Y-163567490D01*
X101593549Y-163542635D01*
X101585367Y-163515662D01*
X101582000Y-163481470D01*
X101582000Y-160622530D01*
X101585367Y-160588338D01*
X101593549Y-160561365D01*
X101606835Y-160536510D01*
X101624719Y-160514719D01*
X101646510Y-160496835D01*
X101671365Y-160483549D01*
X101698338Y-160475367D01*
X101732530Y-160472000D01*
X105531470Y-160472000D01*
X105565662Y-160475367D01*
X105565662Y-160475367D01*
G37*
G36*
X48906000Y-163206000D02*
X47106000Y-163206000D01*
X47106000Y-161406000D01*
X48906000Y-161406000D01*
X48906000Y-163206000D01*
X48906000Y-163206000D01*
G37*
G36*
X89006352Y-160306743D02*
X89151941Y-160367048D01*
X89282973Y-160454601D01*
X89394399Y-160566027D01*
X89481952Y-160697059D01*
X89542257Y-160842648D01*
X89573000Y-160997205D01*
X89573000Y-161154795D01*
X89542257Y-161309352D01*
X89481952Y-161454941D01*
X89394399Y-161585973D01*
X89282973Y-161697399D01*
X89151941Y-161784952D01*
X89006352Y-161845257D01*
X88851795Y-161876000D01*
X88694205Y-161876000D01*
X88539648Y-161845257D01*
X88394059Y-161784952D01*
X88263027Y-161697399D01*
X88151601Y-161585973D01*
X88064048Y-161454941D01*
X88003743Y-161309352D01*
X87973000Y-161154795D01*
X87973000Y-160997205D01*
X88003743Y-160842648D01*
X88064048Y-160697059D01*
X88151601Y-160566027D01*
X88263027Y-160454601D01*
X88394059Y-160367048D01*
X88539648Y-160306743D01*
X88694205Y-160276000D01*
X88851795Y-160276000D01*
X89006352Y-160306743D01*
X89006352Y-160306743D01*
G37*
G36*
X84815352Y-160306743D02*
X84960941Y-160367048D01*
X85091973Y-160454601D01*
X85203399Y-160566027D01*
X85290952Y-160697059D01*
X85351257Y-160842648D01*
X85382000Y-160997205D01*
X85382000Y-161154795D01*
X85351257Y-161309352D01*
X85290952Y-161454941D01*
X85203399Y-161585973D01*
X85091973Y-161697399D01*
X84960941Y-161784952D01*
X84815352Y-161845257D01*
X84660795Y-161876000D01*
X84503205Y-161876000D01*
X84348648Y-161845257D01*
X84203059Y-161784952D01*
X84072027Y-161697399D01*
X83960601Y-161585973D01*
X83873048Y-161454941D01*
X83812743Y-161309352D01*
X83782000Y-161154795D01*
X83782000Y-160997205D01*
X83812743Y-160842648D01*
X83873048Y-160697059D01*
X83960601Y-160566027D01*
X84072027Y-160454601D01*
X84203059Y-160367048D01*
X84348648Y-160306743D01*
X84503205Y-160276000D01*
X84660795Y-160276000D01*
X84815352Y-160306743D01*
X84815352Y-160306743D01*
G37*
G36*
X70054183Y-159735900D02*
X70181574Y-159788668D01*
X70296225Y-159865275D01*
X70393725Y-159962775D01*
X70470332Y-160077426D01*
X70523100Y-160204817D01*
X70550000Y-160340055D01*
X70550000Y-160477945D01*
X70523100Y-160613183D01*
X70470332Y-160740574D01*
X70393725Y-160855225D01*
X70296225Y-160952725D01*
X70181574Y-161029332D01*
X70054183Y-161082100D01*
X69918945Y-161109000D01*
X69781055Y-161109000D01*
X69645817Y-161082100D01*
X69518426Y-161029332D01*
X69403775Y-160952725D01*
X69306275Y-160855225D01*
X69229668Y-160740574D01*
X69176900Y-160613183D01*
X69150000Y-160477945D01*
X69150000Y-160340055D01*
X69176900Y-160204817D01*
X69229668Y-160077426D01*
X69306275Y-159962775D01*
X69403775Y-159865275D01*
X69518426Y-159788668D01*
X69645817Y-159735900D01*
X69781055Y-159709000D01*
X69918945Y-159709000D01*
X70054183Y-159735900D01*
X70054183Y-159735900D01*
G37*
G36*
X67641183Y-159735900D02*
X67768574Y-159788668D01*
X67883225Y-159865275D01*
X67980725Y-159962775D01*
X68057332Y-160077426D01*
X68110100Y-160204817D01*
X68137000Y-160340055D01*
X68137000Y-160477945D01*
X68110100Y-160613183D01*
X68057332Y-160740574D01*
X67980725Y-160855225D01*
X67883225Y-160952725D01*
X67768574Y-161029332D01*
X67641183Y-161082100D01*
X67505945Y-161109000D01*
X67368055Y-161109000D01*
X67232817Y-161082100D01*
X67105426Y-161029332D01*
X66990775Y-160952725D01*
X66893275Y-160855225D01*
X66816668Y-160740574D01*
X66763900Y-160613183D01*
X66737000Y-160477945D01*
X66737000Y-160340055D01*
X66763900Y-160204817D01*
X66816668Y-160077426D01*
X66893275Y-159962775D01*
X66990775Y-159865275D01*
X67105426Y-159788668D01*
X67232817Y-159735900D01*
X67368055Y-159709000D01*
X67505945Y-159709000D01*
X67641183Y-159735900D01*
X67641183Y-159735900D01*
G37*
G36*
X83926352Y-157178743D02*
X84071941Y-157239048D01*
X84202973Y-157326601D01*
X84314399Y-157438027D01*
X84401952Y-157569059D01*
X84462257Y-157714648D01*
X84493000Y-157869205D01*
X84493000Y-158026795D01*
X84462257Y-158181352D01*
X84401952Y-158326941D01*
X84314399Y-158457973D01*
X84202973Y-158569399D01*
X84071941Y-158656952D01*
X83926352Y-158717257D01*
X83771795Y-158748000D01*
X83614205Y-158748000D01*
X83459648Y-158717257D01*
X83314059Y-158656952D01*
X83183027Y-158569399D01*
X83071601Y-158457973D01*
X82984048Y-158326941D01*
X82923743Y-158181352D01*
X82893000Y-158026795D01*
X82893000Y-157869205D01*
X82923743Y-157714648D01*
X82984048Y-157569059D01*
X83071601Y-157438027D01*
X83183027Y-157326601D01*
X83314059Y-157239048D01*
X83459648Y-157178743D01*
X83614205Y-157148000D01*
X83771795Y-157148000D01*
X83926352Y-157178743D01*
X83926352Y-157178743D01*
G37*
G36*
X86974352Y-157178743D02*
X87119941Y-157239048D01*
X87250973Y-157326601D01*
X87362399Y-157438027D01*
X87449952Y-157569059D01*
X87510257Y-157714648D01*
X87541000Y-157869205D01*
X87541000Y-158026795D01*
X87510257Y-158181352D01*
X87449952Y-158326941D01*
X87362399Y-158457973D01*
X87250973Y-158569399D01*
X87119941Y-158656952D01*
X86974352Y-158717257D01*
X86819795Y-158748000D01*
X86662205Y-158748000D01*
X86507648Y-158717257D01*
X86362059Y-158656952D01*
X86231027Y-158569399D01*
X86119601Y-158457973D01*
X86032048Y-158326941D01*
X85971743Y-158181352D01*
X85941000Y-158026795D01*
X85941000Y-157869205D01*
X85971743Y-157714648D01*
X86032048Y-157569059D01*
X86119601Y-157438027D01*
X86231027Y-157326601D01*
X86362059Y-157239048D01*
X86507648Y-157178743D01*
X86662205Y-157148000D01*
X86819795Y-157148000D01*
X86974352Y-157178743D01*
X86974352Y-157178743D01*
G37*
G36*
X75340827Y-154640576D02*
X75416227Y-154663448D01*
X75491629Y-154686321D01*
X75630608Y-154760608D01*
X75752422Y-154860578D01*
X75852392Y-154982392D01*
X75926679Y-155121371D01*
X75926679Y-155121372D01*
X75958867Y-155227480D01*
X75972424Y-155272174D01*
X75982102Y-155370431D01*
X75984000Y-155389707D01*
X75984000Y-156268293D01*
X75972424Y-156385827D01*
X75950399Y-156458433D01*
X75926679Y-156536629D01*
X75852392Y-156675608D01*
X75752425Y-156797419D01*
X75752423Y-156797420D01*
X75752422Y-156797422D01*
X75696912Y-156842977D01*
X75630604Y-156897394D01*
X75491628Y-156971679D01*
X75466646Y-156979257D01*
X75340826Y-157017424D01*
X75184000Y-157032870D01*
X75027173Y-157017424D01*
X74901353Y-156979257D01*
X74876371Y-156971679D01*
X74737392Y-156897392D01*
X74615581Y-156797425D01*
X74615580Y-156797423D01*
X74615578Y-156797422D01*
X74515607Y-156675605D01*
X74469284Y-156588942D01*
X74441321Y-156536628D01*
X74413026Y-156443351D01*
X74395576Y-156385826D01*
X74384000Y-156268292D01*
X74384000Y-155389707D01*
X74395577Y-155272173D01*
X74441322Y-155121372D01*
X74441322Y-155121371D01*
X74515609Y-154982392D01*
X74615579Y-154860578D01*
X74737393Y-154760608D01*
X74876372Y-154686321D01*
X74951774Y-154663448D01*
X75027174Y-154640576D01*
X75184000Y-154625130D01*
X75340827Y-154640576D01*
X75340827Y-154640576D01*
G37*
G36*
X72800827Y-154640576D02*
X72876227Y-154663448D01*
X72951629Y-154686321D01*
X73090608Y-154760608D01*
X73212422Y-154860578D01*
X73312392Y-154982392D01*
X73386679Y-155121371D01*
X73386679Y-155121372D01*
X73418867Y-155227480D01*
X73432424Y-155272174D01*
X73442102Y-155370431D01*
X73444000Y-155389707D01*
X73444000Y-156268293D01*
X73432424Y-156385827D01*
X73410399Y-156458433D01*
X73386679Y-156536629D01*
X73312392Y-156675608D01*
X73212425Y-156797419D01*
X73212423Y-156797420D01*
X73212422Y-156797422D01*
X73156912Y-156842977D01*
X73090604Y-156897394D01*
X72951628Y-156971679D01*
X72926646Y-156979257D01*
X72800826Y-157017424D01*
X72644000Y-157032870D01*
X72487173Y-157017424D01*
X72361353Y-156979257D01*
X72336371Y-156971679D01*
X72197392Y-156897392D01*
X72075581Y-156797425D01*
X72075580Y-156797423D01*
X72075578Y-156797422D01*
X71975607Y-156675605D01*
X71929284Y-156588942D01*
X71901321Y-156536628D01*
X71873026Y-156443351D01*
X71855576Y-156385826D01*
X71844000Y-156268292D01*
X71844000Y-155389707D01*
X71855577Y-155272173D01*
X71901322Y-155121372D01*
X71901322Y-155121371D01*
X71975609Y-154982392D01*
X72075579Y-154860578D01*
X72197393Y-154760608D01*
X72336372Y-154686321D01*
X72411774Y-154663448D01*
X72487174Y-154640576D01*
X72644000Y-154625130D01*
X72800827Y-154640576D01*
X72800827Y-154640576D01*
G37*
G36*
X77880827Y-154640576D02*
X77956227Y-154663448D01*
X78031629Y-154686321D01*
X78170608Y-154760608D01*
X78292422Y-154860578D01*
X78392392Y-154982392D01*
X78466679Y-155121371D01*
X78466679Y-155121372D01*
X78498867Y-155227480D01*
X78512424Y-155272174D01*
X78522102Y-155370431D01*
X78524000Y-155389707D01*
X78524000Y-156268293D01*
X78512424Y-156385827D01*
X78490399Y-156458433D01*
X78466679Y-156536629D01*
X78392392Y-156675608D01*
X78292425Y-156797419D01*
X78292423Y-156797420D01*
X78292422Y-156797422D01*
X78236912Y-156842977D01*
X78170604Y-156897394D01*
X78031628Y-156971679D01*
X78006646Y-156979257D01*
X77880826Y-157017424D01*
X77724000Y-157032870D01*
X77567173Y-157017424D01*
X77441353Y-156979257D01*
X77416371Y-156971679D01*
X77277392Y-156897392D01*
X77155581Y-156797425D01*
X77155580Y-156797423D01*
X77155578Y-156797422D01*
X77055607Y-156675605D01*
X77009284Y-156588942D01*
X76981321Y-156536628D01*
X76953026Y-156443351D01*
X76935576Y-156385826D01*
X76924000Y-156268292D01*
X76924000Y-155389707D01*
X76935577Y-155272173D01*
X76981322Y-155121372D01*
X76981322Y-155121371D01*
X77055609Y-154982392D01*
X77155579Y-154860578D01*
X77277393Y-154760608D01*
X77416372Y-154686321D01*
X77491774Y-154663448D01*
X77567174Y-154640576D01*
X77724000Y-154625130D01*
X77880827Y-154640576D01*
X77880827Y-154640576D01*
G37*
G36*
X81064000Y-157029000D02*
X79464000Y-157029000D01*
X79464000Y-154629000D01*
X81064000Y-154629000D01*
X81064000Y-157029000D01*
X81064000Y-157029000D01*
G37*
G36*
X51795352Y-155440743D02*
X51940941Y-155501048D01*
X52071973Y-155588601D01*
X52183399Y-155700027D01*
X52270952Y-155831059D01*
X52331257Y-155976648D01*
X52362000Y-156131205D01*
X52362000Y-156288795D01*
X52331257Y-156443352D01*
X52270952Y-156588941D01*
X52183399Y-156719973D01*
X52071973Y-156831399D01*
X51940941Y-156918952D01*
X51795352Y-156979257D01*
X51640795Y-157010000D01*
X51483205Y-157010000D01*
X51328648Y-156979257D01*
X51183059Y-156918952D01*
X51052027Y-156831399D01*
X50940601Y-156719973D01*
X50853048Y-156588941D01*
X50792743Y-156443352D01*
X50762000Y-156288795D01*
X50762000Y-156131205D01*
X50792743Y-155976648D01*
X50853048Y-155831059D01*
X50940601Y-155700027D01*
X51052027Y-155588601D01*
X51183059Y-155501048D01*
X51328648Y-155440743D01*
X51483205Y-155410000D01*
X51640795Y-155410000D01*
X51795352Y-155440743D01*
X51795352Y-155440743D01*
G37*
G36*
X54589352Y-155426743D02*
X54734941Y-155487048D01*
X54865973Y-155574601D01*
X54977399Y-155686027D01*
X55064952Y-155817059D01*
X55125257Y-155962648D01*
X55156000Y-156117205D01*
X55156000Y-156274795D01*
X55125257Y-156429352D01*
X55064952Y-156574941D01*
X54977399Y-156705973D01*
X54865973Y-156817399D01*
X54734941Y-156904952D01*
X54589352Y-156965257D01*
X54434795Y-156996000D01*
X54277205Y-156996000D01*
X54122648Y-156965257D01*
X53977059Y-156904952D01*
X53846027Y-156817399D01*
X53734601Y-156705973D01*
X53647048Y-156574941D01*
X53586743Y-156429352D01*
X53556000Y-156274795D01*
X53556000Y-156117205D01*
X53586743Y-155962648D01*
X53647048Y-155817059D01*
X53734601Y-155686027D01*
X53846027Y-155574601D01*
X53977059Y-155487048D01*
X54122648Y-155426743D01*
X54277205Y-155396000D01*
X54434795Y-155396000D01*
X54589352Y-155426743D01*
X54589352Y-155426743D01*
G37*
G36*
X57326432Y-155069022D02*
X57496081Y-155120485D01*
X57652433Y-155204056D01*
X57789475Y-155316525D01*
X57901944Y-155453567D01*
X57985515Y-155609919D01*
X58036978Y-155779568D01*
X58054354Y-155956000D01*
X58036978Y-156132432D01*
X57985515Y-156302081D01*
X57901944Y-156458433D01*
X57789475Y-156595475D01*
X57652433Y-156707944D01*
X57496081Y-156791515D01*
X57326432Y-156842978D01*
X57194211Y-156856000D01*
X57105789Y-156856000D01*
X56973568Y-156842978D01*
X56803919Y-156791515D01*
X56647567Y-156707944D01*
X56510525Y-156595475D01*
X56398056Y-156458433D01*
X56314485Y-156302081D01*
X56263022Y-156132432D01*
X56245646Y-155956000D01*
X56263022Y-155779568D01*
X56314485Y-155609919D01*
X56398056Y-155453567D01*
X56510525Y-155316525D01*
X56647567Y-155204056D01*
X56803919Y-155120485D01*
X56973568Y-155069022D01*
X57105789Y-155056000D01*
X57194211Y-155056000D01*
X57326432Y-155069022D01*
X57326432Y-155069022D01*
G37*
G36*
X65670000Y-156856000D02*
X63870000Y-156856000D01*
X63870000Y-155056000D01*
X65670000Y-155056000D01*
X65670000Y-156856000D01*
X65670000Y-156856000D01*
G37*
G36*
X104560630Y-154864299D02*
X104720855Y-154912903D01*
X104868520Y-154991831D01*
X104997949Y-155098051D01*
X105104169Y-155227480D01*
X105183097Y-155375145D01*
X105231701Y-155535370D01*
X105248112Y-155702000D01*
X105231701Y-155868630D01*
X105183097Y-156028855D01*
X105104169Y-156176520D01*
X104997949Y-156305949D01*
X104868520Y-156412169D01*
X104720855Y-156491097D01*
X104560630Y-156539701D01*
X104435752Y-156552000D01*
X104352248Y-156552000D01*
X104227370Y-156539701D01*
X104067145Y-156491097D01*
X103919480Y-156412169D01*
X103790051Y-156305949D01*
X103683831Y-156176520D01*
X103604903Y-156028855D01*
X103556299Y-155868630D01*
X103539888Y-155702000D01*
X103556299Y-155535370D01*
X103604903Y-155375145D01*
X103683831Y-155227480D01*
X103790051Y-155098051D01*
X103919480Y-154991831D01*
X104067145Y-154912903D01*
X104227370Y-154864299D01*
X104352248Y-154852000D01*
X104435752Y-154852000D01*
X104560630Y-154864299D01*
X104560630Y-154864299D01*
G37*
G36*
X83926352Y-154678743D02*
X84071941Y-154739048D01*
X84202973Y-154826601D01*
X84314399Y-154938027D01*
X84401952Y-155069059D01*
X84462257Y-155214648D01*
X84493000Y-155369205D01*
X84493000Y-155526795D01*
X84462257Y-155681352D01*
X84401952Y-155826941D01*
X84314399Y-155957973D01*
X84202973Y-156069399D01*
X84071941Y-156156952D01*
X83926352Y-156217257D01*
X83771795Y-156248000D01*
X83614205Y-156248000D01*
X83459648Y-156217257D01*
X83314059Y-156156952D01*
X83183027Y-156069399D01*
X83071601Y-155957973D01*
X82984048Y-155826941D01*
X82923743Y-155681352D01*
X82893000Y-155526795D01*
X82893000Y-155369205D01*
X82923743Y-155214648D01*
X82984048Y-155069059D01*
X83071601Y-154938027D01*
X83183027Y-154826601D01*
X83314059Y-154739048D01*
X83459648Y-154678743D01*
X83614205Y-154648000D01*
X83771795Y-154648000D01*
X83926352Y-154678743D01*
X83926352Y-154678743D01*
G37*
G36*
X86974352Y-154678743D02*
X87119941Y-154739048D01*
X87250973Y-154826601D01*
X87362399Y-154938027D01*
X87449952Y-155069059D01*
X87510257Y-155214648D01*
X87541000Y-155369205D01*
X87541000Y-155526795D01*
X87510257Y-155681352D01*
X87449952Y-155826941D01*
X87362399Y-155957973D01*
X87250973Y-156069399D01*
X87119941Y-156156952D01*
X86974352Y-156217257D01*
X86819795Y-156248000D01*
X86662205Y-156248000D01*
X86507648Y-156217257D01*
X86362059Y-156156952D01*
X86231027Y-156069399D01*
X86119601Y-155957973D01*
X86032048Y-155826941D01*
X85971743Y-155681352D01*
X85941000Y-155526795D01*
X85941000Y-155369205D01*
X85971743Y-155214648D01*
X86032048Y-155069059D01*
X86119601Y-154938027D01*
X86231027Y-154826601D01*
X86362059Y-154739048D01*
X86507648Y-154678743D01*
X86662205Y-154648000D01*
X86819795Y-154648000D01*
X86974352Y-154678743D01*
X86974352Y-154678743D01*
G37*
G36*
X94156432Y-154307022D02*
X94326081Y-154358485D01*
X94482433Y-154442056D01*
X94619475Y-154554525D01*
X94731944Y-154691567D01*
X94815515Y-154847919D01*
X94866978Y-155017568D01*
X94884354Y-155194000D01*
X94866978Y-155370432D01*
X94815515Y-155540081D01*
X94731944Y-155696433D01*
X94619475Y-155833475D01*
X94482433Y-155945944D01*
X94326081Y-156029515D01*
X94156432Y-156080978D01*
X94024211Y-156094000D01*
X93935789Y-156094000D01*
X93803568Y-156080978D01*
X93633919Y-156029515D01*
X93477567Y-155945944D01*
X93340525Y-155833475D01*
X93228056Y-155696433D01*
X93144485Y-155540081D01*
X93093022Y-155370432D01*
X93075646Y-155194000D01*
X93093022Y-155017568D01*
X93144485Y-154847919D01*
X93228056Y-154691567D01*
X93340525Y-154554525D01*
X93477567Y-154442056D01*
X93633919Y-154358485D01*
X93803568Y-154307022D01*
X93935789Y-154294000D01*
X94024211Y-154294000D01*
X94156432Y-154307022D01*
X94156432Y-154307022D01*
G37*
G36*
X69987224Y-154639128D02*
X70119175Y-154679155D01*
X70240781Y-154744155D01*
X70347370Y-154831630D01*
X70434845Y-154938219D01*
X70499845Y-155059825D01*
X70539872Y-155191776D01*
X70553387Y-155329000D01*
X70539872Y-155466224D01*
X70499845Y-155598175D01*
X70434845Y-155719781D01*
X70347370Y-155826370D01*
X70240781Y-155913845D01*
X70119175Y-155978845D01*
X69987224Y-156018872D01*
X69884390Y-156029000D01*
X69815610Y-156029000D01*
X69712776Y-156018872D01*
X69580825Y-155978845D01*
X69459219Y-155913845D01*
X69352630Y-155826370D01*
X69265155Y-155719781D01*
X69200155Y-155598175D01*
X69160128Y-155466224D01*
X69146613Y-155329000D01*
X69160128Y-155191776D01*
X69200155Y-155059825D01*
X69265155Y-154938219D01*
X69352630Y-154831630D01*
X69459219Y-154744155D01*
X69580825Y-154679155D01*
X69712776Y-154639128D01*
X69815610Y-154629000D01*
X69884390Y-154629000D01*
X69987224Y-154639128D01*
X69987224Y-154639128D01*
G37*
G36*
X67574224Y-154639128D02*
X67706175Y-154679155D01*
X67827781Y-154744155D01*
X67934370Y-154831630D01*
X68021845Y-154938219D01*
X68086845Y-155059825D01*
X68126872Y-155191776D01*
X68140387Y-155329000D01*
X68126872Y-155466224D01*
X68086845Y-155598175D01*
X68021845Y-155719781D01*
X67934370Y-155826370D01*
X67827781Y-155913845D01*
X67706175Y-155978845D01*
X67574224Y-156018872D01*
X67471390Y-156029000D01*
X67402610Y-156029000D01*
X67299776Y-156018872D01*
X67167825Y-155978845D01*
X67046219Y-155913845D01*
X66939630Y-155826370D01*
X66852155Y-155719781D01*
X66787155Y-155598175D01*
X66747128Y-155466224D01*
X66733613Y-155329000D01*
X66747128Y-155191776D01*
X66787155Y-155059825D01*
X66852155Y-154938219D01*
X66939630Y-154831630D01*
X67046219Y-154744155D01*
X67167825Y-154679155D01*
X67299776Y-154639128D01*
X67402610Y-154629000D01*
X67471390Y-154629000D01*
X67574224Y-154639128D01*
X67574224Y-154639128D01*
G37*
G36*
X47459000Y-155770000D02*
X45759000Y-155770000D01*
X45759000Y-154070000D01*
X47459000Y-154070000D01*
X47459000Y-155770000D01*
X47459000Y-155770000D01*
G37*
G36*
X51795352Y-152940743D02*
X51940941Y-153001048D01*
X52071973Y-153088601D01*
X52183399Y-153200027D01*
X52270952Y-153331059D01*
X52331257Y-153476648D01*
X52362000Y-153631205D01*
X52362000Y-153788795D01*
X52331257Y-153943352D01*
X52270952Y-154088941D01*
X52183399Y-154219973D01*
X52071973Y-154331399D01*
X51940941Y-154418952D01*
X51795352Y-154479257D01*
X51640795Y-154510000D01*
X51483205Y-154510000D01*
X51328648Y-154479257D01*
X51183059Y-154418952D01*
X51052027Y-154331399D01*
X50940601Y-154219973D01*
X50853048Y-154088941D01*
X50792743Y-153943352D01*
X50762000Y-153788795D01*
X50762000Y-153631205D01*
X50792743Y-153476648D01*
X50853048Y-153331059D01*
X50940601Y-153200027D01*
X51052027Y-153088601D01*
X51183059Y-153001048D01*
X51328648Y-152940743D01*
X51483205Y-152910000D01*
X51640795Y-152910000D01*
X51795352Y-152940743D01*
X51795352Y-152940743D01*
G37*
G36*
X54589352Y-152926743D02*
X54734941Y-152987048D01*
X54865973Y-153074601D01*
X54977399Y-153186027D01*
X55064952Y-153317059D01*
X55125257Y-153462648D01*
X55156000Y-153617205D01*
X55156000Y-153774795D01*
X55125257Y-153929352D01*
X55064952Y-154074941D01*
X54977399Y-154205973D01*
X54865973Y-154317399D01*
X54734941Y-154404952D01*
X54589352Y-154465257D01*
X54434795Y-154496000D01*
X54277205Y-154496000D01*
X54122648Y-154465257D01*
X53977059Y-154404952D01*
X53846027Y-154317399D01*
X53734601Y-154205973D01*
X53647048Y-154074941D01*
X53586743Y-153929352D01*
X53556000Y-153774795D01*
X53556000Y-153617205D01*
X53586743Y-153462648D01*
X53647048Y-153317059D01*
X53734601Y-153186027D01*
X53846027Y-153074601D01*
X53977059Y-152987048D01*
X54122648Y-152926743D01*
X54277205Y-152896000D01*
X54434795Y-152896000D01*
X54589352Y-152926743D01*
X54589352Y-152926743D01*
G37*
G36*
X104560630Y-152324299D02*
X104720855Y-152372903D01*
X104868520Y-152451831D01*
X104997949Y-152558051D01*
X105104169Y-152687480D01*
X105183097Y-152835145D01*
X105231701Y-152995370D01*
X105248112Y-153162000D01*
X105231701Y-153328630D01*
X105183097Y-153488855D01*
X105104169Y-153636520D01*
X104997949Y-153765949D01*
X104868520Y-153872169D01*
X104720855Y-153951097D01*
X104560630Y-153999701D01*
X104435752Y-154012000D01*
X104352248Y-154012000D01*
X104227370Y-153999701D01*
X104067145Y-153951097D01*
X103919480Y-153872169D01*
X103790051Y-153765949D01*
X103683831Y-153636520D01*
X103604903Y-153488855D01*
X103556299Y-153328630D01*
X103539888Y-153162000D01*
X103556299Y-152995370D01*
X103604903Y-152835145D01*
X103683831Y-152687480D01*
X103790051Y-152558051D01*
X103919480Y-152451831D01*
X104067145Y-152372903D01*
X104227370Y-152324299D01*
X104352248Y-152312000D01*
X104435752Y-152312000D01*
X104560630Y-152324299D01*
X104560630Y-152324299D01*
G37*
G36*
X77281224Y-151964128D02*
X77413175Y-152004155D01*
X77534781Y-152069155D01*
X77641370Y-152156630D01*
X77728845Y-152263219D01*
X77793845Y-152384825D01*
X77833872Y-152516776D01*
X77847387Y-152654000D01*
X77833872Y-152791224D01*
X77793845Y-152923175D01*
X77728845Y-153044781D01*
X77641370Y-153151370D01*
X77534781Y-153238845D01*
X77413175Y-153303845D01*
X77281224Y-153343872D01*
X77178390Y-153354000D01*
X77109610Y-153354000D01*
X77006776Y-153343872D01*
X76874825Y-153303845D01*
X76753219Y-153238845D01*
X76646630Y-153151370D01*
X76559155Y-153044781D01*
X76494155Y-152923175D01*
X76454128Y-152791224D01*
X76440613Y-152654000D01*
X76454128Y-152516776D01*
X76494155Y-152384825D01*
X76559155Y-152263219D01*
X76646630Y-152156630D01*
X76753219Y-152069155D01*
X76874825Y-152004155D01*
X77006776Y-151964128D01*
X77109610Y-151954000D01*
X77178390Y-151954000D01*
X77281224Y-151964128D01*
X77281224Y-151964128D01*
G37*
G36*
X72268183Y-151980900D02*
X72395574Y-152033668D01*
X72510224Y-152110274D01*
X72607726Y-152207776D01*
X72659325Y-152285000D01*
X72684332Y-152322426D01*
X72737100Y-152449817D01*
X72764000Y-152585055D01*
X72764000Y-152722945D01*
X72737100Y-152858183D01*
X72685006Y-152983948D01*
X72684332Y-152985574D01*
X72607726Y-153100224D01*
X72510224Y-153197726D01*
X72395574Y-153274332D01*
X72268183Y-153327100D01*
X72132945Y-153354000D01*
X71995055Y-153354000D01*
X71859817Y-153327100D01*
X71732426Y-153274332D01*
X71617776Y-153197726D01*
X71520274Y-153100224D01*
X71443668Y-152985574D01*
X71442994Y-152983948D01*
X71390900Y-152858183D01*
X71364000Y-152722945D01*
X71364000Y-152585055D01*
X71390900Y-152449817D01*
X71443668Y-152322426D01*
X71468675Y-152285000D01*
X71520274Y-152207776D01*
X71617776Y-152110274D01*
X71732426Y-152033668D01*
X71859817Y-151980900D01*
X71995055Y-151954000D01*
X72132945Y-151954000D01*
X72268183Y-151980900D01*
X72268183Y-151980900D01*
G37*
G36*
X84532183Y-151980900D02*
X84659574Y-152033668D01*
X84774224Y-152110274D01*
X84871726Y-152207776D01*
X84923325Y-152285000D01*
X84948332Y-152322426D01*
X85001100Y-152449817D01*
X85028000Y-152585055D01*
X85028000Y-152722945D01*
X85001100Y-152858183D01*
X84949006Y-152983948D01*
X84948332Y-152985574D01*
X84871726Y-153100224D01*
X84774224Y-153197726D01*
X84659574Y-153274332D01*
X84532183Y-153327100D01*
X84396945Y-153354000D01*
X84259055Y-153354000D01*
X84123817Y-153327100D01*
X83996426Y-153274332D01*
X83881776Y-153197726D01*
X83784274Y-153100224D01*
X83707668Y-152985574D01*
X83706994Y-152983948D01*
X83654900Y-152858183D01*
X83628000Y-152722945D01*
X83628000Y-152585055D01*
X83654900Y-152449817D01*
X83707668Y-152322426D01*
X83732675Y-152285000D01*
X83784274Y-152207776D01*
X83881776Y-152110274D01*
X83996426Y-152033668D01*
X84123817Y-151980900D01*
X84259055Y-151954000D01*
X84396945Y-151954000D01*
X84532183Y-151980900D01*
X84532183Y-151980900D01*
G37*
G36*
X79385224Y-151964128D02*
X79517175Y-152004155D01*
X79638781Y-152069155D01*
X79745370Y-152156630D01*
X79832845Y-152263219D01*
X79897845Y-152384825D01*
X79937872Y-152516776D01*
X79951387Y-152654000D01*
X79937872Y-152791224D01*
X79897845Y-152923175D01*
X79832845Y-153044781D01*
X79745370Y-153151370D01*
X79638781Y-153238845D01*
X79517175Y-153303845D01*
X79385224Y-153343872D01*
X79282390Y-153354000D01*
X79213610Y-153354000D01*
X79110776Y-153343872D01*
X78978825Y-153303845D01*
X78857219Y-153238845D01*
X78750630Y-153151370D01*
X78663155Y-153044781D01*
X78598155Y-152923175D01*
X78558128Y-152791224D01*
X78544613Y-152654000D01*
X78558128Y-152516776D01*
X78598155Y-152384825D01*
X78663155Y-152263219D01*
X78750630Y-152156630D01*
X78857219Y-152069155D01*
X78978825Y-152004155D01*
X79110776Y-151964128D01*
X79213610Y-151954000D01*
X79282390Y-151954000D01*
X79385224Y-151964128D01*
X79385224Y-151964128D01*
G37*
G36*
X46775630Y-151542299D02*
X46935855Y-151590903D01*
X47083520Y-151669831D01*
X47212949Y-151776051D01*
X47319169Y-151905480D01*
X47398097Y-152053145D01*
X47446701Y-152213370D01*
X47463112Y-152380000D01*
X47446701Y-152546630D01*
X47398097Y-152706855D01*
X47319169Y-152854520D01*
X47212949Y-152983949D01*
X47083520Y-153090169D01*
X46935855Y-153169097D01*
X46775630Y-153217701D01*
X46650752Y-153230000D01*
X46567248Y-153230000D01*
X46442370Y-153217701D01*
X46282145Y-153169097D01*
X46134480Y-153090169D01*
X46005051Y-152983949D01*
X45898831Y-152854520D01*
X45819903Y-152706855D01*
X45771299Y-152546630D01*
X45754888Y-152380000D01*
X45771299Y-152213370D01*
X45819903Y-152053145D01*
X45898831Y-151905480D01*
X46005051Y-151776051D01*
X46134480Y-151669831D01*
X46282145Y-151590903D01*
X46442370Y-151542299D01*
X46567248Y-151530000D01*
X46650752Y-151530000D01*
X46775630Y-151542299D01*
X46775630Y-151542299D01*
G37*
G36*
X54589352Y-150715743D02*
X54734941Y-150776048D01*
X54865973Y-150863601D01*
X54977399Y-150975027D01*
X55064952Y-151106059D01*
X55125257Y-151251648D01*
X55156000Y-151406205D01*
X55156000Y-151563795D01*
X55125257Y-151718352D01*
X55064952Y-151863941D01*
X54977399Y-151994973D01*
X54865973Y-152106399D01*
X54734941Y-152193952D01*
X54589352Y-152254257D01*
X54434795Y-152285000D01*
X54277205Y-152285000D01*
X54122648Y-152254257D01*
X53977059Y-152193952D01*
X53846027Y-152106399D01*
X53734601Y-151994973D01*
X53647048Y-151863941D01*
X53586743Y-151718352D01*
X53556000Y-151563795D01*
X53556000Y-151406205D01*
X53586743Y-151251648D01*
X53647048Y-151106059D01*
X53734601Y-150975027D01*
X53846027Y-150863601D01*
X53977059Y-150776048D01*
X54122648Y-150715743D01*
X54277205Y-150685000D01*
X54434795Y-150685000D01*
X54589352Y-150715743D01*
X54589352Y-150715743D01*
G37*
G36*
X51795352Y-150701743D02*
X51940941Y-150762048D01*
X52071973Y-150849601D01*
X52183399Y-150961027D01*
X52270952Y-151092059D01*
X52331257Y-151237648D01*
X52362000Y-151392205D01*
X52362000Y-151549795D01*
X52331257Y-151704352D01*
X52270952Y-151849941D01*
X52183399Y-151980973D01*
X52071973Y-152092399D01*
X51940941Y-152179952D01*
X51795352Y-152240257D01*
X51640795Y-152271000D01*
X51483205Y-152271000D01*
X51328648Y-152240257D01*
X51183059Y-152179952D01*
X51052027Y-152092399D01*
X50940601Y-151980973D01*
X50853048Y-151849941D01*
X50792743Y-151704352D01*
X50762000Y-151549795D01*
X50762000Y-151392205D01*
X50792743Y-151237648D01*
X50853048Y-151092059D01*
X50940601Y-150961027D01*
X51052027Y-150849601D01*
X51183059Y-150762048D01*
X51328648Y-150701743D01*
X51483205Y-150671000D01*
X51640795Y-150671000D01*
X51795352Y-150701743D01*
X51795352Y-150701743D01*
G37*
G36*
X105244000Y-151472000D02*
X103544000Y-151472000D01*
X103544000Y-149772000D01*
X105244000Y-149772000D01*
X105244000Y-151472000D01*
X105244000Y-151472000D01*
G37*
G36*
X46775630Y-149002299D02*
X46935855Y-149050903D01*
X47083520Y-149129831D01*
X47212949Y-149236051D01*
X47319169Y-149365480D01*
X47398097Y-149513145D01*
X47446701Y-149673370D01*
X47463112Y-149840000D01*
X47446701Y-150006630D01*
X47398097Y-150166855D01*
X47319169Y-150314520D01*
X47212949Y-150443949D01*
X47083520Y-150550169D01*
X46935855Y-150629097D01*
X46775630Y-150677701D01*
X46650752Y-150690000D01*
X46567248Y-150690000D01*
X46442370Y-150677701D01*
X46282145Y-150629097D01*
X46134480Y-150550169D01*
X46005051Y-150443949D01*
X45898831Y-150314520D01*
X45819903Y-150166855D01*
X45771299Y-150006630D01*
X45754888Y-149840000D01*
X45771299Y-149673370D01*
X45819903Y-149513145D01*
X45898831Y-149365480D01*
X46005051Y-149236051D01*
X46134480Y-149129831D01*
X46282145Y-149050903D01*
X46442370Y-149002299D01*
X46567248Y-148990000D01*
X46650752Y-148990000D01*
X46775630Y-149002299D01*
X46775630Y-149002299D01*
G37*
G36*
X69987224Y-149174903D02*
X70119175Y-149214930D01*
X70240781Y-149279930D01*
X70347370Y-149367405D01*
X70434845Y-149473994D01*
X70499845Y-149595600D01*
X70539872Y-149727551D01*
X70553387Y-149864775D01*
X70539872Y-150001999D01*
X70499845Y-150133950D01*
X70434845Y-150255556D01*
X70347370Y-150362145D01*
X70240781Y-150449620D01*
X70119175Y-150514620D01*
X69987224Y-150554647D01*
X69884390Y-150564775D01*
X69815610Y-150564775D01*
X69712776Y-150554647D01*
X69580825Y-150514620D01*
X69459219Y-150449620D01*
X69352630Y-150362145D01*
X69265155Y-150255556D01*
X69200155Y-150133950D01*
X69160128Y-150001999D01*
X69146613Y-149864775D01*
X69160128Y-149727551D01*
X69200155Y-149595600D01*
X69265155Y-149473994D01*
X69352630Y-149367405D01*
X69459219Y-149279930D01*
X69580825Y-149214930D01*
X69712776Y-149174903D01*
X69815610Y-149164775D01*
X69884390Y-149164775D01*
X69987224Y-149174903D01*
X69987224Y-149174903D01*
G37*
G36*
X67574224Y-149170128D02*
X67706175Y-149210155D01*
X67827781Y-149275155D01*
X67934370Y-149362630D01*
X68021845Y-149469219D01*
X68086845Y-149590825D01*
X68126872Y-149722776D01*
X68140387Y-149860000D01*
X68126872Y-149997224D01*
X68086845Y-150129175D01*
X68021845Y-150250781D01*
X67934370Y-150357370D01*
X67827781Y-150444845D01*
X67706175Y-150509845D01*
X67574224Y-150549872D01*
X67471390Y-150560000D01*
X67402610Y-150560000D01*
X67299776Y-150549872D01*
X67167825Y-150509845D01*
X67046219Y-150444845D01*
X66939630Y-150357370D01*
X66852155Y-150250781D01*
X66787155Y-150129175D01*
X66747128Y-149997224D01*
X66733613Y-149860000D01*
X66747128Y-149722776D01*
X66787155Y-149590825D01*
X66852155Y-149469219D01*
X66939630Y-149362630D01*
X67046219Y-149275155D01*
X67167825Y-149210155D01*
X67299776Y-149170128D01*
X67402610Y-149160000D01*
X67471390Y-149160000D01*
X67574224Y-149170128D01*
X67574224Y-149170128D01*
G37*
G36*
X75340827Y-148146351D02*
X75416227Y-148169223D01*
X75491629Y-148192096D01*
X75630608Y-148266383D01*
X75752422Y-148366353D01*
X75852392Y-148488167D01*
X75926679Y-148627146D01*
X75972424Y-148777949D01*
X75983678Y-148892207D01*
X75984000Y-148895482D01*
X75984000Y-149774068D01*
X75975537Y-149860000D01*
X75972424Y-149891601D01*
X75926679Y-150042404D01*
X75852392Y-150181383D01*
X75752425Y-150303194D01*
X75752423Y-150303195D01*
X75752422Y-150303197D01*
X75680594Y-150362144D01*
X75630604Y-150403169D01*
X75491628Y-150477454D01*
X75440379Y-150493000D01*
X75340826Y-150523199D01*
X75184000Y-150538645D01*
X75027173Y-150523199D01*
X74927620Y-150493000D01*
X74876371Y-150477454D01*
X74737392Y-150403167D01*
X74615581Y-150303200D01*
X74615580Y-150303198D01*
X74615578Y-150303197D01*
X74515607Y-150181380D01*
X74490256Y-150133953D01*
X74441321Y-150042403D01*
X74406117Y-149926351D01*
X74395576Y-149891601D01*
X74384000Y-149774067D01*
X74384000Y-148895482D01*
X74384323Y-148892207D01*
X74395577Y-148777949D01*
X74441322Y-148627146D01*
X74515609Y-148488167D01*
X74615579Y-148366353D01*
X74737393Y-148266383D01*
X74876372Y-148192096D01*
X74951774Y-148169223D01*
X75027174Y-148146351D01*
X75184000Y-148130905D01*
X75340827Y-148146351D01*
X75340827Y-148146351D01*
G37*
G36*
X80420827Y-148146351D02*
X80496227Y-148169223D01*
X80571629Y-148192096D01*
X80710608Y-148266383D01*
X80832422Y-148366353D01*
X80932392Y-148488167D01*
X81006679Y-148627146D01*
X81052424Y-148777949D01*
X81063678Y-148892207D01*
X81064000Y-148895482D01*
X81064000Y-149774068D01*
X81055537Y-149860000D01*
X81052424Y-149891601D01*
X81006679Y-150042404D01*
X80932392Y-150181383D01*
X80832425Y-150303194D01*
X80832423Y-150303195D01*
X80832422Y-150303197D01*
X80760594Y-150362144D01*
X80710604Y-150403169D01*
X80571628Y-150477454D01*
X80520379Y-150493000D01*
X80420826Y-150523199D01*
X80264000Y-150538645D01*
X80107173Y-150523199D01*
X80007620Y-150493000D01*
X79956371Y-150477454D01*
X79817392Y-150403167D01*
X79695581Y-150303200D01*
X79695580Y-150303198D01*
X79695578Y-150303197D01*
X79595607Y-150181380D01*
X79570256Y-150133953D01*
X79521321Y-150042403D01*
X79486117Y-149926351D01*
X79475576Y-149891601D01*
X79464000Y-149774067D01*
X79464000Y-148895482D01*
X79464323Y-148892207D01*
X79475577Y-148777949D01*
X79521322Y-148627146D01*
X79595609Y-148488167D01*
X79695579Y-148366353D01*
X79817393Y-148266383D01*
X79956372Y-148192096D01*
X80031774Y-148169223D01*
X80107174Y-148146351D01*
X80264000Y-148130905D01*
X80420827Y-148146351D01*
X80420827Y-148146351D01*
G37*
G36*
X77880827Y-148146351D02*
X77956227Y-148169223D01*
X78031629Y-148192096D01*
X78170608Y-148266383D01*
X78292422Y-148366353D01*
X78392392Y-148488167D01*
X78466679Y-148627146D01*
X78512424Y-148777949D01*
X78523678Y-148892207D01*
X78524000Y-148895482D01*
X78524000Y-149774068D01*
X78515537Y-149860000D01*
X78512424Y-149891601D01*
X78466679Y-150042404D01*
X78392392Y-150181383D01*
X78292425Y-150303194D01*
X78292423Y-150303195D01*
X78292422Y-150303197D01*
X78220594Y-150362144D01*
X78170604Y-150403169D01*
X78031628Y-150477454D01*
X77980379Y-150493000D01*
X77880826Y-150523199D01*
X77724000Y-150538645D01*
X77567173Y-150523199D01*
X77467620Y-150493000D01*
X77416371Y-150477454D01*
X77277392Y-150403167D01*
X77155581Y-150303200D01*
X77155580Y-150303198D01*
X77155578Y-150303197D01*
X77055607Y-150181380D01*
X77030256Y-150133953D01*
X76981321Y-150042403D01*
X76946117Y-149926351D01*
X76935576Y-149891601D01*
X76924000Y-149774067D01*
X76924000Y-148895482D01*
X76924323Y-148892207D01*
X76935577Y-148777949D01*
X76981322Y-148627146D01*
X77055609Y-148488167D01*
X77155579Y-148366353D01*
X77277393Y-148266383D01*
X77416372Y-148192096D01*
X77491774Y-148169223D01*
X77567174Y-148146351D01*
X77724000Y-148130905D01*
X77880827Y-148146351D01*
X77880827Y-148146351D01*
G37*
G36*
X72800827Y-148146351D02*
X72876227Y-148169223D01*
X72951629Y-148192096D01*
X73090608Y-148266383D01*
X73212422Y-148366353D01*
X73312392Y-148488167D01*
X73386679Y-148627146D01*
X73432424Y-148777949D01*
X73443678Y-148892207D01*
X73444000Y-148895482D01*
X73444000Y-149774068D01*
X73435537Y-149860000D01*
X73432424Y-149891601D01*
X73386679Y-150042404D01*
X73312392Y-150181383D01*
X73212425Y-150303194D01*
X73212423Y-150303195D01*
X73212422Y-150303197D01*
X73140594Y-150362144D01*
X73090604Y-150403169D01*
X72951628Y-150477454D01*
X72900379Y-150493000D01*
X72800826Y-150523199D01*
X72644000Y-150538645D01*
X72487173Y-150523199D01*
X72387620Y-150493000D01*
X72336371Y-150477454D01*
X72197392Y-150403167D01*
X72075581Y-150303200D01*
X72075580Y-150303198D01*
X72075578Y-150303197D01*
X71975607Y-150181380D01*
X71950256Y-150133953D01*
X71901321Y-150042403D01*
X71866117Y-149926351D01*
X71855576Y-149891601D01*
X71844000Y-149774067D01*
X71844000Y-148895482D01*
X71844323Y-148892207D01*
X71855577Y-148777949D01*
X71901322Y-148627146D01*
X71975609Y-148488167D01*
X72075579Y-148366353D01*
X72197393Y-148266383D01*
X72336372Y-148192096D01*
X72411774Y-148169223D01*
X72487174Y-148146351D01*
X72644000Y-148130905D01*
X72800827Y-148146351D01*
X72800827Y-148146351D01*
G37*
G36*
X94156432Y-148719022D02*
X94326081Y-148770485D01*
X94482433Y-148854056D01*
X94619475Y-148966525D01*
X94731944Y-149103567D01*
X94815515Y-149259919D01*
X94866978Y-149429568D01*
X94884354Y-149606000D01*
X94866978Y-149782432D01*
X94815515Y-149952081D01*
X94731944Y-150108433D01*
X94619475Y-150245475D01*
X94482433Y-150357944D01*
X94326081Y-150441515D01*
X94156432Y-150492978D01*
X94024211Y-150506000D01*
X93935789Y-150506000D01*
X93803568Y-150492978D01*
X93633919Y-150441515D01*
X93477567Y-150357944D01*
X93340525Y-150245475D01*
X93228056Y-150108433D01*
X93144485Y-149952081D01*
X93093022Y-149782432D01*
X93075646Y-149606000D01*
X93093022Y-149429568D01*
X93144485Y-149259919D01*
X93228056Y-149103567D01*
X93340525Y-148966525D01*
X93477567Y-148854056D01*
X93633919Y-148770485D01*
X93803568Y-148719022D01*
X93935789Y-148706000D01*
X94024211Y-148706000D01*
X94156432Y-148719022D01*
X94156432Y-148719022D01*
G37*
G36*
X83926352Y-148923743D02*
X84071941Y-148984048D01*
X84202973Y-149071601D01*
X84314399Y-149183027D01*
X84401952Y-149314059D01*
X84462257Y-149459648D01*
X84493000Y-149614205D01*
X84493000Y-149771795D01*
X84462257Y-149926352D01*
X84401952Y-150071941D01*
X84314399Y-150202973D01*
X84202973Y-150314399D01*
X84071941Y-150401952D01*
X83926352Y-150462257D01*
X83771795Y-150493000D01*
X83614205Y-150493000D01*
X83459648Y-150462257D01*
X83314059Y-150401952D01*
X83183027Y-150314399D01*
X83071601Y-150202973D01*
X82984048Y-150071941D01*
X82923743Y-149926352D01*
X82893000Y-149771795D01*
X82893000Y-149614205D01*
X82923743Y-149459648D01*
X82984048Y-149314059D01*
X83071601Y-149183027D01*
X83183027Y-149071601D01*
X83314059Y-148984048D01*
X83459648Y-148923743D01*
X83614205Y-148893000D01*
X83771795Y-148893000D01*
X83926352Y-148923743D01*
X83926352Y-148923743D01*
G37*
G36*
X86974352Y-148923743D02*
X87119941Y-148984048D01*
X87250973Y-149071601D01*
X87362399Y-149183027D01*
X87449952Y-149314059D01*
X87510257Y-149459648D01*
X87541000Y-149614205D01*
X87541000Y-149771795D01*
X87510257Y-149926352D01*
X87449952Y-150071941D01*
X87362399Y-150202973D01*
X87250973Y-150314399D01*
X87119941Y-150401952D01*
X86974352Y-150462257D01*
X86819795Y-150493000D01*
X86662205Y-150493000D01*
X86507648Y-150462257D01*
X86362059Y-150401952D01*
X86231027Y-150314399D01*
X86119601Y-150202973D01*
X86032048Y-150071941D01*
X85971743Y-149926352D01*
X85941000Y-149771795D01*
X85941000Y-149614205D01*
X85971743Y-149459648D01*
X86032048Y-149314059D01*
X86119601Y-149183027D01*
X86231027Y-149071601D01*
X86362059Y-148984048D01*
X86507648Y-148923743D01*
X86662205Y-148893000D01*
X86819795Y-148893000D01*
X86974352Y-148923743D01*
X86974352Y-148923743D01*
G37*
G36*
X65670000Y-150125000D02*
X63870000Y-150125000D01*
X63870000Y-148325000D01*
X65670000Y-148325000D01*
X65670000Y-150125000D01*
X65670000Y-150125000D01*
G37*
G36*
X57326432Y-148338022D02*
X57496081Y-148389485D01*
X57652433Y-148473056D01*
X57789475Y-148585525D01*
X57901944Y-148722567D01*
X57985515Y-148878919D01*
X58036978Y-149048568D01*
X58054354Y-149225000D01*
X58036978Y-149401432D01*
X57985515Y-149571081D01*
X57901944Y-149727433D01*
X57789475Y-149864475D01*
X57652433Y-149976944D01*
X57496081Y-150060515D01*
X57326432Y-150111978D01*
X57194211Y-150125000D01*
X57105789Y-150125000D01*
X56973568Y-150111978D01*
X56803919Y-150060515D01*
X56647567Y-149976944D01*
X56510525Y-149864475D01*
X56398056Y-149727433D01*
X56314485Y-149571081D01*
X56263022Y-149401432D01*
X56245646Y-149225000D01*
X56263022Y-149048568D01*
X56314485Y-148878919D01*
X56398056Y-148722567D01*
X56510525Y-148585525D01*
X56647567Y-148473056D01*
X56803919Y-148389485D01*
X56973568Y-148338022D01*
X57105789Y-148325000D01*
X57194211Y-148325000D01*
X57326432Y-148338022D01*
X57326432Y-148338022D01*
G37*
G36*
X54589352Y-148215743D02*
X54734941Y-148276048D01*
X54865973Y-148363601D01*
X54977399Y-148475027D01*
X55064952Y-148606059D01*
X55125257Y-148751648D01*
X55156000Y-148906205D01*
X55156000Y-149063795D01*
X55125257Y-149218352D01*
X55064952Y-149363941D01*
X54977399Y-149494973D01*
X54865973Y-149606399D01*
X54734941Y-149693952D01*
X54589352Y-149754257D01*
X54434795Y-149785000D01*
X54277205Y-149785000D01*
X54122648Y-149754257D01*
X53977059Y-149693952D01*
X53846027Y-149606399D01*
X53734601Y-149494973D01*
X53647048Y-149363941D01*
X53586743Y-149218352D01*
X53556000Y-149063795D01*
X53556000Y-148906205D01*
X53586743Y-148751648D01*
X53647048Y-148606059D01*
X53734601Y-148475027D01*
X53846027Y-148363601D01*
X53977059Y-148276048D01*
X54122648Y-148215743D01*
X54277205Y-148185000D01*
X54434795Y-148185000D01*
X54589352Y-148215743D01*
X54589352Y-148215743D01*
G37*
G36*
X51795352Y-148201743D02*
X51940941Y-148262048D01*
X52071973Y-148349601D01*
X52183399Y-148461027D01*
X52270952Y-148592059D01*
X52331257Y-148737648D01*
X52362000Y-148892205D01*
X52362000Y-149049795D01*
X52331257Y-149204352D01*
X52270952Y-149349941D01*
X52183399Y-149480973D01*
X52071973Y-149592399D01*
X51940941Y-149679952D01*
X51795352Y-149740257D01*
X51640795Y-149771000D01*
X51483205Y-149771000D01*
X51328648Y-149740257D01*
X51183059Y-149679952D01*
X51052027Y-149592399D01*
X50940601Y-149480973D01*
X50853048Y-149349941D01*
X50792743Y-149204352D01*
X50762000Y-149049795D01*
X50762000Y-148892205D01*
X50792743Y-148737648D01*
X50853048Y-148592059D01*
X50940601Y-148461027D01*
X51052027Y-148349601D01*
X51183059Y-148262048D01*
X51328648Y-148201743D01*
X51483205Y-148171000D01*
X51640795Y-148171000D01*
X51795352Y-148201743D01*
X51795352Y-148201743D01*
G37*
G36*
X86974352Y-146423743D02*
X87119941Y-146484048D01*
X87250973Y-146571601D01*
X87362399Y-146683027D01*
X87449952Y-146814059D01*
X87510257Y-146959648D01*
X87541000Y-147114205D01*
X87541000Y-147271795D01*
X87510257Y-147426352D01*
X87449952Y-147571941D01*
X87362399Y-147702973D01*
X87250973Y-147814399D01*
X87119941Y-147901952D01*
X86974352Y-147962257D01*
X86819795Y-147993000D01*
X86662205Y-147993000D01*
X86507648Y-147962257D01*
X86362059Y-147901952D01*
X86231027Y-147814399D01*
X86119601Y-147702973D01*
X86032048Y-147571941D01*
X85971743Y-147426352D01*
X85941000Y-147271795D01*
X85941000Y-147114205D01*
X85971743Y-146959648D01*
X86032048Y-146814059D01*
X86119601Y-146683027D01*
X86231027Y-146571601D01*
X86362059Y-146484048D01*
X86507648Y-146423743D01*
X86662205Y-146393000D01*
X86819795Y-146393000D01*
X86974352Y-146423743D01*
X86974352Y-146423743D01*
G37*
G36*
X83926352Y-146423743D02*
X84071941Y-146484048D01*
X84202973Y-146571601D01*
X84314399Y-146683027D01*
X84401952Y-146814059D01*
X84462257Y-146959648D01*
X84493000Y-147114205D01*
X84493000Y-147271795D01*
X84462257Y-147426352D01*
X84401952Y-147571941D01*
X84314399Y-147702973D01*
X84202973Y-147814399D01*
X84071941Y-147901952D01*
X83926352Y-147962257D01*
X83771795Y-147993000D01*
X83614205Y-147993000D01*
X83459648Y-147962257D01*
X83314059Y-147901952D01*
X83183027Y-147814399D01*
X83071601Y-147702973D01*
X82984048Y-147571941D01*
X82923743Y-147426352D01*
X82893000Y-147271795D01*
X82893000Y-147114205D01*
X82923743Y-146959648D01*
X82984048Y-146814059D01*
X83071601Y-146683027D01*
X83183027Y-146571601D01*
X83314059Y-146484048D01*
X83459648Y-146423743D01*
X83614205Y-146393000D01*
X83771795Y-146393000D01*
X83926352Y-146423743D01*
X83926352Y-146423743D01*
G37*
G36*
X47445500Y-146251500D02*
X45645500Y-146251500D01*
X45645500Y-144451500D01*
X47445500Y-144451500D01*
X47445500Y-146251500D01*
X47445500Y-146251500D01*
G37*
G36*
X49348021Y-144486086D02*
X49511809Y-144553929D01*
X49659220Y-144652426D01*
X49784574Y-144777780D01*
X49883071Y-144925191D01*
X49950914Y-145088979D01*
X49985500Y-145262856D01*
X49985500Y-145440144D01*
X49950914Y-145614021D01*
X49883071Y-145777809D01*
X49784574Y-145925220D01*
X49659220Y-146050574D01*
X49511809Y-146149071D01*
X49348021Y-146216914D01*
X49174144Y-146251500D01*
X48996856Y-146251500D01*
X48822979Y-146216914D01*
X48659191Y-146149071D01*
X48511780Y-146050574D01*
X48386426Y-145925220D01*
X48287929Y-145777809D01*
X48220086Y-145614021D01*
X48185500Y-145440144D01*
X48185500Y-145262856D01*
X48220086Y-145088979D01*
X48287929Y-144925191D01*
X48386426Y-144777780D01*
X48511780Y-144652426D01*
X48659191Y-144553929D01*
X48822979Y-144486086D01*
X48996856Y-144451500D01*
X49174144Y-144451500D01*
X49348021Y-144486086D01*
X49348021Y-144486086D01*
G37*
G36*
X104256985Y-142595621D02*
X104411734Y-142610862D01*
X104600940Y-142668257D01*
X104709566Y-142701208D01*
X104782923Y-142740419D01*
X104984048Y-142847922D01*
X105224634Y-143045366D01*
X105422078Y-143285952D01*
X105529581Y-143487077D01*
X105568792Y-143560434D01*
X105568792Y-143560435D01*
X105659138Y-143858266D01*
X105689644Y-144168000D01*
X105659138Y-144477734D01*
X105627936Y-144580592D01*
X105568792Y-144775566D01*
X105529581Y-144848923D01*
X105422078Y-145050048D01*
X105224634Y-145290634D01*
X104984048Y-145488078D01*
X104782923Y-145595581D01*
X104709566Y-145634792D01*
X104610288Y-145664907D01*
X104411734Y-145725138D01*
X104256985Y-145740379D01*
X104179612Y-145748000D01*
X103084388Y-145748000D01*
X103007015Y-145740379D01*
X102852266Y-145725138D01*
X102653712Y-145664907D01*
X102554434Y-145634792D01*
X102481077Y-145595581D01*
X102279952Y-145488078D01*
X102039366Y-145290634D01*
X101841922Y-145050048D01*
X101734419Y-144848923D01*
X101695208Y-144775566D01*
X101636064Y-144580592D01*
X101604862Y-144477734D01*
X101574356Y-144168000D01*
X101604862Y-143858266D01*
X101695208Y-143560435D01*
X101695208Y-143560434D01*
X101734419Y-143487077D01*
X101841922Y-143285952D01*
X102039366Y-143045366D01*
X102279952Y-142847922D01*
X102481077Y-142740419D01*
X102554434Y-142701208D01*
X102663060Y-142668257D01*
X102852266Y-142610862D01*
X103007015Y-142595621D01*
X103084388Y-142588000D01*
X104179612Y-142588000D01*
X104256985Y-142595621D01*
X104256985Y-142595621D01*
G37*
G36*
X70054183Y-144111675D02*
X70170046Y-144159668D01*
X70181574Y-144164443D01*
X70289078Y-144236274D01*
X70296225Y-144241050D01*
X70393725Y-144338550D01*
X70470332Y-144453201D01*
X70523100Y-144580592D01*
X70550000Y-144715830D01*
X70550000Y-144853720D01*
X70523100Y-144988958D01*
X70481669Y-145088979D01*
X70470332Y-145116349D01*
X70396917Y-145226224D01*
X70393725Y-145231000D01*
X70296225Y-145328500D01*
X70181574Y-145405107D01*
X70054183Y-145457875D01*
X69918945Y-145484775D01*
X69781055Y-145484775D01*
X69645817Y-145457875D01*
X69518426Y-145405107D01*
X69403775Y-145328500D01*
X69306275Y-145231000D01*
X69303084Y-145226224D01*
X69229668Y-145116349D01*
X69218331Y-145088979D01*
X69176900Y-144988958D01*
X69150000Y-144853720D01*
X69150000Y-144715830D01*
X69176900Y-144580592D01*
X69229668Y-144453201D01*
X69306275Y-144338550D01*
X69403775Y-144241050D01*
X69410923Y-144236274D01*
X69518426Y-144164443D01*
X69529954Y-144159668D01*
X69645817Y-144111675D01*
X69781055Y-144084775D01*
X69918945Y-144084775D01*
X70054183Y-144111675D01*
X70054183Y-144111675D01*
G37*
G36*
X67641183Y-144106900D02*
X67768574Y-144159668D01*
X67883224Y-144236274D01*
X67980726Y-144333776D01*
X68057332Y-144448426D01*
X68110100Y-144575817D01*
X68137000Y-144711055D01*
X68137000Y-144848945D01*
X68110100Y-144984183D01*
X68066691Y-145088979D01*
X68057332Y-145111574D01*
X67980726Y-145226224D01*
X67883224Y-145323726D01*
X67768574Y-145400332D01*
X67641183Y-145453100D01*
X67505945Y-145480000D01*
X67368055Y-145480000D01*
X67232817Y-145453100D01*
X67105426Y-145400332D01*
X66990776Y-145323726D01*
X66893274Y-145226224D01*
X66816668Y-145111574D01*
X66807309Y-145088979D01*
X66763900Y-144984183D01*
X66737000Y-144848945D01*
X66737000Y-144711055D01*
X66763900Y-144575817D01*
X66816668Y-144448426D01*
X66893274Y-144333776D01*
X66990776Y-144236274D01*
X67105426Y-144159668D01*
X67232817Y-144106900D01*
X67368055Y-144080000D01*
X67505945Y-144080000D01*
X67641183Y-144106900D01*
X67641183Y-144106900D01*
G37*
G36*
X89133352Y-143629743D02*
X89278941Y-143690048D01*
X89409973Y-143777601D01*
X89521399Y-143889027D01*
X89608952Y-144020059D01*
X89669257Y-144165648D01*
X89700000Y-144320205D01*
X89700000Y-144477795D01*
X89669257Y-144632352D01*
X89608952Y-144777941D01*
X89521399Y-144908973D01*
X89409973Y-145020399D01*
X89278941Y-145107952D01*
X89133352Y-145168257D01*
X88978795Y-145199000D01*
X88821205Y-145199000D01*
X88666648Y-145168257D01*
X88521059Y-145107952D01*
X88390027Y-145020399D01*
X88278601Y-144908973D01*
X88191048Y-144777941D01*
X88130743Y-144632352D01*
X88100000Y-144477795D01*
X88100000Y-144320205D01*
X88130743Y-144165648D01*
X88191048Y-144020059D01*
X88278601Y-143889027D01*
X88390027Y-143777601D01*
X88521059Y-143690048D01*
X88666648Y-143629743D01*
X88821205Y-143599000D01*
X88978795Y-143599000D01*
X89133352Y-143629743D01*
X89133352Y-143629743D01*
G37*
G36*
X85509000Y-144691000D02*
X83909000Y-144691000D01*
X83909000Y-143091000D01*
X85509000Y-143091000D01*
X85509000Y-144691000D01*
X85509000Y-144691000D01*
G37*
G36*
X60264352Y-139946743D02*
X60409941Y-140007048D01*
X60540973Y-140094601D01*
X60652399Y-140206027D01*
X60739952Y-140337059D01*
X60800257Y-140482648D01*
X60831000Y-140637205D01*
X60831000Y-140794795D01*
X60800257Y-140949352D01*
X60739952Y-141094941D01*
X60652399Y-141225973D01*
X60575760Y-141302612D01*
X60560214Y-141321554D01*
X60548663Y-141343165D01*
X60541550Y-141366614D01*
X60539148Y-141391000D01*
X60541550Y-141415386D01*
X60548663Y-141438835D01*
X60560214Y-141460446D01*
X60575760Y-141479388D01*
X60594702Y-141494934D01*
X60616313Y-141506485D01*
X60639762Y-141513598D01*
X60664148Y-141516000D01*
X60780732Y-141516000D01*
X60935289Y-141546743D01*
X61080878Y-141607048D01*
X61211910Y-141694601D01*
X61323336Y-141806027D01*
X61410889Y-141937059D01*
X61471194Y-142082648D01*
X61501937Y-142237205D01*
X61501937Y-142394795D01*
X61471194Y-142549352D01*
X61410889Y-142694941D01*
X61323336Y-142825973D01*
X61211910Y-142937399D01*
X61080878Y-143024952D01*
X60935289Y-143085257D01*
X60780732Y-143116000D01*
X60623142Y-143116000D01*
X60468585Y-143085257D01*
X60322996Y-143024952D01*
X60191964Y-142937399D01*
X60080538Y-142825973D01*
X59992985Y-142694941D01*
X59932680Y-142549352D01*
X59901937Y-142394795D01*
X59901937Y-142237205D01*
X59932680Y-142082648D01*
X59992985Y-141937059D01*
X60080538Y-141806027D01*
X60157177Y-141729388D01*
X60172723Y-141710446D01*
X60184274Y-141688835D01*
X60191387Y-141665386D01*
X60193789Y-141641000D01*
X60191387Y-141616614D01*
X60184274Y-141593165D01*
X60172723Y-141571554D01*
X60157177Y-141552612D01*
X60138235Y-141537066D01*
X60116624Y-141525515D01*
X60093175Y-141518402D01*
X60068789Y-141516000D01*
X59952205Y-141516000D01*
X59797648Y-141485257D01*
X59652059Y-141424952D01*
X59521027Y-141337399D01*
X59409601Y-141225973D01*
X59322048Y-141094941D01*
X59261743Y-140949352D01*
X59231000Y-140794795D01*
X59231000Y-140637205D01*
X59261743Y-140482648D01*
X59322048Y-140337059D01*
X59409601Y-140206027D01*
X59521027Y-140094601D01*
X59652059Y-140007048D01*
X59797648Y-139946743D01*
X59952205Y-139916000D01*
X60109795Y-139916000D01*
X60264352Y-139946743D01*
X60264352Y-139946743D01*
G37*
G36*
X77880827Y-140526351D02*
X77956227Y-140549223D01*
X78031629Y-140572096D01*
X78170608Y-140646383D01*
X78292422Y-140746353D01*
X78392392Y-140868167D01*
X78466679Y-141007146D01*
X78489432Y-141082155D01*
X78511547Y-141155056D01*
X78512424Y-141157949D01*
X78524000Y-141275480D01*
X78524000Y-142154070D01*
X78512424Y-142271601D01*
X78466679Y-142422404D01*
X78392392Y-142561383D01*
X78292425Y-142683194D01*
X78292423Y-142683195D01*
X78292422Y-142683197D01*
X78270475Y-142701208D01*
X78170604Y-142783169D01*
X78031628Y-142857454D01*
X77956227Y-142880326D01*
X77880826Y-142903199D01*
X77724000Y-142918645D01*
X77567173Y-142903199D01*
X77491773Y-142880327D01*
X77416371Y-142857454D01*
X77277392Y-142783167D01*
X77155581Y-142683200D01*
X77155580Y-142683198D01*
X77155578Y-142683197D01*
X77055607Y-142561380D01*
X77055606Y-142561379D01*
X76981321Y-142422403D01*
X76937499Y-142277941D01*
X76935576Y-142271601D01*
X76931417Y-142229369D01*
X76924000Y-142154069D01*
X76924000Y-141275481D01*
X76935577Y-141157949D01*
X76936455Y-141155056D01*
X76958569Y-141082155D01*
X76981322Y-141007146D01*
X77055609Y-140868167D01*
X77155579Y-140746353D01*
X77277393Y-140646383D01*
X77416372Y-140572096D01*
X77491774Y-140549223D01*
X77567174Y-140526351D01*
X77724000Y-140510905D01*
X77880827Y-140526351D01*
X77880827Y-140526351D01*
G37*
G36*
X72800827Y-140526351D02*
X72876227Y-140549223D01*
X72951629Y-140572096D01*
X73090608Y-140646383D01*
X73212422Y-140746353D01*
X73312392Y-140868167D01*
X73386679Y-141007146D01*
X73409432Y-141082155D01*
X73431547Y-141155056D01*
X73432424Y-141157949D01*
X73444000Y-141275480D01*
X73444000Y-142154070D01*
X73432424Y-142271601D01*
X73386679Y-142422404D01*
X73312392Y-142561383D01*
X73212425Y-142683194D01*
X73212423Y-142683195D01*
X73212422Y-142683197D01*
X73190475Y-142701208D01*
X73090604Y-142783169D01*
X72951628Y-142857454D01*
X72876227Y-142880326D01*
X72800826Y-142903199D01*
X72644000Y-142918645D01*
X72487173Y-142903199D01*
X72411773Y-142880327D01*
X72336371Y-142857454D01*
X72197392Y-142783167D01*
X72075581Y-142683200D01*
X72075580Y-142683198D01*
X72075578Y-142683197D01*
X71975607Y-142561380D01*
X71975606Y-142561379D01*
X71901321Y-142422403D01*
X71857499Y-142277941D01*
X71855576Y-142271601D01*
X71851417Y-142229369D01*
X71844000Y-142154069D01*
X71844000Y-141275481D01*
X71855577Y-141157949D01*
X71856455Y-141155056D01*
X71878569Y-141082155D01*
X71901322Y-141007146D01*
X71975609Y-140868167D01*
X72075579Y-140746353D01*
X72197393Y-140646383D01*
X72336372Y-140572096D01*
X72411774Y-140549223D01*
X72487174Y-140526351D01*
X72644000Y-140510905D01*
X72800827Y-140526351D01*
X72800827Y-140526351D01*
G37*
G36*
X75340827Y-140526351D02*
X75416227Y-140549223D01*
X75491629Y-140572096D01*
X75630608Y-140646383D01*
X75752422Y-140746353D01*
X75852392Y-140868167D01*
X75926679Y-141007146D01*
X75949432Y-141082155D01*
X75971547Y-141155056D01*
X75972424Y-141157949D01*
X75984000Y-141275480D01*
X75984000Y-142154070D01*
X75972424Y-142271601D01*
X75926679Y-142422404D01*
X75852392Y-142561383D01*
X75752425Y-142683194D01*
X75752423Y-142683195D01*
X75752422Y-142683197D01*
X75730475Y-142701208D01*
X75630604Y-142783169D01*
X75491628Y-142857454D01*
X75416227Y-142880326D01*
X75340826Y-142903199D01*
X75184000Y-142918645D01*
X75027173Y-142903199D01*
X74951773Y-142880327D01*
X74876371Y-142857454D01*
X74737392Y-142783167D01*
X74615581Y-142683200D01*
X74615580Y-142683198D01*
X74615578Y-142683197D01*
X74515607Y-142561380D01*
X74515606Y-142561379D01*
X74441321Y-142422403D01*
X74397499Y-142277941D01*
X74395576Y-142271601D01*
X74391417Y-142229369D01*
X74384000Y-142154069D01*
X74384000Y-141275481D01*
X74395577Y-141157949D01*
X74396455Y-141155056D01*
X74418569Y-141082155D01*
X74441322Y-141007146D01*
X74515609Y-140868167D01*
X74615579Y-140746353D01*
X74737393Y-140646383D01*
X74876372Y-140572096D01*
X74951774Y-140549223D01*
X75027174Y-140526351D01*
X75184000Y-140510905D01*
X75340827Y-140526351D01*
X75340827Y-140526351D01*
G37*
G36*
X81064000Y-142914775D02*
X79464000Y-142914775D01*
X79464000Y-140514775D01*
X81064000Y-140514775D01*
X81064000Y-142914775D01*
X81064000Y-142914775D01*
G37*
G36*
X94880000Y-142886000D02*
X93080000Y-142886000D01*
X93080000Y-141086000D01*
X94880000Y-141086000D01*
X94880000Y-142886000D01*
X94880000Y-142886000D01*
G37*
G36*
X89133352Y-141129743D02*
X89278941Y-141190048D01*
X89409973Y-141277601D01*
X89521399Y-141389027D01*
X89608952Y-141520059D01*
X89669257Y-141665648D01*
X89700000Y-141820205D01*
X89700000Y-141977795D01*
X89669257Y-142132352D01*
X89608952Y-142277941D01*
X89521399Y-142408973D01*
X89409973Y-142520399D01*
X89278941Y-142607952D01*
X89133352Y-142668257D01*
X88978795Y-142699000D01*
X88821205Y-142699000D01*
X88666648Y-142668257D01*
X88521059Y-142607952D01*
X88390027Y-142520399D01*
X88278601Y-142408973D01*
X88191048Y-142277941D01*
X88130743Y-142132352D01*
X88100000Y-141977795D01*
X88100000Y-141820205D01*
X88130743Y-141665648D01*
X88191048Y-141520059D01*
X88278601Y-141389027D01*
X88390027Y-141277601D01*
X88521059Y-141190048D01*
X88666648Y-141129743D01*
X88821205Y-141099000D01*
X88978795Y-141099000D01*
X89133352Y-141129743D01*
X89133352Y-141129743D01*
G37*
G36*
X46432183Y-141058900D02*
X46559574Y-141111668D01*
X46674224Y-141188274D01*
X46771726Y-141285776D01*
X46842034Y-141391000D01*
X46848332Y-141400426D01*
X46901100Y-141527817D01*
X46928000Y-141663055D01*
X46928000Y-141800945D01*
X46901100Y-141936183D01*
X46848332Y-142063574D01*
X46771726Y-142178224D01*
X46674224Y-142275726D01*
X46559574Y-142352332D01*
X46432183Y-142405100D01*
X46296945Y-142432000D01*
X46159055Y-142432000D01*
X46023817Y-142405100D01*
X45896426Y-142352332D01*
X45781776Y-142275726D01*
X45684274Y-142178224D01*
X45607668Y-142063574D01*
X45554900Y-141936183D01*
X45528000Y-141800945D01*
X45528000Y-141663055D01*
X45554900Y-141527817D01*
X45607668Y-141400426D01*
X45613966Y-141391000D01*
X45684274Y-141285776D01*
X45781776Y-141188274D01*
X45896426Y-141111668D01*
X46023817Y-141058900D01*
X46159055Y-141032000D01*
X46296945Y-141032000D01*
X46432183Y-141058900D01*
X46432183Y-141058900D01*
G37*
G36*
X51445224Y-141042128D02*
X51577175Y-141082155D01*
X51698781Y-141147155D01*
X51805370Y-141234630D01*
X51892845Y-141341219D01*
X51957845Y-141462825D01*
X51997872Y-141594776D01*
X52011387Y-141732000D01*
X51997872Y-141869224D01*
X51957845Y-142001175D01*
X51892845Y-142122781D01*
X51805370Y-142229370D01*
X51698781Y-142316845D01*
X51577175Y-142381845D01*
X51445224Y-142421872D01*
X51342390Y-142432000D01*
X51273610Y-142432000D01*
X51170776Y-142421872D01*
X51038825Y-142381845D01*
X50917219Y-142316845D01*
X50810630Y-142229370D01*
X50723155Y-142122781D01*
X50658155Y-142001175D01*
X50618128Y-141869224D01*
X50604613Y-141732000D01*
X50618128Y-141594776D01*
X50658155Y-141462825D01*
X50723155Y-141341219D01*
X50810630Y-141234630D01*
X50917219Y-141147155D01*
X51038825Y-141082155D01*
X51170776Y-141042128D01*
X51273610Y-141032000D01*
X51342390Y-141032000D01*
X51445224Y-141042128D01*
X51445224Y-141042128D01*
G37*
G36*
X84942352Y-140621743D02*
X85087941Y-140682048D01*
X85218973Y-140769601D01*
X85330399Y-140881027D01*
X85417952Y-141012059D01*
X85478257Y-141157648D01*
X85509000Y-141312205D01*
X85509000Y-141469795D01*
X85478257Y-141624352D01*
X85417952Y-141769941D01*
X85330399Y-141900973D01*
X85218973Y-142012399D01*
X85087941Y-142099952D01*
X84942352Y-142160257D01*
X84787795Y-142191000D01*
X84630205Y-142191000D01*
X84475648Y-142160257D01*
X84330059Y-142099952D01*
X84199027Y-142012399D01*
X84087601Y-141900973D01*
X84000048Y-141769941D01*
X83939743Y-141624352D01*
X83909000Y-141469795D01*
X83909000Y-141312205D01*
X83939743Y-141157648D01*
X84000048Y-141012059D01*
X84087601Y-140881027D01*
X84199027Y-140769601D01*
X84330059Y-140682048D01*
X84475648Y-140621743D01*
X84630205Y-140591000D01*
X84787795Y-140591000D01*
X84942352Y-140621743D01*
X84942352Y-140621743D01*
G37*
G36*
X97105183Y-140550900D02*
X97232574Y-140603668D01*
X97347224Y-140680274D01*
X97444726Y-140777776D01*
X97521332Y-140892426D01*
X97574100Y-141019817D01*
X97601000Y-141155055D01*
X97601000Y-141292945D01*
X97574100Y-141428183D01*
X97532829Y-141527818D01*
X97521332Y-141555574D01*
X97444726Y-141670224D01*
X97347224Y-141767726D01*
X97268683Y-141820205D01*
X97232574Y-141844332D01*
X97105183Y-141897100D01*
X96969945Y-141924000D01*
X96832055Y-141924000D01*
X96696817Y-141897100D01*
X96569426Y-141844332D01*
X96533317Y-141820205D01*
X96454776Y-141767726D01*
X96357274Y-141670224D01*
X96280668Y-141555574D01*
X96269171Y-141527818D01*
X96227900Y-141428183D01*
X96201000Y-141292945D01*
X96201000Y-141155055D01*
X96227900Y-141019817D01*
X96280668Y-140892426D01*
X96357274Y-140777776D01*
X96454776Y-140680274D01*
X96569426Y-140603668D01*
X96696817Y-140550900D01*
X96832055Y-140524000D01*
X96969945Y-140524000D01*
X97105183Y-140550900D01*
X97105183Y-140550900D01*
G37*
G36*
X105565662Y-138631367D02*
X105592635Y-138639549D01*
X105617490Y-138652835D01*
X105639281Y-138670719D01*
X105657165Y-138692510D01*
X105670451Y-138717365D01*
X105678633Y-138744338D01*
X105682000Y-138778530D01*
X105682000Y-141637470D01*
X105678633Y-141671662D01*
X105670451Y-141698635D01*
X105657165Y-141723490D01*
X105639281Y-141745281D01*
X105617490Y-141763165D01*
X105592635Y-141776451D01*
X105565662Y-141784633D01*
X105531470Y-141788000D01*
X101732530Y-141788000D01*
X101698338Y-141784633D01*
X101671365Y-141776451D01*
X101646510Y-141763165D01*
X101624719Y-141745281D01*
X101606835Y-141723490D01*
X101593549Y-141698635D01*
X101585367Y-141671662D01*
X101582000Y-141637470D01*
X101582000Y-138778530D01*
X101585367Y-138744338D01*
X101593549Y-138717365D01*
X101606835Y-138692510D01*
X101624719Y-138670719D01*
X101646510Y-138652835D01*
X101671365Y-138639549D01*
X101698338Y-138631367D01*
X101732530Y-138628000D01*
X105531470Y-138628000D01*
X105565662Y-138631367D01*
X105565662Y-138631367D01*
G37*
G36*
X57660063Y-139791000D02*
X57662465Y-139815386D01*
X57669578Y-139838835D01*
X57681129Y-139860446D01*
X57696675Y-139879388D01*
X57715617Y-139894934D01*
X57737228Y-139906485D01*
X57760677Y-139913598D01*
X57785063Y-139916000D01*
X58331000Y-139916000D01*
X58331000Y-141516000D01*
X56731000Y-141516000D01*
X56731000Y-140041000D01*
X56728598Y-140016614D01*
X56721485Y-139993165D01*
X56709934Y-139971554D01*
X56694388Y-139952612D01*
X56675446Y-139937066D01*
X56653835Y-139925515D01*
X56630386Y-139918402D01*
X56606000Y-139916000D01*
X56060063Y-139916000D01*
X56060063Y-138316000D01*
X57660063Y-138316000D01*
X57660063Y-139791000D01*
X57660063Y-139791000D01*
G37*
G36*
X83516183Y-137375900D02*
X83643574Y-137428668D01*
X83752383Y-137501371D01*
X83758225Y-137505275D01*
X83855725Y-137602775D01*
X83932332Y-137717426D01*
X83985100Y-137844817D01*
X84012000Y-137980055D01*
X84012000Y-138117945D01*
X83985100Y-138253183D01*
X83933329Y-138378168D01*
X83932332Y-138380574D01*
X83855726Y-138495224D01*
X83758224Y-138592726D01*
X83688148Y-138639549D01*
X83643574Y-138669332D01*
X83516183Y-138722100D01*
X83380945Y-138749000D01*
X83243055Y-138749000D01*
X83107817Y-138722100D01*
X82980426Y-138669332D01*
X82935852Y-138639549D01*
X82865776Y-138592726D01*
X82768274Y-138495224D01*
X82691668Y-138380574D01*
X82690671Y-138378168D01*
X82638900Y-138253183D01*
X82612000Y-138117945D01*
X82612000Y-137980055D01*
X82638900Y-137844817D01*
X82691668Y-137717426D01*
X82768275Y-137602775D01*
X82865775Y-137505275D01*
X82871618Y-137501371D01*
X82980426Y-137428668D01*
X83107817Y-137375900D01*
X83243055Y-137349000D01*
X83380945Y-137349000D01*
X83516183Y-137375900D01*
X83516183Y-137375900D01*
G37*
G36*
X78369224Y-137359128D02*
X78501175Y-137399155D01*
X78622781Y-137464155D01*
X78729370Y-137551630D01*
X78816845Y-137658219D01*
X78881845Y-137779825D01*
X78921872Y-137911776D01*
X78935387Y-138049000D01*
X78921872Y-138186224D01*
X78881845Y-138318175D01*
X78816845Y-138439781D01*
X78729370Y-138546370D01*
X78622781Y-138633845D01*
X78501175Y-138698845D01*
X78369224Y-138738872D01*
X78266390Y-138749000D01*
X78197610Y-138749000D01*
X78094776Y-138738872D01*
X77962825Y-138698845D01*
X77841219Y-138633845D01*
X77734630Y-138546370D01*
X77647155Y-138439781D01*
X77582155Y-138318175D01*
X77542128Y-138186224D01*
X77528613Y-138049000D01*
X77542128Y-137911776D01*
X77582155Y-137779825D01*
X77647155Y-137658219D01*
X77734630Y-137551630D01*
X77841219Y-137464155D01*
X77962825Y-137399155D01*
X78094776Y-137359128D01*
X78197610Y-137349000D01*
X78266390Y-137349000D01*
X78369224Y-137359128D01*
X78369224Y-137359128D01*
G37*
G36*
X74366723Y-136613782D02*
X74546268Y-136668247D01*
X74711741Y-136756693D01*
X74856778Y-136875722D01*
X74975807Y-137020759D01*
X75064253Y-137186231D01*
X75118718Y-137365776D01*
X75132500Y-137505711D01*
X75132500Y-137694288D01*
X75118718Y-137834223D01*
X75064253Y-138013768D01*
X74975807Y-138179241D01*
X74856778Y-138324278D01*
X74711741Y-138443307D01*
X74546269Y-138531753D01*
X74366724Y-138586218D01*
X74180000Y-138604608D01*
X73993277Y-138586218D01*
X73813732Y-138531753D01*
X73648264Y-138443309D01*
X73648263Y-138443308D01*
X73648259Y-138443306D01*
X73503222Y-138324278D01*
X73503221Y-138324276D01*
X73503219Y-138324275D01*
X73384193Y-138179241D01*
X73295747Y-138013769D01*
X73241282Y-137834224D01*
X73227500Y-137694289D01*
X73227500Y-137505712D01*
X73241282Y-137365777D01*
X73295747Y-137186232D01*
X73384193Y-137020759D01*
X73503222Y-136875722D01*
X73648259Y-136756693D01*
X73813731Y-136668247D01*
X73993276Y-136613782D01*
X74180000Y-136595392D01*
X74366723Y-136613782D01*
X74366723Y-136613782D01*
G37*
G36*
X71826723Y-136613782D02*
X72006268Y-136668247D01*
X72171741Y-136756693D01*
X72316778Y-136875722D01*
X72435807Y-137020759D01*
X72524253Y-137186231D01*
X72578718Y-137365776D01*
X72592500Y-137505711D01*
X72592500Y-137694288D01*
X72578718Y-137834223D01*
X72524253Y-138013768D01*
X72435807Y-138179241D01*
X72316778Y-138324278D01*
X72171741Y-138443307D01*
X72006269Y-138531753D01*
X71826724Y-138586218D01*
X71640000Y-138604608D01*
X71453277Y-138586218D01*
X71273732Y-138531753D01*
X71108264Y-138443309D01*
X71108263Y-138443308D01*
X71108259Y-138443306D01*
X70963222Y-138324278D01*
X70963221Y-138324276D01*
X70963219Y-138324275D01*
X70844193Y-138179241D01*
X70755747Y-138013769D01*
X70701282Y-137834224D01*
X70687500Y-137694289D01*
X70687500Y-137505712D01*
X70701282Y-137365777D01*
X70755747Y-137186232D01*
X70844193Y-137020759D01*
X70963222Y-136875722D01*
X71108259Y-136756693D01*
X71273731Y-136668247D01*
X71453276Y-136613782D01*
X71640000Y-136595392D01*
X71826723Y-136613782D01*
X71826723Y-136613782D01*
G37*
G36*
X92786723Y-136613782D02*
X92966268Y-136668247D01*
X93131741Y-136756693D01*
X93276778Y-136875722D01*
X93395807Y-137020759D01*
X93484253Y-137186231D01*
X93538718Y-137365776D01*
X93552500Y-137505711D01*
X93552500Y-137694288D01*
X93538718Y-137834223D01*
X93484253Y-138013768D01*
X93395807Y-138179241D01*
X93276778Y-138324278D01*
X93131741Y-138443307D01*
X92966269Y-138531753D01*
X92786724Y-138586218D01*
X92600000Y-138604608D01*
X92413277Y-138586218D01*
X92233732Y-138531753D01*
X92068264Y-138443309D01*
X92068263Y-138443308D01*
X92068259Y-138443306D01*
X91923222Y-138324278D01*
X91923221Y-138324276D01*
X91923219Y-138324275D01*
X91804193Y-138179241D01*
X91715747Y-138013769D01*
X91661282Y-137834224D01*
X91647500Y-137694289D01*
X91647500Y-137505712D01*
X91661282Y-137365777D01*
X91715747Y-137186232D01*
X91804193Y-137020759D01*
X91923222Y-136875722D01*
X92068259Y-136756693D01*
X92233731Y-136668247D01*
X92413276Y-136613782D01*
X92600000Y-136595392D01*
X92786723Y-136613782D01*
X92786723Y-136613782D01*
G37*
G36*
X90246723Y-136613782D02*
X90426268Y-136668247D01*
X90591741Y-136756693D01*
X90736778Y-136875722D01*
X90855807Y-137020759D01*
X90944253Y-137186231D01*
X90998718Y-137365776D01*
X91012500Y-137505711D01*
X91012500Y-137694288D01*
X90998718Y-137834223D01*
X90944253Y-138013768D01*
X90855807Y-138179241D01*
X90736778Y-138324278D01*
X90591741Y-138443307D01*
X90426269Y-138531753D01*
X90246724Y-138586218D01*
X90060000Y-138604608D01*
X89873277Y-138586218D01*
X89693732Y-138531753D01*
X89528264Y-138443309D01*
X89528263Y-138443308D01*
X89528259Y-138443306D01*
X89383222Y-138324278D01*
X89383221Y-138324276D01*
X89383219Y-138324275D01*
X89264193Y-138179241D01*
X89175747Y-138013769D01*
X89121282Y-137834224D01*
X89107500Y-137694289D01*
X89107500Y-137505712D01*
X89121282Y-137365777D01*
X89175747Y-137186232D01*
X89264193Y-137020759D01*
X89383222Y-136875722D01*
X89528259Y-136756693D01*
X89693731Y-136668247D01*
X89873276Y-136613782D01*
X90060000Y-136595392D01*
X90246723Y-136613782D01*
X90246723Y-136613782D01*
G37*
G36*
X70052500Y-138600000D02*
X68147500Y-138600000D01*
X68147500Y-136600000D01*
X70052500Y-136600000D01*
X70052500Y-138600000D01*
X70052500Y-138600000D01*
G37*
G36*
X88472500Y-138600000D02*
X86567500Y-138600000D01*
X86567500Y-136600000D01*
X88472500Y-136600000D01*
X88472500Y-138600000D01*
X88472500Y-138600000D01*
G37*
G36*
X47918630Y-136830299D02*
X48078855Y-136878903D01*
X48226520Y-136957831D01*
X48355949Y-137064051D01*
X48462169Y-137193480D01*
X48541097Y-137341145D01*
X48589701Y-137501370D01*
X48606112Y-137668000D01*
X48589701Y-137834630D01*
X48541097Y-137994855D01*
X48462169Y-138142520D01*
X48355949Y-138271949D01*
X48226520Y-138378169D01*
X48078855Y-138457097D01*
X47918630Y-138505701D01*
X47793752Y-138518000D01*
X47710248Y-138518000D01*
X47585370Y-138505701D01*
X47425145Y-138457097D01*
X47277480Y-138378169D01*
X47148051Y-138271949D01*
X47041831Y-138142520D01*
X46962903Y-137994855D01*
X46914299Y-137834630D01*
X46897888Y-137668000D01*
X46914299Y-137501370D01*
X46962903Y-137341145D01*
X47041831Y-137193480D01*
X47148051Y-137064051D01*
X47277480Y-136957831D01*
X47425145Y-136878903D01*
X47585370Y-136830299D01*
X47710248Y-136818000D01*
X47793752Y-136818000D01*
X47918630Y-136830299D01*
X47918630Y-136830299D01*
G37*
G36*
X97038224Y-135454128D02*
X97170175Y-135494155D01*
X97291781Y-135559155D01*
X97398370Y-135646630D01*
X97485845Y-135753219D01*
X97550845Y-135874825D01*
X97590872Y-136006776D01*
X97604387Y-136144000D01*
X97590872Y-136281224D01*
X97550845Y-136413175D01*
X97485845Y-136534781D01*
X97398370Y-136641370D01*
X97291781Y-136728845D01*
X97170175Y-136793845D01*
X97038224Y-136833872D01*
X96935390Y-136844000D01*
X96866610Y-136844000D01*
X96763776Y-136833872D01*
X96631825Y-136793845D01*
X96510219Y-136728845D01*
X96403630Y-136641370D01*
X96316155Y-136534781D01*
X96251155Y-136413175D01*
X96211128Y-136281224D01*
X96197613Y-136144000D01*
X96211128Y-136006776D01*
X96251155Y-135874825D01*
X96316155Y-135753219D01*
X96403630Y-135646630D01*
X96510219Y-135559155D01*
X96631825Y-135494155D01*
X96763776Y-135454128D01*
X96866610Y-135444000D01*
X96935390Y-135444000D01*
X97038224Y-135454128D01*
X97038224Y-135454128D01*
G37*
G36*
X102782630Y-134798299D02*
X102942855Y-134846903D01*
X103090520Y-134925831D01*
X103219949Y-135032051D01*
X103326169Y-135161480D01*
X103405097Y-135309145D01*
X103453701Y-135469370D01*
X103470112Y-135636000D01*
X103453701Y-135802630D01*
X103405097Y-135962855D01*
X103326169Y-136110520D01*
X103219949Y-136239949D01*
X103090520Y-136346169D01*
X102942855Y-136425097D01*
X102782630Y-136473701D01*
X102657752Y-136486000D01*
X102574248Y-136486000D01*
X102449370Y-136473701D01*
X102289145Y-136425097D01*
X102141480Y-136346169D01*
X102012051Y-136239949D01*
X101905831Y-136110520D01*
X101826903Y-135962855D01*
X101778299Y-135802630D01*
X101761888Y-135636000D01*
X101778299Y-135469370D01*
X101826903Y-135309145D01*
X101905831Y-135161480D01*
X102012051Y-135032051D01*
X102141480Y-134925831D01*
X102289145Y-134846903D01*
X102449370Y-134798299D01*
X102574248Y-134786000D01*
X102657752Y-134786000D01*
X102782630Y-134798299D01*
X102782630Y-134798299D01*
G37*
G36*
X106338630Y-134798299D02*
X106498855Y-134846903D01*
X106646520Y-134925831D01*
X106775949Y-135032051D01*
X106882169Y-135161480D01*
X106961097Y-135309145D01*
X107009701Y-135469370D01*
X107026112Y-135636000D01*
X107009701Y-135802630D01*
X106961097Y-135962855D01*
X106882169Y-136110520D01*
X106775949Y-136239949D01*
X106646520Y-136346169D01*
X106498855Y-136425097D01*
X106338630Y-136473701D01*
X106213752Y-136486000D01*
X106130248Y-136486000D01*
X106005370Y-136473701D01*
X105845145Y-136425097D01*
X105697480Y-136346169D01*
X105568051Y-136239949D01*
X105461831Y-136110520D01*
X105382903Y-135962855D01*
X105334299Y-135802630D01*
X105317888Y-135636000D01*
X105334299Y-135469370D01*
X105382903Y-135309145D01*
X105461831Y-135161480D01*
X105568051Y-135032051D01*
X105697480Y-134925831D01*
X105845145Y-134846903D01*
X106005370Y-134798299D01*
X106130248Y-134786000D01*
X106213752Y-134786000D01*
X106338630Y-134798299D01*
X106338630Y-134798299D01*
G37*
G36*
X47918630Y-134290299D02*
X48078855Y-134338903D01*
X48226520Y-134417831D01*
X48355949Y-134524051D01*
X48462169Y-134653480D01*
X48541097Y-134801145D01*
X48589701Y-134961370D01*
X48606112Y-135128000D01*
X48589701Y-135294630D01*
X48541097Y-135454855D01*
X48462169Y-135602520D01*
X48355949Y-135731949D01*
X48226520Y-135838169D01*
X48078855Y-135917097D01*
X47918630Y-135965701D01*
X47793752Y-135978000D01*
X47710248Y-135978000D01*
X47585370Y-135965701D01*
X47425145Y-135917097D01*
X47277480Y-135838169D01*
X47148051Y-135731949D01*
X47041831Y-135602520D01*
X46962903Y-135454855D01*
X46914299Y-135294630D01*
X46897888Y-135128000D01*
X46914299Y-134961370D01*
X46962903Y-134801145D01*
X47041831Y-134653480D01*
X47148051Y-134524051D01*
X47277480Y-134417831D01*
X47425145Y-134338903D01*
X47585370Y-134290299D01*
X47710248Y-134278000D01*
X47793752Y-134278000D01*
X47918630Y-134290299D01*
X47918630Y-134290299D01*
G37*
G36*
X107022000Y-133946000D02*
X105322000Y-133946000D01*
X105322000Y-132246000D01*
X107022000Y-132246000D01*
X107022000Y-133946000D01*
X107022000Y-133946000D01*
G37*
G36*
X103466000Y-133946000D02*
X101766000Y-133946000D01*
X101766000Y-132246000D01*
X103466000Y-132246000D01*
X103466000Y-133946000D01*
X103466000Y-133946000D01*
G37*
G36*
X48602000Y-133438000D02*
X46902000Y-133438000D01*
X46902000Y-131738000D01*
X48602000Y-131738000D01*
X48602000Y-133438000D01*
X48602000Y-133438000D01*
G37*
G36*
X77227178Y-129403059D02*
X77591154Y-129553822D01*
X77918729Y-129772701D01*
X78197299Y-130051271D01*
X78416178Y-130378846D01*
X78566941Y-130742822D01*
X78643800Y-131129216D01*
X78643800Y-131523184D01*
X78566941Y-131909578D01*
X78416178Y-132273554D01*
X78197299Y-132601129D01*
X77918729Y-132879699D01*
X77591154Y-133098578D01*
X77227178Y-133249341D01*
X76840784Y-133326200D01*
X76446816Y-133326200D01*
X76060422Y-133249341D01*
X75696446Y-133098578D01*
X75368871Y-132879699D01*
X75090301Y-132601129D01*
X74871422Y-132273554D01*
X74720659Y-131909578D01*
X74643800Y-131523184D01*
X74643800Y-131129216D01*
X74720659Y-130742822D01*
X74871422Y-130378846D01*
X75090301Y-130051271D01*
X75368871Y-129772701D01*
X75696446Y-129553822D01*
X76060422Y-129403059D01*
X76446816Y-129326200D01*
X76840784Y-129326200D01*
X77227178Y-129403059D01*
X77227178Y-129403059D01*
G37*
G36*
X67270378Y-129403059D02*
X67634354Y-129553822D01*
X67961929Y-129772701D01*
X68240499Y-130051271D01*
X68459378Y-130378846D01*
X68610141Y-130742822D01*
X68687000Y-131129216D01*
X68687000Y-131523184D01*
X68610141Y-131909578D01*
X68459378Y-132273554D01*
X68240499Y-132601129D01*
X67961929Y-132879699D01*
X67634354Y-133098578D01*
X67270378Y-133249341D01*
X66883984Y-133326200D01*
X66490016Y-133326200D01*
X66103622Y-133249341D01*
X65739646Y-133098578D01*
X65412071Y-132879699D01*
X65133501Y-132601129D01*
X64914622Y-132273554D01*
X64763859Y-131909578D01*
X64687000Y-131523184D01*
X64687000Y-131129216D01*
X64763859Y-130742822D01*
X64914622Y-130378846D01*
X65133501Y-130051271D01*
X65412071Y-129772701D01*
X65739646Y-129553822D01*
X66103622Y-129403059D01*
X66490016Y-129326200D01*
X66883984Y-129326200D01*
X67270378Y-129403059D01*
X67270378Y-129403059D01*
G37*
G36*
X95647178Y-129403059D02*
X96011154Y-129553822D01*
X96338729Y-129772701D01*
X96617299Y-130051271D01*
X96836178Y-130378846D01*
X96986941Y-130742822D01*
X97063800Y-131129216D01*
X97063800Y-131523184D01*
X96986941Y-131909578D01*
X96836178Y-132273554D01*
X96617299Y-132601129D01*
X96338729Y-132879699D01*
X96011154Y-133098578D01*
X95647178Y-133249341D01*
X95260784Y-133326200D01*
X94866816Y-133326200D01*
X94480422Y-133249341D01*
X94116446Y-133098578D01*
X93788871Y-132879699D01*
X93510301Y-132601129D01*
X93291422Y-132273554D01*
X93140659Y-131909578D01*
X93063800Y-131523184D01*
X93063800Y-131129216D01*
X93140659Y-130742822D01*
X93291422Y-130378846D01*
X93510301Y-130051271D01*
X93788871Y-129772701D01*
X94116446Y-129553822D01*
X94480422Y-129403059D01*
X94866816Y-129326200D01*
X95260784Y-129326200D01*
X95647178Y-129403059D01*
X95647178Y-129403059D01*
G37*
G36*
X85690378Y-129403059D02*
X86054354Y-129553822D01*
X86381929Y-129772701D01*
X86660499Y-130051271D01*
X86879378Y-130378846D01*
X87030141Y-130742822D01*
X87107000Y-131129216D01*
X87107000Y-131523184D01*
X87030141Y-131909578D01*
X86879378Y-132273554D01*
X86660499Y-132601129D01*
X86381929Y-132879699D01*
X86054354Y-133098578D01*
X85690378Y-133249341D01*
X85303984Y-133326200D01*
X84910016Y-133326200D01*
X84523622Y-133249341D01*
X84159646Y-133098578D01*
X83832071Y-132879699D01*
X83553501Y-132601129D01*
X83334622Y-132273554D01*
X83183859Y-131909578D01*
X83107000Y-131523184D01*
X83107000Y-131129216D01*
X83183859Y-130742822D01*
X83334622Y-130378846D01*
X83553501Y-130051271D01*
X83832071Y-129772701D01*
X84159646Y-129553822D01*
X84523622Y-129403059D01*
X84910016Y-129326200D01*
X85303984Y-129326200D01*
X85690378Y-129403059D01*
X85690378Y-129403059D01*
G37*
G36*
X59641733Y-127258862D02*
X59779028Y-127300510D01*
X59939565Y-127349208D01*
X60009389Y-127386530D01*
X60214047Y-127495922D01*
X60454634Y-127693366D01*
X60454635Y-127693368D01*
X60454637Y-127693369D01*
X60516487Y-127768735D01*
X60652078Y-127933952D01*
X60758127Y-128132356D01*
X60798792Y-128208434D01*
X60815544Y-128263659D01*
X60889138Y-128506266D01*
X60912000Y-128738389D01*
X60912000Y-129833610D01*
X60889138Y-130065734D01*
X60828907Y-130264288D01*
X60798792Y-130363566D01*
X60759581Y-130436923D01*
X60652078Y-130638048D01*
X60454634Y-130878634D01*
X60214048Y-131076078D01*
X60016082Y-131181893D01*
X59939566Y-131222792D01*
X59860965Y-131246635D01*
X59641734Y-131313138D01*
X59332000Y-131343644D01*
X59022267Y-131313138D01*
X58803036Y-131246635D01*
X58724435Y-131222792D01*
X58647919Y-131181893D01*
X58449953Y-131076078D01*
X58209367Y-130878634D01*
X58011922Y-130638048D01*
X57943629Y-130510280D01*
X57865208Y-130363566D01*
X57835093Y-130264288D01*
X57774862Y-130065734D01*
X57752000Y-129833611D01*
X57752000Y-128738390D01*
X57774862Y-128506267D01*
X57865208Y-128208436D01*
X57865208Y-128208435D01*
X57950925Y-128048071D01*
X58011922Y-127933953D01*
X58209366Y-127693366D01*
X58209368Y-127693365D01*
X58209369Y-127693363D01*
X58284735Y-127631513D01*
X58449952Y-127495922D01*
X58654610Y-127386530D01*
X58724434Y-127349208D01*
X58884971Y-127300510D01*
X59022266Y-127258862D01*
X59332000Y-127228356D01*
X59641733Y-127258862D01*
X59641733Y-127258862D01*
G37*
G36*
X56835662Y-127239367D02*
X56862635Y-127247549D01*
X56887490Y-127260835D01*
X56909281Y-127278719D01*
X56927165Y-127300510D01*
X56940451Y-127325365D01*
X56948633Y-127352338D01*
X56952000Y-127386530D01*
X56952000Y-131185470D01*
X56948633Y-131219662D01*
X56940451Y-131246635D01*
X56927165Y-131271490D01*
X56909281Y-131293281D01*
X56887490Y-131311165D01*
X56862635Y-131324451D01*
X56835662Y-131332633D01*
X56801470Y-131336000D01*
X53942530Y-131336000D01*
X53908338Y-131332633D01*
X53881365Y-131324451D01*
X53856510Y-131311165D01*
X53834719Y-131293281D01*
X53816835Y-131271490D01*
X53803549Y-131246635D01*
X53795367Y-131219662D01*
X53792000Y-131185470D01*
X53792000Y-127386530D01*
X53795367Y-127352338D01*
X53803549Y-127325365D01*
X53816835Y-127300510D01*
X53834719Y-127278719D01*
X53856510Y-127260835D01*
X53881365Y-127247549D01*
X53908338Y-127239367D01*
X53942530Y-127236000D01*
X56801470Y-127236000D01*
X56835662Y-127239367D01*
X56835662Y-127239367D01*
G37*
G36*
X48177405Y-123668974D02*
X48759767Y-123910196D01*
X49283884Y-124260400D01*
X49729600Y-124706116D01*
X50079804Y-125230233D01*
X50321026Y-125812595D01*
X50444000Y-126430826D01*
X50444000Y-127061174D01*
X50321026Y-127679405D01*
X50079804Y-128261767D01*
X49729600Y-128785884D01*
X49283884Y-129231600D01*
X48759767Y-129581804D01*
X48177405Y-129823026D01*
X47559174Y-129946000D01*
X46928826Y-129946000D01*
X46310595Y-129823026D01*
X45728233Y-129581804D01*
X45204116Y-129231600D01*
X44758400Y-128785884D01*
X44408196Y-128261767D01*
X44166974Y-127679405D01*
X44044000Y-127061174D01*
X44044000Y-126430826D01*
X44166974Y-125812595D01*
X44408196Y-125230233D01*
X44758400Y-124706116D01*
X45204116Y-124260400D01*
X45728233Y-123910196D01*
X46310595Y-123668974D01*
X46928826Y-123546000D01*
X47559174Y-123546000D01*
X48177405Y-123668974D01*
X48177405Y-123668974D01*
G37*
G36*
X105200405Y-123528974D02*
X105782767Y-123770196D01*
X106306884Y-124120400D01*
X106752600Y-124566116D01*
X107102804Y-125090233D01*
X107344026Y-125672595D01*
X107467000Y-126290826D01*
X107467000Y-126921174D01*
X107344026Y-127539405D01*
X107102804Y-128121767D01*
X106752600Y-128645884D01*
X106306884Y-129091600D01*
X105782767Y-129441804D01*
X105200405Y-129683026D01*
X104582174Y-129806000D01*
X103951826Y-129806000D01*
X103333595Y-129683026D01*
X102751233Y-129441804D01*
X102227116Y-129091600D01*
X101781400Y-128645884D01*
X101431196Y-128121767D01*
X101189974Y-127539405D01*
X101067000Y-126921174D01*
X101067000Y-126290826D01*
X101189974Y-125672595D01*
X101431196Y-125090233D01*
X101781400Y-124566116D01*
X102227116Y-124120400D01*
X102751233Y-123770196D01*
X103333595Y-123528974D01*
X103951826Y-123406000D01*
X104582174Y-123406000D01*
X105200405Y-123528974D01*
X105200405Y-123528974D01*
G37*
M02*
