G04 #@! TF.GenerationSoftware,KiCad,Pcbnew,(5.0.2)-1*
G04 #@! TF.CreationDate,2020-02-26T19:00:20+05:30*
G04 #@! TF.ProjectId,mosfet driver,6d6f7366-6574-4206-9472-697665722e6b,rev?*
G04 #@! TF.SameCoordinates,Original*
G04 #@! TF.FileFunction,Other,User*
%FSLAX46Y46*%
G04 Gerber Fmt 4.6, Leading zero omitted, Abs format (unit mm)*
G04 Created by KiCad (PCBNEW (5.0.2)-1) date 02/26/20 19:00:20*
%MOMM*%
%LPD*%
G01*
G04 APERTURE LIST*
%ADD10C,0.050000*%
G04 APERTURE END LIST*
D10*
G04 #@! TO.C,SW1*
X45952000Y-130788000D02*
X45952000Y-139438000D01*
X45952000Y-139438000D02*
X49552000Y-139438000D01*
X49552000Y-139438000D02*
X49552000Y-130788000D01*
X49552000Y-130788000D02*
X45952000Y-130788000D01*
G04 #@! TO.C,Snub_Low*
X104372000Y-174734000D02*
X104372000Y-168634000D01*
X107922000Y-174734000D02*
X104372000Y-174734000D01*
X107922000Y-168634000D02*
X107922000Y-174734000D01*
X104372000Y-168634000D02*
X107922000Y-168634000D01*
G04 #@! TO.C,Snub_High*
X100816000Y-168634000D02*
X104366000Y-168634000D01*
X104366000Y-168634000D02*
X104366000Y-174734000D01*
X104366000Y-174734000D02*
X100816000Y-174734000D01*
X100816000Y-174734000D02*
X100816000Y-168634000D01*
G04 #@! TO.C,Snub_Low*
X104372000Y-131296000D02*
X107922000Y-131296000D01*
X107922000Y-131296000D02*
X107922000Y-137396000D01*
X107922000Y-137396000D02*
X104372000Y-137396000D01*
X104372000Y-137396000D02*
X104372000Y-131296000D01*
G04 #@! TO.C,D3*
X56000000Y-150825000D02*
X65920000Y-150825000D01*
X56000000Y-147625000D02*
X56000000Y-150825000D01*
X65920000Y-147625000D02*
X56000000Y-147625000D01*
X65920000Y-150825000D02*
X65920000Y-147625000D01*
G04 #@! TO.C,D1*
X56000000Y-157556000D02*
X65920000Y-157556000D01*
X56000000Y-154356000D02*
X56000000Y-157556000D01*
X65920000Y-154356000D02*
X56000000Y-154356000D01*
X65920000Y-157556000D02*
X65920000Y-154356000D01*
G04 #@! TO.C,D6*
X50256000Y-166006000D02*
X50256000Y-161156000D01*
X45756000Y-166006000D02*
X50256000Y-166006000D01*
X45756000Y-161156000D02*
X45756000Y-166006000D01*
X50256000Y-161156000D02*
X45756000Y-161156000D01*
G04 #@! TO.C,D4*
X50245500Y-143101500D02*
X45395500Y-143101500D01*
X50245500Y-147601500D02*
X50245500Y-143101500D01*
X45395500Y-147601500D02*
X50245500Y-147601500D01*
X45395500Y-143101500D02*
X45395500Y-147601500D01*
G04 #@! TO.C,R12*
X46321000Y-166626500D02*
X46321000Y-173606500D01*
X48421000Y-166626500D02*
X46321000Y-166626500D01*
X48421000Y-173606500D02*
X48421000Y-166626500D01*
X46321000Y-173606500D02*
X48421000Y-173606500D01*
G04 #@! TO.C,R11*
X52258000Y-140682000D02*
X45278000Y-140682000D01*
X52258000Y-142782000D02*
X52258000Y-140682000D01*
X45278000Y-142782000D02*
X52258000Y-142782000D01*
X45278000Y-140682000D02*
X45278000Y-142782000D01*
G04 #@! TO.C,J2*
X109242000Y-146578000D02*
X109242000Y-137798000D01*
X98232000Y-146578000D02*
X109242000Y-146578000D01*
X98232000Y-137798000D02*
X98232000Y-146578000D01*
X109242000Y-137798000D02*
X98232000Y-137798000D01*
G04 #@! TO.C,J1*
X62354000Y-181632000D02*
X62354000Y-170622000D01*
X62354000Y-170622000D02*
X53574000Y-170622000D01*
X53574000Y-170622000D02*
X53574000Y-181632000D01*
X53574000Y-181632000D02*
X62354000Y-181632000D01*
G04 #@! TO.C,J4*
X61742000Y-123676000D02*
X52962000Y-123676000D01*
X61742000Y-134686000D02*
X61742000Y-123676000D01*
X52962000Y-134686000D02*
X61742000Y-134686000D01*
X52962000Y-123676000D02*
X52962000Y-134686000D01*
G04 #@! TO.C,R7*
X84262000Y-139099000D02*
X84262000Y-136999000D01*
X84262000Y-136999000D02*
X77282000Y-136999000D01*
X77282000Y-136999000D02*
X77282000Y-139099000D01*
X77282000Y-139099000D02*
X84262000Y-139099000D01*
G04 #@! TO.C,R5*
X70900000Y-150814775D02*
X70900000Y-143834775D01*
X68800000Y-150814775D02*
X70900000Y-150814775D01*
X68800000Y-143834775D02*
X68800000Y-150814775D01*
X70900000Y-143834775D02*
X68800000Y-143834775D01*
G04 #@! TO.C,R2*
X78298000Y-153704000D02*
X85278000Y-153704000D01*
X78298000Y-151604000D02*
X78298000Y-153704000D01*
X85278000Y-151604000D02*
X78298000Y-151604000D01*
X85278000Y-153704000D02*
X85278000Y-151604000D01*
G04 #@! TO.C,R1*
X68800000Y-154379000D02*
X68800000Y-161359000D01*
X70900000Y-154379000D02*
X68800000Y-154379000D01*
X70900000Y-161359000D02*
X70900000Y-154379000D01*
X68800000Y-161359000D02*
X70900000Y-161359000D01*
G04 #@! TO.C,D5*
X95580000Y-140836000D02*
X92380000Y-140836000D01*
X92380000Y-140836000D02*
X92380000Y-150756000D01*
X92380000Y-150756000D02*
X95580000Y-150756000D01*
X95580000Y-150756000D02*
X95580000Y-140836000D01*
G04 #@! TO.C,D2*
X92380000Y-163964000D02*
X95580000Y-163964000D01*
X95580000Y-163964000D02*
X95580000Y-154044000D01*
X95580000Y-154044000D02*
X92380000Y-154044000D01*
X92380000Y-154044000D02*
X92380000Y-163964000D01*
G04 #@! TO.C,C15*
X64031000Y-140716000D02*
G75*
G03X64031000Y-140716000I-5250000J0D01*
G01*
G04 #@! TO.C,C14*
X64031000Y-164084000D02*
G75*
G03X64031000Y-164084000I-5250000J0D01*
G01*
G04 #@! TO.C,R4*
X68487000Y-150810000D02*
X68487000Y-143830000D01*
X66387000Y-150810000D02*
X68487000Y-150810000D01*
X66387000Y-143830000D02*
X66387000Y-150810000D01*
X68487000Y-143830000D02*
X66387000Y-143830000D01*
G04 #@! TO.C,R3*
X66387000Y-154379000D02*
X66387000Y-161359000D01*
X68487000Y-154379000D02*
X66387000Y-154379000D01*
X68487000Y-161359000D02*
X68487000Y-154379000D01*
X66387000Y-161359000D02*
X68487000Y-161359000D01*
G04 #@! TO.C,Q4*
X84810000Y-134200000D02*
X84810000Y-139110000D01*
X84810000Y-139110000D02*
X95310000Y-139110000D01*
X95310000Y-139110000D02*
X95310000Y-134200000D01*
X95310000Y-134200000D02*
X84810000Y-134200000D01*
G04 #@! TO.C,Q3*
X66390000Y-134200000D02*
X66390000Y-139110000D01*
X66390000Y-139110000D02*
X76890000Y-139110000D01*
X76890000Y-139110000D02*
X76890000Y-134200000D01*
X76890000Y-134200000D02*
X66390000Y-134200000D01*
G04 #@! TO.C,Q2*
X95310000Y-170455000D02*
X95310000Y-165545000D01*
X95310000Y-165545000D02*
X84810000Y-165545000D01*
X84810000Y-165545000D02*
X84810000Y-170455000D01*
X84810000Y-170455000D02*
X95310000Y-170455000D01*
G04 #@! TO.C,Q1*
X76890000Y-170455000D02*
X76890000Y-165545000D01*
X76890000Y-165545000D02*
X66390000Y-165545000D01*
X66390000Y-165545000D02*
X66390000Y-170455000D01*
X66390000Y-170455000D02*
X76890000Y-170455000D01*
G04 #@! TO.C,R10*
X78094000Y-151604000D02*
X71114000Y-151604000D01*
X78094000Y-153704000D02*
X78094000Y-151604000D01*
X71114000Y-153704000D02*
X78094000Y-153704000D01*
X71114000Y-151604000D02*
X71114000Y-153704000D01*
G04 #@! TO.C,R9*
X95851000Y-135194000D02*
X95851000Y-142174000D01*
X97951000Y-135194000D02*
X95851000Y-135194000D01*
X97951000Y-142174000D02*
X97951000Y-135194000D01*
X95851000Y-142174000D02*
X97951000Y-142174000D01*
G04 #@! TO.C,R8*
X84262000Y-166336000D02*
X77282000Y-166336000D01*
X84262000Y-168436000D02*
X84262000Y-166336000D01*
X77282000Y-168436000D02*
X84262000Y-168436000D01*
X77282000Y-166336000D02*
X77282000Y-168436000D01*
G04 #@! TO.C,R6*
X97951000Y-169860000D02*
X97951000Y-162880000D01*
X95851000Y-169860000D02*
X97951000Y-169860000D01*
X95851000Y-162880000D02*
X95851000Y-169860000D01*
X97951000Y-162880000D02*
X95851000Y-162880000D01*
G04 #@! TO.C,H4*
X50694000Y-126746000D02*
G75*
G03X50694000Y-126746000I-3450000J0D01*
G01*
G04 #@! TO.C,H3*
X107717000Y-178816000D02*
G75*
G03X107717000Y-178816000I-3450000J0D01*
G01*
G04 #@! TO.C,H2*
X107717000Y-126606000D02*
G75*
G03X107717000Y-126606000I-3450000J0D01*
G01*
G04 #@! TO.C,H1*
X50694000Y-178943000D02*
G75*
G03X50694000Y-178943000I-3450000J0D01*
G01*
G04 #@! TO.C,C13*
X87600000Y-140849000D02*
X87600000Y-145449000D01*
X90200000Y-140849000D02*
X87600000Y-140849000D01*
X90200000Y-145449000D02*
X90200000Y-140849000D01*
X87600000Y-145449000D02*
X90200000Y-145449000D01*
G04 #@! TO.C,C12*
X87473000Y-160026000D02*
X87473000Y-164626000D01*
X90073000Y-160026000D02*
X87473000Y-160026000D01*
X90073000Y-164626000D02*
X90073000Y-160026000D01*
X87473000Y-164626000D02*
X90073000Y-164626000D01*
G04 #@! TO.C,C10*
X88041000Y-158998000D02*
X88041000Y-154398000D01*
X85441000Y-158998000D02*
X88041000Y-158998000D01*
X85441000Y-154398000D02*
X85441000Y-158998000D01*
X88041000Y-154398000D02*
X85441000Y-154398000D01*
G04 #@! TO.C,C9*
X50262000Y-152660000D02*
X50262000Y-157260000D01*
X52862000Y-152660000D02*
X50262000Y-152660000D01*
X52862000Y-157260000D02*
X52862000Y-152660000D01*
X50262000Y-157260000D02*
X52862000Y-157260000D01*
G04 #@! TO.C,C8*
X55656000Y-152535000D02*
X55656000Y-147935000D01*
X53056000Y-152535000D02*
X55656000Y-152535000D01*
X53056000Y-147935000D02*
X53056000Y-152535000D01*
X55656000Y-147935000D02*
X53056000Y-147935000D01*
G04 #@! TO.C,C7*
X84993000Y-150743000D02*
X84993000Y-146143000D01*
X82393000Y-150743000D02*
X84993000Y-150743000D01*
X82393000Y-146143000D02*
X82393000Y-150743000D01*
X84993000Y-146143000D02*
X82393000Y-146143000D01*
G04 #@! TO.C,C6*
X55656000Y-157246000D02*
X55656000Y-152646000D01*
X53056000Y-157246000D02*
X55656000Y-157246000D01*
X53056000Y-152646000D02*
X53056000Y-157246000D01*
X55656000Y-152646000D02*
X53056000Y-152646000D01*
G04 #@! TO.C,C5*
X52862000Y-152521000D02*
X52862000Y-147921000D01*
X50262000Y-152521000D02*
X52862000Y-152521000D01*
X50262000Y-147921000D02*
X50262000Y-152521000D01*
X52862000Y-147921000D02*
X50262000Y-147921000D01*
G04 #@! TO.C,C4*
X88041000Y-150743000D02*
X88041000Y-146143000D01*
X85441000Y-150743000D02*
X88041000Y-150743000D01*
X85441000Y-146143000D02*
X85441000Y-150743000D01*
X88041000Y-146143000D02*
X85441000Y-146143000D01*
G04 #@! TO.C,C3*
X84993000Y-158998000D02*
X84993000Y-154398000D01*
X82393000Y-158998000D02*
X84993000Y-158998000D01*
X82393000Y-154398000D02*
X82393000Y-158998000D01*
X84993000Y-154398000D02*
X82393000Y-154398000D01*
G04 #@! TO.C,C2*
X87459000Y-142641000D02*
G75*
G03X87459000Y-142641000I-2750000J0D01*
G01*
G04 #@! TO.C,C1*
X87332000Y-162326000D02*
G75*
G03X87332000Y-162326000I-2750000J0D01*
G01*
G04 #@! TO.C,U2*
X81814000Y-150814775D02*
X81814000Y-140264775D01*
X71114000Y-150814775D02*
X81814000Y-150814775D01*
X71114000Y-140264775D02*
X71114000Y-150814775D01*
X81814000Y-140264775D02*
X71114000Y-140264775D01*
G04 #@! TO.C,U1*
X81814000Y-164929000D02*
X81814000Y-154379000D01*
X71114000Y-164929000D02*
X81814000Y-164929000D01*
X71114000Y-154379000D02*
X71114000Y-164929000D01*
X81814000Y-154379000D02*
X71114000Y-154379000D01*
G04 #@! TO.C,J3*
X44809000Y-156720000D02*
X48409000Y-156720000D01*
X44809000Y-148070000D02*
X44809000Y-156720000D01*
X48409000Y-148070000D02*
X44809000Y-148070000D01*
X48409000Y-156720000D02*
X48409000Y-148070000D01*
G04 #@! TO.C,Snub_High*
X100816000Y-137396000D02*
X100816000Y-131296000D01*
X104366000Y-137396000D02*
X100816000Y-137396000D01*
X104366000Y-131296000D02*
X104366000Y-137396000D01*
X100816000Y-131296000D02*
X104366000Y-131296000D01*
G04 #@! TO.C,CS*
X109242000Y-168422000D02*
X109242000Y-159642000D01*
X98232000Y-168422000D02*
X109242000Y-168422000D01*
X98232000Y-159642000D02*
X98232000Y-168422000D01*
X109242000Y-159642000D02*
X98232000Y-159642000D01*
G04 #@! TO.C,SW2*
X106194000Y-148822000D02*
X102594000Y-148822000D01*
X106194000Y-157472000D02*
X106194000Y-148822000D01*
X102594000Y-157472000D02*
X106194000Y-157472000D01*
X102594000Y-148822000D02*
X102594000Y-157472000D01*
G04 #@! TD*
M02*
