G04 #@! TF.GenerationSoftware,KiCad,Pcbnew,(5.0.2)-1*
G04 #@! TF.CreationDate,2020-02-26T19:00:20+05:30*
G04 #@! TF.ProjectId,mosfet driver,6d6f7366-6574-4206-9472-697665722e6b,rev?*
G04 #@! TF.SameCoordinates,Original*
G04 #@! TF.FileFunction,Copper,L2,Bot*
G04 #@! TF.FilePolarity,Positive*
%FSLAX46Y46*%
G04 Gerber Fmt 4.6, Leading zero omitted, Abs format (unit mm)*
G04 Created by KiCad (PCBNEW (5.0.2)-1) date 02/26/20 19:00:20*
%MOMM*%
%LPD*%
G01*
G04 APERTURE LIST*
G04 #@! TA.AperFunction,ComponentPad*
%ADD10R,1.700000X1.700000*%
G04 #@! TD*
G04 #@! TA.AperFunction,ComponentPad*
%ADD11O,1.700000X1.700000*%
G04 #@! TD*
G04 #@! TA.AperFunction,ComponentPad*
%ADD12O,1.800000X1.800000*%
G04 #@! TD*
G04 #@! TA.AperFunction,ComponentPad*
%ADD13R,1.800000X1.800000*%
G04 #@! TD*
G04 #@! TA.AperFunction,ComponentPad*
%ADD14C,1.800000*%
G04 #@! TD*
G04 #@! TA.AperFunction,ComponentPad*
%ADD15O,1.400000X1.400000*%
G04 #@! TD*
G04 #@! TA.AperFunction,ComponentPad*
%ADD16C,1.400000*%
G04 #@! TD*
G04 #@! TA.AperFunction,ComponentPad*
%ADD17O,4.100000X3.160000*%
G04 #@! TD*
G04 #@! TA.AperFunction,Conductor*
%ADD18C,0.100000*%
G04 #@! TD*
G04 #@! TA.AperFunction,ComponentPad*
%ADD19C,3.160000*%
G04 #@! TD*
G04 #@! TA.AperFunction,ComponentPad*
%ADD20O,3.160000X4.100000*%
G04 #@! TD*
G04 #@! TA.AperFunction,ComponentPad*
%ADD21C,1.600000*%
G04 #@! TD*
G04 #@! TA.AperFunction,ComponentPad*
%ADD22R,1.600000X1.600000*%
G04 #@! TD*
G04 #@! TA.AperFunction,ComponentPad*
%ADD23R,1.905000X2.000000*%
G04 #@! TD*
G04 #@! TA.AperFunction,ComponentPad*
%ADD24O,1.905000X2.000000*%
G04 #@! TD*
G04 #@! TA.AperFunction,ComponentPad*
%ADD25C,4.000000*%
G04 #@! TD*
G04 #@! TA.AperFunction,ComponentPad*
%ADD26C,0.800000*%
G04 #@! TD*
G04 #@! TA.AperFunction,ComponentPad*
%ADD27C,6.400000*%
G04 #@! TD*
G04 #@! TA.AperFunction,ComponentPad*
%ADD28O,1.600000X2.400000*%
G04 #@! TD*
G04 #@! TA.AperFunction,ComponentPad*
%ADD29R,1.600000X2.400000*%
G04 #@! TD*
G04 #@! TA.AperFunction,ViaPad*
%ADD30C,1.400000*%
G04 #@! TD*
G04 #@! TA.AperFunction,Conductor*
%ADD31C,1.500000*%
G04 #@! TD*
G04 #@! TA.AperFunction,Conductor*
%ADD32C,0.500000*%
G04 #@! TD*
G04 #@! TA.AperFunction,Conductor*
%ADD33C,0.254000*%
G04 #@! TD*
G04 APERTURE END LIST*
D10*
G04 #@! TO.P,SW1,1*
G04 #@! TO.N,N/C*
X47752000Y-132588000D03*
D11*
G04 #@! TO.P,SW1,2*
G04 #@! TO.N,Net-(J4-Pad2)*
X47752000Y-135128000D03*
G04 #@! TO.P,SW1,3*
G04 #@! TO.N,VCC*
X47752000Y-137668000D03*
G04 #@! TD*
G04 #@! TO.P,Snub_Low,2*
G04 #@! TO.N,/Power3*
X106172000Y-172974000D03*
D10*
G04 #@! TO.P,Snub_Low,1*
G04 #@! TO.N,GND*
X106172000Y-170434000D03*
G04 #@! TD*
G04 #@! TO.P,Snub_High,1*
G04 #@! TO.N,VCC*
X102616000Y-170434000D03*
D11*
G04 #@! TO.P,Snub_High,2*
G04 #@! TO.N,/Power3*
X102616000Y-172974000D03*
G04 #@! TD*
D10*
G04 #@! TO.P,Snub_Low,1*
G04 #@! TO.N,GND*
X106172000Y-133096000D03*
D11*
G04 #@! TO.P,Snub_Low,2*
G04 #@! TO.N,/Power4*
X106172000Y-135636000D03*
G04 #@! TD*
D12*
G04 #@! TO.P,D3,2*
G04 #@! TO.N,GND*
X57150000Y-149225000D03*
D13*
G04 #@! TO.P,D3,1*
G04 #@! TO.N,/Signal2*
X64770000Y-149225000D03*
G04 #@! TD*
D12*
G04 #@! TO.P,D1,2*
G04 #@! TO.N,GND*
X57150000Y-155956000D03*
D13*
G04 #@! TO.P,D1,1*
G04 #@! TO.N,/Signal*
X64770000Y-155956000D03*
G04 #@! TD*
D14*
G04 #@! TO.P,D6,2*
G04 #@! TO.N,Net-(D6-Pad2)*
X48006000Y-164846000D03*
D13*
G04 #@! TO.P,D6,1*
G04 #@! TO.N,GND*
X48006000Y-162306000D03*
G04 #@! TD*
D14*
G04 #@! TO.P,D4,2*
G04 #@! TO.N,Net-(D4-Pad2)*
X49085500Y-145351500D03*
D13*
G04 #@! TO.P,D4,1*
G04 #@! TO.N,GND*
X46545500Y-145351500D03*
G04 #@! TD*
D15*
G04 #@! TO.P,R12,2*
G04 #@! TO.N,Net-(D6-Pad2)*
X47371000Y-167576500D03*
D16*
G04 #@! TO.P,R12,1*
G04 #@! TO.N,Net-(J4-Pad2)*
X47371000Y-172656500D03*
G04 #@! TD*
D15*
G04 #@! TO.P,R11,2*
G04 #@! TO.N,Net-(D4-Pad2)*
X51308000Y-141732000D03*
D16*
G04 #@! TO.P,R11,1*
G04 #@! TO.N,VCC*
X46228000Y-141732000D03*
G04 #@! TD*
D17*
G04 #@! TO.P,J2,2*
G04 #@! TO.N,/Power4*
X103632000Y-144168000D03*
D18*
G04 #@! TD*
G04 #@! TO.N,/Power3*
G04 #@! TO.C,J2*
G36*
X105456829Y-138629202D02*
X105481062Y-138632797D01*
X105504827Y-138638749D01*
X105527893Y-138647003D01*
X105550039Y-138657477D01*
X105571053Y-138670072D01*
X105590730Y-138684666D01*
X105608882Y-138701118D01*
X105625334Y-138719270D01*
X105639928Y-138738947D01*
X105652523Y-138759961D01*
X105662997Y-138782107D01*
X105671251Y-138805173D01*
X105677203Y-138828938D01*
X105680798Y-138853171D01*
X105682000Y-138877640D01*
X105682000Y-141538360D01*
X105680798Y-141562829D01*
X105677203Y-141587062D01*
X105671251Y-141610827D01*
X105662997Y-141633893D01*
X105652523Y-141656039D01*
X105639928Y-141677053D01*
X105625334Y-141696730D01*
X105608882Y-141714882D01*
X105590730Y-141731334D01*
X105571053Y-141745928D01*
X105550039Y-141758523D01*
X105527893Y-141768997D01*
X105504827Y-141777251D01*
X105481062Y-141783203D01*
X105456829Y-141786798D01*
X105432360Y-141788000D01*
X101831640Y-141788000D01*
X101807171Y-141786798D01*
X101782938Y-141783203D01*
X101759173Y-141777251D01*
X101736107Y-141768997D01*
X101713961Y-141758523D01*
X101692947Y-141745928D01*
X101673270Y-141731334D01*
X101655118Y-141714882D01*
X101638666Y-141696730D01*
X101624072Y-141677053D01*
X101611477Y-141656039D01*
X101601003Y-141633893D01*
X101592749Y-141610827D01*
X101586797Y-141587062D01*
X101583202Y-141562829D01*
X101582000Y-141538360D01*
X101582000Y-138877640D01*
X101583202Y-138853171D01*
X101586797Y-138828938D01*
X101592749Y-138805173D01*
X101601003Y-138782107D01*
X101611477Y-138759961D01*
X101624072Y-138738947D01*
X101638666Y-138719270D01*
X101655118Y-138701118D01*
X101673270Y-138684666D01*
X101692947Y-138670072D01*
X101713961Y-138657477D01*
X101736107Y-138647003D01*
X101759173Y-138638749D01*
X101782938Y-138632797D01*
X101807171Y-138629202D01*
X101831640Y-138628000D01*
X105432360Y-138628000D01*
X105456829Y-138629202D01*
X105456829Y-138629202D01*
G37*
D19*
G04 #@! TO.P,J2,1*
G04 #@! TO.N,/Power3*
X103632000Y-140208000D03*
G04 #@! TD*
D18*
G04 #@! TO.N,GND*
G04 #@! TO.C,J1*
G36*
X61298829Y-173973202D02*
X61323062Y-173976797D01*
X61346827Y-173982749D01*
X61369893Y-173991003D01*
X61392039Y-174001477D01*
X61413053Y-174014072D01*
X61432730Y-174028666D01*
X61450882Y-174045118D01*
X61467334Y-174063270D01*
X61481928Y-174082947D01*
X61494523Y-174103961D01*
X61504997Y-174126107D01*
X61513251Y-174149173D01*
X61519203Y-174172938D01*
X61522798Y-174197171D01*
X61524000Y-174221640D01*
X61524000Y-177822360D01*
X61522798Y-177846829D01*
X61519203Y-177871062D01*
X61513251Y-177894827D01*
X61504997Y-177917893D01*
X61494523Y-177940039D01*
X61481928Y-177961053D01*
X61467334Y-177980730D01*
X61450882Y-177998882D01*
X61432730Y-178015334D01*
X61413053Y-178029928D01*
X61392039Y-178042523D01*
X61369893Y-178052997D01*
X61346827Y-178061251D01*
X61323062Y-178067203D01*
X61298829Y-178070798D01*
X61274360Y-178072000D01*
X58613640Y-178072000D01*
X58589171Y-178070798D01*
X58564938Y-178067203D01*
X58541173Y-178061251D01*
X58518107Y-178052997D01*
X58495961Y-178042523D01*
X58474947Y-178029928D01*
X58455270Y-178015334D01*
X58437118Y-177998882D01*
X58420666Y-177980730D01*
X58406072Y-177961053D01*
X58393477Y-177940039D01*
X58383003Y-177917893D01*
X58374749Y-177894827D01*
X58368797Y-177871062D01*
X58365202Y-177846829D01*
X58364000Y-177822360D01*
X58364000Y-174221640D01*
X58365202Y-174197171D01*
X58368797Y-174172938D01*
X58374749Y-174149173D01*
X58383003Y-174126107D01*
X58393477Y-174103961D01*
X58406072Y-174082947D01*
X58420666Y-174063270D01*
X58437118Y-174045118D01*
X58455270Y-174028666D01*
X58474947Y-174014072D01*
X58495961Y-174001477D01*
X58518107Y-173991003D01*
X58541173Y-173982749D01*
X58564938Y-173976797D01*
X58589171Y-173973202D01*
X58613640Y-173972000D01*
X61274360Y-173972000D01*
X61298829Y-173973202D01*
X61298829Y-173973202D01*
G37*
D19*
G04 #@! TD*
G04 #@! TO.P,J1,1*
G04 #@! TO.N,GND*
X59944000Y-176022000D03*
D20*
G04 #@! TO.P,J1,2*
G04 #@! TO.N,Net-(J4-Pad2)*
X55984000Y-176022000D03*
G04 #@! TD*
G04 #@! TO.P,J4,2*
G04 #@! TO.N,Net-(J4-Pad2)*
X59332000Y-129286000D03*
D18*
G04 #@! TD*
G04 #@! TO.N,GND*
G04 #@! TO.C,J4*
G36*
X56726829Y-127237202D02*
X56751062Y-127240797D01*
X56774827Y-127246749D01*
X56797893Y-127255003D01*
X56820039Y-127265477D01*
X56841053Y-127278072D01*
X56860730Y-127292666D01*
X56878882Y-127309118D01*
X56895334Y-127327270D01*
X56909928Y-127346947D01*
X56922523Y-127367961D01*
X56932997Y-127390107D01*
X56941251Y-127413173D01*
X56947203Y-127436938D01*
X56950798Y-127461171D01*
X56952000Y-127485640D01*
X56952000Y-131086360D01*
X56950798Y-131110829D01*
X56947203Y-131135062D01*
X56941251Y-131158827D01*
X56932997Y-131181893D01*
X56922523Y-131204039D01*
X56909928Y-131225053D01*
X56895334Y-131244730D01*
X56878882Y-131262882D01*
X56860730Y-131279334D01*
X56841053Y-131293928D01*
X56820039Y-131306523D01*
X56797893Y-131316997D01*
X56774827Y-131325251D01*
X56751062Y-131331203D01*
X56726829Y-131334798D01*
X56702360Y-131336000D01*
X54041640Y-131336000D01*
X54017171Y-131334798D01*
X53992938Y-131331203D01*
X53969173Y-131325251D01*
X53946107Y-131316997D01*
X53923961Y-131306523D01*
X53902947Y-131293928D01*
X53883270Y-131279334D01*
X53865118Y-131262882D01*
X53848666Y-131244730D01*
X53834072Y-131225053D01*
X53821477Y-131204039D01*
X53811003Y-131181893D01*
X53802749Y-131158827D01*
X53796797Y-131135062D01*
X53793202Y-131110829D01*
X53792000Y-131086360D01*
X53792000Y-127485640D01*
X53793202Y-127461171D01*
X53796797Y-127436938D01*
X53802749Y-127413173D01*
X53811003Y-127390107D01*
X53821477Y-127367961D01*
X53834072Y-127346947D01*
X53848666Y-127327270D01*
X53865118Y-127309118D01*
X53883270Y-127292666D01*
X53902947Y-127278072D01*
X53923961Y-127265477D01*
X53946107Y-127255003D01*
X53969173Y-127246749D01*
X53992938Y-127240797D01*
X54017171Y-127237202D01*
X54041640Y-127236000D01*
X56702360Y-127236000D01*
X56726829Y-127237202D01*
X56726829Y-127237202D01*
G37*
D19*
G04 #@! TO.P,J4,1*
G04 #@! TO.N,GND*
X55372000Y-129286000D03*
G04 #@! TD*
D16*
G04 #@! TO.P,R7,1*
G04 #@! TO.N,VCC*
X83312000Y-138049000D03*
D15*
G04 #@! TO.P,R7,2*
G04 #@! TO.N,Net-(R7-Pad2)*
X78232000Y-138049000D03*
G04 #@! TD*
G04 #@! TO.P,R5,2*
G04 #@! TO.N,/Signal2*
X69850000Y-149864775D03*
D16*
G04 #@! TO.P,R5,1*
G04 #@! TO.N,Net-(R4-Pad1)*
X69850000Y-144784775D03*
G04 #@! TD*
D15*
G04 #@! TO.P,R2,2*
G04 #@! TO.N,Net-(R2-Pad2)*
X79248000Y-152654000D03*
D16*
G04 #@! TO.P,R2,1*
G04 #@! TO.N,VCC*
X84328000Y-152654000D03*
G04 #@! TD*
D15*
G04 #@! TO.P,R1,2*
G04 #@! TO.N,/Signal*
X69850000Y-155329000D03*
D16*
G04 #@! TO.P,R1,1*
G04 #@! TO.N,Net-(R1-Pad1)*
X69850000Y-160409000D03*
G04 #@! TD*
D13*
G04 #@! TO.P,D5,1*
G04 #@! TO.N,Net-(C13-Pad1)*
X93980000Y-141986000D03*
D12*
G04 #@! TO.P,D5,2*
G04 #@! TO.N,VCC*
X93980000Y-149606000D03*
G04 #@! TD*
D13*
G04 #@! TO.P,D2,1*
G04 #@! TO.N,Net-(C1-Pad1)*
X93980000Y-162814000D03*
D12*
G04 #@! TO.P,D2,2*
G04 #@! TO.N,VCC*
X93980000Y-155194000D03*
G04 #@! TD*
D21*
G04 #@! TO.P,C15,2*
G04 #@! TO.N,GND*
X60701937Y-142316000D03*
D22*
G04 #@! TO.P,C15,1*
G04 #@! TO.N,VCC*
X56860063Y-139116000D03*
D21*
G04 #@! TO.P,C15,2*
G04 #@! TO.N,GND*
X60031000Y-140716000D03*
D22*
G04 #@! TO.P,C15,1*
G04 #@! TO.N,VCC*
X57531000Y-140716000D03*
G04 #@! TD*
D21*
G04 #@! TO.P,C14,2*
G04 #@! TO.N,GND*
X60701937Y-165684000D03*
D22*
G04 #@! TO.P,C14,1*
G04 #@! TO.N,VCC*
X56860063Y-162484000D03*
D21*
G04 #@! TO.P,C14,2*
G04 #@! TO.N,GND*
X60031000Y-164084000D03*
D22*
G04 #@! TO.P,C14,1*
G04 #@! TO.N,VCC*
X57531000Y-164084000D03*
G04 #@! TD*
D15*
G04 #@! TO.P,R4,2*
G04 #@! TO.N,GND*
X67437000Y-149860000D03*
D16*
G04 #@! TO.P,R4,1*
G04 #@! TO.N,Net-(R4-Pad1)*
X67437000Y-144780000D03*
G04 #@! TD*
D15*
G04 #@! TO.P,R3,2*
G04 #@! TO.N,GND*
X67437000Y-155329000D03*
D16*
G04 #@! TO.P,R3,1*
G04 #@! TO.N,Net-(R1-Pad1)*
X67437000Y-160409000D03*
G04 #@! TD*
D23*
G04 #@! TO.P,Q4,1*
G04 #@! TO.N,Net-(Q4-Pad1)*
X87520000Y-137600000D03*
D24*
G04 #@! TO.P,Q4,2*
G04 #@! TO.N,/Power4*
X90060000Y-137600000D03*
G04 #@! TO.P,Q4,3*
G04 #@! TO.N,N/C*
X92600000Y-137600000D03*
D25*
G04 #@! TO.P,Q4,2*
X85107000Y-131326200D03*
X95063800Y-131326200D03*
G04 #@! TD*
D23*
G04 #@! TO.P,Q3,1*
G04 #@! TO.N,Net-(Q3-Pad1)*
X69100000Y-137600000D03*
D24*
G04 #@! TO.P,Q3,2*
G04 #@! TO.N,VCC*
X71640000Y-137600000D03*
G04 #@! TO.P,Q3,3*
G04 #@! TO.N,/Power4*
X74180000Y-137600000D03*
D25*
G04 #@! TO.P,Q3,2*
G04 #@! TO.N,N/C*
X66687000Y-131326200D03*
X76643800Y-131326200D03*
G04 #@! TD*
D23*
G04 #@! TO.P,Q2,1*
G04 #@! TO.N,Net-(Q2-Pad1)*
X92600000Y-167055000D03*
D24*
G04 #@! TO.P,Q2,2*
G04 #@! TO.N,/Power3*
X90060000Y-167055000D03*
G04 #@! TO.P,Q2,3*
G04 #@! TO.N,N/C*
X87520000Y-167055000D03*
D25*
G04 #@! TO.P,Q2,2*
X95013000Y-173328800D03*
X85056200Y-173328800D03*
G04 #@! TD*
D23*
G04 #@! TO.P,Q1,1*
G04 #@! TO.N,Net-(Q1-Pad1)*
X74180000Y-167055000D03*
D24*
G04 #@! TO.P,Q1,2*
G04 #@! TO.N,VCC*
X71640000Y-167055000D03*
G04 #@! TO.P,Q1,3*
G04 #@! TO.N,/Power3*
X69100000Y-167055000D03*
D25*
G04 #@! TO.P,Q1,2*
G04 #@! TO.N,N/C*
X76593000Y-173328800D03*
X66636200Y-173328800D03*
G04 #@! TD*
D15*
G04 #@! TO.P,R10,2*
G04 #@! TO.N,Net-(R10-Pad2)*
X77144000Y-152654000D03*
D16*
G04 #@! TO.P,R10,1*
G04 #@! TO.N,Net-(Q3-Pad1)*
X72064000Y-152654000D03*
G04 #@! TD*
D15*
G04 #@! TO.P,R9,2*
G04 #@! TO.N,Net-(Q4-Pad1)*
X96901000Y-136144000D03*
D16*
G04 #@! TO.P,R9,1*
G04 #@! TO.N,Net-(R9-Pad1)*
X96901000Y-141224000D03*
G04 #@! TD*
D15*
G04 #@! TO.P,R8,2*
G04 #@! TO.N,Net-(R8-Pad2)*
X83312000Y-167386000D03*
D16*
G04 #@! TO.P,R8,1*
G04 #@! TO.N,Net-(Q1-Pad1)*
X78232000Y-167386000D03*
G04 #@! TD*
D15*
G04 #@! TO.P,R6,2*
G04 #@! TO.N,Net-(Q2-Pad1)*
X96901000Y-168910000D03*
D16*
G04 #@! TO.P,R6,1*
G04 #@! TO.N,Net-(R6-Pad1)*
X96901000Y-163830000D03*
G04 #@! TD*
D26*
G04 #@! TO.P,H4,1*
G04 #@! TO.N,N/C*
X48941056Y-125048944D03*
X47244000Y-124346000D03*
X45546944Y-125048944D03*
X44844000Y-126746000D03*
X45546944Y-128443056D03*
X47244000Y-129146000D03*
X48941056Y-128443056D03*
X49644000Y-126746000D03*
D27*
X47244000Y-126746000D03*
G04 #@! TD*
D26*
G04 #@! TO.P,H3,1*
G04 #@! TO.N,N/C*
X105964056Y-177118944D03*
X104267000Y-176416000D03*
X102569944Y-177118944D03*
X101867000Y-178816000D03*
X102569944Y-180513056D03*
X104267000Y-181216000D03*
X105964056Y-180513056D03*
X106667000Y-178816000D03*
D27*
X104267000Y-178816000D03*
G04 #@! TD*
D26*
G04 #@! TO.P,H2,1*
G04 #@! TO.N,N/C*
X105964056Y-124908944D03*
X104267000Y-124206000D03*
X102569944Y-124908944D03*
X101867000Y-126606000D03*
X102569944Y-128303056D03*
X104267000Y-129006000D03*
X105964056Y-128303056D03*
X106667000Y-126606000D03*
D27*
X104267000Y-126606000D03*
G04 #@! TD*
D26*
G04 #@! TO.P,H1,1*
G04 #@! TO.N,N/C*
X48941056Y-177245944D03*
X47244000Y-176543000D03*
X45546944Y-177245944D03*
X44844000Y-178943000D03*
X45546944Y-180640056D03*
X47244000Y-181343000D03*
X48941056Y-180640056D03*
X49644000Y-178943000D03*
D27*
X47244000Y-178943000D03*
G04 #@! TD*
D21*
G04 #@! TO.P,C13,2*
G04 #@! TO.N,/Power4*
X88900000Y-141899000D03*
G04 #@! TO.P,C13,1*
G04 #@! TO.N,Net-(C13-Pad1)*
X88900000Y-144399000D03*
G04 #@! TD*
G04 #@! TO.P,C12,2*
G04 #@! TO.N,/Power3*
X88773000Y-161076000D03*
G04 #@! TO.P,C12,1*
G04 #@! TO.N,Net-(C1-Pad1)*
X88773000Y-163576000D03*
G04 #@! TD*
G04 #@! TO.P,C10,2*
G04 #@! TO.N,GND*
X86741000Y-157948000D03*
G04 #@! TO.P,C10,1*
G04 #@! TO.N,VCC*
X86741000Y-155448000D03*
G04 #@! TD*
G04 #@! TO.P,C9,2*
G04 #@! TO.N,GND*
X51562000Y-153710000D03*
G04 #@! TO.P,C9,1*
G04 #@! TO.N,VCC*
X51562000Y-156210000D03*
G04 #@! TD*
G04 #@! TO.P,C8,2*
G04 #@! TO.N,GND*
X54356000Y-151485000D03*
G04 #@! TO.P,C8,1*
G04 #@! TO.N,VCC*
X54356000Y-148985000D03*
G04 #@! TD*
G04 #@! TO.P,C7,2*
G04 #@! TO.N,GND*
X83693000Y-149693000D03*
G04 #@! TO.P,C7,1*
G04 #@! TO.N,VCC*
X83693000Y-147193000D03*
G04 #@! TD*
G04 #@! TO.P,C6,2*
G04 #@! TO.N,GND*
X54356000Y-156196000D03*
G04 #@! TO.P,C6,1*
G04 #@! TO.N,VCC*
X54356000Y-153696000D03*
G04 #@! TD*
G04 #@! TO.P,C5,2*
G04 #@! TO.N,GND*
X51562000Y-151471000D03*
G04 #@! TO.P,C5,1*
G04 #@! TO.N,VCC*
X51562000Y-148971000D03*
G04 #@! TD*
G04 #@! TO.P,C4,2*
G04 #@! TO.N,GND*
X86741000Y-149693000D03*
G04 #@! TO.P,C4,1*
G04 #@! TO.N,VCC*
X86741000Y-147193000D03*
G04 #@! TD*
G04 #@! TO.P,C3,2*
G04 #@! TO.N,GND*
X83693000Y-157948000D03*
G04 #@! TO.P,C3,1*
G04 #@! TO.N,VCC*
X83693000Y-155448000D03*
G04 #@! TD*
D22*
G04 #@! TO.P,C2,1*
G04 #@! TO.N,Net-(C13-Pad1)*
X84709000Y-143891000D03*
D21*
G04 #@! TO.P,C2,2*
G04 #@! TO.N,/Power4*
X84709000Y-141391000D03*
G04 #@! TD*
D22*
G04 #@! TO.P,C1,1*
G04 #@! TO.N,Net-(C1-Pad1)*
X84582000Y-163576000D03*
D21*
G04 #@! TO.P,C1,2*
G04 #@! TO.N,/Power3*
X84582000Y-161076000D03*
G04 #@! TD*
D28*
G04 #@! TO.P,U2,8*
G04 #@! TO.N,Net-(C13-Pad1)*
X80264000Y-149334775D03*
G04 #@! TO.P,U2,4*
G04 #@! TO.N,GND*
X72644000Y-141714775D03*
G04 #@! TO.P,U2,7*
G04 #@! TO.N,Net-(R10-Pad2)*
X77724000Y-149334775D03*
G04 #@! TO.P,U2,3*
G04 #@! TO.N,Net-(R7-Pad2)*
X75184000Y-141714775D03*
G04 #@! TO.P,U2,6*
G04 #@! TO.N,/Power4*
X75184000Y-149334775D03*
G04 #@! TO.P,U2,2*
G04 #@! TO.N,Net-(R4-Pad1)*
X77724000Y-141714775D03*
G04 #@! TO.P,U2,5*
G04 #@! TO.N,Net-(R9-Pad1)*
X72644000Y-149334775D03*
D29*
G04 #@! TO.P,U2,1*
G04 #@! TO.N,VCC*
X80264000Y-141714775D03*
G04 #@! TD*
D28*
G04 #@! TO.P,U1,8*
G04 #@! TO.N,Net-(C1-Pad1)*
X80264000Y-163449000D03*
G04 #@! TO.P,U1,4*
G04 #@! TO.N,GND*
X72644000Y-155829000D03*
G04 #@! TO.P,U1,7*
G04 #@! TO.N,Net-(R8-Pad2)*
X77724000Y-163449000D03*
G04 #@! TO.P,U1,3*
G04 #@! TO.N,Net-(R2-Pad2)*
X75184000Y-155829000D03*
G04 #@! TO.P,U1,6*
G04 #@! TO.N,/Power3*
X75184000Y-163449000D03*
G04 #@! TO.P,U1,2*
G04 #@! TO.N,Net-(R1-Pad1)*
X77724000Y-155829000D03*
G04 #@! TO.P,U1,5*
G04 #@! TO.N,Net-(R6-Pad1)*
X72644000Y-163449000D03*
D29*
G04 #@! TO.P,U1,1*
G04 #@! TO.N,VCC*
X80264000Y-155829000D03*
G04 #@! TD*
D11*
G04 #@! TO.P,J3,3*
G04 #@! TO.N,GND*
X46609000Y-149840000D03*
G04 #@! TO.P,J3,2*
G04 #@! TO.N,/Signal2*
X46609000Y-152380000D03*
D10*
G04 #@! TO.P,J3,1*
G04 #@! TO.N,/Signal*
X46609000Y-154920000D03*
G04 #@! TD*
D11*
G04 #@! TO.P,Snub_High,2*
G04 #@! TO.N,/Power4*
X102616000Y-135636000D03*
D10*
G04 #@! TO.P,Snub_High,1*
G04 #@! TO.N,VCC*
X102616000Y-133096000D03*
G04 #@! TD*
D17*
G04 #@! TO.P,CS,2*
G04 #@! TO.N,N/C*
X103632000Y-166012000D03*
D18*
G04 #@! TD*
G04 #@! TO.N,GND*
G04 #@! TO.C,CS*
G36*
X105456829Y-160473202D02*
X105481062Y-160476797D01*
X105504827Y-160482749D01*
X105527893Y-160491003D01*
X105550039Y-160501477D01*
X105571053Y-160514072D01*
X105590730Y-160528666D01*
X105608882Y-160545118D01*
X105625334Y-160563270D01*
X105639928Y-160582947D01*
X105652523Y-160603961D01*
X105662997Y-160626107D01*
X105671251Y-160649173D01*
X105677203Y-160672938D01*
X105680798Y-160697171D01*
X105682000Y-160721640D01*
X105682000Y-163382360D01*
X105680798Y-163406829D01*
X105677203Y-163431062D01*
X105671251Y-163454827D01*
X105662997Y-163477893D01*
X105652523Y-163500039D01*
X105639928Y-163521053D01*
X105625334Y-163540730D01*
X105608882Y-163558882D01*
X105590730Y-163575334D01*
X105571053Y-163589928D01*
X105550039Y-163602523D01*
X105527893Y-163612997D01*
X105504827Y-163621251D01*
X105481062Y-163627203D01*
X105456829Y-163630798D01*
X105432360Y-163632000D01*
X101831640Y-163632000D01*
X101807171Y-163630798D01*
X101782938Y-163627203D01*
X101759173Y-163621251D01*
X101736107Y-163612997D01*
X101713961Y-163602523D01*
X101692947Y-163589928D01*
X101673270Y-163575334D01*
X101655118Y-163558882D01*
X101638666Y-163540730D01*
X101624072Y-163521053D01*
X101611477Y-163500039D01*
X101601003Y-163477893D01*
X101592749Y-163454827D01*
X101586797Y-163431062D01*
X101583202Y-163406829D01*
X101582000Y-163382360D01*
X101582000Y-160721640D01*
X101583202Y-160697171D01*
X101586797Y-160672938D01*
X101592749Y-160649173D01*
X101601003Y-160626107D01*
X101611477Y-160603961D01*
X101624072Y-160582947D01*
X101638666Y-160563270D01*
X101655118Y-160545118D01*
X101673270Y-160528666D01*
X101692947Y-160514072D01*
X101713961Y-160501477D01*
X101736107Y-160491003D01*
X101759173Y-160482749D01*
X101782938Y-160476797D01*
X101807171Y-160473202D01*
X101831640Y-160472000D01*
X105432360Y-160472000D01*
X105456829Y-160473202D01*
X105456829Y-160473202D01*
G37*
D19*
G04 #@! TO.P,CS,1*
G04 #@! TO.N,GND*
X103632000Y-162052000D03*
G04 #@! TD*
D11*
G04 #@! TO.P,SW2,3*
G04 #@! TO.N,GND*
X104394000Y-155702000D03*
G04 #@! TO.P,SW2,2*
G04 #@! TO.N,N/C*
X104394000Y-153162000D03*
D10*
G04 #@! TO.P,SW2,1*
X104394000Y-150622000D03*
G04 #@! TD*
D30*
G04 #@! TO.N,GND*
X68072000Y-142748000D03*
G04 #@! TD*
D31*
G04 #@! TO.N,*
X92456000Y-178562000D02*
X89916000Y-176022000D01*
X97536000Y-178562000D02*
X92456000Y-178562000D01*
X99822000Y-176276000D02*
X97536000Y-178562000D01*
X99822000Y-169352000D02*
X99822000Y-176276000D01*
X89916000Y-176022000D02*
X89916000Y-171450000D01*
X103162000Y-166012000D02*
X99822000Y-169352000D01*
X103632000Y-166012000D02*
X103162000Y-166012000D01*
X87520000Y-169054000D02*
X87520000Y-167055000D01*
X89916000Y-171450000D02*
X87520000Y-169054000D01*
D32*
G04 #@! TO.N,GND*
X54342000Y-151471000D02*
X54356000Y-151485000D01*
X51562000Y-151471000D02*
X54342000Y-151471000D01*
X55525000Y-151485000D02*
X57150000Y-149860000D01*
X54356000Y-151485000D02*
X55525000Y-151485000D01*
X54596000Y-155956000D02*
X54356000Y-156196000D01*
X56134000Y-155956000D02*
X54596000Y-155956000D01*
X56134000Y-155956000D02*
X57150000Y-155956000D01*
D31*
G04 #@! TO.N,VCC*
X83312000Y-138666775D02*
X80264000Y-141714775D01*
X83312000Y-138049000D02*
X83312000Y-138666775D01*
X95250000Y-154686000D02*
X93980000Y-155956000D01*
X95250000Y-150876000D02*
X95250000Y-154686000D01*
X93980000Y-149606000D02*
X95250000Y-150876000D01*
D32*
G04 #@! TO.N,Net-(R1-Pad1)*
X70839949Y-160409000D02*
X69850000Y-160409000D01*
X74541000Y-160409000D02*
X70839949Y-160409000D01*
X77724000Y-155829000D02*
X77724000Y-157226000D01*
X77724000Y-157226000D02*
X74541000Y-160409000D01*
G04 #@! TO.N,Net-(R2-Pad2)*
X78548001Y-153353999D02*
X79248000Y-152654000D01*
X77773000Y-154129000D02*
X78548001Y-153353999D01*
X75741000Y-154129000D02*
X77773000Y-154129000D01*
X75184000Y-155829000D02*
X75184000Y-154686000D01*
X75184000Y-154686000D02*
X75741000Y-154129000D01*
G04 #@! TO.N,Net-(R7-Pad2)*
X75184000Y-140208000D02*
X75184000Y-141714775D01*
X78232000Y-138049000D02*
X77343000Y-138049000D01*
X77343000Y-138049000D02*
X75184000Y-140208000D01*
G04 #@! TO.N,/Signal*
X48748000Y-154920000D02*
X46609000Y-154920000D01*
X49276000Y-155448000D02*
X48748000Y-154920000D01*
X49276000Y-156972000D02*
X49276000Y-155448000D01*
X50100015Y-157796015D02*
X49276000Y-156972000D01*
X69850000Y-155329000D02*
X67382985Y-157796015D01*
X67382985Y-157796015D02*
X50100015Y-157796015D01*
X66226015Y-157796015D02*
X64770000Y-156340000D01*
X67382985Y-157796015D02*
X66226015Y-157796015D01*
G04 #@! TO.N,/Signal2*
X64770000Y-148460000D02*
X64770000Y-149860000D01*
X66040000Y-147320000D02*
X64770000Y-148460000D01*
X65959999Y-147239999D02*
X66040000Y-147320000D01*
X49864001Y-147239999D02*
X65959999Y-147239999D01*
X49276000Y-147828000D02*
X49864001Y-147239999D01*
X49276000Y-151892000D02*
X49276000Y-147828000D01*
X48788000Y-152380000D02*
X49276000Y-151892000D01*
X46609000Y-152380000D02*
X48788000Y-152380000D01*
X68580000Y-147320000D02*
X66040000Y-147320000D01*
X69150001Y-147890001D02*
X68580000Y-147320000D01*
X69850000Y-149864775D02*
X69150001Y-149164776D01*
X69150001Y-149164776D02*
X69150001Y-147890001D01*
G04 #@! TO.N,Net-(Q1-Pad1)*
X77901000Y-167055000D02*
X78232000Y-167386000D01*
X74180000Y-167055000D02*
X77901000Y-167055000D01*
G04 #@! TO.N,Net-(Q3-Pad1)*
X72743266Y-150984785D02*
X72064000Y-151664051D01*
X72126229Y-150984785D02*
X72743266Y-150984785D01*
X71393990Y-148609990D02*
X71393990Y-150252546D01*
X69100000Y-137647500D02*
X65024000Y-141723500D01*
X65024000Y-141723500D02*
X65024000Y-145288000D01*
X69100000Y-137600000D02*
X69100000Y-137647500D01*
X65024000Y-145288000D02*
X66040000Y-146304000D01*
X72064000Y-151664051D02*
X72064000Y-152654000D01*
X66040000Y-146304000D02*
X69088000Y-146304000D01*
X71393990Y-150252546D02*
X72126229Y-150984785D01*
X69088000Y-146304000D02*
X71393990Y-148609990D01*
G04 #@! TO.N,/Power3*
X88773000Y-161076000D02*
X84582000Y-161076000D01*
X75184000Y-162306000D02*
X75184000Y-163449000D01*
X84582000Y-161076000D02*
X76414000Y-161076000D01*
X76414000Y-161076000D02*
X75184000Y-162306000D01*
X75184000Y-164592000D02*
X75184000Y-163449000D01*
X74476990Y-165299010D02*
X75184000Y-164592000D01*
X70808490Y-165299010D02*
X74476990Y-165299010D01*
X69100000Y-167055000D02*
X69100000Y-167007500D01*
X69100000Y-167007500D02*
X70808490Y-165299010D01*
D31*
X106172000Y-172974000D02*
X102616000Y-172974000D01*
X101482000Y-140208000D02*
X99314000Y-142376000D01*
X103632000Y-140208000D02*
X101482000Y-140208000D01*
X99314000Y-154622500D02*
X99314000Y-149104000D01*
D32*
X88773000Y-161076000D02*
X90892000Y-161076000D01*
D31*
X99314000Y-156210000D02*
X99314000Y-149104000D01*
X106172000Y-172974000D02*
X107374081Y-172974000D01*
X108966000Y-171382081D02*
X108966000Y-162275874D01*
X108966000Y-162275874D02*
X105694126Y-159004000D01*
X107374081Y-172974000D02*
X108966000Y-171382081D01*
X105694126Y-159004000D02*
X102108000Y-159004000D01*
X102108000Y-159004000D02*
X99314000Y-156210000D01*
X99314000Y-142376000D02*
X99314000Y-149104000D01*
X90060000Y-165752000D02*
X90060000Y-167055000D01*
X97536000Y-156210000D02*
X93472000Y-160274000D01*
X99314000Y-156210000D02*
X97536000Y-156210000D01*
X93472000Y-160274000D02*
X92202000Y-160274000D01*
X92202000Y-160274000D02*
X91220000Y-161256000D01*
X91220000Y-161256000D02*
X91220000Y-164592000D01*
X91220000Y-164592000D02*
X90060000Y-165752000D01*
D32*
G04 #@! TO.N,/Power4*
X74180000Y-137600000D02*
X74180000Y-137552500D01*
X90060000Y-140739000D02*
X88900000Y-141899000D01*
X85598000Y-140502000D02*
X84709000Y-141391000D01*
X84582000Y-135890000D02*
X85598000Y-136906000D01*
X77342500Y-135890000D02*
X84582000Y-135890000D01*
X74180000Y-137600000D02*
X75632500Y-137600000D01*
X75632500Y-137600000D02*
X77342500Y-135890000D01*
X85598000Y-136906000D02*
X85598000Y-140502000D01*
X88900000Y-141899000D02*
X87035000Y-141899000D01*
X86527000Y-141391000D02*
X84709000Y-141391000D01*
X87035000Y-141899000D02*
X86527000Y-141391000D01*
D31*
X90060000Y-139336000D02*
X90060000Y-137600000D01*
X90474010Y-139750010D02*
X90060000Y-139336000D01*
D32*
X90060000Y-140164020D02*
X90474010Y-139750010D01*
X90060000Y-140739000D02*
X90060000Y-140164020D01*
D31*
X102362000Y-135128000D02*
X98298000Y-139192000D01*
X106172000Y-135128000D02*
X102362000Y-135128000D01*
X94996000Y-139192000D02*
X94437990Y-139750010D01*
X94437990Y-139750010D02*
X90474010Y-139750010D01*
X98298000Y-139192000D02*
X94996000Y-139192000D01*
X105260000Y-144168000D02*
X103632000Y-144168000D01*
X107442000Y-141986000D02*
X105260000Y-144168000D01*
X106172000Y-135128000D02*
X107442000Y-136398000D01*
X107442000Y-136398000D02*
X107442000Y-141986000D01*
X103632000Y-144168000D02*
X104798000Y-144168000D01*
D32*
G04 #@! TO.N,Net-(R4-Pad1)*
X69845225Y-144780000D02*
X69850000Y-144784775D01*
X67437000Y-144780000D02*
X69845225Y-144780000D01*
X70839949Y-144784775D02*
X69850000Y-144784775D01*
X75941225Y-144784775D02*
X70839949Y-144784775D01*
X77724000Y-141714775D02*
X77724000Y-143002000D01*
X77724000Y-143002000D02*
X75941225Y-144784775D01*
G04 #@! TO.N,Net-(R8-Pad2)*
X82322051Y-167386000D02*
X83312000Y-167386000D01*
X80264000Y-167386000D02*
X82322051Y-167386000D01*
X77724000Y-163449000D02*
X77724000Y-164846000D01*
X77724000Y-164846000D02*
X80264000Y-167386000D01*
G04 #@! TO.N,Net-(R9-Pad1)*
X97028000Y-140843000D02*
X96901000Y-140716000D01*
X96901000Y-142875000D02*
X96901000Y-141224000D01*
X94033001Y-145742999D02*
X96901000Y-142875000D01*
X74535776Y-145742999D02*
X94033001Y-145742999D01*
X72644000Y-149334775D02*
X72644000Y-147634775D01*
X72644000Y-147634775D02*
X74535776Y-145742999D01*
G04 #@! TO.N,Net-(R10-Pad2)*
X77724000Y-152074000D02*
X77144000Y-152654000D01*
X77724000Y-149334775D02*
X77724000Y-152074000D01*
G04 #@! TD*
D33*
G04 #@! TO.N,GND*
G36*
X99940000Y-125745306D02*
X99940000Y-127466694D01*
X100598746Y-129057049D01*
X101815951Y-130274254D01*
X103406306Y-130933000D01*
X105127694Y-130933000D01*
X106718049Y-130274254D01*
X107935254Y-129057049D01*
X108594000Y-127466694D01*
X108594000Y-125745306D01*
X108023087Y-124367000D01*
X109567001Y-124367000D01*
X109567000Y-160222396D01*
X107152086Y-157807482D01*
X107047367Y-157650759D01*
X106426495Y-157235905D01*
X105878992Y-157127000D01*
X105878988Y-157127000D01*
X105694126Y-157090229D01*
X105509264Y-157127000D01*
X102885479Y-157127000D01*
X101191000Y-155432522D01*
X101191000Y-153162000D01*
X102378269Y-153162000D01*
X102531707Y-153933387D01*
X102968663Y-154587337D01*
X103622613Y-155024293D01*
X104199286Y-155139000D01*
X104588714Y-155139000D01*
X105165387Y-155024293D01*
X105819337Y-154587337D01*
X106256293Y-153933387D01*
X106409731Y-153162000D01*
X106256293Y-152390613D01*
X106120963Y-152188078D01*
X106305611Y-151911733D01*
X106393079Y-151472000D01*
X106393079Y-149772000D01*
X106305611Y-149332267D01*
X106056522Y-148959478D01*
X105683733Y-148710389D01*
X105244000Y-148622921D01*
X103544000Y-148622921D01*
X103104267Y-148710389D01*
X102731478Y-148959478D01*
X102482389Y-149332267D01*
X102394921Y-149772000D01*
X102394921Y-151472000D01*
X102482389Y-151911733D01*
X102667037Y-152188078D01*
X102531707Y-152390613D01*
X102378269Y-153162000D01*
X101191000Y-153162000D01*
X101191000Y-146090661D01*
X101210362Y-146119638D01*
X102105781Y-146717938D01*
X102895385Y-146875000D01*
X104368615Y-146875000D01*
X105158219Y-146717938D01*
X106053638Y-146119638D01*
X106324612Y-145714097D01*
X106613241Y-145521241D01*
X106717960Y-145364518D01*
X108638520Y-143443959D01*
X108795241Y-143339241D01*
X108936738Y-143127477D01*
X109210095Y-142718369D01*
X109248080Y-142527404D01*
X109319000Y-142170866D01*
X109319000Y-142170862D01*
X109355771Y-141986000D01*
X109319000Y-141801138D01*
X109319000Y-136582860D01*
X109355771Y-136397999D01*
X109319000Y-136213138D01*
X109319000Y-136213134D01*
X109210095Y-135665631D01*
X108795241Y-135044759D01*
X108638521Y-134940042D01*
X107629960Y-133931482D01*
X107525241Y-133774759D01*
X106904369Y-133359905D01*
X106356866Y-133251000D01*
X106356862Y-133251000D01*
X106172000Y-133214229D01*
X105987138Y-133251000D01*
X104615079Y-133251000D01*
X104615079Y-132246000D01*
X104527611Y-131806267D01*
X104278522Y-131433478D01*
X103905733Y-131184389D01*
X103466000Y-131096921D01*
X101766000Y-131096921D01*
X101326267Y-131184389D01*
X100953478Y-131433478D01*
X100704389Y-131806267D01*
X100616921Y-132246000D01*
X100616921Y-133946000D01*
X100662148Y-134173373D01*
X98751802Y-136083719D01*
X98621996Y-135431140D01*
X98218194Y-134826806D01*
X97613860Y-134423004D01*
X97182209Y-134337143D01*
X98138622Y-133380730D01*
X98690800Y-132047655D01*
X98690800Y-130604745D01*
X98138622Y-129271670D01*
X97118330Y-128251378D01*
X95785255Y-127699200D01*
X94342345Y-127699200D01*
X93009270Y-128251378D01*
X91988978Y-129271670D01*
X91436800Y-130604745D01*
X91436800Y-132047655D01*
X91988978Y-133380730D01*
X93009270Y-134401022D01*
X94342345Y-134953200D01*
X95499352Y-134953200D01*
X95180004Y-135431140D01*
X95038207Y-136144000D01*
X95180004Y-136856860D01*
X95486123Y-137315000D01*
X95180860Y-137315000D01*
X94995999Y-137278229D01*
X94811139Y-137315000D01*
X94811134Y-137315000D01*
X94678255Y-137341431D01*
X94558845Y-136741120D01*
X94099235Y-136053265D01*
X93411379Y-135593655D01*
X92600000Y-135432261D01*
X91788620Y-135593655D01*
X91330000Y-135900095D01*
X90871379Y-135593655D01*
X90060000Y-135432261D01*
X89248620Y-135593655D01*
X89121782Y-135678405D01*
X88912233Y-135538389D01*
X88472500Y-135450921D01*
X86567500Y-135450921D01*
X86169466Y-135530095D01*
X85651589Y-135012218D01*
X85612155Y-134953200D01*
X85828455Y-134953200D01*
X87161530Y-134401022D01*
X88181822Y-133380730D01*
X88734000Y-132047655D01*
X88734000Y-130604745D01*
X88181822Y-129271670D01*
X87161530Y-128251378D01*
X85828455Y-127699200D01*
X84385545Y-127699200D01*
X83052470Y-128251378D01*
X82032178Y-129271670D01*
X81480000Y-130604745D01*
X81480000Y-132047655D01*
X82032178Y-133380730D01*
X83052470Y-134401022D01*
X83322809Y-134513000D01*
X78427991Y-134513000D01*
X78698330Y-134401022D01*
X79718622Y-133380730D01*
X80270800Y-132047655D01*
X80270800Y-130604745D01*
X79718622Y-129271670D01*
X78698330Y-128251378D01*
X77365255Y-127699200D01*
X75922345Y-127699200D01*
X74589270Y-128251378D01*
X73568978Y-129271670D01*
X73016800Y-130604745D01*
X73016800Y-132047655D01*
X73568978Y-133380730D01*
X74589270Y-134401022D01*
X75922345Y-134953200D01*
X76312345Y-134953200D01*
X76272912Y-135012216D01*
X75411055Y-135874073D01*
X74991379Y-135593655D01*
X74180000Y-135432261D01*
X73368620Y-135593655D01*
X72910000Y-135900095D01*
X72451379Y-135593655D01*
X71640000Y-135432261D01*
X70828620Y-135593655D01*
X70701782Y-135678405D01*
X70492233Y-135538389D01*
X70052500Y-135450921D01*
X68147500Y-135450921D01*
X67707767Y-135538389D01*
X67334978Y-135787478D01*
X67085889Y-136160267D01*
X66998421Y-136600000D01*
X66998421Y-137801707D01*
X64146216Y-140653913D01*
X64031238Y-140730739D01*
X63781770Y-141104095D01*
X63726894Y-141186222D01*
X63620023Y-141723500D01*
X63647000Y-141859123D01*
X63647001Y-145152372D01*
X63620023Y-145288000D01*
X63726894Y-145825278D01*
X63752098Y-145862999D01*
X51067639Y-145862999D01*
X51112500Y-145754695D01*
X51112500Y-144948305D01*
X50803907Y-144203297D01*
X50233703Y-143633093D01*
X49488695Y-143324500D01*
X48682305Y-143324500D01*
X47937297Y-143633093D01*
X47367093Y-144203297D01*
X47058500Y-144948305D01*
X47058500Y-145754695D01*
X47367093Y-146499703D01*
X47937297Y-147069907D01*
X48085438Y-147131269D01*
X47978894Y-147290722D01*
X47872023Y-147828000D01*
X47899001Y-147963628D01*
X47899000Y-150864234D01*
X47380387Y-150517707D01*
X46803714Y-150403000D01*
X46414286Y-150403000D01*
X45837613Y-150517707D01*
X45183663Y-150954663D01*
X44746707Y-151608613D01*
X44593269Y-152380000D01*
X44746707Y-153151387D01*
X44882037Y-153353922D01*
X44697389Y-153630267D01*
X44609921Y-154070000D01*
X44609921Y-155770000D01*
X44697389Y-156209733D01*
X44946478Y-156582522D01*
X45319267Y-156831611D01*
X45759000Y-156919079D01*
X47459000Y-156919079D01*
X47898733Y-156831611D01*
X47899000Y-156831433D01*
X47899000Y-156836377D01*
X47872023Y-156972000D01*
X47936417Y-157295733D01*
X47978894Y-157509278D01*
X48283238Y-157964761D01*
X48398216Y-158041587D01*
X49030425Y-158673796D01*
X49107253Y-158788777D01*
X49562736Y-159093121D01*
X49964392Y-159173015D01*
X50100014Y-159199992D01*
X50235636Y-159173015D01*
X66089217Y-159173015D01*
X65888144Y-159374088D01*
X65610000Y-160045587D01*
X65610000Y-160772413D01*
X65888144Y-161443912D01*
X66402088Y-161957856D01*
X67073587Y-162236000D01*
X67800413Y-162236000D01*
X68471912Y-161957856D01*
X68643500Y-161786268D01*
X68815088Y-161957856D01*
X69486587Y-162236000D01*
X70213413Y-162236000D01*
X70884912Y-161957856D01*
X71056768Y-161786000D01*
X71170328Y-161786000D01*
X70828806Y-162297122D01*
X70717000Y-162859208D01*
X70717000Y-163913231D01*
X70672867Y-163922010D01*
X70271211Y-164001904D01*
X69815728Y-164306248D01*
X69738902Y-164421226D01*
X69244187Y-164915942D01*
X69100000Y-164887261D01*
X68288621Y-165048655D01*
X67600765Y-165508265D01*
X67141155Y-166196120D01*
X67020500Y-166802692D01*
X67020500Y-167307307D01*
X67141155Y-167913879D01*
X67600765Y-168601735D01*
X68288620Y-169061345D01*
X69100000Y-169222739D01*
X69911379Y-169061345D01*
X70370000Y-168754905D01*
X70828620Y-169061345D01*
X71640000Y-169222739D01*
X72451379Y-169061345D01*
X72578217Y-168976595D01*
X72787767Y-169116611D01*
X73227500Y-169204079D01*
X75132500Y-169204079D01*
X75572233Y-169116611D01*
X75945022Y-168867522D01*
X76194111Y-168494733D01*
X76206589Y-168432000D01*
X76694232Y-168432000D01*
X77197088Y-168934856D01*
X77868587Y-169213000D01*
X78595413Y-169213000D01*
X79266912Y-168934856D01*
X79601999Y-168599769D01*
X79726721Y-168683106D01*
X80128377Y-168763000D01*
X80263999Y-168789977D01*
X80399621Y-168763000D01*
X82084312Y-168763000D01*
X82599140Y-169106996D01*
X83132057Y-169213000D01*
X83491943Y-169213000D01*
X84024860Y-169106996D01*
X84629194Y-168703194D01*
X85032996Y-168098860D01*
X85174793Y-167386000D01*
X85032996Y-166673140D01*
X84629194Y-166068806D01*
X84024860Y-165665004D01*
X83491943Y-165559000D01*
X83132057Y-165559000D01*
X82599140Y-165665004D01*
X82084312Y-166009000D01*
X80834372Y-166009000D01*
X80576887Y-165751515D01*
X81015877Y-165664194D01*
X81653289Y-165238289D01*
X82079194Y-164600878D01*
X82191000Y-164038792D01*
X82191000Y-162859209D01*
X82110200Y-162453000D01*
X82697169Y-162453000D01*
X82632921Y-162776000D01*
X82632921Y-164376000D01*
X82720389Y-164815733D01*
X82969478Y-165188522D01*
X83342267Y-165437611D01*
X83782000Y-165525079D01*
X85382000Y-165525079D01*
X85821733Y-165437611D01*
X86194522Y-165188522D01*
X86443611Y-164815733D01*
X86531079Y-164376000D01*
X86531079Y-162776000D01*
X86466831Y-162453000D01*
X87170810Y-162453000D01*
X87139368Y-162484442D01*
X86846000Y-163192696D01*
X86846000Y-163959304D01*
X87139368Y-164667558D01*
X87385771Y-164913961D01*
X86708621Y-165048655D01*
X86020765Y-165508265D01*
X85561155Y-166196120D01*
X85440500Y-166802692D01*
X85440500Y-167307307D01*
X85561155Y-167913879D01*
X85643001Y-168036370D01*
X85643000Y-168869138D01*
X85606229Y-169054000D01*
X85643000Y-169238862D01*
X85643000Y-169238865D01*
X85735083Y-169701800D01*
X84334745Y-169701800D01*
X83001670Y-170253978D01*
X81981378Y-171274270D01*
X81429200Y-172607345D01*
X81429200Y-174050255D01*
X81981378Y-175383330D01*
X83001670Y-176403622D01*
X84334745Y-176955800D01*
X85777655Y-176955800D01*
X87110730Y-176403622D01*
X88039000Y-175475352D01*
X88039000Y-175837138D01*
X88002229Y-176022000D01*
X88039000Y-176206862D01*
X88039000Y-176206865D01*
X88147905Y-176754368D01*
X88562759Y-177375241D01*
X88719482Y-177479960D01*
X90998041Y-179758520D01*
X91102759Y-179915241D01*
X91723631Y-180330095D01*
X92271134Y-180439000D01*
X92271138Y-180439000D01*
X92455999Y-180475771D01*
X92640860Y-180439000D01*
X97351138Y-180439000D01*
X97536000Y-180475771D01*
X97720862Y-180439000D01*
X97720866Y-180439000D01*
X98268369Y-180330095D01*
X98889241Y-179915241D01*
X98993960Y-179758518D01*
X99940000Y-178812478D01*
X99940000Y-179676694D01*
X100568902Y-181195000D01*
X50994703Y-181195000D01*
X51571000Y-179803694D01*
X51571000Y-178082306D01*
X50912254Y-176491951D01*
X49705688Y-175285385D01*
X53277000Y-175285385D01*
X53277000Y-176758614D01*
X53434062Y-177548218D01*
X54032362Y-178443637D01*
X54927781Y-179041938D01*
X55984000Y-179252033D01*
X57040218Y-179041938D01*
X57935637Y-178443638D01*
X58533938Y-177548219D01*
X58691000Y-176758615D01*
X58691000Y-175285386D01*
X58533938Y-174495782D01*
X57935638Y-173600362D01*
X57040219Y-173002062D01*
X55984000Y-172791967D01*
X54927782Y-173002062D01*
X54032363Y-173600362D01*
X53434062Y-174495781D01*
X53277000Y-175285385D01*
X49705688Y-175285385D01*
X49695049Y-175274746D01*
X48104694Y-174616000D01*
X46383306Y-174616000D01*
X44792951Y-175274746D01*
X43575746Y-176491951D01*
X43087000Y-177671889D01*
X43087000Y-172293087D01*
X45544000Y-172293087D01*
X45544000Y-173019913D01*
X45822144Y-173691412D01*
X46336088Y-174205356D01*
X47007587Y-174483500D01*
X47734413Y-174483500D01*
X48405912Y-174205356D01*
X48919856Y-173691412D01*
X49198000Y-173019913D01*
X49198000Y-172607345D01*
X63009200Y-172607345D01*
X63009200Y-174050255D01*
X63561378Y-175383330D01*
X64581670Y-176403622D01*
X65914745Y-176955800D01*
X67357655Y-176955800D01*
X68690730Y-176403622D01*
X69711022Y-175383330D01*
X70263200Y-174050255D01*
X70263200Y-172607345D01*
X72966000Y-172607345D01*
X72966000Y-174050255D01*
X73518178Y-175383330D01*
X74538470Y-176403622D01*
X75871545Y-176955800D01*
X77314455Y-176955800D01*
X78647530Y-176403622D01*
X79667822Y-175383330D01*
X80220000Y-174050255D01*
X80220000Y-172607345D01*
X79667822Y-171274270D01*
X78647530Y-170253978D01*
X77314455Y-169701800D01*
X75871545Y-169701800D01*
X74538470Y-170253978D01*
X73518178Y-171274270D01*
X72966000Y-172607345D01*
X70263200Y-172607345D01*
X69711022Y-171274270D01*
X68690730Y-170253978D01*
X67357655Y-169701800D01*
X65914745Y-169701800D01*
X64581670Y-170253978D01*
X63561378Y-171274270D01*
X63009200Y-172607345D01*
X49198000Y-172607345D01*
X49198000Y-172293087D01*
X48919856Y-171621588D01*
X48405912Y-171107644D01*
X47734413Y-170829500D01*
X47007587Y-170829500D01*
X46336088Y-171107644D01*
X45822144Y-171621588D01*
X45544000Y-172293087D01*
X43087000Y-172293087D01*
X43087000Y-167576500D01*
X45508207Y-167576500D01*
X45650004Y-168289360D01*
X46053806Y-168893694D01*
X46658140Y-169297496D01*
X47191057Y-169403500D01*
X47550943Y-169403500D01*
X48083860Y-169297496D01*
X48688194Y-168893694D01*
X49091996Y-168289360D01*
X49233793Y-167576500D01*
X49091996Y-166863640D01*
X48948882Y-166649454D01*
X49154203Y-166564407D01*
X49724407Y-165994203D01*
X50033000Y-165249195D01*
X50033000Y-164442805D01*
X49724407Y-163697797D01*
X49154203Y-163127593D01*
X48409195Y-162819000D01*
X47602805Y-162819000D01*
X46857797Y-163127593D01*
X46287593Y-163697797D01*
X45979000Y-164442805D01*
X45979000Y-165249195D01*
X46287593Y-165994203D01*
X46352869Y-166059479D01*
X46053806Y-166259306D01*
X45650004Y-166863640D01*
X45508207Y-167576500D01*
X43087000Y-167576500D01*
X43087000Y-161684000D01*
X54910984Y-161684000D01*
X54910984Y-163284000D01*
X54998452Y-163723733D01*
X55247541Y-164096522D01*
X55581921Y-164319947D01*
X55581921Y-164884000D01*
X55669389Y-165323733D01*
X55918478Y-165696522D01*
X56291267Y-165945611D01*
X56731000Y-166033079D01*
X58331000Y-166033079D01*
X58770733Y-165945611D01*
X59143522Y-165696522D01*
X59392611Y-165323733D01*
X59480079Y-164884000D01*
X59480079Y-163284000D01*
X59392611Y-162844267D01*
X59143522Y-162471478D01*
X58809142Y-162248053D01*
X58809142Y-161684000D01*
X58721674Y-161244267D01*
X58472585Y-160871478D01*
X58099796Y-160622389D01*
X57660063Y-160534921D01*
X56060063Y-160534921D01*
X55620330Y-160622389D01*
X55247541Y-160871478D01*
X54998452Y-161244267D01*
X54910984Y-161684000D01*
X43087000Y-161684000D01*
X43087000Y-141368587D01*
X44401000Y-141368587D01*
X44401000Y-142095413D01*
X44679144Y-142766912D01*
X45193088Y-143280856D01*
X45864587Y-143559000D01*
X46591413Y-143559000D01*
X47262912Y-143280856D01*
X47776856Y-142766912D01*
X48055000Y-142095413D01*
X48055000Y-141732000D01*
X49445207Y-141732000D01*
X49587004Y-142444860D01*
X49990806Y-143049194D01*
X50595140Y-143452996D01*
X51128057Y-143559000D01*
X51487943Y-143559000D01*
X52020860Y-143452996D01*
X52625194Y-143049194D01*
X53028996Y-142444860D01*
X53170793Y-141732000D01*
X53028996Y-141019140D01*
X52625194Y-140414806D01*
X52020860Y-140011004D01*
X51487943Y-139905000D01*
X51128057Y-139905000D01*
X50595140Y-140011004D01*
X49990806Y-140414806D01*
X49587004Y-141019140D01*
X49445207Y-141732000D01*
X48055000Y-141732000D01*
X48055000Y-141368587D01*
X47776856Y-140697088D01*
X47262912Y-140183144D01*
X46591413Y-139905000D01*
X45864587Y-139905000D01*
X45193088Y-140183144D01*
X44679144Y-140697088D01*
X44401000Y-141368587D01*
X43087000Y-141368587D01*
X43087000Y-128017111D01*
X43575746Y-129197049D01*
X44792951Y-130414254D01*
X46075968Y-130945697D01*
X45840389Y-131298267D01*
X45752921Y-131738000D01*
X45752921Y-133438000D01*
X45840389Y-133877733D01*
X46025037Y-134154078D01*
X45889707Y-134356613D01*
X45736269Y-135128000D01*
X45889707Y-135899387D01*
X46222870Y-136398000D01*
X45889707Y-136896613D01*
X45736269Y-137668000D01*
X45889707Y-138439387D01*
X46326663Y-139093337D01*
X46980613Y-139530293D01*
X47557286Y-139645000D01*
X47946714Y-139645000D01*
X48523387Y-139530293D01*
X49177337Y-139093337D01*
X49614293Y-138439387D01*
X49638836Y-138316000D01*
X54910984Y-138316000D01*
X54910984Y-139916000D01*
X54998452Y-140355733D01*
X55247541Y-140728522D01*
X55581921Y-140951947D01*
X55581921Y-141516000D01*
X55669389Y-141955733D01*
X55918478Y-142328522D01*
X56291267Y-142577611D01*
X56731000Y-142665079D01*
X58331000Y-142665079D01*
X58770733Y-142577611D01*
X59143522Y-142328522D01*
X59392611Y-141955733D01*
X59480079Y-141516000D01*
X59480079Y-139916000D01*
X59392611Y-139476267D01*
X59143522Y-139103478D01*
X58809142Y-138880053D01*
X58809142Y-138316000D01*
X58721674Y-137876267D01*
X58472585Y-137503478D01*
X58099796Y-137254389D01*
X57660063Y-137166921D01*
X56060063Y-137166921D01*
X55620330Y-137254389D01*
X55247541Y-137503478D01*
X54998452Y-137876267D01*
X54910984Y-138316000D01*
X49638836Y-138316000D01*
X49767731Y-137668000D01*
X49614293Y-136896613D01*
X49281130Y-136398000D01*
X49614293Y-135899387D01*
X49767731Y-135128000D01*
X49614293Y-134356613D01*
X49478963Y-134154078D01*
X49663611Y-133877733D01*
X49751079Y-133438000D01*
X49751079Y-131738000D01*
X49663611Y-131298267D01*
X49414522Y-130925478D01*
X49049565Y-130681622D01*
X49695049Y-130414254D01*
X50912254Y-129197049D01*
X51180524Y-128549386D01*
X56625000Y-128549386D01*
X56625000Y-130022615D01*
X56782062Y-130812219D01*
X57380363Y-131707638D01*
X58275782Y-132305938D01*
X59332000Y-132516033D01*
X60388219Y-132305938D01*
X61283638Y-131707638D01*
X61881938Y-130812218D01*
X61923206Y-130604745D01*
X63060000Y-130604745D01*
X63060000Y-132047655D01*
X63612178Y-133380730D01*
X64632470Y-134401022D01*
X65965545Y-134953200D01*
X67408455Y-134953200D01*
X68741530Y-134401022D01*
X69761822Y-133380730D01*
X70314000Y-132047655D01*
X70314000Y-130604745D01*
X69761822Y-129271670D01*
X68741530Y-128251378D01*
X67408455Y-127699200D01*
X65965545Y-127699200D01*
X64632470Y-128251378D01*
X63612178Y-129271670D01*
X63060000Y-130604745D01*
X61923206Y-130604745D01*
X62039000Y-130022614D01*
X62039000Y-128549385D01*
X61881938Y-127759781D01*
X61283637Y-126864362D01*
X60388218Y-126266062D01*
X59332000Y-126055967D01*
X58275781Y-126266062D01*
X57380362Y-126864363D01*
X56782062Y-127759782D01*
X56625000Y-128549386D01*
X51180524Y-128549386D01*
X51571000Y-127606694D01*
X51571000Y-125885306D01*
X50942098Y-124367000D01*
X100510913Y-124367000D01*
X99940000Y-125745306D01*
X99940000Y-125745306D01*
G37*
X99940000Y-125745306D02*
X99940000Y-127466694D01*
X100598746Y-129057049D01*
X101815951Y-130274254D01*
X103406306Y-130933000D01*
X105127694Y-130933000D01*
X106718049Y-130274254D01*
X107935254Y-129057049D01*
X108594000Y-127466694D01*
X108594000Y-125745306D01*
X108023087Y-124367000D01*
X109567001Y-124367000D01*
X109567000Y-160222396D01*
X107152086Y-157807482D01*
X107047367Y-157650759D01*
X106426495Y-157235905D01*
X105878992Y-157127000D01*
X105878988Y-157127000D01*
X105694126Y-157090229D01*
X105509264Y-157127000D01*
X102885479Y-157127000D01*
X101191000Y-155432522D01*
X101191000Y-153162000D01*
X102378269Y-153162000D01*
X102531707Y-153933387D01*
X102968663Y-154587337D01*
X103622613Y-155024293D01*
X104199286Y-155139000D01*
X104588714Y-155139000D01*
X105165387Y-155024293D01*
X105819337Y-154587337D01*
X106256293Y-153933387D01*
X106409731Y-153162000D01*
X106256293Y-152390613D01*
X106120963Y-152188078D01*
X106305611Y-151911733D01*
X106393079Y-151472000D01*
X106393079Y-149772000D01*
X106305611Y-149332267D01*
X106056522Y-148959478D01*
X105683733Y-148710389D01*
X105244000Y-148622921D01*
X103544000Y-148622921D01*
X103104267Y-148710389D01*
X102731478Y-148959478D01*
X102482389Y-149332267D01*
X102394921Y-149772000D01*
X102394921Y-151472000D01*
X102482389Y-151911733D01*
X102667037Y-152188078D01*
X102531707Y-152390613D01*
X102378269Y-153162000D01*
X101191000Y-153162000D01*
X101191000Y-146090661D01*
X101210362Y-146119638D01*
X102105781Y-146717938D01*
X102895385Y-146875000D01*
X104368615Y-146875000D01*
X105158219Y-146717938D01*
X106053638Y-146119638D01*
X106324612Y-145714097D01*
X106613241Y-145521241D01*
X106717960Y-145364518D01*
X108638520Y-143443959D01*
X108795241Y-143339241D01*
X108936738Y-143127477D01*
X109210095Y-142718369D01*
X109248080Y-142527404D01*
X109319000Y-142170866D01*
X109319000Y-142170862D01*
X109355771Y-141986000D01*
X109319000Y-141801138D01*
X109319000Y-136582860D01*
X109355771Y-136397999D01*
X109319000Y-136213138D01*
X109319000Y-136213134D01*
X109210095Y-135665631D01*
X108795241Y-135044759D01*
X108638521Y-134940042D01*
X107629960Y-133931482D01*
X107525241Y-133774759D01*
X106904369Y-133359905D01*
X106356866Y-133251000D01*
X106356862Y-133251000D01*
X106172000Y-133214229D01*
X105987138Y-133251000D01*
X104615079Y-133251000D01*
X104615079Y-132246000D01*
X104527611Y-131806267D01*
X104278522Y-131433478D01*
X103905733Y-131184389D01*
X103466000Y-131096921D01*
X101766000Y-131096921D01*
X101326267Y-131184389D01*
X100953478Y-131433478D01*
X100704389Y-131806267D01*
X100616921Y-132246000D01*
X100616921Y-133946000D01*
X100662148Y-134173373D01*
X98751802Y-136083719D01*
X98621996Y-135431140D01*
X98218194Y-134826806D01*
X97613860Y-134423004D01*
X97182209Y-134337143D01*
X98138622Y-133380730D01*
X98690800Y-132047655D01*
X98690800Y-130604745D01*
X98138622Y-129271670D01*
X97118330Y-128251378D01*
X95785255Y-127699200D01*
X94342345Y-127699200D01*
X93009270Y-128251378D01*
X91988978Y-129271670D01*
X91436800Y-130604745D01*
X91436800Y-132047655D01*
X91988978Y-133380730D01*
X93009270Y-134401022D01*
X94342345Y-134953200D01*
X95499352Y-134953200D01*
X95180004Y-135431140D01*
X95038207Y-136144000D01*
X95180004Y-136856860D01*
X95486123Y-137315000D01*
X95180860Y-137315000D01*
X94995999Y-137278229D01*
X94811139Y-137315000D01*
X94811134Y-137315000D01*
X94678255Y-137341431D01*
X94558845Y-136741120D01*
X94099235Y-136053265D01*
X93411379Y-135593655D01*
X92600000Y-135432261D01*
X91788620Y-135593655D01*
X91330000Y-135900095D01*
X90871379Y-135593655D01*
X90060000Y-135432261D01*
X89248620Y-135593655D01*
X89121782Y-135678405D01*
X88912233Y-135538389D01*
X88472500Y-135450921D01*
X86567500Y-135450921D01*
X86169466Y-135530095D01*
X85651589Y-135012218D01*
X85612155Y-134953200D01*
X85828455Y-134953200D01*
X87161530Y-134401022D01*
X88181822Y-133380730D01*
X88734000Y-132047655D01*
X88734000Y-130604745D01*
X88181822Y-129271670D01*
X87161530Y-128251378D01*
X85828455Y-127699200D01*
X84385545Y-127699200D01*
X83052470Y-128251378D01*
X82032178Y-129271670D01*
X81480000Y-130604745D01*
X81480000Y-132047655D01*
X82032178Y-133380730D01*
X83052470Y-134401022D01*
X83322809Y-134513000D01*
X78427991Y-134513000D01*
X78698330Y-134401022D01*
X79718622Y-133380730D01*
X80270800Y-132047655D01*
X80270800Y-130604745D01*
X79718622Y-129271670D01*
X78698330Y-128251378D01*
X77365255Y-127699200D01*
X75922345Y-127699200D01*
X74589270Y-128251378D01*
X73568978Y-129271670D01*
X73016800Y-130604745D01*
X73016800Y-132047655D01*
X73568978Y-133380730D01*
X74589270Y-134401022D01*
X75922345Y-134953200D01*
X76312345Y-134953200D01*
X76272912Y-135012216D01*
X75411055Y-135874073D01*
X74991379Y-135593655D01*
X74180000Y-135432261D01*
X73368620Y-135593655D01*
X72910000Y-135900095D01*
X72451379Y-135593655D01*
X71640000Y-135432261D01*
X70828620Y-135593655D01*
X70701782Y-135678405D01*
X70492233Y-135538389D01*
X70052500Y-135450921D01*
X68147500Y-135450921D01*
X67707767Y-135538389D01*
X67334978Y-135787478D01*
X67085889Y-136160267D01*
X66998421Y-136600000D01*
X66998421Y-137801707D01*
X64146216Y-140653913D01*
X64031238Y-140730739D01*
X63781770Y-141104095D01*
X63726894Y-141186222D01*
X63620023Y-141723500D01*
X63647000Y-141859123D01*
X63647001Y-145152372D01*
X63620023Y-145288000D01*
X63726894Y-145825278D01*
X63752098Y-145862999D01*
X51067639Y-145862999D01*
X51112500Y-145754695D01*
X51112500Y-144948305D01*
X50803907Y-144203297D01*
X50233703Y-143633093D01*
X49488695Y-143324500D01*
X48682305Y-143324500D01*
X47937297Y-143633093D01*
X47367093Y-144203297D01*
X47058500Y-144948305D01*
X47058500Y-145754695D01*
X47367093Y-146499703D01*
X47937297Y-147069907D01*
X48085438Y-147131269D01*
X47978894Y-147290722D01*
X47872023Y-147828000D01*
X47899001Y-147963628D01*
X47899000Y-150864234D01*
X47380387Y-150517707D01*
X46803714Y-150403000D01*
X46414286Y-150403000D01*
X45837613Y-150517707D01*
X45183663Y-150954663D01*
X44746707Y-151608613D01*
X44593269Y-152380000D01*
X44746707Y-153151387D01*
X44882037Y-153353922D01*
X44697389Y-153630267D01*
X44609921Y-154070000D01*
X44609921Y-155770000D01*
X44697389Y-156209733D01*
X44946478Y-156582522D01*
X45319267Y-156831611D01*
X45759000Y-156919079D01*
X47459000Y-156919079D01*
X47898733Y-156831611D01*
X47899000Y-156831433D01*
X47899000Y-156836377D01*
X47872023Y-156972000D01*
X47936417Y-157295733D01*
X47978894Y-157509278D01*
X48283238Y-157964761D01*
X48398216Y-158041587D01*
X49030425Y-158673796D01*
X49107253Y-158788777D01*
X49562736Y-159093121D01*
X49964392Y-159173015D01*
X50100014Y-159199992D01*
X50235636Y-159173015D01*
X66089217Y-159173015D01*
X65888144Y-159374088D01*
X65610000Y-160045587D01*
X65610000Y-160772413D01*
X65888144Y-161443912D01*
X66402088Y-161957856D01*
X67073587Y-162236000D01*
X67800413Y-162236000D01*
X68471912Y-161957856D01*
X68643500Y-161786268D01*
X68815088Y-161957856D01*
X69486587Y-162236000D01*
X70213413Y-162236000D01*
X70884912Y-161957856D01*
X71056768Y-161786000D01*
X71170328Y-161786000D01*
X70828806Y-162297122D01*
X70717000Y-162859208D01*
X70717000Y-163913231D01*
X70672867Y-163922010D01*
X70271211Y-164001904D01*
X69815728Y-164306248D01*
X69738902Y-164421226D01*
X69244187Y-164915942D01*
X69100000Y-164887261D01*
X68288621Y-165048655D01*
X67600765Y-165508265D01*
X67141155Y-166196120D01*
X67020500Y-166802692D01*
X67020500Y-167307307D01*
X67141155Y-167913879D01*
X67600765Y-168601735D01*
X68288620Y-169061345D01*
X69100000Y-169222739D01*
X69911379Y-169061345D01*
X70370000Y-168754905D01*
X70828620Y-169061345D01*
X71640000Y-169222739D01*
X72451379Y-169061345D01*
X72578217Y-168976595D01*
X72787767Y-169116611D01*
X73227500Y-169204079D01*
X75132500Y-169204079D01*
X75572233Y-169116611D01*
X75945022Y-168867522D01*
X76194111Y-168494733D01*
X76206589Y-168432000D01*
X76694232Y-168432000D01*
X77197088Y-168934856D01*
X77868587Y-169213000D01*
X78595413Y-169213000D01*
X79266912Y-168934856D01*
X79601999Y-168599769D01*
X79726721Y-168683106D01*
X80128377Y-168763000D01*
X80263999Y-168789977D01*
X80399621Y-168763000D01*
X82084312Y-168763000D01*
X82599140Y-169106996D01*
X83132057Y-169213000D01*
X83491943Y-169213000D01*
X84024860Y-169106996D01*
X84629194Y-168703194D01*
X85032996Y-168098860D01*
X85174793Y-167386000D01*
X85032996Y-166673140D01*
X84629194Y-166068806D01*
X84024860Y-165665004D01*
X83491943Y-165559000D01*
X83132057Y-165559000D01*
X82599140Y-165665004D01*
X82084312Y-166009000D01*
X80834372Y-166009000D01*
X80576887Y-165751515D01*
X81015877Y-165664194D01*
X81653289Y-165238289D01*
X82079194Y-164600878D01*
X82191000Y-164038792D01*
X82191000Y-162859209D01*
X82110200Y-162453000D01*
X82697169Y-162453000D01*
X82632921Y-162776000D01*
X82632921Y-164376000D01*
X82720389Y-164815733D01*
X82969478Y-165188522D01*
X83342267Y-165437611D01*
X83782000Y-165525079D01*
X85382000Y-165525079D01*
X85821733Y-165437611D01*
X86194522Y-165188522D01*
X86443611Y-164815733D01*
X86531079Y-164376000D01*
X86531079Y-162776000D01*
X86466831Y-162453000D01*
X87170810Y-162453000D01*
X87139368Y-162484442D01*
X86846000Y-163192696D01*
X86846000Y-163959304D01*
X87139368Y-164667558D01*
X87385771Y-164913961D01*
X86708621Y-165048655D01*
X86020765Y-165508265D01*
X85561155Y-166196120D01*
X85440500Y-166802692D01*
X85440500Y-167307307D01*
X85561155Y-167913879D01*
X85643001Y-168036370D01*
X85643000Y-168869138D01*
X85606229Y-169054000D01*
X85643000Y-169238862D01*
X85643000Y-169238865D01*
X85735083Y-169701800D01*
X84334745Y-169701800D01*
X83001670Y-170253978D01*
X81981378Y-171274270D01*
X81429200Y-172607345D01*
X81429200Y-174050255D01*
X81981378Y-175383330D01*
X83001670Y-176403622D01*
X84334745Y-176955800D01*
X85777655Y-176955800D01*
X87110730Y-176403622D01*
X88039000Y-175475352D01*
X88039000Y-175837138D01*
X88002229Y-176022000D01*
X88039000Y-176206862D01*
X88039000Y-176206865D01*
X88147905Y-176754368D01*
X88562759Y-177375241D01*
X88719482Y-177479960D01*
X90998041Y-179758520D01*
X91102759Y-179915241D01*
X91723631Y-180330095D01*
X92271134Y-180439000D01*
X92271138Y-180439000D01*
X92455999Y-180475771D01*
X92640860Y-180439000D01*
X97351138Y-180439000D01*
X97536000Y-180475771D01*
X97720862Y-180439000D01*
X97720866Y-180439000D01*
X98268369Y-180330095D01*
X98889241Y-179915241D01*
X98993960Y-179758518D01*
X99940000Y-178812478D01*
X99940000Y-179676694D01*
X100568902Y-181195000D01*
X50994703Y-181195000D01*
X51571000Y-179803694D01*
X51571000Y-178082306D01*
X50912254Y-176491951D01*
X49705688Y-175285385D01*
X53277000Y-175285385D01*
X53277000Y-176758614D01*
X53434062Y-177548218D01*
X54032362Y-178443637D01*
X54927781Y-179041938D01*
X55984000Y-179252033D01*
X57040218Y-179041938D01*
X57935637Y-178443638D01*
X58533938Y-177548219D01*
X58691000Y-176758615D01*
X58691000Y-175285386D01*
X58533938Y-174495782D01*
X57935638Y-173600362D01*
X57040219Y-173002062D01*
X55984000Y-172791967D01*
X54927782Y-173002062D01*
X54032363Y-173600362D01*
X53434062Y-174495781D01*
X53277000Y-175285385D01*
X49705688Y-175285385D01*
X49695049Y-175274746D01*
X48104694Y-174616000D01*
X46383306Y-174616000D01*
X44792951Y-175274746D01*
X43575746Y-176491951D01*
X43087000Y-177671889D01*
X43087000Y-172293087D01*
X45544000Y-172293087D01*
X45544000Y-173019913D01*
X45822144Y-173691412D01*
X46336088Y-174205356D01*
X47007587Y-174483500D01*
X47734413Y-174483500D01*
X48405912Y-174205356D01*
X48919856Y-173691412D01*
X49198000Y-173019913D01*
X49198000Y-172607345D01*
X63009200Y-172607345D01*
X63009200Y-174050255D01*
X63561378Y-175383330D01*
X64581670Y-176403622D01*
X65914745Y-176955800D01*
X67357655Y-176955800D01*
X68690730Y-176403622D01*
X69711022Y-175383330D01*
X70263200Y-174050255D01*
X70263200Y-172607345D01*
X72966000Y-172607345D01*
X72966000Y-174050255D01*
X73518178Y-175383330D01*
X74538470Y-176403622D01*
X75871545Y-176955800D01*
X77314455Y-176955800D01*
X78647530Y-176403622D01*
X79667822Y-175383330D01*
X80220000Y-174050255D01*
X80220000Y-172607345D01*
X79667822Y-171274270D01*
X78647530Y-170253978D01*
X77314455Y-169701800D01*
X75871545Y-169701800D01*
X74538470Y-170253978D01*
X73518178Y-171274270D01*
X72966000Y-172607345D01*
X70263200Y-172607345D01*
X69711022Y-171274270D01*
X68690730Y-170253978D01*
X67357655Y-169701800D01*
X65914745Y-169701800D01*
X64581670Y-170253978D01*
X63561378Y-171274270D01*
X63009200Y-172607345D01*
X49198000Y-172607345D01*
X49198000Y-172293087D01*
X48919856Y-171621588D01*
X48405912Y-171107644D01*
X47734413Y-170829500D01*
X47007587Y-170829500D01*
X46336088Y-171107644D01*
X45822144Y-171621588D01*
X45544000Y-172293087D01*
X43087000Y-172293087D01*
X43087000Y-167576500D01*
X45508207Y-167576500D01*
X45650004Y-168289360D01*
X46053806Y-168893694D01*
X46658140Y-169297496D01*
X47191057Y-169403500D01*
X47550943Y-169403500D01*
X48083860Y-169297496D01*
X48688194Y-168893694D01*
X49091996Y-168289360D01*
X49233793Y-167576500D01*
X49091996Y-166863640D01*
X48948882Y-166649454D01*
X49154203Y-166564407D01*
X49724407Y-165994203D01*
X50033000Y-165249195D01*
X50033000Y-164442805D01*
X49724407Y-163697797D01*
X49154203Y-163127593D01*
X48409195Y-162819000D01*
X47602805Y-162819000D01*
X46857797Y-163127593D01*
X46287593Y-163697797D01*
X45979000Y-164442805D01*
X45979000Y-165249195D01*
X46287593Y-165994203D01*
X46352869Y-166059479D01*
X46053806Y-166259306D01*
X45650004Y-166863640D01*
X45508207Y-167576500D01*
X43087000Y-167576500D01*
X43087000Y-161684000D01*
X54910984Y-161684000D01*
X54910984Y-163284000D01*
X54998452Y-163723733D01*
X55247541Y-164096522D01*
X55581921Y-164319947D01*
X55581921Y-164884000D01*
X55669389Y-165323733D01*
X55918478Y-165696522D01*
X56291267Y-165945611D01*
X56731000Y-166033079D01*
X58331000Y-166033079D01*
X58770733Y-165945611D01*
X59143522Y-165696522D01*
X59392611Y-165323733D01*
X59480079Y-164884000D01*
X59480079Y-163284000D01*
X59392611Y-162844267D01*
X59143522Y-162471478D01*
X58809142Y-162248053D01*
X58809142Y-161684000D01*
X58721674Y-161244267D01*
X58472585Y-160871478D01*
X58099796Y-160622389D01*
X57660063Y-160534921D01*
X56060063Y-160534921D01*
X55620330Y-160622389D01*
X55247541Y-160871478D01*
X54998452Y-161244267D01*
X54910984Y-161684000D01*
X43087000Y-161684000D01*
X43087000Y-141368587D01*
X44401000Y-141368587D01*
X44401000Y-142095413D01*
X44679144Y-142766912D01*
X45193088Y-143280856D01*
X45864587Y-143559000D01*
X46591413Y-143559000D01*
X47262912Y-143280856D01*
X47776856Y-142766912D01*
X48055000Y-142095413D01*
X48055000Y-141732000D01*
X49445207Y-141732000D01*
X49587004Y-142444860D01*
X49990806Y-143049194D01*
X50595140Y-143452996D01*
X51128057Y-143559000D01*
X51487943Y-143559000D01*
X52020860Y-143452996D01*
X52625194Y-143049194D01*
X53028996Y-142444860D01*
X53170793Y-141732000D01*
X53028996Y-141019140D01*
X52625194Y-140414806D01*
X52020860Y-140011004D01*
X51487943Y-139905000D01*
X51128057Y-139905000D01*
X50595140Y-140011004D01*
X49990806Y-140414806D01*
X49587004Y-141019140D01*
X49445207Y-141732000D01*
X48055000Y-141732000D01*
X48055000Y-141368587D01*
X47776856Y-140697088D01*
X47262912Y-140183144D01*
X46591413Y-139905000D01*
X45864587Y-139905000D01*
X45193088Y-140183144D01*
X44679144Y-140697088D01*
X44401000Y-141368587D01*
X43087000Y-141368587D01*
X43087000Y-128017111D01*
X43575746Y-129197049D01*
X44792951Y-130414254D01*
X46075968Y-130945697D01*
X45840389Y-131298267D01*
X45752921Y-131738000D01*
X45752921Y-133438000D01*
X45840389Y-133877733D01*
X46025037Y-134154078D01*
X45889707Y-134356613D01*
X45736269Y-135128000D01*
X45889707Y-135899387D01*
X46222870Y-136398000D01*
X45889707Y-136896613D01*
X45736269Y-137668000D01*
X45889707Y-138439387D01*
X46326663Y-139093337D01*
X46980613Y-139530293D01*
X47557286Y-139645000D01*
X47946714Y-139645000D01*
X48523387Y-139530293D01*
X49177337Y-139093337D01*
X49614293Y-138439387D01*
X49638836Y-138316000D01*
X54910984Y-138316000D01*
X54910984Y-139916000D01*
X54998452Y-140355733D01*
X55247541Y-140728522D01*
X55581921Y-140951947D01*
X55581921Y-141516000D01*
X55669389Y-141955733D01*
X55918478Y-142328522D01*
X56291267Y-142577611D01*
X56731000Y-142665079D01*
X58331000Y-142665079D01*
X58770733Y-142577611D01*
X59143522Y-142328522D01*
X59392611Y-141955733D01*
X59480079Y-141516000D01*
X59480079Y-139916000D01*
X59392611Y-139476267D01*
X59143522Y-139103478D01*
X58809142Y-138880053D01*
X58809142Y-138316000D01*
X58721674Y-137876267D01*
X58472585Y-137503478D01*
X58099796Y-137254389D01*
X57660063Y-137166921D01*
X56060063Y-137166921D01*
X55620330Y-137254389D01*
X55247541Y-137503478D01*
X54998452Y-137876267D01*
X54910984Y-138316000D01*
X49638836Y-138316000D01*
X49767731Y-137668000D01*
X49614293Y-136896613D01*
X49281130Y-136398000D01*
X49614293Y-135899387D01*
X49767731Y-135128000D01*
X49614293Y-134356613D01*
X49478963Y-134154078D01*
X49663611Y-133877733D01*
X49751079Y-133438000D01*
X49751079Y-131738000D01*
X49663611Y-131298267D01*
X49414522Y-130925478D01*
X49049565Y-130681622D01*
X49695049Y-130414254D01*
X50912254Y-129197049D01*
X51180524Y-128549386D01*
X56625000Y-128549386D01*
X56625000Y-130022615D01*
X56782062Y-130812219D01*
X57380363Y-131707638D01*
X58275782Y-132305938D01*
X59332000Y-132516033D01*
X60388219Y-132305938D01*
X61283638Y-131707638D01*
X61881938Y-130812218D01*
X61923206Y-130604745D01*
X63060000Y-130604745D01*
X63060000Y-132047655D01*
X63612178Y-133380730D01*
X64632470Y-134401022D01*
X65965545Y-134953200D01*
X67408455Y-134953200D01*
X68741530Y-134401022D01*
X69761822Y-133380730D01*
X70314000Y-132047655D01*
X70314000Y-130604745D01*
X69761822Y-129271670D01*
X68741530Y-128251378D01*
X67408455Y-127699200D01*
X65965545Y-127699200D01*
X64632470Y-128251378D01*
X63612178Y-129271670D01*
X63060000Y-130604745D01*
X61923206Y-130604745D01*
X62039000Y-130022614D01*
X62039000Y-128549385D01*
X61881938Y-127759781D01*
X61283637Y-126864362D01*
X60388218Y-126266062D01*
X59332000Y-126055967D01*
X58275781Y-126266062D01*
X57380362Y-126864363D01*
X56782062Y-127759782D01*
X56625000Y-128549386D01*
X51180524Y-128549386D01*
X51571000Y-127606694D01*
X51571000Y-125885306D01*
X50942098Y-124367000D01*
X100510913Y-124367000D01*
X99940000Y-125745306D01*
G36*
X100650042Y-160200520D02*
X100754759Y-160357241D01*
X100911479Y-160461958D01*
X100911480Y-160461959D01*
X101151580Y-160622389D01*
X101375631Y-160772095D01*
X101923134Y-160881000D01*
X101923138Y-160881000D01*
X102108000Y-160917771D01*
X102292862Y-160881000D01*
X104916648Y-160881000D01*
X107089001Y-163053354D01*
X107089000Y-170604602D01*
X106641871Y-171051732D01*
X106366714Y-170997000D01*
X105977286Y-170997000D01*
X105474550Y-171097000D01*
X104615079Y-171097000D01*
X104615079Y-169584000D01*
X104527611Y-169144267D01*
X104278522Y-168771478D01*
X104199983Y-168719000D01*
X104368615Y-168719000D01*
X105158219Y-168561938D01*
X106053638Y-167963638D01*
X106651938Y-167068219D01*
X106862033Y-166012000D01*
X106651938Y-164955781D01*
X106053638Y-164060362D01*
X105158219Y-163462062D01*
X104368615Y-163305000D01*
X102895385Y-163305000D01*
X102105781Y-163462062D01*
X101210362Y-164060362D01*
X100612062Y-164955781D01*
X100401967Y-166012000D01*
X100419480Y-166100042D01*
X98625482Y-167894040D01*
X98483058Y-167989204D01*
X98218194Y-167592806D01*
X97613860Y-167189004D01*
X97080943Y-167083000D01*
X96721057Y-167083000D01*
X96188140Y-167189004D01*
X95583806Y-167592806D01*
X95180004Y-168197140D01*
X95038207Y-168910000D01*
X95180004Y-169622860D01*
X95232750Y-169701800D01*
X94291545Y-169701800D01*
X92958470Y-170253978D01*
X91938178Y-171274270D01*
X91796866Y-171615428D01*
X91829771Y-171450000D01*
X91793000Y-171265138D01*
X91793000Y-171265134D01*
X91684095Y-170717631D01*
X91269241Y-170096759D01*
X91112520Y-169992041D01*
X90296229Y-169175750D01*
X90871379Y-169061345D01*
X90998217Y-168976595D01*
X91207767Y-169116611D01*
X91647500Y-169204079D01*
X93552500Y-169204079D01*
X93992233Y-169116611D01*
X94365022Y-168867522D01*
X94614111Y-168494733D01*
X94701579Y-168055000D01*
X94701579Y-166055000D01*
X94614111Y-165615267D01*
X94365022Y-165242478D01*
X93992233Y-164993389D01*
X93552500Y-164905921D01*
X93071329Y-164905921D01*
X93079857Y-164863051D01*
X93080000Y-164863079D01*
X94880000Y-164863079D01*
X95315503Y-164776452D01*
X95352144Y-164864912D01*
X95866088Y-165378856D01*
X96537587Y-165657000D01*
X97264413Y-165657000D01*
X97935912Y-165378856D01*
X98449856Y-164864912D01*
X98728000Y-164193413D01*
X98728000Y-163466587D01*
X98449856Y-162795088D01*
X97935912Y-162281144D01*
X97264413Y-162003000D01*
X96537587Y-162003000D01*
X96029079Y-162213631D01*
X96029079Y-161914000D01*
X95941611Y-161474267D01*
X95692522Y-161101478D01*
X95456623Y-160943856D01*
X98313479Y-158087000D01*
X98536522Y-158087000D01*
X100650042Y-160200520D01*
X100650042Y-160200520D01*
G37*
X100650042Y-160200520D02*
X100754759Y-160357241D01*
X100911479Y-160461958D01*
X100911480Y-160461959D01*
X101151580Y-160622389D01*
X101375631Y-160772095D01*
X101923134Y-160881000D01*
X101923138Y-160881000D01*
X102108000Y-160917771D01*
X102292862Y-160881000D01*
X104916648Y-160881000D01*
X107089001Y-163053354D01*
X107089000Y-170604602D01*
X106641871Y-171051732D01*
X106366714Y-170997000D01*
X105977286Y-170997000D01*
X105474550Y-171097000D01*
X104615079Y-171097000D01*
X104615079Y-169584000D01*
X104527611Y-169144267D01*
X104278522Y-168771478D01*
X104199983Y-168719000D01*
X104368615Y-168719000D01*
X105158219Y-168561938D01*
X106053638Y-167963638D01*
X106651938Y-167068219D01*
X106862033Y-166012000D01*
X106651938Y-164955781D01*
X106053638Y-164060362D01*
X105158219Y-163462062D01*
X104368615Y-163305000D01*
X102895385Y-163305000D01*
X102105781Y-163462062D01*
X101210362Y-164060362D01*
X100612062Y-164955781D01*
X100401967Y-166012000D01*
X100419480Y-166100042D01*
X98625482Y-167894040D01*
X98483058Y-167989204D01*
X98218194Y-167592806D01*
X97613860Y-167189004D01*
X97080943Y-167083000D01*
X96721057Y-167083000D01*
X96188140Y-167189004D01*
X95583806Y-167592806D01*
X95180004Y-168197140D01*
X95038207Y-168910000D01*
X95180004Y-169622860D01*
X95232750Y-169701800D01*
X94291545Y-169701800D01*
X92958470Y-170253978D01*
X91938178Y-171274270D01*
X91796866Y-171615428D01*
X91829771Y-171450000D01*
X91793000Y-171265138D01*
X91793000Y-171265134D01*
X91684095Y-170717631D01*
X91269241Y-170096759D01*
X91112520Y-169992041D01*
X90296229Y-169175750D01*
X90871379Y-169061345D01*
X90998217Y-168976595D01*
X91207767Y-169116611D01*
X91647500Y-169204079D01*
X93552500Y-169204079D01*
X93992233Y-169116611D01*
X94365022Y-168867522D01*
X94614111Y-168494733D01*
X94701579Y-168055000D01*
X94701579Y-166055000D01*
X94614111Y-165615267D01*
X94365022Y-165242478D01*
X93992233Y-164993389D01*
X93552500Y-164905921D01*
X93071329Y-164905921D01*
X93079857Y-164863051D01*
X93080000Y-164863079D01*
X94880000Y-164863079D01*
X95315503Y-164776452D01*
X95352144Y-164864912D01*
X95866088Y-165378856D01*
X96537587Y-165657000D01*
X97264413Y-165657000D01*
X97935912Y-165378856D01*
X98449856Y-164864912D01*
X98728000Y-164193413D01*
X98728000Y-163466587D01*
X98449856Y-162795088D01*
X97935912Y-162281144D01*
X97264413Y-162003000D01*
X96537587Y-162003000D01*
X96029079Y-162213631D01*
X96029079Y-161914000D01*
X95941611Y-161474267D01*
X95692522Y-161101478D01*
X95456623Y-160943856D01*
X98313479Y-158087000D01*
X98536522Y-158087000D01*
X100650042Y-160200520D01*
G36*
X97437001Y-148919134D02*
X97437001Y-152656812D01*
X97437000Y-154315921D01*
X97351138Y-154333000D01*
X97351134Y-154333000D01*
X97127000Y-154377583D01*
X97127000Y-151060860D01*
X97163771Y-150875999D01*
X97127000Y-150691138D01*
X97127000Y-150691134D01*
X97018095Y-150143631D01*
X96603241Y-149522759D01*
X96446521Y-149418042D01*
X95900767Y-148872288D01*
X95889392Y-148815104D01*
X95441385Y-148144615D01*
X94770896Y-147696608D01*
X94179641Y-147579000D01*
X93780359Y-147579000D01*
X93189104Y-147696608D01*
X92518615Y-148144615D01*
X92070608Y-148815104D01*
X91913289Y-149606000D01*
X92070608Y-150396896D01*
X92518615Y-151067385D01*
X93189104Y-151515392D01*
X93246288Y-151526767D01*
X93373000Y-151653479D01*
X93373001Y-153248029D01*
X93189104Y-153284608D01*
X92518615Y-153732615D01*
X92070608Y-154403104D01*
X91913289Y-155194000D01*
X92070608Y-155984896D01*
X92072557Y-155987813D01*
X92211905Y-156688368D01*
X92626759Y-157309241D01*
X93247632Y-157724095D01*
X93347552Y-157743970D01*
X92694522Y-158397000D01*
X92386862Y-158397000D01*
X92202000Y-158360229D01*
X92017138Y-158397000D01*
X92017134Y-158397000D01*
X91469631Y-158505905D01*
X90848759Y-158920759D01*
X90744041Y-159077481D01*
X90122522Y-159699000D01*
X90121190Y-159699000D01*
X89864558Y-159442368D01*
X89156304Y-159149000D01*
X88389696Y-159149000D01*
X87681442Y-159442368D01*
X87424810Y-159699000D01*
X85930190Y-159699000D01*
X85673558Y-159442368D01*
X84965304Y-159149000D01*
X84198696Y-159149000D01*
X83490442Y-159442368D01*
X83233810Y-159699000D01*
X77198372Y-159699000D01*
X78601784Y-158295588D01*
X78716762Y-158218762D01*
X78870874Y-157988117D01*
X79024267Y-158090611D01*
X79464000Y-158178079D01*
X81064000Y-158178079D01*
X81503733Y-158090611D01*
X81876522Y-157841522D01*
X82125611Y-157468733D01*
X82213079Y-157029000D01*
X82213079Y-156693269D01*
X82601442Y-157081632D01*
X83309696Y-157375000D01*
X84076304Y-157375000D01*
X84784558Y-157081632D01*
X85217000Y-156649190D01*
X85649442Y-157081632D01*
X86357696Y-157375000D01*
X87124304Y-157375000D01*
X87832558Y-157081632D01*
X88374632Y-156539558D01*
X88668000Y-155831304D01*
X88668000Y-155064696D01*
X88374632Y-154356442D01*
X87832558Y-153814368D01*
X87124304Y-153521000D01*
X86357696Y-153521000D01*
X85823495Y-153742273D01*
X85876856Y-153688912D01*
X86155000Y-153017413D01*
X86155000Y-152290587D01*
X85876856Y-151619088D01*
X85362912Y-151105144D01*
X84691413Y-150827000D01*
X83964587Y-150827000D01*
X83293088Y-151105144D01*
X82779144Y-151619088D01*
X82501000Y-152290587D01*
X82501000Y-153017413D01*
X82779144Y-153688912D01*
X82815807Y-153725575D01*
X82601442Y-153814368D01*
X82142357Y-154273453D01*
X82125611Y-154189267D01*
X81876522Y-153816478D01*
X81503733Y-153567389D01*
X81064000Y-153479921D01*
X80893451Y-153479921D01*
X80968996Y-153366860D01*
X81110793Y-152654000D01*
X80968996Y-151941140D01*
X80743788Y-151604091D01*
X81015877Y-151549969D01*
X81653289Y-151124064D01*
X82079194Y-150486653D01*
X82191000Y-149924567D01*
X82191000Y-148744984D01*
X82109360Y-148334550D01*
X82601442Y-148826632D01*
X83309696Y-149120000D01*
X84076304Y-149120000D01*
X84784558Y-148826632D01*
X85217000Y-148394190D01*
X85649442Y-148826632D01*
X86357696Y-149120000D01*
X87124304Y-149120000D01*
X87832558Y-148826632D01*
X88374632Y-148284558D01*
X88668000Y-147576304D01*
X88668000Y-147119999D01*
X93897378Y-147119999D01*
X94033001Y-147146976D01*
X94168624Y-147119999D01*
X94570280Y-147040105D01*
X95025763Y-146735761D01*
X95102590Y-146620781D01*
X97437000Y-144286372D01*
X97437001Y-148919134D01*
X97437001Y-148919134D01*
G37*
X97437001Y-148919134D02*
X97437001Y-152656812D01*
X97437000Y-154315921D01*
X97351138Y-154333000D01*
X97351134Y-154333000D01*
X97127000Y-154377583D01*
X97127000Y-151060860D01*
X97163771Y-150875999D01*
X97127000Y-150691138D01*
X97127000Y-150691134D01*
X97018095Y-150143631D01*
X96603241Y-149522759D01*
X96446521Y-149418042D01*
X95900767Y-148872288D01*
X95889392Y-148815104D01*
X95441385Y-148144615D01*
X94770896Y-147696608D01*
X94179641Y-147579000D01*
X93780359Y-147579000D01*
X93189104Y-147696608D01*
X92518615Y-148144615D01*
X92070608Y-148815104D01*
X91913289Y-149606000D01*
X92070608Y-150396896D01*
X92518615Y-151067385D01*
X93189104Y-151515392D01*
X93246288Y-151526767D01*
X93373000Y-151653479D01*
X93373001Y-153248029D01*
X93189104Y-153284608D01*
X92518615Y-153732615D01*
X92070608Y-154403104D01*
X91913289Y-155194000D01*
X92070608Y-155984896D01*
X92072557Y-155987813D01*
X92211905Y-156688368D01*
X92626759Y-157309241D01*
X93247632Y-157724095D01*
X93347552Y-157743970D01*
X92694522Y-158397000D01*
X92386862Y-158397000D01*
X92202000Y-158360229D01*
X92017138Y-158397000D01*
X92017134Y-158397000D01*
X91469631Y-158505905D01*
X90848759Y-158920759D01*
X90744041Y-159077481D01*
X90122522Y-159699000D01*
X90121190Y-159699000D01*
X89864558Y-159442368D01*
X89156304Y-159149000D01*
X88389696Y-159149000D01*
X87681442Y-159442368D01*
X87424810Y-159699000D01*
X85930190Y-159699000D01*
X85673558Y-159442368D01*
X84965304Y-159149000D01*
X84198696Y-159149000D01*
X83490442Y-159442368D01*
X83233810Y-159699000D01*
X77198372Y-159699000D01*
X78601784Y-158295588D01*
X78716762Y-158218762D01*
X78870874Y-157988117D01*
X79024267Y-158090611D01*
X79464000Y-158178079D01*
X81064000Y-158178079D01*
X81503733Y-158090611D01*
X81876522Y-157841522D01*
X82125611Y-157468733D01*
X82213079Y-157029000D01*
X82213079Y-156693269D01*
X82601442Y-157081632D01*
X83309696Y-157375000D01*
X84076304Y-157375000D01*
X84784558Y-157081632D01*
X85217000Y-156649190D01*
X85649442Y-157081632D01*
X86357696Y-157375000D01*
X87124304Y-157375000D01*
X87832558Y-157081632D01*
X88374632Y-156539558D01*
X88668000Y-155831304D01*
X88668000Y-155064696D01*
X88374632Y-154356442D01*
X87832558Y-153814368D01*
X87124304Y-153521000D01*
X86357696Y-153521000D01*
X85823495Y-153742273D01*
X85876856Y-153688912D01*
X86155000Y-153017413D01*
X86155000Y-152290587D01*
X85876856Y-151619088D01*
X85362912Y-151105144D01*
X84691413Y-150827000D01*
X83964587Y-150827000D01*
X83293088Y-151105144D01*
X82779144Y-151619088D01*
X82501000Y-152290587D01*
X82501000Y-153017413D01*
X82779144Y-153688912D01*
X82815807Y-153725575D01*
X82601442Y-153814368D01*
X82142357Y-154273453D01*
X82125611Y-154189267D01*
X81876522Y-153816478D01*
X81503733Y-153567389D01*
X81064000Y-153479921D01*
X80893451Y-153479921D01*
X80968996Y-153366860D01*
X81110793Y-152654000D01*
X80968996Y-151941140D01*
X80743788Y-151604091D01*
X81015877Y-151549969D01*
X81653289Y-151124064D01*
X82079194Y-150486653D01*
X82191000Y-149924567D01*
X82191000Y-148744984D01*
X82109360Y-148334550D01*
X82601442Y-148826632D01*
X83309696Y-149120000D01*
X84076304Y-149120000D01*
X84784558Y-148826632D01*
X85217000Y-148394190D01*
X85649442Y-148826632D01*
X86357696Y-149120000D01*
X87124304Y-149120000D01*
X87832558Y-148826632D01*
X88374632Y-148284558D01*
X88668000Y-147576304D01*
X88668000Y-147119999D01*
X93897378Y-147119999D01*
X94033001Y-147146976D01*
X94168624Y-147119999D01*
X94570280Y-147040105D01*
X95025763Y-146735761D01*
X95102590Y-146620781D01*
X97437000Y-144286372D01*
X97437001Y-148919134D01*
G36*
X74432122Y-151549969D02*
X75184000Y-151699527D01*
X75645825Y-151607664D01*
X75423004Y-151941140D01*
X75281207Y-152654000D01*
X75312296Y-152810297D01*
X75280001Y-152816721D01*
X75203721Y-152831894D01*
X74748238Y-153136238D01*
X74671412Y-153251216D01*
X74306216Y-153616413D01*
X74191239Y-153693238D01*
X74092833Y-153840513D01*
X73794712Y-154039711D01*
X73368806Y-154677122D01*
X73257000Y-155239208D01*
X73257000Y-156418791D01*
X73368806Y-156980877D01*
X73794711Y-157618289D01*
X74432122Y-158044194D01*
X74871114Y-158131515D01*
X73970629Y-159032000D01*
X71056768Y-159032000D01*
X70884912Y-158860144D01*
X70213413Y-158582000D01*
X69486587Y-158582000D01*
X68815088Y-158860144D01*
X68643500Y-159031732D01*
X68471912Y-158860144D01*
X68346613Y-158808244D01*
X68375747Y-158788777D01*
X68452574Y-158673797D01*
X69970372Y-157156000D01*
X70029943Y-157156000D01*
X70562860Y-157049996D01*
X71167194Y-156646194D01*
X71570996Y-156041860D01*
X71712793Y-155329000D01*
X71570996Y-154616140D01*
X71396551Y-154355064D01*
X71700587Y-154481000D01*
X72427413Y-154481000D01*
X73098912Y-154202856D01*
X73612856Y-153688912D01*
X73891000Y-153017413D01*
X73891000Y-152290587D01*
X73751650Y-151954167D01*
X74040372Y-151522064D01*
X74081431Y-151315645D01*
X74432122Y-151549969D01*
X74432122Y-151549969D01*
G37*
X74432122Y-151549969D02*
X75184000Y-151699527D01*
X75645825Y-151607664D01*
X75423004Y-151941140D01*
X75281207Y-152654000D01*
X75312296Y-152810297D01*
X75280001Y-152816721D01*
X75203721Y-152831894D01*
X74748238Y-153136238D01*
X74671412Y-153251216D01*
X74306216Y-153616413D01*
X74191239Y-153693238D01*
X74092833Y-153840513D01*
X73794712Y-154039711D01*
X73368806Y-154677122D01*
X73257000Y-155239208D01*
X73257000Y-156418791D01*
X73368806Y-156980877D01*
X73794711Y-157618289D01*
X74432122Y-158044194D01*
X74871114Y-158131515D01*
X73970629Y-159032000D01*
X71056768Y-159032000D01*
X70884912Y-158860144D01*
X70213413Y-158582000D01*
X69486587Y-158582000D01*
X68815088Y-158860144D01*
X68643500Y-159031732D01*
X68471912Y-158860144D01*
X68346613Y-158808244D01*
X68375747Y-158788777D01*
X68452574Y-158673797D01*
X69970372Y-157156000D01*
X70029943Y-157156000D01*
X70562860Y-157049996D01*
X71167194Y-156646194D01*
X71570996Y-156041860D01*
X71712793Y-155329000D01*
X71570996Y-154616140D01*
X71396551Y-154355064D01*
X71700587Y-154481000D01*
X72427413Y-154481000D01*
X73098912Y-154202856D01*
X73612856Y-153688912D01*
X73891000Y-153017413D01*
X73891000Y-152290587D01*
X73751650Y-151954167D01*
X74040372Y-151522064D01*
X74081431Y-151315645D01*
X74432122Y-151549969D01*
G36*
X62720921Y-150125000D02*
X62808389Y-150564733D01*
X63057478Y-150937522D01*
X63430267Y-151186611D01*
X63870000Y-151274079D01*
X65670000Y-151274079D01*
X66109733Y-151186611D01*
X66482522Y-150937522D01*
X66731611Y-150564733D01*
X66819079Y-150125000D01*
X66819079Y-148697000D01*
X67773001Y-148697000D01*
X67773001Y-149029153D01*
X67746024Y-149164776D01*
X67806816Y-149470397D01*
X67852895Y-149702054D01*
X67998052Y-149919297D01*
X68129004Y-150577635D01*
X68532806Y-151181969D01*
X69137140Y-151585771D01*
X69670057Y-151691775D01*
X70029943Y-151691775D01*
X70544886Y-151589346D01*
X70515144Y-151619088D01*
X70237000Y-152290587D01*
X70237000Y-153017413D01*
X70474337Y-153590396D01*
X70029943Y-153502000D01*
X69670057Y-153502000D01*
X69137140Y-153608004D01*
X68532806Y-154011806D01*
X68129004Y-154616140D01*
X68008208Y-155223420D01*
X66819079Y-156412550D01*
X66819079Y-155056000D01*
X66731611Y-154616267D01*
X66482522Y-154243478D01*
X66109733Y-153994389D01*
X65670000Y-153906921D01*
X63870000Y-153906921D01*
X63430267Y-153994389D01*
X63057478Y-154243478D01*
X62808389Y-154616267D01*
X62720921Y-155056000D01*
X62720921Y-156419015D01*
X53489000Y-156419015D01*
X53489000Y-155826696D01*
X53286976Y-155338966D01*
X53972696Y-155623000D01*
X54739304Y-155623000D01*
X55447558Y-155329632D01*
X55989632Y-154787558D01*
X56283000Y-154079304D01*
X56283000Y-153312696D01*
X55989632Y-152604442D01*
X55447558Y-152062368D01*
X54739304Y-151769000D01*
X53972696Y-151769000D01*
X53264442Y-152062368D01*
X52722368Y-152604442D01*
X52429000Y-153312696D01*
X52429000Y-154079304D01*
X52631024Y-154567034D01*
X51945304Y-154283000D01*
X51178696Y-154283000D01*
X50470442Y-154576368D01*
X50398062Y-154648748D01*
X50268762Y-154455238D01*
X50153781Y-154378410D01*
X49817590Y-154042219D01*
X49740762Y-153927238D01*
X49345846Y-153663364D01*
X49780762Y-153372762D01*
X49857590Y-153257781D01*
X50153783Y-152961588D01*
X50268761Y-152884762D01*
X50573106Y-152429279D01*
X50653000Y-152027623D01*
X50653000Y-152027622D01*
X50679977Y-151892001D01*
X50653000Y-151756379D01*
X50653000Y-150680250D01*
X51178696Y-150898000D01*
X51945304Y-150898000D01*
X52653558Y-150604632D01*
X52952000Y-150306190D01*
X53264442Y-150618632D01*
X53972696Y-150912000D01*
X54739304Y-150912000D01*
X55447558Y-150618632D01*
X55989632Y-150076558D01*
X56283000Y-149368304D01*
X56283000Y-148616999D01*
X62720921Y-148616999D01*
X62720921Y-150125000D01*
X62720921Y-150125000D01*
G37*
X62720921Y-150125000D02*
X62808389Y-150564733D01*
X63057478Y-150937522D01*
X63430267Y-151186611D01*
X63870000Y-151274079D01*
X65670000Y-151274079D01*
X66109733Y-151186611D01*
X66482522Y-150937522D01*
X66731611Y-150564733D01*
X66819079Y-150125000D01*
X66819079Y-148697000D01*
X67773001Y-148697000D01*
X67773001Y-149029153D01*
X67746024Y-149164776D01*
X67806816Y-149470397D01*
X67852895Y-149702054D01*
X67998052Y-149919297D01*
X68129004Y-150577635D01*
X68532806Y-151181969D01*
X69137140Y-151585771D01*
X69670057Y-151691775D01*
X70029943Y-151691775D01*
X70544886Y-151589346D01*
X70515144Y-151619088D01*
X70237000Y-152290587D01*
X70237000Y-153017413D01*
X70474337Y-153590396D01*
X70029943Y-153502000D01*
X69670057Y-153502000D01*
X69137140Y-153608004D01*
X68532806Y-154011806D01*
X68129004Y-154616140D01*
X68008208Y-155223420D01*
X66819079Y-156412550D01*
X66819079Y-155056000D01*
X66731611Y-154616267D01*
X66482522Y-154243478D01*
X66109733Y-153994389D01*
X65670000Y-153906921D01*
X63870000Y-153906921D01*
X63430267Y-153994389D01*
X63057478Y-154243478D01*
X62808389Y-154616267D01*
X62720921Y-155056000D01*
X62720921Y-156419015D01*
X53489000Y-156419015D01*
X53489000Y-155826696D01*
X53286976Y-155338966D01*
X53972696Y-155623000D01*
X54739304Y-155623000D01*
X55447558Y-155329632D01*
X55989632Y-154787558D01*
X56283000Y-154079304D01*
X56283000Y-153312696D01*
X55989632Y-152604442D01*
X55447558Y-152062368D01*
X54739304Y-151769000D01*
X53972696Y-151769000D01*
X53264442Y-152062368D01*
X52722368Y-152604442D01*
X52429000Y-153312696D01*
X52429000Y-154079304D01*
X52631024Y-154567034D01*
X51945304Y-154283000D01*
X51178696Y-154283000D01*
X50470442Y-154576368D01*
X50398062Y-154648748D01*
X50268762Y-154455238D01*
X50153781Y-154378410D01*
X49817590Y-154042219D01*
X49740762Y-153927238D01*
X49345846Y-153663364D01*
X49780762Y-153372762D01*
X49857590Y-153257781D01*
X50153783Y-152961588D01*
X50268761Y-152884762D01*
X50573106Y-152429279D01*
X50653000Y-152027623D01*
X50653000Y-152027622D01*
X50679977Y-151892001D01*
X50653000Y-151756379D01*
X50653000Y-150680250D01*
X51178696Y-150898000D01*
X51945304Y-150898000D01*
X52653558Y-150604632D01*
X52952000Y-150306190D01*
X53264442Y-150618632D01*
X53972696Y-150912000D01*
X54739304Y-150912000D01*
X55447558Y-150618632D01*
X55989632Y-150076558D01*
X56283000Y-149368304D01*
X56283000Y-148616999D01*
X62720921Y-148616999D01*
X62720921Y-150125000D01*
G36*
X73368621Y-139606345D02*
X73879486Y-139707963D01*
X73842581Y-139893501D01*
X73794712Y-139925486D01*
X73368806Y-140562897D01*
X73257000Y-141124983D01*
X73257000Y-142304566D01*
X73368806Y-142866652D01*
X73730373Y-143407775D01*
X71056768Y-143407775D01*
X70884912Y-143235919D01*
X70213413Y-142957775D01*
X69486587Y-142957775D01*
X68815088Y-143235919D01*
X68648007Y-143403000D01*
X68643768Y-143403000D01*
X68471912Y-143231144D01*
X67800413Y-142953000D01*
X67073587Y-142953000D01*
X66402088Y-143231144D01*
X66401000Y-143232232D01*
X66401000Y-142293871D01*
X68945793Y-139749079D01*
X70052500Y-139749079D01*
X70492233Y-139661611D01*
X70701783Y-139521595D01*
X70828621Y-139606345D01*
X71640000Y-139767739D01*
X72451380Y-139606345D01*
X72910000Y-139299905D01*
X73368621Y-139606345D01*
X73368621Y-139606345D01*
G37*
X73368621Y-139606345D02*
X73879486Y-139707963D01*
X73842581Y-139893501D01*
X73794712Y-139925486D01*
X73368806Y-140562897D01*
X73257000Y-141124983D01*
X73257000Y-142304566D01*
X73368806Y-142866652D01*
X73730373Y-143407775D01*
X71056768Y-143407775D01*
X70884912Y-143235919D01*
X70213413Y-142957775D01*
X69486587Y-142957775D01*
X68815088Y-143235919D01*
X68648007Y-143403000D01*
X68643768Y-143403000D01*
X68471912Y-143231144D01*
X67800413Y-142953000D01*
X67073587Y-142953000D01*
X66402088Y-143231144D01*
X66401000Y-143232232D01*
X66401000Y-142293871D01*
X68945793Y-139749079D01*
X70052500Y-139749079D01*
X70492233Y-139661611D01*
X70701783Y-139521595D01*
X70828621Y-139606345D01*
X71640000Y-139767739D01*
X72451380Y-139606345D01*
X72910000Y-139299905D01*
X73368621Y-139606345D01*
G04 #@! TD*
M02*
